<?xml version="1.0" encoding="UTF-8" standalone="no"?>
<svg width="300px" height="300px" xmlns="http://www.w3.org/2000/svg" xmlns:xlink="http://www.w3.org/1999/xlink" xmlns:serif="http://www.serif.com/"   viewBox="0 0 80 80" xml:space="preserve" style="fill-rule:evenodd;clip-rule:evenodd;stroke-linejoin:round;stroke-miterlimit:2;">
  <rect x="-4.309" y="-2.369" width="87.36" height="84.156" style="fill:#fff;"></rect>
  <path d="M22.865,31.785c-0.068,0 -0.206,-0.069 -0.275,-0.069c-0.069,-0.068 -0.207,-0.068 -0.276,-0.137c-0.206,-0.069 -0.413,-0.138 -0.619,-0.276l-0.207,-0.069c-0.069,-0.069 -0.138,-0.069 -0.276,-0.137l-0.413,-0.207c-0.069,-0.069 -0.207,-0.138 -0.275,-0.138l-0.138,-0.069l-0.069,-0.138l-0.138,-0.068l-0.413,-0.276c-0.069,-0.069 -0.138,-0.138 -0.207,-0.138l-0.344,-0.275l-0.138,-0.207c-0.206,-0.206 -0.344,-0.344 -0.551,-0.551c-0.413,-0.482 -0.826,-0.964 -1.171,-1.584c-0.069,-0.138 -0.138,-0.207 -0.206,-0.344c-0.069,-0.069 -0.069,-0.138 -0.138,-0.207c-0.069,-0.138 -0.138,-0.207 -0.207,-0.344l0.62,-0.345c0.069,0.138 0.069,0.207 0.138,0.345c0.069,0.068 0.069,0.137 0.138,0.206c0.068,0.138 0.137,0.207 0.206,0.276c0.345,0.551 0.689,1.033 1.102,1.446c0.138,0.207 0.345,0.345 0.482,0.482l0.138,0.138l0.345,0.276c0.068,0.068 0.137,0.068 0.137,0.137l0.414,0.276c0.068,0 0.068,0.069 0.137,0.069l0.207,0.206c0.069,0.069 0.138,0.069 0.207,0.138l0.413,0.207c0.069,0.069 0.138,0.069 0.207,0.069l0.206,0.137c0.138,0.069 0.345,0.138 0.551,0.207l0.276,0.069c0.069,0 0.137,0.069 0.275,0.069l0.207,0.069l0.138,0.069c-0.069,0.206 -0.069,0.482 -0.138,0.688l-0.207,-0.069l-0.138,0.069Z" style="fill-rule:nonzero;"></path>
  <path d="M22.865,33.507l-0.275,-0.069l-0.207,-0.068l-0.344,-0.138l-0.276,-0.138c-0.275,-0.069 -0.482,-0.207 -0.757,-0.344l-0.207,-0.138c-0.069,-0.069 -0.207,-0.069 -0.275,-0.138l-0.483,-0.275c-0.137,-0.069 -0.206,-0.138 -0.344,-0.207l-0.138,-0.069l-0.137,0l-0.138,-0.138l-0.482,-0.344c-0.069,-0.069 -0.138,-0.138 -0.276,-0.207l-0.413,-0.344l-0.138,-0.138c-0.207,-0.207 -0.482,-0.413 -0.689,-0.689c-0.482,-0.551 -0.964,-1.171 -1.377,-1.791c-0.069,-0.137 -0.138,-0.275 -0.276,-0.413c-0.069,-0.069 -0.069,-0.138 -0.138,-0.206c-0.068,-0.138 -0.137,-0.276 -0.206,-0.414c-0.069,-0.069 -0.069,-0.137 -0.138,-0.206l0.62,-0.345c0.069,0.069 0.069,0.138 0.138,0.207c0.069,0.138 0.137,0.275 0.206,0.413c0.069,0.069 0.069,0.138 0.138,0.207c0.069,0.138 0.138,0.275 0.207,0.413c0.344,0.62 0.826,1.171 1.308,1.722l0.758,0.758l0.413,0.344c0.069,0.069 0.138,0.138 0.207,0.138l0.482,0.344l0.138,0.069l0.207,0.207c0.068,0.069 0.206,0.138 0.275,0.206l0.482,0.276c0.069,0.069 0.138,0.069 0.207,0.138l0.275,0.137c0.207,0.138 0.483,0.207 0.689,0.276l0.276,0.138l0.344,0.137c0.069,0 0.138,0.069 0.207,0.069l0.275,0.069l0.138,0c0,0.138 -0.069,0.345 -0.069,0.482l0,0.207l-0.207,-0.138Z" style="fill-rule:nonzero;"></path>
  <path d="M22.934,35.16l-0.482,-0.137l-0.482,-0.138c-0.138,-0.069 -0.275,-0.069 -0.413,-0.138c-0.069,-0.069 -0.207,-0.069 -0.276,-0.138c-0.275,-0.137 -0.62,-0.206 -0.895,-0.344l-0.276,-0.138c-0.137,-0.069 -0.206,-0.069 -0.275,-0.138l-0.551,-0.275c-0.138,-0.069 -0.276,-0.138 -0.413,-0.207l-0.138,-0.137l-0.207,-0.069l-0.138,-0.138l-0.551,-0.413c-0.137,-0.069 -0.206,-0.138 -0.275,-0.207l-0.482,-0.413l-0.069,-0.069c-0.276,-0.276 -0.551,-0.551 -0.827,-0.827c-0.551,-0.62 -1.102,-1.308 -1.584,-2.066c-0.069,-0.138 -0.207,-0.344 -0.275,-0.482c-0.069,-0.069 -0.069,-0.138 -0.138,-0.207c-0.069,-0.138 -0.138,-0.344 -0.276,-0.482l0.62,-0.344c0.069,0.137 0.138,0.344 0.207,0.482c0.069,0.069 0.069,0.137 0.138,0.206c0.068,0.138 0.137,0.345 0.275,0.483c0.413,0.688 0.964,1.377 1.515,1.928c0.276,0.276 0.483,0.551 0.758,0.758l0.069,0.069l0.482,0.413c0.069,0.069 0.138,0.138 0.207,0.207l0.482,0.344l0.138,0.069l0.069,0.069l0.206,0.137c0.138,0.069 0.207,0.138 0.345,0.207l0.551,0.276c0.068,0.069 0.137,0.069 0.275,0.137l0.276,0.138c0.275,0.138 0.551,0.276 0.826,0.345c0.069,0.068 0.207,0.068 0.276,0.137c0.137,0.069 0.275,0.069 0.413,0.138l0.482,0.138l0.344,0.069c0.069,0.275 0.069,0.551 0.069,0.757Z" style="fill-rule:nonzero;"></path>
  <path d="M30.236,25.999c-0.414,0 -0.758,0.069 -1.034,0.069l-0.551,0c-0.688,0 -1.377,-0.069 -1.997,-0.137c-0.827,-0.138 -1.653,-0.345 -2.411,-0.62c-0.758,-0.276 -1.515,-0.689 -2.204,-1.171l-0.413,-0.276l-0.069,-0.069l-0.413,-0.275l0.482,-0.551l0.413,0.413l0.344,0.276c0.62,0.413 1.309,0.826 2.067,1.102c0.757,0.275 1.515,0.482 2.273,0.551c0.826,0.137 1.653,0.137 2.41,0.137c0.276,0 0.551,0 0.827,-0.068c0,0.068 0.069,0.206 0.069,0.275l0.138,0.276l0.069,0.068Z" style="fill-rule:nonzero;"></path>
  <path d="M30.924,27.584l-0.275,0l-0.276,0c-0.344,0 -0.757,0.069 -1.102,0.069l-0.62,0c-0.757,0 -1.515,-0.069 -2.273,-0.138c-0.964,-0.138 -1.859,-0.345 -2.755,-0.689c-0.895,-0.344 -1.722,-0.827 -2.548,-1.309l-0.414,-0.344l-0.069,-0.069l-0.619,-0.482l0.482,-0.551l0.62,0.482l0.069,0.069l0.413,0.275c0.757,0.483 1.515,0.965 2.411,1.24c0.826,0.345 1.722,0.551 2.617,0.689c0.895,0.138 1.791,0.207 2.755,0.138c0.344,0 0.689,0 1.102,-0.069l0.276,0c0,0.207 0.069,0.482 0.206,0.689Z" style="fill-rule:nonzero;"></path>
  <path d="M31.338,28.41c0.137,0.207 0.206,0.414 0.344,0.689c-0.207,0.069 -0.344,0.069 -0.551,0.069l-0.276,0.069l-0.275,0c-0.413,0 -0.827,0.069 -1.24,0.069l-0.62,0c-0.826,0 -1.653,-0.069 -2.479,-0.207c-1.034,-0.138 -2.136,-0.413 -3.1,-0.827c-1.033,-0.413 -1.997,-0.895 -2.893,-1.515l-0.482,-0.344c-0.069,-0.069 -0.069,-0.069 -0.138,-0.069l-0.344,-0.276l0.482,-0.551l0.344,0.276l0.069,0.069l0.482,0.344c0.827,0.62 1.791,1.102 2.756,1.447c0.964,0.344 1.928,0.619 2.961,0.757c0.965,0.138 1.998,0.207 3.031,0.138c0.413,0 0.827,-0.069 1.171,-0.069l0.275,0l0.276,-0.069l0.207,0Z" style="fill-rule:nonzero;"></path>
  <path d="M76.04,45.079l-0.138,0.689l-0.964,-0.138l-0.895,-0.207l-0.552,-0.206l-0.068,0c-0.069,0 -0.138,-0.069 -0.207,-0.069l-0.551,-0.207l-0.069,0c-0.069,0 -0.138,-0.069 -0.207,-0.069l-0.482,-0.275c-0.069,-0.069 -0.206,-0.069 -0.275,-0.138l-0.482,-0.344l-0.551,-0.414l-0.551,-0.482l-0.414,-0.413c-0.069,-0.069 -0.137,-0.138 -0.206,-0.207l-0.207,-0.206l-0.069,-0.069c-0.069,-0.069 -0.069,-0.138 -0.138,-0.207l-0.344,-0.413c-0.413,-0.689 -0.758,-1.378 -1.033,-2.135l-0.138,-0.414l0.551,-0.206l0.138,0l0.138,0.482c0.206,0.689 0.551,1.309 0.895,1.928l0.138,0.207c0,0.069 0.069,0.069 0.069,0.069l0.275,0.276c0.069,0.068 0.069,0.137 0.138,0.137l0.895,0.896l0.551,0.413l0.483,0.344c0.068,0.069 0.137,0.069 0.206,0.138l0.551,0.276c0.069,0 0.069,0.069 0.138,0.069l0.069,0.068l0.551,0.207c0.069,0 0.138,0.069 0.138,0.069c0.068,0 0.068,0 0.137,0.069l0.551,0.206l0.896,0.207l1.033,0.069Z" style="fill-rule:nonzero;"></path>
  <path d="M75.558,46.594l-0.138,0.689l-0.758,-0.138l-1.033,-0.206l-0.62,-0.207l-0.137,-0.069c-0.069,0 -0.138,-0.069 -0.207,-0.069l-0.758,-0.206l-0.069,-0.069c-0.068,0 -0.137,-0.069 -0.275,-0.138l-0.62,-0.276c-0.138,-0.068 -0.207,-0.137 -0.276,-0.137l-0.619,-0.345l-0.689,-0.482l-0.138,-0.138c-1.446,-1.239 -2.549,-2.824 -3.1,-4.683c0,-0.069 -0.068,-0.138 -0.068,-0.276l0,-0.138l0.482,-0.137l0.137,-0.069c0,0.069 0,0.138 0.069,0.138l0.069,0.275c0.551,1.653 1.516,3.168 2.893,4.339l0.138,0.138l0.689,0.482l0.62,0.345c0.068,0.069 0.137,0.069 0.206,0.137l0.62,0.345c0.069,0 0.138,0.069 0.207,0.069c0,0 0.069,0 0.138,0.069l0.619,0.275c0.069,0 0.138,0.069 0.207,0.069l0.138,0.069l0.62,0.207l0.964,0.206l0.689,-0.069Z" style="fill-rule:nonzero;"></path>
  <path d="M75.145,48.178l-0.138,0.689l-0.689,-0.137l-1.171,-0.276l-0.758,-0.207l-0.137,-0.069c-0.069,0 -0.207,-0.068 -0.276,-0.068l-0.758,-0.276l-0.137,-0.069c-0.069,-0.069 -0.207,-0.069 -0.276,-0.138l-0.689,-0.344c-0.137,-0.069 -0.206,-0.138 -0.344,-0.207l-0.689,-0.413l-0.826,-0.62l-0.138,-0.138c-1.722,-1.446 -2.962,-3.306 -3.651,-5.441l0.069,-0.138c0,-0.069 0,-0.137 -0.069,-0.137l0.62,-0.207l0.069,0c0,0.069 0.069,0.138 0.069,0.207l0.069,0.137c0.62,1.998 1.791,3.789 3.375,5.097l0.138,0.138l0.757,0.551l0.689,0.413c0.069,0.069 0.207,0.138 0.276,0.138l0.688,0.345c0.069,0.068 0.138,0.068 0.207,0.068l0.138,0.069l0.689,0.276c0.069,0 0.137,0.069 0.206,0.069l0.138,0.069l0.689,0.206l1.102,0.276l0.758,0.137Z" style="fill-rule:nonzero;"></path>
  <path d="M55.445,37.227c-0.069,0.275 -0.206,0.482 -0.275,0.689c-0.689,0 -1.378,-0.138 -2.067,-0.276c-0.551,-0.138 -1.102,-0.276 -1.653,-0.482c0,-0.069 0.069,-0.138 0.069,-0.276l0,-0.137c0,-0.138 0.069,-0.207 0.069,-0.345c0.551,0.207 1.102,0.345 1.653,0.482c0.758,0.276 1.515,0.345 2.204,0.345Z" style="fill-rule:nonzero;"></path>
  <path d="M71.976,34.058c-0.138,0 -0.344,0.069 -0.482,0.069l-0.276,0.069c-0.206,0 -0.344,0.069 -0.482,0.069c-1.722,0.344 -3.375,0.895 -4.959,1.446l-0.551,0.138c-1.446,0.482 -2.893,0.964 -4.27,1.309c0.068,-0.138 0.068,-0.345 0.137,-0.482c0,-0.138 0.069,-0.207 0.069,-0.345c1.24,-0.344 2.549,-0.757 3.857,-1.24l0.551,-0.206c1.585,-0.551 3.238,-1.102 5.029,-1.447c0.137,-0.068 0.344,-0.068 0.551,-0.068l0.275,-0.069c0.207,0 0.345,-0.069 0.551,-0.069l0,0.826Z" style="fill-rule:nonzero;"></path>
  <path d="M72.389,35.643l-0.275,0c-0.138,0 -0.276,0.068 -0.482,0.068l-0.276,0.069c-0.138,0 -0.275,0.069 -0.413,0.069c-1.653,0.345 -3.306,0.896 -4.89,1.378l-0.345,0.206c-1.584,0.551 -3.168,1.034 -4.821,1.447c-0.138,0.069 -0.345,0.069 -0.483,0.138l0.069,-0.138c0.069,-0.207 0.138,-0.413 0.207,-0.62l0.069,0c1.584,-0.413 3.237,-0.896 4.753,-1.447l0.482,-0.137c1.584,-0.551 3.237,-1.102 4.959,-1.447c0.138,0 0.344,-0.069 0.482,-0.069l0.276,-0.069c0.137,0 0.344,-0.068 0.482,-0.068l0.275,0l-0.069,0.62Z" style="fill-rule:nonzero;"></path>
  <path d="M52.966,38.535c0.619,0.138 1.239,0.207 1.859,0.276c-0.069,0.207 -0.206,0.413 -0.275,0.551c0,0.069 -0.069,0.069 -0.069,0.138c-0.551,-0.069 -1.102,-0.138 -1.653,-0.276c-0.62,-0.138 -1.24,-0.344 -1.791,-0.551c0.069,-0.206 0.207,-0.413 0.275,-0.689c0.483,0.276 1.103,0.414 1.654,0.551Z" style="fill-rule:nonzero;"></path>
  <path d="M72.252,37.296l-0.276,0.068l-0.206,0.069c-0.138,0 -0.276,0.069 -0.414,0.069c-1.584,0.345 -3.168,0.827 -4.821,1.378l-0.414,0.138c-1.584,0.551 -3.168,1.033 -4.89,1.515c-0.551,0.138 -1.102,0.275 -1.584,0.344c0.069,-0.137 0.138,-0.206 0.138,-0.344c0.068,-0.138 0.137,-0.276 0.206,-0.413c0.345,-0.069 0.689,-0.138 1.102,-0.276c1.653,-0.413 3.306,-0.964 4.822,-1.446l0.413,-0.138c1.722,-0.551 3.306,-1.102 4.89,-1.447c0.138,0 0.276,-0.068 0.414,-0.068l0.206,-0.069c0.069,0 0.207,0 0.276,-0.069l0.138,0.689Z" style="fill-rule:nonzero;"></path>
  <path d="M53.93,40.326c-0.069,0.138 -0.207,0.276 -0.276,0.345c-0.069,0.069 -0.069,0.137 -0.137,0.206l-0.069,0.069c-0.345,-0.069 -0.689,-0.138 -0.965,-0.206c-0.757,-0.138 -1.515,-0.414 -2.273,-0.689c0.138,-0.207 0.276,-0.413 0.345,-0.62c0.689,0.275 1.309,0.482 2.066,0.62c0.413,0.206 0.896,0.275 1.309,0.275Z" style="fill-rule:nonzero;"></path>
  <path d="M63.366,29.719c-0.275,0.069 -0.551,0.138 -0.895,0.138c0.551,-0.827 1.171,-1.585 1.791,-2.342c0.206,-0.207 0.413,-0.482 0.62,-0.689l0.068,-0.069l0.552,0.482l-0.069,0.069c-0.207,0.207 -0.414,0.482 -0.62,0.689c-0.482,0.551 -0.896,1.102 -1.309,1.653l-0.138,0.069Z" style="fill-rule:nonzero;"></path>
  <path d="M60.06,35.229l0.758,0c0,0.069 -0.069,0.138 -0.069,0.207c-0.069,0.344 -0.207,0.689 -0.276,1.033c-0.137,0.413 -0.206,0.827 -0.344,1.24c-0.207,0.826 -0.551,1.653 -0.827,2.411c-0.344,0.826 -0.757,1.584 -1.239,2.342c-0.207,0.275 -0.414,0.619 -0.62,0.895c-0.276,-0.069 -0.482,-0.138 -0.758,-0.207c0.276,-0.344 0.551,-0.757 0.758,-1.102c0.482,-0.689 0.826,-1.446 1.171,-2.273c0.344,-0.757 0.62,-1.515 0.826,-2.342c0.138,-0.413 0.276,-0.826 0.345,-1.239c0.068,-0.207 0.206,-0.551 0.275,-0.965Z" style="fill-rule:nonzero;"></path>
  <path d="M60.542,29.994c0.345,-0.619 0.689,-1.17 1.033,-1.653c0.483,-0.62 0.965,-1.239 1.516,-1.859c0.206,-0.276 0.482,-0.483 0.689,-0.758c0.068,-0.069 0.206,-0.207 0.275,-0.276l0.551,0.483l-0.275,0.275c-0.207,0.207 -0.483,0.482 -0.689,0.758c-0.482,0.551 -1.033,1.171 -1.447,1.791c-0.275,0.413 -0.551,0.826 -0.826,1.239c-0.276,0.069 -0.551,0.069 -0.827,0Z" style="fill-rule:nonzero;"></path>
  <path d="M58.476,35.091c0.207,0 0.482,0.069 0.689,0.069c-0.069,0.276 -0.207,0.62 -0.276,0.896c-0.344,1.171 -0.689,2.342 -1.171,3.444c-0.344,0.757 -0.689,1.446 -1.102,2.135c-0.275,0.482 -0.62,0.964 -1.033,1.378c-0.276,-0.069 -0.551,-0.069 -0.827,-0.138c0.414,-0.551 0.827,-1.102 1.24,-1.653c0.414,-0.62 0.758,-1.309 1.033,-1.998c0.483,-1.102 0.827,-2.273 1.102,-3.375c0.138,-0.275 0.276,-0.482 0.345,-0.758Z" style="fill-rule:nonzero;"></path>
  <path d="M58.751,29.857l0.138,-0.207c0.413,-0.758 0.896,-1.515 1.378,-2.204c0.482,-0.689 1.033,-1.378 1.584,-1.998c0.275,-0.275 0.482,-0.551 0.758,-0.826l0.551,0.482c-0.276,0.276 -0.483,0.551 -0.758,0.827c-0.551,0.62 -1.102,1.239 -1.584,1.928c-0.482,0.689 -0.896,1.378 -1.309,2.067l-0.275,0c-0.138,-0.069 -0.276,-0.069 -0.483,-0.069Z" style="fill-rule:nonzero;"></path>
  <path d="M56.892,34.747c0.206,0.069 0.482,0.138 0.688,0.138c-0.068,0.206 -0.137,0.482 -0.206,0.689c-0.345,1.171 -0.62,2.273 -1.102,3.306c-0.276,0.689 -0.62,1.309 -0.965,1.86c-0.413,0.619 -0.826,1.171 -1.308,1.722l-0.138,0.206l-0.138,0.138l-0.206,0l-0.207,0l-0.138,0l-0.413,0l0.275,-0.276c0.069,-0.068 0.207,-0.206 0.276,-0.275c0.069,-0.069 0.138,-0.138 0.138,-0.207c0.413,-0.482 0.826,-1.033 1.24,-1.584c0.344,-0.551 0.688,-1.171 0.964,-1.791c0.413,-0.964 0.758,-2.066 1.033,-3.237c0.069,-0.276 0.138,-0.482 0.207,-0.689Z" style="fill-rule:nonzero;"></path>
  <path d="M68.601,28.41c-0.069,0.069 -0.138,0.138 -0.207,0.138c-0.068,0.069 -0.206,0.207 -0.275,0.276l-0.344,0.275l-0.138,0.069c-1.791,1.309 -3.995,2.066 -6.268,2.204l-0.482,0c-0.965,0 -1.929,-0.138 -2.893,-0.344c-0.482,-0.138 -1.033,-0.276 -1.516,-0.483c0.207,-0.206 0.414,-0.344 0.62,-0.551c0.345,0.138 0.689,0.207 1.033,0.276c1.034,0.275 2.136,0.344 3.169,0.275c2.135,-0.068 4.133,-0.757 5.855,-1.997l0.137,-0.069l0.345,-0.275c0.069,-0.069 0.206,-0.138 0.275,-0.207c0.069,-0.069 0.138,-0.138 0.207,-0.138l0.482,0.551Z" style="fill-rule:nonzero;"></path>
  <path d="M69.565,29.719c-0.137,0.138 -0.275,0.275 -0.413,0.344l-0.413,0.345l-0.138,0.137c-2.066,1.516 -4.546,2.411 -7.163,2.48l-0.551,0c-1.102,0 -2.204,-0.138 -3.238,-0.413c-0.895,-0.207 -1.859,-0.551 -2.686,-0.964c0.276,-0.138 0.482,-0.345 0.689,-0.483c0.689,0.276 1.446,0.551 2.135,0.689c1.171,0.276 2.411,0.413 3.582,0.345c2.411,-0.069 4.752,-0.896 6.75,-2.342l0.138,-0.138l0.413,-0.344c0.138,-0.069 0.207,-0.207 0.344,-0.276l0.069,0l0.482,0.62Z" style="fill-rule:nonzero;"></path>
  <path d="M70.53,31.028c-0.069,0.069 -0.207,0.137 -0.276,0.275l-0.482,0.413l-0.138,0.138c-0.551,0.413 -1.171,0.827 -1.859,1.171c-0.276,0.138 -0.62,0.276 -0.896,0.413l-0.069,0.069l-0.069,0c-0.275,0.138 -0.62,0.276 -0.964,0.345c-0.689,0.206 -1.378,0.413 -2.066,0.551c-0.689,0.137 -1.447,0.206 -2.136,0.206l-0.619,0c-2.687,0 -5.304,-0.688 -7.646,-1.928c0.275,-0.138 0.482,-0.276 0.758,-0.414c2.893,1.516 6.268,1.998 9.505,1.447c0.689,-0.138 1.309,-0.276 1.997,-0.551c0.276,-0.069 0.62,-0.207 0.896,-0.345l0.138,-0.068c0.275,-0.138 0.551,-0.276 0.826,-0.414c0.62,-0.344 1.171,-0.688 1.722,-1.102l0.138,-0.137l0.482,-0.345c0.069,-0.069 0.207,-0.138 0.276,-0.207l0.482,0.483Z" style="fill-rule:nonzero;"></path>
  <path d="M39.052,28.41c-0.344,-0.344 -0.62,-0.757 -0.964,-1.102c-0.482,-0.551 -0.896,-1.171 -1.309,-1.791c-0.413,-0.62 -0.758,-1.308 -1.102,-1.997c-0.276,-0.689 -0.551,-1.447 -0.758,-2.204c-0.137,-0.689 -0.275,-1.447 -0.344,-2.204l0,-0.276c0,-0.207 0,-0.344 -0.069,-0.551l0,-0.482l0.689,0l0,0.482c0,0.138 0,0.344 0.069,0.551l0,0.276c0.069,0.688 0.206,1.377 0.344,2.066c0.138,0.689 0.413,1.378 0.689,2.066c0.275,0.689 0.62,1.309 1.033,1.929c0.413,0.551 0.827,1.171 1.24,1.653c0.344,0.413 0.62,0.758 0.964,1.102c0.551,0.62 1.033,1.24 1.516,1.86c0.344,0.482 0.757,1.033 1.033,1.515c0.206,0.276 0.344,0.551 0.551,0.896c-0.207,0.137 -0.414,0.275 -0.62,0.413c-0.207,-0.345 -0.345,-0.62 -0.551,-0.964c-0.276,-0.483 -0.62,-0.965 -1.033,-1.447c-0.276,-0.551 -0.827,-1.171 -1.378,-1.791Z" style="fill-rule:nonzero;"></path>
  <path d="M39.396,26.206c-0.413,-0.482 -0.826,-1.033 -1.171,-1.584c-0.344,-0.551 -0.688,-1.171 -0.964,-1.791c-0.275,-0.62 -0.482,-1.24 -0.689,-1.929c-0.137,-0.619 -0.275,-1.308 -0.344,-1.997l0,-0.276c0,-0.137 0,-0.344 -0.069,-0.482l0,-0.757l0.689,0l0,0.688c0,0.138 0,0.276 0.069,0.483l0,0.275c0.069,0.62 0.138,1.24 0.344,1.86c0.138,0.62 0.345,1.24 0.62,1.791c0.276,0.551 0.551,1.171 0.896,1.653c0.344,0.551 0.757,1.033 1.17,1.515c0.276,0.344 0.62,0.758 0.896,1.102c0.551,0.62 1.102,1.309 1.584,1.929c0.413,0.551 0.758,1.102 1.102,1.653c0.207,0.275 0.345,0.551 0.551,0.895c-0.206,0.138 -0.413,0.207 -0.62,0.345c-0.137,-0.276 -0.344,-0.62 -0.482,-0.896c-0.344,-0.551 -0.689,-1.033 -1.102,-1.584c-0.482,-0.689 -1.033,-1.309 -1.584,-1.929c-0.276,-0.206 -0.62,-0.551 -0.896,-0.964Z" style="fill-rule:nonzero;"></path>
  <path d="M38.708,22.211c-0.207,-0.551 -0.414,-1.102 -0.551,-1.653c-0.138,-0.551 -0.207,-1.171 -0.276,-1.791l0,-0.689l0,-0.344l0.689,0l0,1.033c0.069,0.551 0.138,1.102 0.275,1.653c0.138,0.551 0.276,1.033 0.483,1.516c0.344,0.895 0.964,1.79 1.79,2.824c0.276,0.344 0.551,0.688 0.896,1.033c0.551,0.62 1.102,1.309 1.653,2.066c0.413,0.551 0.826,1.171 1.24,1.791c0.206,0.276 0.413,0.62 0.551,0.964c-0.207,0.138 -0.414,0.207 -0.62,0.345c-0.207,-0.345 -0.345,-0.62 -0.551,-0.896c-0.345,-0.551 -0.758,-1.171 -1.171,-1.722c-0.551,-0.688 -1.102,-1.377 -1.653,-1.997c-0.276,-0.345 -0.62,-0.689 -0.896,-1.033c-0.826,-1.24 -1.446,-2.136 -1.859,-3.1Z" style="fill-rule:nonzero;"></path>
  <path d="M52.552,20.076c-0.069,0.275 -0.206,0.62 -0.344,0.895c-0.551,1.171 -1.378,2.273 -2.48,3.031l0,-0.895c0.758,-0.689 1.378,-1.516 1.791,-2.411c0.138,-0.276 0.207,-0.551 0.345,-0.827l0.688,0.207Z" style="fill-rule:nonzero;"></path>
  <path d="M54.137,20.283c-0.138,0.482 -0.345,0.964 -0.552,1.377c-0.068,0.207 -0.137,0.345 -0.275,0.482c-0.069,0.069 -0.069,0.138 -0.138,0.207l-0.138,0.207c-0.068,0.137 -0.206,0.344 -0.275,0.482c-0.276,0.482 -0.62,0.895 -1.033,1.24l-0.276,0.275c-0.069,0.069 -0.138,0.138 -0.206,0.207l-0.069,0.069l-0.138,0.206c-0.069,0.069 -0.069,0.069 -0.138,0.069l-0.344,0.276l-0.413,0.275l-0.138,0.069l-0.138,0.069c-0.069,-0.276 -0.069,-0.482 -0.069,-0.758l0.345,-0.206l0.344,-0.276l0.069,-0.069l0.138,-0.138l0.137,-0.068c0.069,-0.069 0.138,-0.069 0.207,-0.138l0.275,-0.276c0.345,-0.344 0.689,-0.757 0.965,-1.171c0.069,-0.137 0.206,-0.275 0.275,-0.413c0.069,-0.069 0.069,-0.138 0.138,-0.207c0.069,-0.068 0.069,-0.137 0.138,-0.206c0.069,-0.138 0.138,-0.276 0.206,-0.482c0.207,-0.414 0.345,-0.827 0.483,-1.309l0.62,0.207Z" style="fill-rule:nonzero;"></path>
  <path d="M55.583,21.109c-0.138,0.413 -0.276,0.827 -0.482,1.24c-0.069,0.207 -0.207,0.413 -0.276,0.62l-0.137,0.206l-0.138,0.207c-0.138,0.207 -0.207,0.413 -0.345,0.62c-0.344,0.551 -0.757,1.033 -1.239,1.515l-0.345,0.345c-0.069,0.069 -0.206,0.137 -0.275,0.206l-0.138,0.069l-0.207,0.138c-0.069,0.069 -0.069,0.069 -0.137,0.138l-0.414,0.344l-0.482,0.276c-0.069,0 -0.069,0.069 -0.138,0.069l-0.344,0.137l-0.276,0.138c-0.068,-0.275 -0.137,-0.482 -0.206,-0.689l0.138,-0.069l0.275,-0.137l0.138,-0.069l0.482,-0.276l0.413,-0.344c0.069,0 0.069,-0.069 0.138,-0.069l0.207,-0.138l0.137,-0.069c0.069,-0.069 0.138,-0.137 0.207,-0.206l0.344,-0.345c0.414,-0.413 0.827,-0.895 1.171,-1.377c0.138,-0.138 0.207,-0.345 0.345,-0.551l0.138,-0.207c0.068,-0.069 0.068,-0.138 0.137,-0.207c0.138,-0.206 0.207,-0.413 0.276,-0.551c0.069,-0.413 0.206,-0.826 0.344,-1.171l0.689,0.207Z" style="fill-rule:nonzero;"></path>
  <path d="M5.921,39.775c-0.137,-0.069 -0.344,-0.137 -0.482,-0.206l-0.275,-0.069l0.275,-0.689l0.207,0.069c0.206,0.069 0.344,0.138 0.551,0.206l0.413,0.207c0.138,0.069 0.207,0.069 0.344,0.138l0.414,0.275c0.137,0.069 0.206,0.138 0.344,0.207l0.138,0.069l0.207,0.069l0.206,0.138l0.138,0.068c0.069,0.069 0.207,0.138 0.275,0.207c0.551,0.413 1.102,0.895 1.585,1.447c0.482,0.551 0.895,1.102 1.239,1.79c0.345,0.62 0.62,1.24 0.827,1.86c-0.275,-0.069 -0.551,-0.138 -0.827,-0.207c-0.206,-0.413 -0.413,-0.895 -0.619,-1.308c-0.345,-0.551 -0.758,-1.102 -1.171,-1.653c-0.483,-0.482 -0.965,-0.965 -1.516,-1.378c-0.069,-0.069 -0.206,-0.138 -0.275,-0.207l-0.138,-0.068l-0.207,-0.138l-0.206,-0.138c-0.069,-0.069 -0.207,-0.138 -0.276,-0.138l-0.413,-0.206c-0.069,-0.069 -0.207,-0.069 -0.276,-0.138l-0.482,-0.207Z" style="fill-rule:nonzero;"></path>
  <path d="M5.508,41.359c-0.069,0 -0.138,-0.068 -0.276,-0.068c-0.137,-0.069 -0.275,-0.138 -0.413,-0.138l-0.206,-0.138l0.275,-0.689l0.207,0.069c0.137,0.069 0.275,0.138 0.413,0.138l0.207,0.069c0.137,0.069 0.275,0.138 0.413,0.206c0.551,0.276 1.033,0.551 1.515,0.965c0.482,0.344 0.965,0.757 1.378,1.24c0.413,0.482 0.757,0.964 1.033,1.515c0.138,0.207 0.207,0.413 0.276,0.62l-0.276,-0.069c-0.207,-0.069 -0.413,-0.069 -0.62,-0.138l0,-0.069c-0.275,-0.482 -0.62,-0.964 -0.964,-1.377c-0.345,-0.414 -0.758,-0.827 -1.24,-1.102c-0.482,-0.345 -0.964,-0.62 -1.446,-0.896c0,0 -0.138,-0.069 -0.276,-0.138Z" style="fill-rule:nonzero;"></path>
  <path d="M5.232,43.013c-0.068,-0.069 -0.137,-0.069 -0.206,-0.138l-0.345,-0.138l0.276,-0.62l0.344,0.138c0.069,0.069 0.138,0.069 0.276,0.138l0.344,0.137c0.069,0.069 0.138,0.069 0.207,0.138l0.275,0.138l0.138,0.138l0.138,0.069c0.069,0.068 0.138,0.068 0.207,0.137c0.413,0.276 0.757,0.62 1.102,1.034c0.206,0.206 0.344,0.413 0.482,0.619c-0.138,0 -0.276,-0.068 -0.482,-0.068c-0.207,0 -0.345,-0.069 -0.551,-0.069c-0.276,-0.345 -0.62,-0.62 -0.965,-0.896c-0.137,-0.069 -0.206,-0.138 -0.206,-0.138l-0.138,-0.068l-0.138,-0.138l-0.138,-0.069c-0.068,0 -0.068,-0.069 -0.137,-0.069c-0.069,-0.069 -0.138,-0.069 -0.207,-0.069l-0.276,-0.206Z" style="fill-rule:nonzero;"></path>
  <path d="M20.386,42.324c0.138,0 0.344,-0.069 0.482,-0.069c-0.758,0.964 -1.378,2.273 -2.066,3.582l-0.069,0.206c-0.758,1.447 -1.516,3.031 -2.687,4.477c-0.619,0.758 -1.308,1.447 -2.066,2.067c-0.758,0.62 -1.653,1.171 -2.548,1.515c-0.896,0.344 -1.86,0.62 -2.824,0.758l-0.689,0.069l-0.138,0l-0.276,0l-0.551,0l-0.482,0l-1.033,0l-0.413,0l0.069,-0.689l2.824,0l0.689,-0.069c0.895,-0.138 1.79,-0.413 2.617,-0.689c0.895,-0.344 1.653,-0.826 2.411,-1.446c0.689,-0.551 1.377,-1.24 1.928,-1.929c1.102,-1.377 1.86,-2.893 2.618,-4.339l0.069,-0.207c0.551,-1.102 1.102,-2.204 1.722,-3.099c0.068,-0.138 0.275,-0.138 0.413,-0.138Z" style="fill-rule:nonzero;"></path>
  <path d="M17.906,42.462l0.827,0c-0.138,0.206 -0.207,0.344 -0.345,0.551c-0.344,0.619 -0.688,1.308 -1.033,1.997l-0.069,0.138c-0.688,1.377 -1.515,2.893 -2.548,4.27c-0.551,0.689 -1.102,1.24 -1.791,1.791c-0.689,0.551 -1.378,0.964 -2.204,1.309c-0.758,0.275 -1.584,0.551 -2.411,0.62l-0.62,0.138l-0.138,0l-0.206,0l-0.896,0.068l-0.964,0l-1.102,-0.068l0.069,-0.689l3.168,0l0.62,-0.069c0.758,-0.138 1.515,-0.345 2.273,-0.62c0.689,-0.276 1.378,-0.689 1.998,-1.171c0.62,-0.482 1.171,-1.033 1.653,-1.722c1.033,-1.309 1.791,-2.824 2.479,-4.133l0.069,-0.137c0.345,-0.689 0.689,-1.378 1.102,-1.998c0,-0.138 0,-0.207 0.069,-0.275Z" style="fill-rule:nonzero;"></path>
  <path d="M16.322,42.393c0.207,0 0.344,0 0.551,0.069c-0.344,0.619 -0.62,1.239 -0.964,1.79l-0.069,0.207c-0.758,1.515 -1.447,2.893 -2.342,3.995c-0.964,1.24 -2.066,2.066 -3.306,2.617c-0.689,0.276 -1.378,0.414 -2.067,0.551l-0.551,0.069l-0.069,0l-0.206,0l-0.827,0l-0.895,0l-0.964,-0.069l0.068,-0.688l0.965,0.069l1.928,0l0.483,-0.138c0.619,-0.069 1.308,-0.276 1.859,-0.482c1.102,-0.483 2.136,-1.24 3.031,-2.342c0.826,-1.102 1.515,-2.411 2.273,-3.857l0.069,-0.207c0.275,-0.482 0.551,-1.033 0.826,-1.584l0.207,0Z" style="fill-rule:nonzero;"></path>
  <path d="M15.564,33.37c-0.964,-1.171 -2.135,-2.273 -3.444,-3.169c-0.344,-0.207 -0.688,-0.482 -1.033,-0.689l0.345,-0.62c0.344,0.207 0.757,0.414 1.102,0.689c1.308,0.964 2.479,1.998 3.581,3.237c0.551,0.62 1.034,1.309 1.447,1.998c0.482,0.758 0.826,1.515 1.102,2.342l-0.758,0c-0.275,-0.689 -0.551,-1.378 -0.964,-1.998c-0.413,-0.551 -0.896,-1.239 -1.378,-1.79Z" style="fill-rule:nonzero;"></path>
  <path d="M14.325,34.403c-0.896,-1.102 -1.929,-2.067 -3.1,-2.824c-0.413,-0.276 -0.758,-0.482 -1.171,-0.758l0.344,-0.62c0.414,0.207 0.827,0.482 1.24,0.758c1.171,0.826 2.273,1.859 3.238,2.962c0.482,0.551 0.895,1.17 1.308,1.79c0.276,0.483 0.551,0.965 0.758,1.516l-0.069,0c-0.275,0 -0.482,-0.069 -0.758,-0.138c-0.137,-0.344 -0.344,-0.689 -0.551,-1.033c-0.413,-0.551 -0.826,-1.171 -1.239,-1.653Z" style="fill-rule:nonzero;"></path>
  <path d="M13.085,35.436c-0.827,-0.964 -1.722,-1.86 -2.755,-2.549c-0.345,-0.206 -0.689,-0.482 -1.034,-0.62l0.345,-0.619c0.413,0.206 0.757,0.413 1.102,0.688c1.102,0.758 2.066,1.653 2.893,2.687c0.413,0.482 0.826,1.033 1.171,1.584c0.069,0.069 0.137,0.206 0.137,0.275c-0.068,0 -0.206,-0.069 -0.275,-0.069l-0.482,-0.206c-0.069,0 -0.138,-0.069 -0.207,-0.138l-0.069,0c-0.344,-0.344 -0.551,-0.689 -0.826,-1.033Z" style="fill-rule:nonzero;"></path>
  <path d="M57.443,22.762l-0.069,0.207c-0.069,0.275 -0.207,0.551 -0.345,0.826c-0.344,0.827 -0.826,1.585 -1.377,2.204c-0.551,0.689 -1.24,1.309 -1.929,1.791c-1.446,1.034 -3.099,1.86 -4.959,2.687l-0.207,0.137c-0.826,0.345 -1.653,0.758 -2.479,1.171c-0.965,0.482 -1.86,1.033 -2.687,1.585c-0.895,0.619 -1.722,1.377 -2.41,2.273l-0.069,0.068c-0.069,-0.206 -0.138,-0.413 -0.207,-0.688c0,-0.069 0,-0.069 -0.069,-0.138c0.689,-0.758 1.447,-1.515 2.342,-2.067c0.896,-0.619 1.86,-1.17 2.824,-1.653c0.827,-0.413 1.722,-0.826 2.549,-1.171l0.206,-0.137c1.86,-0.827 3.513,-1.585 4.822,-2.618c0.689,-0.482 1.309,-1.033 1.791,-1.722c0.551,-0.62 0.964,-1.308 1.24,-2.066c0.137,-0.276 0.206,-0.482 0.275,-0.758l0.069,-0.206l0.689,0.275Z" style="fill-rule:nonzero;"></path>
  <path d="M59.027,23.107c-0.069,0.068 -0.069,0.206 -0.069,0.275c-0.138,0.344 -0.275,0.689 -0.413,1.033c-0.414,0.965 -0.965,1.791 -1.584,2.618c-0.689,0.757 -1.378,1.446 -2.205,2.066c-1.653,1.24 -3.581,2.135 -5.303,2.893l-0.345,0.138c-1.653,0.757 -3.375,1.515 -4.821,2.617c-0.758,0.551 -1.516,1.171 -2.135,1.929c-0.276,0.344 -0.483,0.62 -0.689,1.033c-0.069,-0.345 -0.138,-0.62 -0.276,-0.896c0.138,-0.206 0.276,-0.344 0.414,-0.551c0.619,-0.826 1.377,-1.515 2.273,-2.066c1.515,-1.102 3.237,-1.86 4.959,-2.686l0.344,-0.138c1.653,-0.758 3.513,-1.584 5.166,-2.824c0.758,-0.551 1.515,-1.24 2.135,-1.929c0.62,-0.757 1.102,-1.584 1.516,-2.41c0.137,-0.276 0.275,-0.62 0.344,-0.896c0,-0.069 0.069,-0.206 0.138,-0.275l0.551,0.069Z" style="fill-rule:nonzero;"></path>
  <path d="M60.611,23.52c-0.069,0.138 -0.069,0.275 -0.138,0.344c-0.137,0.414 -0.275,0.827 -0.482,1.171c-0.482,1.102 -1.102,2.067 -1.86,2.962c-0.757,0.895 -1.584,1.653 -2.548,2.342c-0.895,0.62 -1.791,1.24 -2.755,1.722c-0.896,0.482 -1.791,0.895 -2.686,1.309l-0.276,0.137c-1.722,0.827 -3.375,1.516 -4.753,2.549c-0.688,0.482 -1.239,1.033 -1.79,1.653c-0.552,0.689 -0.965,1.377 -1.447,2.686c-0.069,-0.482 -0.138,-0.895 -0.207,-1.377c0.276,-0.62 0.689,-1.24 1.102,-1.791c0.552,-0.689 1.24,-1.309 1.929,-1.791c1.447,-1.033 3.1,-1.791 4.891,-2.549l0.275,-0.137c0.827,-0.414 1.722,-0.827 2.617,-1.24c0.965,-0.482 1.86,-1.033 2.687,-1.653c0.895,-0.62 1.722,-1.378 2.41,-2.204c0.689,-0.827 1.309,-1.791 1.722,-2.824c0.138,-0.345 0.345,-0.758 0.414,-1.103c0.069,-0.137 0.069,-0.275 0.137,-0.413l0.758,0.207Z" style="fill-rule:nonzero;"></path>
  <path d="M71.632,42.806c0.344,-0.069 0.62,-0.207 0.964,-0.276c0.482,-0.137 0.964,-0.206 1.378,-0.344c0.344,-0.069 0.688,-0.138 1.033,-0.138l0.069,0.689c-0.276,0 -0.62,0.069 -0.965,0.138c-0.413,0.069 -0.895,0.206 -1.308,0.275l-0.276,0.069l-0.138,-0.069l-0.275,-0.137c-0.138,-0.069 -0.207,-0.138 -0.344,-0.207l-0.138,0Z" style="fill-rule:nonzero;"></path>
  <path d="M66.81,45.492c-0.206,0.069 -0.413,0.207 -0.62,0.345c-0.551,0.344 -1.102,0.62 -1.515,0.895l-0.069,-0.069l-0.62,-0.275c0.62,-0.414 1.24,-0.827 1.86,-1.171c0.138,-0.069 0.275,-0.138 0.413,-0.207c0.069,0.069 0.138,0.138 0.207,0.276l0.344,0.206Z" style="fill-rule:nonzero;"></path>
  <path d="M65.708,44.252l-0.275,0.138c-0.827,0.413 -1.585,0.896 -2.342,1.515c-0.207,-0.137 -0.482,-0.275 -0.689,-0.344l0.069,-0.069c0.826,-0.62 1.653,-1.171 2.548,-1.653l0.276,-0.138l0.069,0.069l0.069,0.138l0.275,0.344Z" style="fill-rule:nonzero;"></path>
  <path d="M70.254,41.566c0.138,-0.069 0.276,-0.069 0.413,-0.138c0.483,-0.137 0.965,-0.275 1.447,-0.413c0.551,-0.138 1.033,-0.275 1.515,-0.344c0.482,-0.069 0.965,-0.138 1.447,-0.207l0.069,0.689c-0.483,0.069 -0.896,0.069 -1.378,0.206c-0.482,0.069 -0.964,0.207 -1.446,0.345c-0.483,0.138 -0.965,0.275 -1.447,0.413l-0.138,0.069l-0.413,-0.413c0,-0.138 0,-0.138 -0.069,-0.207Z" style="fill-rule:nonzero;"></path>
  <path d="M69.359,40.12c0.275,-0.069 0.551,-0.207 0.826,-0.276c0.551,-0.138 1.033,-0.344 1.516,-0.413c0.551,-0.138 1.102,-0.276 1.584,-0.345c0.482,-0.068 0.895,-0.137 1.309,-0.206l0.068,0.689c-0.413,0.069 -0.757,0.069 -1.239,0.206c-0.483,0.069 -1.034,0.207 -1.585,0.345c-0.482,0.137 -1.033,0.275 -1.515,0.413c-0.207,0.069 -0.482,0.138 -0.689,0.207l0,-0.069l-0.275,-0.551Z" style="fill-rule:nonzero;"></path>
  <path d="M64.882,42.875l-0.207,0.138c-0.964,0.482 -1.86,1.102 -2.686,1.79c-0.138,0.138 -0.276,0.207 -0.414,0.345c-0.206,-0.138 -0.482,-0.207 -0.688,-0.345c0.206,-0.206 0.413,-0.413 0.62,-0.551c0.895,-0.688 1.859,-1.308 2.824,-1.859l0.206,-0.138l0.138,0.344l0.207,0.276Z" style="fill-rule:nonzero;"></path>
  <path d="M26.86,20.765l-0.137,-0.276l0.62,-0.344l0.137,0.275c0.069,0.069 0.069,0.207 0.138,0.276c0,0 0,0.069 0.069,0.069l0.138,0.413c0.413,1.102 0.689,2.273 0.757,3.444l0,0.069l-0.688,0c-0.069,-1.102 -0.345,-2.204 -0.758,-3.238l-0.138,-0.413c0,0 0,-0.069 -0.069,-0.138c0,0 0,-0.068 -0.069,-0.137Z" style="fill-rule:nonzero;"></path>
  <path d="M27.618,33.921c-0.275,2.066 -0.275,3.788 0.069,5.234c0.276,1.447 0.964,2.824 1.997,4.202l-0.068,0l-0.138,0l-0.482,0l-0.207,0c-0.895,-1.24 -1.515,-2.549 -1.791,-4.064c-0.344,-1.584 -0.344,-3.306 -0.069,-5.51c0.138,-0.827 0.276,-1.584 0.414,-2.411c0.068,-0.482 0.137,-0.964 0.275,-1.515l0.758,0c-0.069,0.551 -0.207,1.033 -0.276,1.584c-0.206,0.895 -0.344,1.722 -0.482,2.48Z" style="fill-rule:nonzero;"></path>
  <path d="M25.414,21.453l-0.207,-0.413l0.62,-0.344l0.207,0.413c0.069,0.069 0.069,0.207 0.138,0.276l0.069,0.068l0.137,0.345c0.345,0.895 0.551,1.86 0.62,2.824l-0.138,0l-0.206,0l-0.345,-0.069c-0.137,-0.895 -0.344,-1.722 -0.619,-2.48l-0.138,-0.344c0,0 0,-0.069 -0.069,-0.069c0,-0.069 -0.069,-0.138 -0.069,-0.207Z" style="fill-rule:nonzero;"></path>
  <path d="M25.827,36.607c0,0.964 0.069,1.928 0.276,2.893c0.344,1.377 0.895,2.755 1.653,3.926l-0.138,0c-0.138,0 -0.275,0.069 -0.413,0.069l-0.069,0l-0.138,0c-0.757,-1.171 -1.308,-2.549 -1.584,-3.926c-0.207,-0.965 -0.344,-1.998 -0.344,-3.031c0,-1.033 0.068,-1.998 0.206,-3.031c0.138,-0.826 0.276,-1.722 0.414,-2.548c0.068,-0.414 0.137,-0.896 0.206,-1.309l0.138,0c0.207,0 0.413,0.069 0.62,0.069c-0.069,0.482 -0.138,0.895 -0.207,1.378c-0.138,0.826 -0.275,1.653 -0.413,2.479c-0.138,1.102 -0.207,2.067 -0.207,3.031Z" style="fill-rule:nonzero;"></path>
  <path d="M26.034,43.632l0.069,0.138c-0.276,0.069 -0.482,0.138 -0.689,0.207l-0.138,-0.138c-0.138,-0.207 -0.206,-0.344 -0.275,-0.551c-0.551,-1.033 -0.896,-2.135 -1.171,-3.237c-0.207,-1.102 -0.345,-2.273 -0.345,-3.375c0,-1.102 0.069,-2.136 0.207,-3.238c0.138,-0.895 0.276,-1.79 0.413,-2.617c0.069,-0.482 0.138,-0.895 0.207,-1.378c0.207,0.069 0.344,0.069 0.551,0.138l0.138,0c-0.069,0.413 -0.138,0.896 -0.207,1.309c-0.138,0.826 -0.275,1.722 -0.413,2.617c-0.138,1.033 -0.207,2.067 -0.207,3.169c0,1.102 0.138,2.135 0.345,3.237c0.206,1.102 0.619,2.135 1.102,3.1c0.069,0.137 0.137,0.344 0.275,0.482l0.138,0.137Z" style="fill-rule:nonzero;"></path>
  <path d="M23.968,22.142l-0.276,-0.551l0.62,-0.344l0.275,0.551c0.069,0.069 0.069,0.138 0.138,0.207l0,0.068l0.138,0.276c0.207,0.62 0.344,1.309 0.482,1.929l-0.275,-0.069c-0.138,-0.069 -0.276,-0.069 -0.345,-0.138l-0.138,-0.069c-0.068,-0.482 -0.206,-0.895 -0.413,-1.378l-0.138,-0.275c0,0 0,-0.069 -0.068,-0.069l0,-0.138Z" style="fill-rule:nonzero;"></path>
  <path d="M32.715,20.076c-0.069,-0.276 -0.069,-0.62 -0.138,-0.896c0,-0.137 0,-0.275 -0.068,-0.413l0.688,-0.069c0,0.138 0,0.276 0.069,0.414c0,0.275 0.069,0.619 0.138,0.895c0.207,1.584 0.62,3.1 1.171,4.615c0.275,0.689 0.551,1.377 0.895,1.997c-0.206,0.138 -0.344,0.276 -0.551,0.483c-0.344,-0.689 -0.688,-1.447 -1.033,-2.205c-0.551,-1.584 -0.964,-3.168 -1.171,-4.821Z" style="fill-rule:nonzero;"></path>
  <path d="M31.131,20.351c-0.069,-0.344 -0.069,-0.688 -0.138,-0.964c0,-0.138 0,-0.275 -0.069,-0.413l0.689,-0.069c0,0.138 0,0.275 0.069,0.482c0,0.344 0.069,0.62 0.138,0.964c0.206,1.722 0.689,3.375 1.308,4.96c0.345,0.826 0.689,1.653 1.103,2.41c-0.207,0.138 -0.414,0.276 -0.552,0.483c-0.482,-0.827 -0.895,-1.722 -1.239,-2.618c-0.62,-1.791 -1.102,-3.513 -1.309,-5.235Z" style="fill-rule:nonzero;"></path>
  <path d="M29.478,20.558c0,-0.344 -0.069,-0.758 -0.138,-1.102l0,-0.207l0.689,-0.069l0,0.207c0,0.344 0.069,0.689 0.138,1.033c0.275,1.86 0.688,3.651 1.377,5.304c0.414,0.964 0.827,1.929 1.378,2.893c-0.207,0.138 -0.345,0.344 -0.551,0.482c-0.551,-1.033 -1.033,-2.066 -1.447,-3.1c-0.688,-1.721 -1.171,-3.581 -1.446,-5.441Z" style="fill-rule:nonzero;"></path>
  <path d="M40.361,22.487c-0.138,-0.276 -0.345,-0.551 -0.414,-0.896c0,-0.138 0.069,-0.275 0.069,-0.413l0,-0.138l0,-0.069l0.069,-0.551l0,-0.275l0,-0.551l0,-0.62l0,-0.138l0,-0.207l-0.069,-0.964l0.689,-0.069l0.069,0.965l0,1.79l-0.069,0.551l0,0.069c0,0.069 0,0.138 -0.069,0.207c0,0.62 -0.069,0.964 -0.275,1.309Z" style="fill-rule:nonzero;"></path>
  <path d="M30.029,35.436c-0.207,0 -0.482,-0.069 -0.758,-0.069c0.207,-0.827 0.482,-1.653 0.896,-2.411c0.482,-0.964 1.171,-1.859 1.928,-2.617c0.689,-0.689 1.447,-1.378 2.204,-1.998c0.276,-0.206 0.551,-0.413 0.827,-0.62c0.413,-0.344 0.826,-0.688 1.24,-1.033c0.138,-0.137 0.275,-0.206 0.344,-0.275c0.138,0.206 0.276,0.413 0.413,0.551c-0.137,0.069 -0.206,0.206 -0.344,0.275c-0.413,0.345 -0.827,0.689 -1.24,1.033c-0.275,0.207 -0.551,0.414 -0.826,0.62c-0.758,0.62 -1.447,1.24 -2.136,1.929c-0.688,0.758 -1.308,1.584 -1.79,2.48c-0.345,0.688 -0.62,1.377 -0.758,2.135Z" style="fill-rule:nonzero;"></path>
  <path d="M40.981,23.52c0.275,-0.62 0.482,-1.309 0.62,-1.929l0,-0.206l0,-0.138l0.068,-0.62l0,-0.344l0,-0.62l0,-0.689l0,-0.207l0,-0.206l0.138,-0.62l0.689,-0.069l0.069,0.62l0,2.135l-0.069,0.689l0,0.069c0,0.068 0,0.206 -0.069,0.275c-0.138,0.827 -0.413,1.653 -0.826,2.411c-0.276,-0.138 -0.483,-0.413 -0.62,-0.551Z" style="fill-rule:nonzero;"></path>
  <path d="M31.406,35.643c-0.137,-0.069 -0.344,-0.069 -0.482,-0.138c0.138,-0.62 0.414,-1.24 0.689,-1.791c0.413,-0.827 0.964,-1.584 1.653,-2.273c0.896,-0.896 1.86,-1.722 2.824,-2.48c0.414,-0.344 0.896,-0.689 1.309,-1.033c0.138,-0.069 0.207,-0.207 0.275,-0.275c0.138,0.206 0.345,0.344 0.483,0.551c-0.069,0.068 -0.207,0.206 -0.276,0.275c-0.413,0.345 -0.895,0.689 -1.309,1.033c-0.964,0.758 -1.928,1.516 -2.755,2.411c-0.62,0.62 -1.102,1.309 -1.515,2.066c-0.276,0.483 -0.482,1.034 -0.62,1.654l-0.276,0Z" style="fill-rule:nonzero;"></path>
  <path d="M42.152,24.897c0,-0.068 0.068,-0.137 0.068,-0.137c0.483,-0.896 0.827,-1.86 0.965,-2.893c0,-0.069 0,-0.138 0.069,-0.207l0,-0.138l0.137,-0.757l0,-0.345l0,-0.689l0,-0.964l0,-0.275l0,-0.414l0.689,-0.068l0,2.755l-0.138,0.826l0,0.138c0,0.069 0,0.207 -0.068,0.276c-0.207,1.033 -0.551,2.066 -1.034,3.03c-0.069,0.138 -0.137,0.276 -0.206,0.413l-0.069,-0.068l-0.413,-0.483Z" style="fill-rule:nonzero;"></path>
  <path d="M32.784,36.125c-0.138,-0.069 -0.275,-0.069 -0.344,-0.138c0.137,-0.482 0.344,-1.033 0.551,-1.447c0.344,-0.688 0.826,-1.308 1.377,-1.859c0.758,-0.827 1.722,-1.516 2.687,-2.342c0.413,-0.345 0.895,-0.689 1.377,-1.102l0.276,-0.276l0.482,0.551c-0.069,0.069 -0.207,0.207 -0.345,0.276c-0.482,0.413 -0.895,0.757 -1.377,1.102c-0.964,0.758 -1.86,1.515 -2.618,2.273c-0.482,0.482 -0.964,1.102 -1.239,1.722c-0.207,0.413 -0.414,0.895 -0.551,1.377c0,-0.068 -0.138,-0.137 -0.276,-0.137Z" style="fill-rule:nonzero;"></path>
  <path d="M13.222,46.525l-0.137,0.138c-0.069,0.138 -0.138,0.276 -0.207,0.345l-0.069,0.068c-0.826,-0.206 -1.653,-0.413 -2.479,-0.619c-0.965,-0.207 -1.86,-0.414 -2.825,-0.483c-0.964,-0.069 -1.997,-0.137 -2.961,0c-0.345,0 -0.689,0.069 -1.033,0.138l-0.138,-0.689c0.344,-0.069 0.757,-0.137 1.102,-0.137c1.033,-0.069 2.066,-0.069 3.099,0c0.965,0.068 1.998,0.275 2.962,0.482c0.896,0.206 1.791,0.413 2.618,0.689l0.068,0.068Z" style="fill-rule:nonzero;"></path>
  <path d="M22.797,46.457c-0.758,0.344 -1.653,0.688 -2.48,0.964c-0.62,0.206 -1.24,0.344 -1.929,0.482c0.069,-0.069 0.069,-0.207 0.138,-0.276c0.069,-0.206 0.207,-0.344 0.276,-0.551c0.344,-0.068 0.757,-0.206 1.239,-0.344c0.827,-0.275 1.654,-0.62 2.411,-0.964l0.138,-0.069c0.827,-0.345 1.653,-0.689 2.548,-1.033c1.034,-0.345 2.067,-0.62 3.1,-0.689l0.827,-0.069l0.895,0c0.551,0.069 1.171,0.138 1.722,0.276c1.102,0.275 2.066,0.757 2.893,1.515c0.069,0.413 0.207,0.758 0.275,1.24c-0.068,-0.069 -0.206,-0.207 -0.275,-0.276c-0.964,-0.895 -1.791,-1.446 -3.031,-1.791c-0.551,-0.137 -1.033,-0.206 -1.584,-0.275l-0.758,0l-0.826,0.069c-1.033,0.137 -1.998,0.344 -2.962,0.688c-0.895,0.276 -1.722,0.62 -2.549,0.965l-0.068,0.138Z" style="fill-rule:nonzero;"></path>
  <path d="M10.123,47.352c0.689,0.138 1.377,0.344 2.066,0.551c-0.206,0.207 -0.344,0.413 -0.551,0.62c-0.551,-0.138 -1.102,-0.276 -1.722,-0.413c-2.066,-0.483 -3.788,-0.62 -5.303,-0.483c-0.414,0.069 -0.827,0.138 -1.24,0.207l-0.138,-0.689c0.413,-0.069 0.895,-0.137 1.309,-0.206c1.653,-0.207 3.375,-0.069 5.579,0.413Z" style="fill-rule:nonzero;"></path>
  <path d="M35.126,48.73c0.069,0.482 0.138,1.033 0.138,1.515c0,-0.069 -0.069,-0.138 -0.069,-0.207c-1.171,-2.342 -2.755,-3.237 -4.064,-3.513c-0.827,-0.206 -1.722,-0.275 -2.617,-0.206c-0.896,0.069 -1.722,0.275 -2.549,0.62c-0.827,0.275 -1.653,0.62 -2.411,0.964c-0.895,0.344 -1.791,0.758 -2.686,1.033c-0.895,0.276 -1.791,0.551 -2.755,0.62l-0.345,0l-0.344,0l0.069,-0.138c0.069,-0.069 0.069,-0.137 0.138,-0.206c0.069,-0.138 0.137,-0.207 0.206,-0.345l0.138,0c0.896,-0.069 1.722,-0.275 2.549,-0.62c0.895,-0.275 1.79,-0.688 2.617,-1.033c0.827,-0.344 1.653,-0.689 2.48,-0.964c0.895,-0.345 1.79,-0.551 2.755,-0.62c0.964,-0.069 1.928,0 2.824,0.207c1.722,0.413 2.893,1.308 3.926,2.893Z" style="fill-rule:nonzero;"></path>
  <path d="M4.75,48.523c1.447,-0.138 3.031,0 5.028,0.413c0.345,0.069 0.689,0.138 1.034,0.276l-0.138,0.137c-0.207,0.138 -0.482,0.276 -0.758,0.414l-0.275,-0.069c-1.929,-0.413 -3.444,-0.551 -4.822,-0.413c-0.413,0.068 -0.757,0.137 -1.171,0.206l-0.137,-0.689c0.413,-0.137 0.826,-0.275 1.239,-0.275Z" style="fill-rule:nonzero;"></path>
  <path d="M29.202,47.214c3.513,0 5.924,2.549 5.924,7.164l0,7.507l-0.689,0l0,-7.576c0,-4.133 -2.204,-6.406 -5.235,-6.406l-0.551,0c-0.757,0.069 -1.515,0.275 -2.204,0.551c-0.757,0.276 -1.446,0.551 -2.273,0.895c-0.895,0.414 -1.86,0.758 -2.893,1.102c-0.413,0.138 -0.895,0.276 -1.515,0.414l-0.689,0.206l-0.758,0.138l-0.413,0l-0.413,0l-0.138,0l-0.275,0l-0.138,0l-0.689,0c0.069,-0.138 0.207,-0.206 0.276,-0.344l0.275,-0.345l1.309,0l0.758,-0.137l0.757,-0.138c0.551,-0.138 1.033,-0.276 1.447,-0.413c0.964,-0.345 1.928,-0.689 2.824,-1.102c0.826,-0.345 1.515,-0.62 2.273,-0.896c0.757,-0.275 1.584,-0.482 2.342,-0.551c0.275,-0.069 0.413,-0.069 0.688,-0.069Z" style="fill-rule:nonzero;"></path>
  <path d="M9.227,35.023l-0.206,-0.138l0.482,-0.551l0.138,0.138c0.069,0.068 0.137,0.068 0.137,0.137c0.138,0.069 0.207,0.207 0.345,0.276l0.689,0.551l0.413,0.275c0.275,0.207 0.551,0.345 0.827,0.551l0.344,0.207c0.758,0.413 1.515,0.758 2.342,1.033c0.826,0.276 1.653,0.414 2.479,0.414c0.896,0.068 1.722,0 2.618,-0.138c0.964,-0.138 1.928,-0.345 2.755,-0.551l0.275,-0.069l0,0.758l-0.137,0.068c-0.827,0.207 -1.791,0.483 -2.824,0.62c-0.896,0.138 -1.86,0.207 -2.755,0.138c-0.896,-0.069 -1.791,-0.207 -2.618,-0.482c-0.895,-0.276 -1.722,-0.62 -2.479,-1.102l-0.345,-0.207c-0.275,-0.138 -0.551,-0.344 -0.826,-0.551l-0.414,-0.275l-0.689,-0.551c-0.137,-0.069 -0.275,-0.207 -0.344,-0.345l-0.207,-0.206Z" style="fill-rule:nonzero;"></path>
  <path d="M28.927,36.745c-0.276,0 -0.551,0 -0.896,0.068l0,-0.688l1.86,0c0.138,0 0.207,0 0.345,0.069l0.275,0c0.138,0 0.207,0 0.344,0.068l0.689,0.138l0.207,0.069c0.138,0.069 0.275,0.069 0.413,0.138c0.138,0.069 0.276,0.069 0.413,0.138c0.551,0.206 1.171,0.482 1.654,0.826c0.551,0.345 1.102,0.758 1.515,1.24c0.275,0.275 0.482,0.551 0.758,0.827c0.068,0.137 0.068,0.344 0.068,0.482c0.069,0.413 0.138,0.826 0.207,1.239c-0.413,-0.757 -0.895,-1.446 -1.515,-2.066c-0.414,-0.413 -0.896,-0.758 -1.447,-1.102c-0.482,-0.275 -1.033,-0.551 -1.584,-0.758c-0.138,-0.069 -0.275,-0.069 -0.413,-0.137c-0.138,-0.069 -0.207,-0.069 -0.414,-0.138l-0.206,-0.069l-0.689,-0.138c-0.069,0 -0.207,0 -0.275,-0.069l-0.138,0l-0.138,0l-0.276,0l-0.344,-0.137l-0.138,0l-0.275,0Z" style="fill-rule:nonzero;"></path>
  <path d="M8.332,36.4c-0.069,-0.069 -0.138,-0.069 -0.138,-0.138l-0.551,-0.482l0.414,-0.551l0.551,0.482l0.137,0.138c0.138,0.138 0.207,0.207 0.345,0.276l0.757,0.551l0.483,0.344c0.275,0.207 0.619,0.413 0.964,0.62l0.344,0.207c0.827,0.482 1.722,0.895 2.687,1.171c0.964,0.275 1.859,0.482 2.892,0.482c0.965,0.069 1.929,0 2.962,-0.138c0.965,-0.138 1.929,-0.344 2.893,-0.62c0,0.207 0.069,0.482 0.138,0.689c-0.964,0.275 -1.929,0.482 -2.893,0.62c-1.033,0.138 -2.066,0.206 -3.1,0.138c-1.033,-0.069 -2.066,-0.207 -3.03,-0.551c-0.965,-0.345 -1.929,-0.758 -2.824,-1.24l-0.345,-0.207c-0.344,-0.207 -0.688,-0.413 -0.964,-0.62l-0.482,-0.344l-0.827,-0.551c-0.137,-0.069 -0.275,-0.207 -0.413,-0.276Z" style="fill-rule:nonzero;"></path>
  <path d="M37.055,44.597l0,1.722c-0.551,-2.273 -1.378,-4.615 -2.824,-5.993c-0.689,-0.62 -1.516,-1.171 -2.411,-1.446c-0.138,-0.069 -0.207,-0.069 -0.345,-0.138c-0.069,0 -0.206,-0.069 -0.344,-0.138l-0.207,-0.069l-0.551,-0.137l-0.206,0l-0.138,0l-0.138,0l-0.207,0l-0.413,0l-0.069,0l-0.069,0l-0.206,0l-0.758,0c-0.069,-0.207 -0.069,-0.482 -0.069,-0.689l2.136,0c0.068,0 0.206,0 0.275,0.069l0.551,0.138l0.207,0.068c0.137,0.069 0.275,0.069 0.344,0.138c0.069,0.069 0.276,0.069 0.345,0.138c0.964,0.344 1.928,0.895 2.686,1.584c1.033,0.964 1.86,2.549 2.273,4.133l0.138,0.62Z" style="fill-rule:nonzero;"></path>
  <path d="M20.317,40.946c1.033,-0.138 1.997,-0.413 2.962,-0.62c0.069,0.207 0.138,0.482 0.206,0.689c-0.964,0.276 -1.997,0.482 -3.03,0.62c-1.102,0.207 -2.273,0.207 -3.375,0.207c-1.171,-0.069 -2.342,-0.276 -3.444,-0.62c-1.102,-0.345 -2.136,-0.827 -3.169,-1.378l-0.344,-0.206c-0.345,-0.207 -0.758,-0.483 -1.102,-0.689l-0.482,-0.345l-0.827,-0.62c-0.138,-0.137 -0.275,-0.206 -0.413,-0.344l-0.207,-0.207l-0.344,-0.275l0.482,-0.551l0.344,0.275l0.138,0.138c0.138,0.138 0.276,0.207 0.413,0.344l0.827,0.62l0.482,0.345c0.344,0.275 0.689,0.482 1.033,0.689l0.276,0.206c0.964,0.551 1.928,0.965 3.03,1.309c1.034,0.344 2.136,0.551 3.238,0.551c1.102,0.069 2.204,0.069 3.306,-0.138Z" style="fill-rule:nonzero;"></path>
  <path d="M35.952,45.63c0.207,0.895 0.414,1.86 0.483,2.824c0.206,1.929 0.344,3.926 0.275,5.855l0,7.439l-0.689,0l0,-7.439c0,-1.929 -0.069,-3.858 -0.275,-5.786c-0.138,-0.896 -0.276,-1.86 -0.482,-2.755c0,-0.069 0,-0.138 -0.069,-0.207c-0.069,-0.138 -0.069,-0.344 -0.138,-0.482l-0.069,-0.344l-0.069,-0.207c-0.069,-0.138 -0.069,-0.276 -0.137,-0.413c0,-0.069 -0.069,-0.138 -0.069,-0.207c0,-0.069 -0.069,-0.138 -0.069,-0.138l-0.138,-0.138c-0.069,-0.068 -0.069,-0.206 -0.138,-0.275c-0.344,-0.689 -0.757,-1.309 -1.308,-1.86c-0.551,-0.482 -1.171,-0.895 -1.929,-1.102c-0.069,-0.069 -0.207,-0.069 -0.276,-0.069c-0.137,-0.069 -0.206,-0.069 -0.275,-0.069l-0.069,-0.068l-0.413,-0.138l-0.138,0l-0.138,0l-0.138,0l-0.137,0l-0.345,0l-0.069,0l-0.068,0l-0.138,0l-0.345,0c-0.068,-0.207 -0.137,-0.482 -0.206,-0.689l1.515,0c0.069,0 0.138,0 0.207,0.069l0.413,0.069l0.138,0.069c0.069,0 0.206,0.068 0.344,0.068c0.069,0 0.207,0.069 0.276,0.138c0.757,0.276 1.515,0.689 2.135,1.309c0.62,0.62 1.102,1.309 1.446,2.066c0.069,0.069 0.069,0.207 0.138,0.345l0.069,0.137c0,0.069 0.069,0.138 0.069,0.207c0,0.069 0.069,0.138 0.069,0.207c0.069,0.138 0.138,0.275 0.138,0.413l0.137,0.344l0.069,0.345c0.069,0.138 0.069,0.344 0.138,0.482c0.275,-0.069 0.275,-0.069 0.275,0Z" style="fill-rule:nonzero;"></path>
  <path d="M38.363,44.046l0,17.771l-0.689,0l0,-17.358l0,-0.413l0,-0.896l-0.068,-0.895c-0.069,-0.758 -0.138,-1.584 -0.345,-2.342l-0.069,-0.276c0,-0.068 0,-0.137 -0.069,-0.137l0,-0.138c0,-0.069 0,-0.138 -0.068,-0.207c0,-0.137 -0.069,-0.206 -0.069,-0.344l-0.138,-0.689c0,-0.138 -0.069,-0.206 -0.138,-0.344c0,-0.069 -0.069,-0.138 -0.069,-0.207c-0.275,-0.758 -0.551,-1.515 -0.895,-2.204c-0.207,-0.482 -0.482,-0.964 -0.758,-1.515c0.138,-0.207 0.345,-0.345 0.551,-0.551c0.345,0.551 0.62,1.171 0.896,1.722c0.344,0.757 0.62,1.515 0.895,2.273c0,0.068 0.069,0.137 0.069,0.206c0.069,0.138 0.069,0.276 0.138,0.414l0.137,0.551c0,0.137 0.069,0.275 0.069,0.413c0,0.069 0,0.138 0.069,0.206l0,0.138c0,0.069 0,0.138 0.069,0.207l0.069,0.344c0.138,0.827 0.275,1.653 0.344,2.411l0.069,0.895l0,0.965Z" style="fill-rule:nonzero;"></path>
  <path d="M39.534,39.431c0.138,0.895 0.276,1.722 0.345,2.617c0.068,0.827 0.068,1.653 0.068,2.618l0,17.082l-0.688,0l0,-17.082c0,-0.965 0,-1.791 -0.069,-2.549c-0.069,-0.826 -0.207,-1.722 -0.345,-2.548l-0.068,-0.345c0,-0.069 0,-0.138 -0.069,-0.206l0,-0.138c0,-0.069 -0.069,-0.138 -0.069,-0.207c0,-0.138 -0.069,-0.275 -0.069,-0.413l-0.207,-0.62c0,-0.138 -0.069,-0.276 -0.138,-0.413c0,-0.069 -0.068,-0.138 -0.068,-0.207c-0.276,-0.826 -0.551,-1.584 -0.965,-2.411c-0.275,-0.688 -0.62,-1.377 -1.033,-1.997l0.138,-0.138c0.138,-0.138 0.275,-0.207 0.413,-0.344c0.413,0.688 0.758,1.446 1.102,2.204c0.345,0.826 0.689,1.653 0.965,2.479c0,0.069 0.068,0.138 0.068,0.207c0.069,0.138 0.069,0.276 0.138,0.413l0.207,0.62c0.069,0.138 0.069,0.276 0.069,0.414l0.069,0.206l0,0.138c0,0.069 0,0.138 0.068,0.207l0.138,0.413Z" style="fill-rule:nonzero;"></path>
  <path d="M41.601,44.046l0,17.771l-0.689,0l0,-17.358l0,-0.413l0,-1.033l-0.069,-1.034c-0.069,-0.895 -0.207,-1.79 -0.345,-2.686l-0.068,-0.344c0,-0.069 0,-0.138 -0.069,-0.207l0,-0.138c0,-0.069 -0.069,-0.137 -0.069,-0.206c-0.069,-0.138 -0.069,-0.276 -0.138,-0.414l-0.207,-0.688c-0.068,-0.138 -0.068,-0.276 -0.137,-0.414l-0.069,-0.275c-0.276,-0.896 -0.62,-1.722 -1.033,-2.549c-0.345,-0.826 -0.758,-1.584 -1.24,-2.342l0.344,-0.275l0.207,-0.207c0.482,0.827 0.895,1.653 1.309,2.549c0.413,0.826 0.757,1.722 1.033,2.617l0.069,0.207c0.068,0.138 0.068,0.275 0.137,0.482l0.207,0.689c0.069,0.138 0.069,0.344 0.138,0.482c0,0.069 0,0.138 0.069,0.207l0,0.137c0,0.069 0.069,0.138 0.069,0.207l0.068,0.344c0.207,0.896 0.276,1.86 0.345,2.824l0.138,2.067Z" style="fill-rule:nonzero;"></path>
  <path d="M48.42,24.897c-0.138,-1.653 0,-3.375 0.344,-5.028c0.069,-0.275 0.138,-0.62 0.207,-0.895l0.688,0.138c-0.068,0.275 -0.137,0.619 -0.206,0.895c-0.345,1.584 -0.482,3.237 -0.345,4.822c0.069,0.826 0.207,1.584 0.414,2.341c0.137,0.414 0.206,0.896 0.344,1.309c-0.207,0.138 -0.413,0.207 -0.62,0.345c-0.138,-0.483 -0.275,-0.965 -0.413,-1.447c-0.207,-0.826 -0.345,-1.653 -0.413,-2.48Z" style="fill-rule:nonzero;"></path>
  <path d="M47.249,27.721c-0.207,-0.895 -0.345,-1.79 -0.483,-2.686c-0.137,-1.86 0,-3.65 0.345,-5.441c0.138,-0.414 0.206,-0.758 0.275,-1.171l0.069,-0.276l0.689,0.138l-0.069,0.276c-0.069,0.344 -0.206,0.688 -0.206,1.102c-0.345,1.722 -0.483,3.512 -0.345,5.303c0.069,0.896 0.207,1.722 0.413,2.618c0.138,0.551 0.276,1.102 0.483,1.653l-0.207,0.069l-0.482,0.206c-0.138,-0.551 -0.345,-1.171 -0.482,-1.791Z" style="fill-rule:nonzero;"></path>
  <path d="M46.422,41.222c-0.413,0.413 -0.826,0.826 -1.171,1.308c-1.446,1.722 -2.273,3.582 -2.962,5.993l0,-2.066c0.482,-1.585 1.309,-3.1 2.411,-4.409c0.413,-0.482 0.827,-0.895 1.24,-1.308c0.207,-0.207 0.413,-0.414 0.62,-0.689c0.344,-0.345 0.62,-0.689 0.826,-1.033c0.276,-0.345 0.483,-0.689 0.689,-1.102c0.413,-0.758 0.689,-1.585 0.758,-2.411c0,-0.276 0.069,-0.482 0.069,-0.758c0.206,-0.138 0.482,-0.207 0.757,-0.344c0,0.413 0,0.826 -0.068,1.171c-0.138,0.964 -0.414,1.859 -0.827,2.686c-0.207,0.413 -0.482,0.826 -0.758,1.171c-0.275,0.344 -0.551,0.689 -0.895,1.033c-0.276,0.276 -0.482,0.482 -0.689,0.758Z" style="fill-rule:nonzero;"></path>
  <path d="M45.182,25.173c-0.138,-1.998 0,-3.995 0.414,-5.924c0.068,-0.344 0.137,-0.757 0.206,-1.102l0.689,0.138c-0.069,0.344 -0.138,0.689 -0.207,1.033c-0.413,1.86 -0.551,3.789 -0.413,5.717c0.069,0.964 0.207,1.929 0.482,2.893c0.138,0.689 0.345,1.309 0.551,1.929l-0.62,0.344c-0.206,-0.689 -0.413,-1.377 -0.62,-2.066c-0.206,-0.965 -0.413,-1.998 -0.482,-2.962Z" style="fill-rule:nonzero;"></path>
  <path d="M45.871,39.431c-0.207,0.207 -0.413,0.413 -0.62,0.62c-1.722,1.791 -2.342,2.755 -3.031,4.408l0,-1.446c0.276,-0.827 1.171,-2.067 2.549,-3.513c0.207,-0.207 0.413,-0.414 0.62,-0.62c0.275,-0.276 0.551,-0.62 0.758,-0.896c0.206,-0.275 0.413,-0.551 0.551,-0.826c0.137,-0.276 0.275,-0.62 0.344,-0.896c0.069,-0.206 0.138,-0.413 0.138,-0.688c0.275,-0.138 0.482,-0.276 0.757,-0.414l0,0.207c-0.068,0.344 -0.137,0.758 -0.275,1.102c-0.138,0.344 -0.276,0.689 -0.413,1.033c-0.207,0.345 -0.414,0.689 -0.62,0.965c-0.207,0.344 -0.482,0.619 -0.758,0.964Z" style="fill-rule:nonzero;"></path>
  <path d="M51.244,34.127c0,0.551 0,1.102 -0.069,1.722c-0.069,0.551 -0.207,1.102 -0.345,1.653c-0.137,0.551 -0.413,1.102 -0.62,1.584c-0.275,0.483 -0.551,0.965 -0.895,1.378c-0.276,0.413 -0.62,0.758 -1.033,1.171c-0.207,0.276 -0.413,0.482 -0.689,0.689c-0.413,0.413 -0.758,0.826 -1.102,1.24c-0.482,0.551 -0.964,1.239 -1.309,1.859c-0.344,0.689 -0.689,1.378 -0.895,2.136c-0.276,0.757 -0.413,1.584 -0.551,2.341c-0.276,1.654 -0.413,3.376 -0.413,5.029l0,6.819l-0.689,0l0,-6.819c0,-1.722 0.137,-3.444 0.413,-5.166c0.138,-0.827 0.344,-1.653 0.62,-2.411c0.275,-0.758 0.551,-1.515 0.964,-2.273c0.413,-0.689 0.896,-1.378 1.447,-1.998c0.344,-0.413 0.757,-0.826 1.171,-1.239c0.206,-0.207 0.413,-0.483 0.62,-0.689c0.344,-0.345 0.688,-0.758 0.964,-1.102c0.344,-0.414 0.62,-0.827 0.826,-1.309c0.276,-0.482 0.483,-0.964 0.62,-1.446c0.138,-0.483 0.276,-1.034 0.345,-1.516c0.069,-0.551 0.069,-1.033 0.069,-1.584l0,-0.138l0.688,-0.344c-0.137,0.138 -0.137,0.275 -0.137,0.413Z" style="fill-rule:nonzero;"></path>
  <path d="M50.83,44.252c-2.617,0.345 -4.339,1.309 -5.648,2.48c0,-0.069 0.069,-0.138 0.069,-0.138l0.069,-0.206c0.069,-0.138 0.138,-0.276 0.207,-0.414l0,-0.069c0.069,-0.137 0.206,-0.344 0.275,-0.482l0.069,-0.137c1.033,-0.689 2.617,-1.447 4.822,-1.722l0.206,0c0.207,0 0.413,-0.069 0.551,-0.069l2.342,0c1.033,0.069 2.066,0.275 3.1,0.551c0.964,0.275 1.928,0.62 2.824,1.033c1.584,0.689 3.03,1.446 4.408,2.204l0.62,0.344c1.584,0.827 3.168,1.654 4.684,2.205c1.584,0.619 3.168,0.826 4.615,0.826l0.551,0l0.413,-0.069l0.069,0.689l-0.414,0.069l-0.619,0c-1.585,0.069 -3.169,-0.207 -4.891,-0.827c-1.584,-0.551 -3.168,-1.377 -4.753,-2.273l-0.551,-0.413c-1.377,-0.758 -2.824,-1.515 -4.339,-2.204c-0.895,-0.413 -1.791,-0.689 -2.755,-0.964c-0.964,-0.276 -1.929,-0.414 -2.962,-0.482l-0.551,0l-0.207,0l-0.344,0l-0.344,0l-0.482,0l-0.276,0c-0.207,0 -0.344,0.068 -0.551,0.068l-0.207,0Z" style="fill-rule:nonzero;"></path>
  <path d="M44.149,50.383c0,-0.138 0,-0.207 0.069,-0.276c0.069,-0.551 0.207,-1.033 0.344,-1.515c1.309,-1.722 3.238,-3.031 6.406,-3.444c0.964,-0.138 1.86,-0.138 2.824,-0.069c1.722,0.138 3.444,0.551 5.373,1.378c1.515,0.619 2.961,1.446 4.339,2.204l0.551,0.344c1.722,0.895 3.237,1.722 4.89,2.342c0.827,0.275 1.722,0.551 2.549,0.689c0.895,0.137 1.791,0.206 2.617,0.206l0.689,0l0.689,-0.069l0.069,0.689l-0.689,0.069c-0.138,0 -0.344,0 -0.482,0.069l-0.276,0c-0.964,0.069 -1.859,0 -2.824,-0.207c-0.895,-0.137 -1.79,-0.413 -2.686,-0.757c-1.722,-0.62 -3.237,-1.447 -5.028,-2.411l-0.413,-0.344c-1.378,-0.758 -2.824,-1.516 -4.271,-2.136c-1.86,-0.826 -3.582,-1.24 -5.166,-1.377c-0.895,-0.069 -1.791,0 -2.686,0.069c-3.444,0.482 -5.579,2.204 -6.888,4.546Z" style="fill-rule:nonzero;"></path>
  <path d="M75.558,53.689l0.069,0.689l-0.482,0.068c-0.207,0 -0.414,0 -0.551,0.069l-0.276,0c-1.033,0.069 -2.135,0 -3.168,-0.206c-1.034,-0.207 -1.998,-0.482 -2.962,-0.827c-1.929,-0.689 -3.651,-1.653 -5.235,-2.479l-0.551,-0.276c-1.446,-0.758 -2.824,-1.515 -4.202,-2.135c-1.722,-0.758 -3.237,-1.102 -4.615,-1.24l-0.344,0l-0.275,0l-0.276,0l-0.344,0l-0.345,0l-0.206,0c-0.138,0 -0.207,0 -0.345,0.069l-0.206,0c-0.758,0.069 -1.447,0.275 -2.205,0.551c-2.824,1.171 -4.201,3.375 -4.201,6.13l0,7.646l-0.689,0l0,-7.577c0,-3.1 1.653,-5.648 4.684,-6.819c0.758,-0.276 1.515,-0.482 2.342,-0.62l0.206,0c0.138,0 0.276,0 0.414,-0.069l1.79,0c1.516,0.069 3.1,0.482 4.891,1.309c1.446,0.62 2.824,1.377 4.27,2.135l0.551,0.276c1.516,0.826 3.238,1.722 5.097,2.41c0.896,0.345 1.86,0.62 2.824,0.758c0.965,0.207 1.998,0.276 3.031,0.207l0.276,0c0.206,0 0.344,0 0.551,-0.069l0.482,0Z" style="fill-rule:nonzero;"></path>
</svg>
