<?xml version="1.0" encoding="iso-8859-1"?>
<!-- Generator: Adobe Illustrator 19.0.0, SVG Export Plug-In . SVG Version: 6.00 Build 0)  -->
<svg mxlns="http://www.w3.org/2000/svg" xmlns:xlink="http://www.w3.org/1999/xlink" version="1.1" id="Capa_1" x="0px" y="0px" viewBox="0 0 512 512" style="enable-background:new 0 0 512 512;" xml:space="preserve" width="100%" height="100%">
<g>
	<path d="M472.436,69.772H231.952c-21.816,0-39.564,17.749-39.564,39.564v24.564h-8.532c-4.142,0-7.5,3.358-7.5,7.5   s3.358,7.5,7.5,7.5h8.532v120.758c0,21.816,17.749,39.564,39.564,39.564h72.661v24.565c0,13.545-11.02,24.564-24.564,24.564   H135.755c-2.029,0-3.949,0.82-5.345,2.239c-0.953,0.955-24.508,24.511-66.472,66.475c-0.13,0.129-0.242,0.241-0.539,0.118   c-0.302-0.125-0.302-0.286-0.302-0.473c0-23.573,0-60.402,0-60.847c0-0.004,0-0.008,0-0.012c0-4.142-3.358-7.5-7.5-7.5H39.564   C26.02,358.353,15,347.333,15,333.788V173.466c0-13.545,11.02-24.564,24.564-24.564h112.223c4.142,0,7.5-3.358,7.5-7.5   s-3.358-7.5-7.5-7.5H39.564C17.749,133.901,0,151.65,0,173.466v160.323c0,21.816,17.749,39.564,39.564,39.564h8.532v53.359   c0,6.3,3.753,11.925,9.562,14.332c1.924,0.797,3.938,1.185,5.934,1.185c4.026,0,7.976-1.578,10.952-4.555l64.318-64.32h141.186   c21.816,0,39.564-17.749,39.564-39.564v-24.565h53.522l64.28,64.28c2.976,2.976,6.926,4.552,10.956,4.552   c2.001,0,4.023-0.389,5.954-1.189c5.819-2.41,9.579-8.037,9.579-14.335v-53.309h8.532c21.816,0,39.564-17.749,39.564-39.564   V109.337C512,87.521,494.251,69.772,472.436,69.772z M497,269.659c0,13.545-11.02,24.564-24.564,24.564h-16.032   c-4.142,0-7.5,3.358-7.5,7.5v60.809c0,0.177,0,0.345-0.319,0.477c-0.316,0.131-0.437,0.014-0.563-0.112l-66.477-66.477   c-1.406-1.406-3.314-2.197-5.303-2.197h-144.29c-13.545,0-24.564-11.02-24.564-24.564V109.337c0-13.545,11.02-24.564,24.564-24.564   h240.484c13.545,0,24.564,11.02,24.564,24.564V269.659z"/>
	<path d="M352.194,117.869c-0.001,0-0.003,0-0.003,0c-15.108,0.001-28.981,6.938-38.063,19.031   c-2.487,3.312-1.819,8.014,1.493,10.501c3.313,2.487,8.013,1.819,10.501-1.493c6.222-8.285,15.724-13.038,26.069-13.038   c8.477-0.001,16.597,3.451,22.865,9.719s9.719,14.388,9.719,22.865c-0.001,14.28-9.543,27.114-23.205,31.211   c-10.094,3.027-16.876,12.071-16.876,22.505v2.394c0,4.142,3.358,7.5,7.5,7.5s7.5-3.358,7.5-7.5v-2.394   c0-3.758,2.485-7.028,6.185-8.137c19.956-5.984,33.895-24.726,33.896-45.578c0.001-12.484-5.011-24.371-14.112-33.472   C376.562,122.88,364.677,117.869,352.194,117.869z"/>
	<path d="M352.193,246.127h-0.08c-4.142,0-7.46,3.358-7.46,7.5s3.398,7.5,7.54,7.5s7.5-3.358,7.5-7.5   S356.335,246.127,352.193,246.127z"/>
	<path d="M152.307,189.498v96.194c0,4.142,3.358,7.5,7.5,7.5s7.5-3.358,7.5-7.5v-96.194c0-4.142-3.358-7.5-7.5-7.5   S152.307,185.356,152.307,189.498z"/>
	<path d="M159.887,310.256h-0.08c-4.142,0-7.46,3.358-7.46,7.5s3.398,7.5,7.54,7.5s7.5-3.358,7.5-7.5   S164.029,310.256,159.887,310.256z"/>
</g>















</svg>
