<?xml version="1.0" encoding="UTF-8" standalone="no"?><!DOCTYPE svg PUBLIC "-//W3C//DTD SVG 1.1//EN" "http://www.w3.org/Graphics/SVG/1.1/DTD/svg11.dtd"><svg width="100%" height="100%" viewBox="0 0 563 563" version="1.1" xmlns="http://www.w3.org/2000/svg" xmlns:xlink="http://www.w3.org/1999/xlink" xml:space="preserve" xmlns:serif="http://www.serif.com/" style="fill-rule:evenodd;clip-rule:evenodd;stroke-linejoin:round;stroke-miterlimit:1.41421;"><circle cx="281.199" cy="281.238" r="258.296" style="fill:#fff;"/><path d="M282.126,0c70.39,0.336 139.919,27.853 191.297,75.974c43.218,40.477 73.24,94.759 84.219,152.981c14.031,74.405 -3.314,154.042 -47.558,215.844c-41.438,57.883 -105.529,99.302 -175.663,112.756c-71.003,13.621 -147.156,-1.337 -207.639,-41.166c-66.752,-43.956 -113.37,-117.194 -124.251,-196.676c-9.876,-72.136 9.414,-148.007 53.316,-206.696c50.672,-67.739 132.125,-111.019 219.029,-112.948c2.415,-0.053 4.829,-0.072 7.25,-0.069Zm-1.67,46c-72.277,0.345 -142.74,35.465 -186.496,92.877c-44.536,58.437 -59.744,138.381 -38.092,210.282c19.957,66.275 70.868,122.754 135.136,149.495c56.984,23.71 123.433,23.716 180.428,0c63.701,-26.506 114.664,-82.263 134.927,-148.803c17.605,-57.812 11.905,-122.367 -15.914,-176.247c-38.317,-74.213 -117.404,-125.626 -203.905,-127.546c-2.029,-0.045 -4.06,-0.061 -6.084,-0.058Z" style="fill:#212529;fill-rule:nonzero;"/></svg>