<?xml version="1.0" encoding="UTF-8" standalone="no"?>
<!DOCTYPE svg PUBLIC "-//W3C//DTD SVG 1.1//EN" "http://www.w3.org/Graphics/SVG/1.1/DTD/svg11.dtd">
<svg width="100%" height="100%" viewBox="0 0 486 486" version="1.1" xmlns="http://www.w3.org/2000/svg" xmlns:xlink="http://www.w3.org/1999/xlink" xml:space="preserve" xmlns:serif="http://www.serif.com/" style="fill-rule:evenodd;clip-rule:evenodd;stroke-linejoin:round;stroke-miterlimit:2;">
    <g>
        <path d="M471.882,407.567L360.567,296.243C343.981,322.038 322.031,343.977 296.236,360.564L407.56,471.888C425.332,489.656 454.147,489.656 471.881,471.888C489.654,454.149 489.654,425.334 471.882,407.567Z" style="fill-rule:nonzero;"/>
        <path d="M363.909,181.955C363.909,81.473 282.44,0 181.956,0C81.474,0 0.001,81.473 0.001,181.955C0.001,282.437 81.474,363.906 181.956,363.906C282.44,363.906 363.909,282.437 363.909,181.955ZM181.956,318.416C106.704,318.416 45.491,257.208 45.491,181.956C45.491,106.704 106.704,45.491 181.956,45.491C257.206,45.491 318.424,106.704 318.424,181.956C318.424,257.208 257.206,318.416 181.956,318.416Z" style="fill-rule:nonzero;"/>
        <path d="M75.817,181.955L106.139,181.955C106.139,140.152 140.153,106.141 181.955,106.141L181.955,75.816C123.438,75.816 75.817,123.437 75.817,181.955Z" style="fill-rule:nonzero;"/>
    </g>
</svg>
