<?xml version="1.0" encoding="UTF-8" standalone="no"?>
<!DOCTYPE svg PUBLIC "-//W3C//DTD SVG 1.1//EN" "http://www.w3.org/Graphics/SVG/1.1/DTD/svg11.dtd">
<svg width="100%" height="100%" viewBox="0 0 140 140" version="1.1" xmlns="http://www.w3.org/2000/svg" xmlns:xlink="http://www.w3.org/1999/xlink" xml:space="preserve" xmlns:serif="http://www.serif.com/" style="fill-rule:evenodd;clip-rule:evenodd;stroke-linejoin:round;stroke-miterlimit:2;">
    <g transform="matrix(5.83333,0,0,5.83333,0,0)">
        <g transform="matrix(0.880919,0,0,0.880919,1.42897,2.86702)">
            <path d="M6,6C6,9.292 8.708,12 12,12C15.292,12 18,9.292 18,6C18,2.708 15.292,0 12,0C8.708,-0 6,2.708 6,6ZM7.5,6C7.5,3.531 9.531,1.5 12,1.5C14.469,1.5 16.5,3.531 16.5,6C16.5,8.469 14.469,10.5 12,10.5C9.531,10.5 7.5,8.469 7.5,6Z"/>
        </g>
        <g transform="matrix(0.880919,0,0,0.880919,1.42897,2.86702)">
            <path d="M3,23.25C3,18.313 7.063,14.25 12,14.25C16.937,14.25 21,18.313 21,23.25C21,23.664 21.336,24 21.75,24C22.164,24 22.5,23.664 22.5,23.25C22.5,17.49 17.76,12.75 12,12.75C6.24,12.75 1.5,17.49 1.5,23.25C1.5,23.664 1.836,24 2.25,24C2.664,24 3,23.664 3,23.25Z"/>
        </g>
    </g>
</svg>
