<svg height="512pt" viewBox="-27 0 512 512" width="512pt" xmlns="http://www.w3.org/2000/svg"><path d="m458.015625 73.855469c0-17.292969-14.070313-31.363281-31.363281-31.363281-4.25 0-8.300782.855468-12 2.394531-3.058594-14.109375-15.632813-24.710938-30.644532-24.710938-4.4375 0-8.660156.929688-12.492187 2.601563-3.742187-13.132813-15.839844-22.777344-30.15625-22.777344-14.3125 0-26.410156 9.644531-30.15625 22.777344-3.828125-1.671875-8.050781-2.601563-12.488281-2.601563-17.292969 0-31.359375 14.066407-31.359375 31.359375v78.570313c-7.144531-7.570313-17.832031-11.488281-28.714844-9.570313-8.492187 1.5-15.855469 6.242188-20.730469 13.355469-.523437.761719-1.003906 1.546875-1.453125 2.34375-4.238281-2.285156-9.082031-3.582031-14.222656-3.582031-3.832031 0-7.492187.730468-10.867187 2.039062-3.1875-13.199218-15.089844-23.039062-29.253907-23.039062-4.019531 0-7.855469.800781-11.363281 2.238281-3.796875-12.273437-15.253906-21.214844-28.757812-21.214844-13.503907 0-24.960938 8.941407-28.757813 21.214844-3.507813-1.4375-7.34375-2.238281-11.363281-2.238281-16.597656 0-30.097656 13.503906-30.097656 30.097656v72.480469c-6.824219-6.578125-16.585938-9.894531-26.527344-8.144531-8.144532 1.4375-15.210938 5.988281-19.886719 12.8125-4.675781 6.824218-6.371094 15.054687-4.773437 23.171874l10.523437 53.363282c4.1875 21.238281 14.503906 40.542968 29.832031 55.824218l18.789063 18.734376v31.992187h-10.589844c-5.523437 0-10 4.476563-10 10v90.015625c0 5.523438 4.476563 10 10 10 5.519531 0 10-4.476562 10-10v-80.015625h130.53125v80.015625c0 5.523438 4.476563 10 10 10s10-4.476562 10-10v-90.015625c0-5.523437-4.476563-10-10-10h-10.324219v-31.992187l11.105469-11.070313c20.558594-20.5 31.878906-47.78125 31.878906-76.8125v-41.871094c5.664063 12.40625 13.515625 23.753907 23.324219 33.535157l20.15625 20.097656v39.128906h-11.882812c-5.523438 0-10 4.476562-10 10v159c0 5.523438 4.476562 10 10 10 5.519531 0 10-4.476562 10-10v-109h48.394531c5.523437 0 10-4.476562 10-10s-4.476563-10-10-10h-48.394531v-20h140v149c0 5.523438 4.476562 10 10 10 5.519531 0 10-4.476562 10-10v-159c0-5.523438-4.480469-10-10-10h-11.605469v-39.128906l11.988281-11.949219c21.730469-21.671875 33.699219-50.511719 33.699219-81.199219v-10.386718c0-5.523438-4.476563-10-10-10-5.519531 0-10 4.476562-10 10v10.386718c0 25.335938-9.878907 49.144532-27.820313 67.035156l-14.925781 14.882813c-1.882813 1.875-2.941406 4.425781-2.941406 7.082031v43.277344h-96.511719v-43.277344c0-2.660156-1.058594-5.207031-2.941406-7.082031l-23.09375-23.027344c-13.375-13.339843-22.378906-30.1875-26.03125-48.71875l-11.1875-56.722656c-.621094-3.144531.035156-6.332031 1.847656-8.976563 1.8125-2.640624 4.550781-4.40625 7.707031-4.960937 6.121094-1.082031 12.066407 2.800781 13.542969 8.832031l5.78125 23.574219c1.605469 6.558594 7.636719 10.730469 14.34375 9.921875s11.574219-6.300781 11.574219-13.054688v-117.972656c0-6.265625 5.09375-11.359375 11.359375-11.359375 5.835937 0 10.652344 4.421875 11.285156 10.09375v65.738281c0 .398438.027344.789063.074219 1.175782v6.421875c0 5.523437 4.476562 10 10 10 5.523437 0 10-4.476563 10-10v-72.070313c0-.691406-.03125-1.378906-.074219-2.0625v-18.113281c0-6.261719 5.097656-11.359375 11.359375-11.359375 6.265625 0 11.359375 5.097656 11.359375 11.359375v18.113281c-.042969.683594-.074219 1.371094-.074219 2.0625v64.472656c0 .398438.03125.789063.074219 1.175782v6.421875c0 5.523437 4.480469 10 10 10 5.523438 0 10-4.476563 10-10v-73.335938c.632812-5.671875 5.449219-10.09375 11.285156-10.09375 6.265625 0 11.359375 5.09375 11.359375 11.359375v20.257813c-.042969.683593-.074219 1.367187-.074219 2.0625v42.152343c0 .398438.03125.789063.074219 1.175782v6.421875c0 5.523437 4.480469 10 10 10 5.523438 0 10-4.476563 10-10v-51.019531c.632813-5.667969 5.453125-10.09375 11.285157-10.09375 6.265624 0 11.363281 5.097656 11.363281 11.363281v36.476562c0 5.523438 4.476562 10 10 10 5.519531 0 10-4.476562 10-10v-36.476562zm-245.683594 208.253906c0 23.679687-9.234375 45.929687-26 62.648437l-14.042969 14.003907c-1.882812 1.875-2.941406 4.421875-2.941406 7.082031v36.140625h-89.617187v-36.140625c0-2.660156-1.058594-5.207031-2.941407-7.082031l-21.722656-21.664063c-12.503906-12.46875-20.917968-28.210937-24.332031-45.535156l-10.523437-53.363281c-.550782-2.800781.03125-5.640625 1.648437-7.996094 1.613281-2.355469 4.050781-3.925781 6.859375-4.421875 5.457031-.957031 10.75 2.5 12.066406 7.871094l5.4375 22.179687c1.585938 6.464844 7.527344 10.574219 14.144532 9.777344 6.609374-.796875 11.40625-6.207031 11.40625-12.867187v-110.992188c0-5.566406 4.53125-10.097656 10.097656-10.097656 5.175781 0 9.453125 3.921875 10.023437 8.949218v61.804688c0 .390625.027344.769531.070313 1.144531v6.007813c0 5.523437 4.480468 10 10 10 5.523437 0 10-4.476563 10-10v-67.808594c0-.65625-.027344-1.304688-.070313-1.953125v-17.027344c0-5.566406 4.53125-10.09375 10.097657-10.09375 5.570312 0 10.097656 4.527344 10.097656 10.09375v17.015625c-.042969.652344-.070313 1.304688-.070313 1.964844v60.65625c0 .390625.027344.773438.070313 1.152344v6c0 5.519531 4.476562 10 10 10 5.523437 0 10-4.480469 10-10v-68.964844c.574218-5.023438 4.847656-8.941406 10.023437-8.941406 5.570313 0 10.097657 4.53125 10.097657 10.097656v19.035156c-.042969.648438-.070313 1.304688-.070313 1.964844v39.65625c0 .390625.027344.773438.070313 1.152344v6c0 5.519531 4.480468 10 10 10 5.523437 0 10-4.480469 10-10v-47.964844c.578124-5.023438 4.851562-8.941406 10.027343-8.941406 5.566407 0 10.09375 4.53125 10.09375 10.097656zm0 0"/><path d="m448.011719 140.328125c-2.632813 0-5.210938 1.070313-7.070313 2.933594-1.863281 1.859375-2.929687 4.4375-2.929687 7.066406 0 2.640625 1.066406 5.210937 2.929687 7.082031 1.867188 1.859375 4.4375 2.917969 7.070313 2.917969 2.628906 0 5.207031-1.058594 7.066406-2.917969 1.871094-1.871094 2.933594-4.441406 2.933594-7.082031 0-2.628906-1.0625-5.207031-2.933594-7.066406-1.859375-1.863281-4.429687-2.933594-7.066406-2.933594zm0 0"/><path d="m362.320312 373c-2.628906 0-5.199218 1.070312-7.070312 2.929688-1.859375 1.859374-2.921875 4.441406-2.921875 7.070312s1.0625 5.210938 2.921875 7.070312c1.871094 1.859376 4.441406 2.929688 7.070312 2.929688 2.640626 0 5.210938-1.070312 7.078126-2.929688 1.863281-1.859374 2.929687-4.441406 2.929687-7.070312s-1.066406-5.210938-2.929687-7.070312c-1.867188-1.859376-4.4375-2.929688-7.078126-2.929688zm0 0"/></svg>