<svg id="Capa_1" enable-background="new 0 0 512 512" height="100%" viewBox="0 0 512 512" width="100%" xmlns="http://www.w3.org/2000/svg"><g><path d="m504.5 292.95c4.142 0 7.5-3.358 7.5-7.5v-24.6c0-1.446-.261-2.877-.745-4.226l-.004-.014c-.008-.023-.019-.045-.027-.067-.103-.28-.213-.557-.335-.829-.004-.009-.009-.019-.013-.028-.128-.284-.265-.564-.415-.837-.006-.011-.013-.022-.019-.033-.148-.268-.303-.533-.47-.789-.09-.139-.191-.271-.286-.406-.088-.124-.17-.252-.262-.372l-59.836-78.139c-2.34-3.087-6.058-4.93-9.947-4.93h-64.82v-21.998h74.72c6.893 0 12.5-5.607 12.5-12.5v-22.93c0-6.893-5.607-12.5-12.5-12.5h-95.25c-1.701 0-3.352.579-4.682 1.641l-50.467 40.319h-93.56c-4.142 0-7.5 3.358-7.5 7.5s3.358 7.5 7.5 7.5h96.189c1.701 0 3.352-.579 4.681-1.641l50.467-40.319h90.121v17.93h-82.57c-1.702 0-3.353.579-4.682 1.641l-50.456 40.319c-69.155 0-232.418 0-292.8 0v-17.93h154.05c4.142 0 7.5-3.358 7.5-7.5s-3.358-7.5-7.5-7.5h-156.55c-6.893 0-12.5 5.607-12.5 12.5v22.93c0 6.893 5.607 12.5 12.5 12.5h.908l32.974 82.258h-9.522c-14.259 0-25.86 11.601-25.86 25.86v54.439l-12.001 30.25c-1.528 3.85.355 8.209 4.206 9.737 3.852 1.528 8.21-.356 9.737-4.206l9.71-24.475 21.047 8.833c6.775 22.483 27.664 38.909 52.326 38.909 21.634 0 40.371-12.638 49.219-30.918h23.733c8.848 18.28 27.585 30.918 49.219 30.918 3.38 0 6.766-.312 10.064-.926 13.527-2.521 25.526-10.016 33.786-21.105 2.096-2.814 3.891-5.789 5.389-8.887h30.808l3.035 7.651c1.167 2.943 3.989 4.736 6.974 4.736.92 0 1.856-.17 2.763-.53 3.85-1.528 5.733-5.887 4.206-9.737l-.841-2.12h42.768c8.848 18.28 27.585 30.918 49.219 30.918s40.371-12.638 49.219-30.918h42.371c6.898 0 12.51-5.612 12.51-12.51v-47.869c0-4.142-3.358-7.5-7.5-7.5s-7.5 3.358-7.5 7.5v45.38h-35.16c.458-2.843.705-5.757.705-8.727 0-30.132-24.514-54.645-54.646-54.645-12.425 0-23.889 4.176-33.079 11.188v-128.466h63.586l9.869 12.888h-40.211c-5.241 0-9.504 4.263-9.504 9.503v49.581c0 5.24 4.263 9.503 9.504 9.503h88.937v18.794c0 4.143 3.358 7.501 7.5 7.501zm-144.68-138.952v118.402h-42.539v-32.758c0-4.142-3.358-7.5-7.5-7.5s-7.5 3.358-7.5 7.5v32.758h-57.261v-82.258h57.26v14.498c0 4.142 3.358 7.5 7.5 7.5s7.5-3.358 7.5-7.5v-16.649zm-187.059 118.402v-82.258h57.26v82.258zm-72.259 0v-82.258h57.26v82.258zm-69.402-82.258h54.401v82.258h-21.427zm11.848 165.472-13.233-5.554 12.933-32.601h17.356c-10.178 9.647-16.651 23.153-17.056 38.155zm54.608 41.134c-21.861 0-39.646-17.785-39.646-39.646 0-21.828 17.733-39.591 39.55-39.643h.192c21.816.052 39.549 17.815 39.549 39.643.001 21.861-17.784 39.646-39.645 39.646zm53.94-30.918c.458-2.843.705-5.757.705-8.727 0-15.597-6.579-29.677-17.094-39.643h47.069c-10.515 9.966-17.094 24.046-17.094 39.643 0 2.971.247 5.884.705 8.727zm75.548 30.246c-2.394.446-4.855.672-7.316.672-21.86 0-39.645-17.785-39.645-39.646 0-21.828 17.733-39.591 39.549-39.643h.192c21.816.052 39.55 17.815 39.55 39.643 0 4.735-.825 9.34-2.416 13.673-.041.113-.087.224-.123.34-1.29 3.412-3.059 6.651-5.287 9.642-5.998 8.051-14.7 13.492-24.504 15.319zm46.641-30.246c.457-2.861.689-5.776.689-8.727 0-15.597-6.579-29.677-17.094-39.643h17.355l19.19 48.37zm36.276 0-22.008-55.476c-1.903-4.796-6.466-7.895-11.624-7.895h-235.37c-5.163 0-9.728 3.1-11.629 7.895l-1.798 4.533v-16.627c0-5.988 4.872-10.86 10.86-10.86h321.428v43.752c-4.186 7.725-6.566 16.565-6.566 25.95 0 2.971.247 5.884.705 8.727h-43.998zm97.938-48.373c21.861 0 39.646 17.785 39.646 39.645 0 21.861-17.785 39.646-39.646 39.646s-39.645-17.785-39.645-39.646c0-21.86 17.785-39.645 39.645-39.645zm5.661-104.389h46.201l29.549 38.588h-75.75z"/><path d="m407.899 380.833c13.085 0 23.731-10.645 23.731-23.731 0-13.085-10.645-23.731-23.731-23.731-13.085 0-23.73 10.645-23.73 23.731s10.645 23.731 23.73 23.731zm0-32.462c4.814 0 8.731 3.916 8.731 8.731 0 4.814-3.917 8.731-8.731 8.731s-8.73-3.916-8.73-8.731c0-4.814 3.916-8.731 8.73-8.731z"/><path d="m97.556 333.371c-13.085 0-23.73 10.645-23.73 23.731 0 13.085 10.645 23.731 23.73 23.731s23.731-10.645 23.731-23.731c0-13.085-10.646-23.731-23.731-23.731zm0 32.462c-4.814 0-8.73-3.916-8.73-8.731 0-4.814 3.916-8.731 8.73-8.731s8.731 3.916 8.731 8.731-3.917 8.731-8.731 8.731z"/><path d="m219.728 333.371c-13.085 0-23.731 10.645-23.731 23.731 0 13.085 10.645 23.731 23.731 23.731s23.731-10.645 23.731-23.731c0-13.085-10.646-23.731-23.731-23.731zm0 32.462c-4.814 0-8.731-3.916-8.731-8.731 0-4.814 3.916-8.731 8.731-8.731s8.731 3.916 8.731 8.731-3.917 8.731-8.731 8.731z"/></g></svg>