<?xml version="1.0" encoding="UTF-8"?>
<svg width="64px" height="55px" viewBox="0 0 64 55" version="1.1" xmlns="http://www.w3.org/2000/svg" xmlns:xlink="http://www.w3.org/1999/xlink">
    <!-- Generator: Sketch 56.2 (81672) - https://sketch.com -->
    <title>Group 5</title>
    <desc>Created with Sketch.</desc>
    <g id="Page-1" stroke="none" stroke-width="1" fill="none" fill-rule="evenodd" stroke-linejoin="round">
        <g id="311-Approved-" transform="translate(-599.000000, -1201.000000)" stroke="#008943">
            <g id="How-It-Works" transform="translate(0.000000, 1083.000000)">
                <g id="Assign" transform="translate(538.000000, 120.000000)">
                    <g id="Group-5" transform="translate(63.455455, 0.000000)">
                        <polygon id="Fill-1" stroke-width="3" points="23.3876033 12.6388889 36.114876 12.6388889 36.114876 0 23.3876033 0"></polygon>
                        <polygon id="Fill-2" stroke-width="3" points="24.2966942 51.4772727 35.2820725 51.4772727 35.2820725 40.5681818 24.2966942 40.5681818"></polygon>
                        <polygon id="Fill-3" stroke-width="3" points="-7.99360578e-15 51.4772727 10.9853783 51.4772727 10.9853783 40.5681818 -7.99360578e-15 40.5681818"></polygon>
                        <polygon id="Fill-4" stroke-width="3" points="48.5933884 51.4772727 59.5787667 51.4772727 59.5787667 40.5681818 48.5933884 40.5681818"></polygon>
                        <path d="M5.04049587,30.1477522 L52.973554,30.1477522" id="Line" stroke-width="4" stroke-linecap="round"></path>
                        <path d="M29.5859504,15.4545455 L29.5859504,37.7272727" id="Line-3" stroke-width="4" stroke-linecap="square"></path>
                        <path d="M5.04049587,30.375025 L5.04049587,38.8523477" id="Line-3-Copy" stroke-width="4" stroke-linecap="round"></path>
                        <path d="M54.131405,30.1477522 L54.131405,38.625075" id="Line-3-Copy-2" stroke-width="4" stroke-linecap="round"></path>
                    </g>
                </g>
            </g>
        </g>
    </g>
</svg>