<?xml version="1.0" encoding="UTF-8" standalone="no"?>
<!DOCTYPE svg PUBLIC "-//W3C//DTD SVG 1.1//EN" "http://www.w3.org/Graphics/SVG/1.1/DTD/svg11.dtd">
<svg width="100%" height="100%" viewBox="0 0 106 65" version="1.1" xmlns="http://www.w3.org/2000/svg" xmlns:xlink="http://www.w3.org/1999/xlink" xml:space="preserve" xmlns:serif="http://www.serif.com/" style="fill-rule:evenodd;clip-rule:evenodd;stroke-linejoin:round;stroke-miterlimit:2;">
    <g transform="matrix(1,0,0,1,9.4369e-16,0.1)">
        <path d="M28.5,20.8C28.4,20.8 28.2,20.7 28.1,20.7C28,20.6 27.8,20.6 27.7,20.5C27.4,20.4 27.1,20.3 26.8,20.1L26.5,20C26.4,19.9 26.3,19.9 26.1,19.8L25.5,19.5C25.4,19.4 25.2,19.3 25.1,19.3L24.9,19.2L24.8,19L24.6,18.9L24,18.5C23.9,18.4 23.8,18.3 23.7,18.3L23.2,17.9L23,17.6C22.7,17.3 22.5,17.1 22.2,16.8C21.6,16.1 21,15.4 20.5,14.5C20.4,14.3 20.3,14.2 20.2,14C20.1,13.9 20.1,13.8 20,13.7C19.9,13.5 19.8,13.4 19.7,13.2L20.6,12.7C20.7,12.9 20.7,13 20.8,13.2C20.9,13.3 20.9,13.4 21,13.5C21.1,13.7 21.2,13.8 21.3,13.9C21.8,14.7 22.3,15.4 22.9,16C23.1,16.3 23.4,16.5 23.6,16.7L23.8,16.9L24.3,17.3C24.4,17.4 24.5,17.4 24.5,17.5L25.1,17.9C25.2,17.9 25.2,18 25.3,18L25.6,18.3C25.7,18.4 25.8,18.4 25.9,18.5L26.5,18.8C26.6,18.9 26.7,18.9 26.8,18.9L27.1,19.1C27.3,19.2 27.6,19.3 27.9,19.4L28.3,19.5C28.4,19.5 28.5,19.6 28.7,19.6L29,19.7L29.2,19.8C29.1,20.1 29.1,20.5 29,20.8L28.7,20.7L28.5,20.8Z" style="fill-rule:nonzero;"/>
    </g>
    <g transform="matrix(1,0,0,1,9.4369e-16,0.1)">
        <path d="M28.5,23.3L28.1,23.2L27.8,23.1L27.3,22.9L26.9,22.7C26.5,22.6 26.2,22.4 25.8,22.2L25.5,22C25.4,21.9 25.2,21.9 25.1,21.8L24.4,21.4C24.2,21.3 24.1,21.2 23.9,21.1L23.7,21L23.5,21L23.3,20.8L22.6,20.3C22.5,20.2 22.4,20.1 22.2,20L21.6,19.5L21.4,19.3C21.1,19 20.7,18.7 20.4,18.3C19.7,17.5 19,16.6 18.4,15.7C18.3,15.5 18.2,15.3 18,15.1C17.9,15 17.9,14.9 17.8,14.8C17.7,14.6 17.6,14.4 17.5,14.2C17.4,14.1 17.4,14 17.3,13.9L18.2,13.4C18.3,13.5 18.3,13.6 18.4,13.7C18.5,13.9 18.6,14.1 18.7,14.3C18.8,14.4 18.8,14.5 18.9,14.6C19,14.8 19.1,15 19.2,15.2C19.7,16.1 20.4,16.9 21.1,17.7L22.2,18.8L22.8,19.3C22.9,19.4 23,19.5 23.1,19.5L23.8,20L24,20.1L24.3,20.4C24.4,20.5 24.6,20.6 24.7,20.7L25.4,21.1C25.5,21.2 25.6,21.2 25.7,21.3L26.1,21.5C26.4,21.7 26.8,21.8 27.1,21.9L27.5,22.1L28,22.3C28.1,22.3 28.2,22.4 28.3,22.4L28.7,22.5L28.9,22.5C28.9,22.7 28.8,23 28.8,23.2L28.8,23.5L28.5,23.3Z" style="fill-rule:nonzero;"/>
    </g>
    <g transform="matrix(1,0,0,1,9.4369e-16,0.1)">
        <path d="M28.6,25.7L27.2,25.3C27,25.2 26.8,25.2 26.6,25.1C26.5,25 26.3,25 26.2,24.9C25.8,24.7 25.3,24.6 24.9,24.4L24.5,24.2C24.3,24.1 24.2,24.1 24.1,24L22.7,23.3L22.5,23.1L22.2,23L22,22.8L21.2,22.2C21,22.1 20.9,22 20.8,21.9L20.1,21.3L18.8,20C18,19.1 17.2,18.1 16.5,17C16.4,16.8 16.2,16.5 16.1,16.3C16,16.2 16,16.1 15.9,16C15.8,15.8 15.7,15.5 15.5,15.3L16.4,14.8C16.5,15 16.6,15.3 16.7,15.5C16.8,15.6 16.8,15.7 16.9,15.8C17,16 17.1,16.3 17.3,16.5C17.9,17.5 18.7,18.5 19.5,19.3C19.9,19.7 20.2,20.1 20.6,20.4L20.7,20.5L21.4,21.1C21.5,21.2 21.6,21.3 21.7,21.4L22.4,21.9L22.6,22L22.7,22.1L23,22.3C23.2,22.4 23.3,22.5 23.5,22.6L24.3,23C24.4,23.1 24.5,23.1 24.7,23.2L25.1,23.4C25.5,23.6 25.9,23.8 26.3,23.9C26.4,24 26.6,24 26.7,24.1C26.9,24.2 27.1,24.2 27.3,24.3L28,24.5L28.5,24.6C28.6,25 28.6,25.4 28.6,25.7Z" style="fill-rule:nonzero;"/>
    </g>
    <g transform="matrix(1,0,0,1,9.4369e-16,0.1)">
        <path d="M39.2,12.4C38.6,12.4 38.1,12.5 37.7,12.5L36.9,12.5C35.9,12.5 34.9,12.4 34,12.3C32.8,12.1 31.6,11.8 30.5,11.4C29.4,11 28.3,10.4 27.3,9.7L26.7,9.3L26.6,9.2L26,8.8L26.7,8L27.3,8.6L27.8,9C28.7,9.6 29.7,10.2 30.8,10.6C31.9,11 33,11.3 34.1,11.4C35.3,11.6 36.5,11.6 37.6,11.6C38,11.6 38.4,11.6 38.8,11.5C38.8,11.6 38.9,11.8 38.9,11.9L39.1,12.3L39.2,12.4Z" style="fill-rule:nonzero;"/>
    </g>
    <g transform="matrix(1,0,0,1,9.4369e-16,0.1)">
        <path d="M40.2,14.7L39.4,14.7C38.9,14.7 38.3,14.8 37.8,14.8L36.9,14.8C35.8,14.8 34.7,14.7 33.6,14.6C32.2,14.4 30.9,14.1 29.6,13.6C28.3,13.1 27.1,12.4 25.9,11.7L25.3,11.2L25.2,11.1L24.3,10.4L25,9.6L25.9,10.3L26,10.4L26.6,10.8C27.7,11.5 28.8,12.2 30.1,12.6C31.3,13.1 32.6,13.4 33.9,13.6C35.2,13.8 36.5,13.9 37.9,13.8C38.4,13.8 38.9,13.8 39.5,13.7L39.9,13.7C39.9,14 40,14.4 40.2,14.7Z" style="fill-rule:nonzero;"/>
    </g>
    <g transform="matrix(1,0,0,1,9.4369e-16,0.1)">
        <path d="M40.8,15.9C41,16.2 41.1,16.5 41.3,16.9C41,17 40.8,17 40.5,17L40.1,17.1L39.7,17.1C39.1,17.1 38.5,17.2 37.9,17.2L37,17.2C35.8,17.2 34.6,17.1 33.4,16.9C31.9,16.7 30.3,16.3 28.9,15.7C27.4,15.1 26,14.4 24.7,13.5L24,13C23.9,12.9 23.9,12.9 23.8,12.9L23.3,12.5L24,11.7L24.5,12.1L24.6,12.2L25.3,12.7C26.5,13.6 27.9,14.3 29.3,14.8C30.7,15.3 32.1,15.7 33.6,15.9C35,16.1 36.5,16.2 38,16.1C38.6,16.1 39.2,16 39.7,16L40.1,16L40.5,15.9L40.8,15.9Z" style="fill-rule:nonzero;"/>
    </g>
    <g transform="matrix(1,0,0,1,9.4369e-16,0.1)">
        <path d="M105.7,40.1L105.5,41.1L104.1,40.9L102.8,40.6L102,40.3L101.9,40.3C101.8,40.3 101.7,40.2 101.6,40.2L100.8,39.9L100.7,39.9C100.6,39.9 100.5,39.8 100.4,39.8L99.7,39.4C99.6,39.3 99.4,39.3 99.3,39.2L98.6,38.7L97.8,38.1L97,37.4L95.7,36.1C95.6,36 95.6,35.9 95.5,35.8L95,35.2C94.4,34.2 93.9,33.2 93.5,32.1L93.3,31.5L94.1,31.2L94.3,31.2L94.5,31.9C94.8,32.9 95.3,33.8 95.8,34.7L96,35C96,35.1 96.1,35.1 96.1,35.1L96.5,35.5C96.6,35.6 96.6,35.7 96.7,35.7L98,37L98.8,37.6L99.5,38.1C99.6,38.2 99.7,38.2 99.8,38.3L100.6,38.7C100.7,38.7 100.7,38.8 100.8,38.8L100.9,38.9L101.7,39.2C101.8,39.2 101.9,39.3 101.9,39.3C102,39.3 102,39.3 102.1,39.4L102.9,39.7L104.2,40L105.7,40.1Z" style="fill-rule:nonzero;"/>
    </g>
    <g transform="matrix(1,0,0,1,9.4369e-16,0.1)">
        <path d="M105,42.3L104.8,43.3L103.7,43.1L102.2,42.8L101.3,42.5L101.1,42.4C101,42.4 100.9,42.3 100.8,42.3L99.7,42L99.6,41.9C99.5,41.9 99.4,41.8 99.2,41.7L98.3,41.3C98.1,41.2 98,41.1 97.9,41.1L97,40.6L96,39.9L95.8,39.7C93.7,37.9 92.1,35.6 91.3,32.9C91.3,32.8 91.2,32.7 91.2,32.5L91.2,32.3L91.9,32.1L92.1,32C92.1,32.1 92.1,32.2 92.2,32.2L92.3,32.6C93.1,35 94.5,37.2 96.5,38.9L96.7,39.1L97.7,39.8L98.6,40.3C98.7,40.4 98.8,40.4 98.9,40.5L99.8,41C99.9,41 100,41.1 100.1,41.1C100.1,41.1 100.2,41.1 100.3,41.2L101.2,41.6C101.3,41.6 101.4,41.7 101.5,41.7L101.7,41.8L102.6,42.1L104,42.4L105,42.3Z" style="fill-rule:nonzero;"/>
    </g>
    <g transform="matrix(1,0,0,1,9.4369e-16,0.1)">
        <path d="M104.4,44.6L104.2,45.6L103.2,45.4L101.5,45L100.4,44.7L100.2,44.6C100.1,44.6 99.9,44.5 99.8,44.5L98.7,44.1L98.5,44C98.4,43.9 98.2,43.9 98.1,43.8L97.1,43.3C96.9,43.2 96.8,43.1 96.6,43L95.6,42.4L94.4,41.5L94.2,41.3C91.7,39.2 89.9,36.5 88.9,33.4L89,33.2C89,33.1 89,33 88.9,33L89.8,32.7L89.9,32.7C89.9,32.8 90,32.9 90,33L90.1,33.2C91,36.1 92.7,38.7 95,40.6L95.2,40.8L96.3,41.6L97.3,42.2C97.4,42.3 97.6,42.4 97.7,42.4L98.7,42.9C98.8,43 98.9,43 99,43L99.2,43.1L100.2,43.5C100.3,43.5 100.4,43.6 100.5,43.6L100.7,43.7L101.7,44L103.3,44.4L104.4,44.6Z" style="fill-rule:nonzero;"/>
    </g>
    <g transform="matrix(1,0,0,1,9.4369e-16,0.1)">
        <path d="M75.8,28.7C75.7,29.1 75.5,29.4 75.4,29.7C74.4,29.7 73.4,29.5 72.4,29.3C71.6,29.1 70.8,28.9 70,28.6C70,28.5 70.1,28.4 70.1,28.2L70.1,28C70.1,27.8 70.2,27.7 70.2,27.5C71,27.8 71.8,28 72.6,28.2C73.7,28.6 74.8,28.7 75.8,28.7Z" style="fill-rule:nonzero;"/>
    </g>
    <g transform="matrix(1,0,0,1,9.4369e-16,0.1)">
        <path d="M99.8,24.1C99.6,24.1 99.3,24.2 99.1,24.2L98.7,24.3C98.4,24.3 98.2,24.4 98,24.4C95.5,24.9 93.1,25.7 90.8,26.5L90,26.7C87.9,27.4 85.8,28.1 83.8,28.6C83.9,28.4 83.9,28.1 84,27.9C84,27.7 84.1,27.6 84.1,27.4C85.9,26.9 87.8,26.3 89.7,25.6L90.5,25.3C92.8,24.5 95.2,23.7 97.8,23.2C98,23.1 98.3,23.1 98.6,23.1L99,23C99.3,23 99.5,22.9 99.8,22.9L99.8,24.1Z" style="fill-rule:nonzero;"/>
    </g>
    <g transform="matrix(1,0,0,1,9.4369e-16,0.1)">
        <path d="M100.4,26.4L100,26.4C99.8,26.4 99.6,26.5 99.3,26.5L98.9,26.6C98.7,26.6 98.5,26.7 98.3,26.7C95.9,27.2 93.5,28 91.2,28.7L90.7,29C88.4,29.8 86.1,30.5 83.7,31.1C83.5,31.2 83.2,31.2 83,31.3L83.1,31.1C83.2,30.8 83.3,30.5 83.4,30.2L83.5,30.2C85.8,29.6 88.2,28.9 90.4,28.1L91.1,27.9C93.4,27.1 95.8,26.3 98.3,25.8C98.5,25.8 98.8,25.7 99,25.7L99.4,25.6C99.6,25.6 99.9,25.5 100.1,25.5L100.5,25.5L100.4,26.4Z" style="fill-rule:nonzero;"/>
    </g>
    <g transform="matrix(1,0,0,1,9.4369e-16,0.1)">
        <path d="M72.2,30.6C73.1,30.8 74,30.9 74.9,31C74.8,31.3 74.6,31.6 74.5,31.8C74.5,31.9 74.4,31.9 74.4,32C73.6,31.9 72.8,31.8 72,31.6C71.1,31.4 70.2,31.1 69.4,30.8C69.5,30.5 69.7,30.2 69.8,29.8C70.5,30.2 71.4,30.4 72.2,30.6Z" style="fill-rule:nonzero;"/>
    </g>
    <g transform="matrix(1,0,0,1,9.4369e-16,0.1)">
        <path d="M100.2,28.8L99.8,28.9L99.5,29C99.3,29 99.1,29.1 98.9,29.1C96.6,29.6 94.3,30.3 91.9,31.1L91.3,31.3C89,32.1 86.7,32.8 84.2,33.5C83.4,33.7 82.6,33.9 81.9,34C82,33.8 82.1,33.7 82.1,33.5C82.2,33.3 82.3,33.1 82.4,32.9C82.9,32.8 83.4,32.7 84,32.5C86.4,31.9 88.8,31.1 91,30.4L91.6,30.2C94.1,29.4 96.4,28.6 98.7,28.1C98.9,28.1 99.1,28 99.3,28L99.6,27.9C99.7,27.9 99.9,27.9 100,27.8L100.2,28.8Z" style="fill-rule:nonzero;"/>
    </g>
    <g transform="matrix(1,0,0,1,9.4369e-16,0.1)">
        <path d="M73.6,33.2C73.5,33.4 73.3,33.6 73.2,33.7C73.1,33.8 73.1,33.9 73,34L72.9,34.1C72.4,34 71.9,33.9 71.5,33.8C70.4,33.6 69.3,33.2 68.2,32.8C68.4,32.5 68.6,32.2 68.7,31.9C69.7,32.3 70.6,32.6 71.7,32.8C72.3,33.1 73,33.2 73.6,33.2Z" style="fill-rule:nonzero;"/>
    </g>
    <g transform="matrix(1,0,0,1,9.4369e-16,0.1)">
        <path d="M87.3,17.8C86.9,17.9 86.5,18 86,18C86.8,16.8 87.7,15.7 88.6,14.6C88.9,14.3 89.2,13.9 89.5,13.6L89.6,13.5L90.4,14.2L90.3,14.3C90,14.6 89.7,15 89.4,15.3C88.7,16.1 88.1,16.9 87.5,17.7L87.3,17.8Z" style="fill-rule:nonzero;"/>
    </g>
    <g transform="matrix(1,0,0,1,9.4369e-16,0.1)">
        <path d="M82.5,25.8L83.6,25.8C83.6,25.9 83.5,26 83.5,26.1C83.4,26.6 83.2,27.1 83.1,27.6C82.9,28.2 82.8,28.8 82.6,29.4C82.3,30.6 81.8,31.8 81.4,32.9C80.9,34.1 80.3,35.2 79.6,36.3C79.3,36.7 79,37.2 78.7,37.6C78.3,37.5 78,37.4 77.6,37.3C78,36.8 78.4,36.2 78.7,35.7C79.4,34.7 79.9,33.6 80.4,32.4C80.9,31.3 81.3,30.2 81.6,29C81.8,28.4 82,27.8 82.1,27.2C82.2,26.9 82.4,26.4 82.5,25.8Z" style="fill-rule:nonzero;"/>
    </g>
    <g transform="matrix(1,0,0,1,9.4369e-16,0.1)">
        <path d="M83.2,18.2C83.7,17.3 84.2,16.5 84.7,15.8C85.4,14.9 86.1,14 86.9,13.1C87.2,12.7 87.6,12.4 87.9,12C88,11.9 88.2,11.7 88.3,11.6L89.1,12.3L88.7,12.7C88.4,13 88,13.4 87.7,13.8C87,14.6 86.2,15.5 85.6,16.4C85.2,17 84.8,17.6 84.4,18.2C84,18.3 83.6,18.3 83.2,18.2Z" style="fill-rule:nonzero;"/>
    </g>
    <g transform="matrix(1,0,0,1,9.4369e-16,0.1)">
        <path d="M80.2,25.6C80.5,25.6 80.9,25.7 81.2,25.7C81.1,26.1 80.9,26.6 80.8,27C80.3,28.7 79.8,30.4 79.1,32C78.6,33.1 78.1,34.1 77.5,35.1C77.1,35.8 76.6,36.5 76,37.1C75.6,37 75.2,37 74.8,36.9C75.4,36.1 76,35.3 76.6,34.5C77.2,33.6 77.7,32.6 78.1,31.6C78.8,30 79.3,28.3 79.7,26.7C79.9,26.3 80.1,26 80.2,25.6Z" style="fill-rule:nonzero;"/>
    </g>
    <g transform="matrix(1,0,0,1,9.4369e-16,0.1)">
        <path d="M80.6,18L80.8,17.7C81.4,16.6 82.1,15.5 82.8,14.5C83.5,13.5 84.3,12.5 85.1,11.6C85.5,11.2 85.8,10.8 86.2,10.4L87,11.1C86.6,11.5 86.3,11.9 85.9,12.3C85.1,13.2 84.3,14.1 83.6,15.1C82.9,16.1 82.3,17.1 81.7,18.1L81.3,18.1C81.1,18 80.9,18 80.6,18Z" style="fill-rule:nonzero;"/>
    </g>
    <g transform="matrix(1,0,0,1,9.4369e-16,0.1)">
        <path d="M77.9,25.1C78.2,25.2 78.6,25.3 78.9,25.3C78.8,25.6 78.7,26 78.6,26.3C78.1,28 77.7,29.6 77,31.1C76.6,32.1 76.1,33 75.6,33.8C75,34.7 74.4,35.5 73.7,36.3L73.5,36.6L73.3,36.8L71.9,36.8L72.7,36C72.8,35.9 72.9,35.8 72.9,35.7C73.5,35 74.1,34.2 74.7,33.4C75.2,32.6 75.7,31.7 76.1,30.8C76.7,29.4 77.2,27.8 77.6,26.1C77.7,25.7 77.8,25.4 77.9,25.1Z" style="fill-rule:nonzero;"/>
    </g>
    <g transform="matrix(1,0,0,1,9.4369e-16,0.1)">
        <path d="M94.9,15.9C94.8,16 94.7,16.1 94.6,16.1C94.5,16.2 94.3,16.4 94.2,16.5L93.7,16.9L93.5,17C90.9,18.9 87.7,20 84.4,20.2L83.7,20.2C82.3,20.2 80.9,20 79.5,19.7C78.8,19.5 78,19.3 77.3,19C77.6,18.7 77.9,18.5 78.2,18.2C78.7,18.4 79.2,18.5 79.7,18.6C81.2,19 82.8,19.1 84.3,19C87.4,18.9 90.3,17.9 92.8,16.1L93,16L93.5,15.6C93.6,15.5 93.8,15.4 93.9,15.3C94,15.2 94.1,15.1 94.2,15.1L94.9,15.9Z" style="fill-rule:nonzero;"/>
    </g>
    <g transform="matrix(1,0,0,1,9.4369e-16,0.1)">
        <path d="M96.3,17.8C96.1,18 95.9,18.2 95.7,18.3L95.1,18.8L94.9,19C91.9,21.2 88.3,22.5 84.5,22.6L83.7,22.6C82.1,22.6 80.5,22.4 79,22C77.7,21.7 76.3,21.2 75.1,20.6C75.5,20.4 75.8,20.1 76.1,19.9C77.1,20.3 78.2,20.7 79.2,20.9C80.9,21.3 82.7,21.5 84.4,21.4C87.9,21.3 91.3,20.1 94.2,18L94.4,17.8L95,17.3C95.2,17.2 95.3,17 95.5,16.9L95.6,16.9L96.3,17.8Z" style="fill-rule:nonzero;"/>
    </g>
    <g transform="matrix(1,0,0,1,9.4369e-16,0.1)">
        <path d="M97.7,19.7C97.6,19.8 97.4,19.9 97.3,20.1L96.6,20.7L96.4,20.9C95.6,21.5 94.7,22.1 93.7,22.6C93.3,22.8 92.8,23 92.4,23.2L92.3,23.3L92.2,23.3C91.8,23.5 91.3,23.7 90.8,23.8C89.8,24.1 88.8,24.4 87.8,24.6C86.8,24.8 85.7,24.9 84.7,24.9L83.8,24.9C79.9,24.9 76.1,23.9 72.7,22.1C73.1,21.9 73.4,21.7 73.8,21.5C78,23.7 82.9,24.4 87.6,23.6C88.6,23.4 89.5,23.2 90.5,22.8C90.9,22.7 91.4,22.5 91.8,22.3L93.2,21.6C94.1,21.1 94.9,20.6 95.7,20L95.9,19.8L96.6,19.3C96.7,19.2 96.9,19.1 97,19L97.7,19.7Z" style="fill-rule:nonzero;"/>
    </g>
    <g transform="matrix(1,0,0,1,9.4369e-16,0.1)">
        <path d="M52,15.9C51.5,15.4 51.1,14.8 50.6,14.3C49.9,13.5 49.3,12.6 48.7,11.7C48.1,10.8 47.6,9.8 47.1,8.8C46.7,7.8 46.3,6.7 46,5.6C45.8,4.6 45.6,3.5 45.5,2.4L45.5,2C45.5,1.7 45.5,1.5 45.4,1.2L45.4,0.5L46.4,0.5L46.4,1.2C46.4,1.4 46.4,1.7 46.5,2L46.5,2.4C46.6,3.4 46.8,4.4 47,5.4C47.2,6.4 47.6,7.4 48,8.4C48.4,9.4 48.9,10.3 49.5,11.2C50.1,12 50.7,12.9 51.3,13.6C51.8,14.2 52.2,14.7 52.7,15.2C53.5,16.1 54.2,17 54.9,17.9C55.4,18.6 56,19.4 56.4,20.1C56.7,20.5 56.9,20.9 57.2,21.4C56.9,21.6 56.6,21.8 56.3,22C56,21.5 55.8,21.1 55.5,20.6C55.1,19.9 54.6,19.2 54,18.5C53.6,17.7 52.8,16.8 52,15.9Z" style="fill-rule:nonzero;"/>
    </g>
    <g transform="matrix(1,0,0,1,9.4369e-16,0.1)">
        <path d="M52.5,12.7C51.9,12 51.3,11.2 50.8,10.4C50.3,9.6 49.8,8.7 49.4,7.8C49,6.9 48.7,6 48.4,5C48.2,4.1 48,3.1 47.9,2.1L47.9,1.7C47.9,1.5 47.9,1.2 47.8,1L47.8,-0.1L48.8,-0.1L48.8,0.9C48.8,1.1 48.8,1.3 48.9,1.6L48.9,2C49,2.9 49.1,3.8 49.4,4.7C49.6,5.6 49.9,6.5 50.3,7.3C50.7,8.1 51.1,9 51.6,9.7C52.1,10.5 52.7,11.2 53.3,11.9C53.7,12.4 54.2,13 54.6,13.5C55.4,14.4 56.2,15.4 56.9,16.3C57.5,17.1 58,17.9 58.5,18.7C58.8,19.1 59,19.5 59.3,20C59,20.2 58.7,20.3 58.4,20.5C58.2,20.1 57.9,19.6 57.7,19.2C57.2,18.4 56.7,17.7 56.1,16.9C55.4,15.9 54.6,15 53.8,14.1C53.4,13.8 52.9,13.3 52.5,12.7Z" style="fill-rule:nonzero;"/>
    </g>
    <g transform="matrix(1,0,0,1,9.4369e-16,0.1)">
        <path d="M51.5,6.9C51.2,6.1 50.9,5.3 50.7,4.5C50.5,3.7 50.4,2.8 50.3,1.9L50.3,0.4L51.3,0.4L51.3,1.9C51.4,2.7 51.5,3.5 51.7,4.3C51.9,5.1 52.1,5.8 52.4,6.5C52.9,7.8 53.8,9.1 55,10.6C55.4,11.1 55.8,11.6 56.3,12.1C57.1,13 57.9,14 58.7,15.1C59.3,15.9 59.9,16.8 60.5,17.7C60.8,18.1 61.1,18.6 61.3,19.1C61,19.3 60.7,19.4 60.4,19.6C60.1,19.1 59.9,18.7 59.6,18.3C59.1,17.5 58.5,16.6 57.9,15.8C57.1,14.8 56.3,13.8 55.5,12.9C55.1,12.4 54.6,11.9 54.2,11.4C53,9.6 52.1,8.3 51.5,6.9Z" style="fill-rule:nonzero;"/>
    </g>
    <g transform="matrix(1,0,0,1,9.4369e-16,0.1)">
        <path d="M71.6,3.8C71.5,4.2 71.3,4.7 71.1,5.1C70.3,6.8 69.1,8.4 67.5,9.5L67.5,8.2C68.6,7.2 69.5,6 70.1,4.7C70.3,4.3 70.4,3.9 70.6,3.5L71.6,3.8Z" style="fill-rule:nonzero;"/>
    </g>
    <g transform="matrix(1,0,0,1,9.4369e-16,0.1)">
        <path d="M73.9,4.1C73.7,4.8 73.4,5.5 73.1,6.1C73,6.4 72.9,6.6 72.7,6.8C72.6,6.9 72.6,7 72.5,7.1L72.3,7.4C72.2,7.6 72,7.9 71.9,8.1C71.5,8.8 71,9.4 70.4,9.9L69.6,10.7L69.4,11C69.3,11.1 69.3,11.1 69.2,11.1L68.7,11.5L68.1,11.9L67.7,12.1C67.6,11.7 67.6,11.4 67.6,11L68.1,10.7L68.6,10.3L68.9,10L69.1,9.9C69.2,9.8 69.3,9.8 69.4,9.7L69.8,9.3C70.3,8.8 70.8,8.2 71.2,7.6C71.3,7.4 71.5,7.2 71.6,7C71.7,6.9 71.7,6.8 71.8,6.7C71.9,6.6 71.9,6.5 72,6.4C72.1,6.2 72.2,6 72.3,5.7C72.6,5.1 72.8,4.5 73,3.8L73.9,4.1Z" style="fill-rule:nonzero;"/>
    </g>
    <g transform="matrix(1,0,0,1,9.4369e-16,0.1)">
        <path d="M76,5.3C75.8,5.9 75.6,6.5 75.3,7.1C75.2,7.4 75,7.7 74.9,8L74.5,8.6C74.3,8.9 74.2,9.2 74,9.5C73.5,10.3 72.9,11 72.2,11.7L71.7,12.2C71.6,12.3 71.4,12.4 71.3,12.5L71.1,12.6L70.8,12.8C70.7,12.9 70.7,12.9 70.6,13L70,13.5L69.3,13.9C69.2,13.9 69.2,14 69.1,14L68.6,14.2L68.2,14.4C68.1,14 68,13.7 67.9,13.4L68.7,13L69.4,12.6L70,12.1C70.1,12.1 70.1,12 70.2,12L70.5,11.8L70.7,11.7L71.5,10.9C72.1,10.3 72.7,9.6 73.2,8.9C73.4,8.7 73.5,8.4 73.7,8.1L73.9,7.8C74,7.7 74,7.6 74.1,7.5C74.3,7.2 74.4,6.9 74.5,6.7C74.6,6.1 74.8,5.5 75,5L76,5.3Z" style="fill-rule:nonzero;"/>
    </g>
    <g transform="matrix(1,0,0,1,9.4369e-16,0.1)">
        <path d="M3.9,32.4C3.7,32.3 3.4,32.2 3.2,32.1L2.8,32L3.2,31L3.5,31.1C3.8,31.2 4,31.3 4.3,31.4L4.9,31.7C5.1,31.8 5.2,31.8 5.4,31.9L6,32.3C6.2,32.4 6.3,32.5 6.5,32.6L6.7,32.7L7,32.8L7.3,33L7.5,33.1C7.6,33.2 7.8,33.3 7.9,33.4C8.7,34 9.5,34.7 10.2,35.5C10.9,36.3 11.5,37.1 12,38.1C12.5,39 12.9,39.9 13.2,40.8C12.8,40.7 12.4,40.6 12,40.5C11.7,39.9 11.4,39.2 11.1,38.6C10.6,37.8 10,37 9.4,36.2C8.7,35.5 8,34.8 7.2,34.2C7.1,34.1 6.9,34 6.8,33.9L6.6,33.8L6,33.4C5.9,33.3 5.7,33.2 5.6,33.2L5,32.9C4.9,32.8 4.7,32.8 4.6,32.7L3.9,32.4Z" style="fill-rule:nonzero;"/>
    </g>
    <g transform="matrix(1,0,0,1,9.4369e-16,0.1)">
        <path d="M3.3,34.7C3.2,34.7 3.1,34.6 2.9,34.6C2.7,34.5 2.5,34.4 2.3,34.4L2,34.2L2.4,33.2L2.7,33.3C2.9,33.4 3.1,33.5 3.3,33.5L3.6,33.6C3.8,33.7 4,33.8 4.2,33.9C5,34.3 5.7,34.7 6.4,35.3C7.1,35.8 7.8,36.4 8.4,37.1C9,37.8 9.5,38.5 9.9,39.3C10.1,39.6 10.2,39.9 10.3,40.2L9.9,40.1C9.6,40 9.3,40 9,39.9L9,39.8C8.6,39.1 8.1,38.4 7.6,37.8C7.1,37.2 6.5,36.6 5.8,36.2C5.1,35.7 4.4,35.3 3.7,34.9C3.7,34.9 3.5,34.8 3.3,34.7Z" style="fill-rule:nonzero;"/>
    </g>
    <g transform="matrix(1,0,0,1,9.4369e-16,0.1)">
        <path d="M2.9,37.1C2.8,37 2.7,37 2.6,36.9L2.1,36.7L2.5,35.8L3,36C3.1,36.1 3.2,36.1 3.4,36.2L3.9,36.4C4,36.5 4.1,36.5 4.2,36.6L4.6,36.8L4.8,37L5,37.1C5.1,37.2 5.2,37.2 5.3,37.3C5.9,37.7 6.4,38.2 6.9,38.8C7.2,39.1 7.4,39.4 7.6,39.7C7.4,39.7 7.2,39.6 6.9,39.6C6.6,39.6 6.4,39.5 6.1,39.5C5.7,39 5.2,38.6 4.7,38.2C4.5,38.1 4.4,38 4.4,38L4.2,37.9L4,37.7L3.8,37.6C3.7,37.6 3.7,37.5 3.6,37.5C3.5,37.4 3.4,37.4 3.3,37.4L2.9,37.1Z" style="fill-rule:nonzero;"/>
    </g>
    <g transform="matrix(1,0,0,1,9.4369e-16,0.1)">
        <path d="M24.9,36.1C25.1,36.1 25.4,36 25.6,36C24.5,37.4 23.6,39.3 22.6,41.2L22.5,41.5C21.4,43.6 20.3,45.9 18.6,48C17.7,49.1 16.7,50.1 15.6,51C14.5,51.9 13.2,52.7 11.9,53.2C10.6,53.7 9.2,54.1 7.8,54.3L6.8,54.4L2.6,54.4L2.7,53.4L6.8,53.4L7.8,53.3C9.1,53.1 10.4,52.7 11.6,52.3C12.9,51.8 14,51.1 15.1,50.2C16.1,49.4 17.1,48.4 17.9,47.4C19.5,45.4 20.6,43.2 21.7,41.1L21.8,40.8C22.6,39.2 23.4,37.6 24.3,36.3C24.4,36.1 24.7,36.1 24.9,36.1Z" style="fill-rule:nonzero;"/>
    </g>
    <g transform="matrix(1,0,0,1,9.4369e-16,0.1)">
        <path d="M21.3,36.3L22.5,36.3C22.3,36.6 22.2,36.8 22,37.1C21.5,38 21,39 20.5,40L20.4,40.2C19.4,42.2 18.2,44.4 16.7,46.4C15.9,47.4 15.1,48.2 14.1,49C13.1,49.8 12.1,50.4 10.9,50.9C9.8,51.3 8.6,51.7 7.4,51.8L6.5,52L6,52L4.7,52.1L3.3,52.1L1.7,52L1.8,51L6.4,51L7.3,50.9C8.4,50.7 9.5,50.4 10.6,50C11.6,49.6 12.6,49 13.5,48.3C14.4,47.6 15.2,46.8 15.9,45.8C17.4,43.9 18.5,41.7 19.5,39.8L19.6,39.6C20.1,38.6 20.6,37.6 21.2,36.7C21.2,36.5 21.2,36.4 21.3,36.3Z" style="fill-rule:nonzero;"/>
    </g>
    <g transform="matrix(1,0,0,1,9.4369e-16,0.1)">
        <path d="M19,36.2C19.3,36.2 19.5,36.2 19.8,36.3C19.3,37.2 18.9,38.1 18.4,38.9L18.3,39.2C17.2,41.4 16.2,43.4 14.9,45C13.5,46.8 11.9,48 10.1,48.8C9.1,49.2 8.1,49.4 7.1,49.6L6.3,49.7L3.4,49.7L2,49.6L2.1,48.6L3.5,48.7L6.3,48.7L7,48.5C7.9,48.4 8.9,48.1 9.7,47.8C11.3,47.1 12.8,46 14.1,44.4C15.3,42.8 16.3,40.9 17.4,38.8L17.5,38.5C17.9,37.8 18.3,37 18.7,36.2L19,36.2Z" style="fill-rule:nonzero;"/>
    </g>
    <g transform="matrix(1,0,0,1,9.4369e-16,0.1)">
        <path d="M17.9,23.1C16.5,21.4 14.8,19.8 12.9,18.5C12.4,18.2 11.9,17.8 11.4,17.5L11.9,16.6C12.4,16.9 13,17.2 13.5,17.6C15.4,19 17.1,20.5 18.7,22.3C19.5,23.2 20.2,24.2 20.8,25.2C21.5,26.3 22,27.4 22.4,28.6L21.3,28.6C20.9,27.6 20.5,26.6 19.9,25.7C19.3,24.9 18.6,23.9 17.9,23.1Z" style="fill-rule:nonzero;"/>
    </g>
    <g transform="matrix(1,0,0,1,9.4369e-16,0.1)">
        <path d="M16.1,24.6C14.8,23 13.3,21.6 11.6,20.5C11,20.1 10.5,19.8 9.9,19.4L10.4,18.5C11,18.8 11.6,19.2 12.2,19.6C13.9,20.8 15.5,22.3 16.9,23.9C17.6,24.7 18.2,25.6 18.8,26.5C19.2,27.2 19.6,27.9 19.9,28.7L19.8,28.7C19.4,28.7 19.1,28.6 18.7,28.5C18.5,28 18.2,27.5 17.9,27C17.3,26.2 16.7,25.3 16.1,24.6Z" style="fill-rule:nonzero;"/>
    </g>
    <g transform="matrix(1,0,0,1,9.4369e-16,0.1)">
        <path d="M14.3,26.1C13.1,24.7 11.8,23.4 10.3,22.4C9.8,22.1 9.3,21.7 8.8,21.5L9.3,20.6C9.9,20.9 10.4,21.2 10.9,21.6C12.5,22.7 13.9,24 15.1,25.5C15.7,26.2 16.3,27 16.8,27.8C16.9,27.9 17,28.1 17,28.2C16.9,28.2 16.7,28.1 16.6,28.1L15.9,27.8C15.8,27.8 15.7,27.7 15.6,27.6L15.5,27.6C15,27.1 14.7,26.6 14.3,26.1Z" style="fill-rule:nonzero;"/>
    </g>
    <g transform="matrix(1,0,0,1,9.4369e-16,0.1)">
        <path d="M78.7,7.7L78.6,8C78.5,8.4 78.3,8.8 78.1,9.2C77.6,10.4 76.9,11.5 76.1,12.4C75.3,13.4 74.3,14.3 73.3,15C71.2,16.5 68.8,17.7 66.1,18.9L65.8,19.1C64.6,19.6 63.4,20.2 62.2,20.8C60.8,21.5 59.5,22.3 58.3,23.1C57,24 55.8,25.1 54.8,26.4L54.7,26.5C54.6,26.2 54.5,25.9 54.4,25.5C54.4,25.4 54.4,25.4 54.3,25.3C55.3,24.2 56.4,23.1 57.7,22.3C59,21.4 60.4,20.6 61.8,19.9C63,19.3 64.3,18.7 65.5,18.2L65.8,18C68.5,16.8 70.9,15.7 72.8,14.2C73.8,13.5 74.7,12.7 75.4,11.7C76.2,10.8 76.8,9.8 77.2,8.7C77.4,8.3 77.5,8 77.6,7.6L77.7,7.3L78.7,7.7Z" style="fill-rule:nonzero;"/>
    </g>
    <g transform="matrix(1,0,0,1,9.4369e-16,0.1)">
        <path d="M81,8.2C80.9,8.3 80.9,8.5 80.9,8.6C80.7,9.1 80.5,9.6 80.3,10.1C79.7,11.5 78.9,12.7 78,13.9C77,15 76,16 74.8,16.9C72.4,18.7 69.6,20 67.1,21.1L66.6,21.3C64.2,22.4 61.7,23.5 59.6,25.1C58.5,25.9 57.4,26.8 56.5,27.9C56.1,28.4 55.8,28.8 55.5,29.4C55.4,28.9 55.3,28.5 55.1,28.1C55.3,27.8 55.5,27.6 55.7,27.3C56.6,26.1 57.7,25.1 59,24.3C61.2,22.7 63.7,21.6 66.2,20.4L66.7,20.2C69.1,19.1 71.8,17.9 74.2,16.1C75.3,15.3 76.4,14.3 77.3,13.3C78.2,12.2 78.9,11 79.5,9.8C79.7,9.4 79.9,8.9 80,8.5C80,8.4 80.1,8.2 80.2,8.1L81,8.2Z" style="fill-rule:nonzero;"/>
    </g>
    <g transform="matrix(1,0,0,1,9.4369e-16,0.1)">
        <path d="M83.3,8.8C83.2,9 83.2,9.2 83.1,9.3C82.9,9.9 82.7,10.5 82.4,11C81.7,12.6 80.8,14 79.7,15.3C78.6,16.6 77.4,17.7 76,18.7C74.7,19.6 73.4,20.5 72,21.2C70.7,21.9 69.4,22.5 68.1,23.1L67.7,23.3C65.2,24.5 62.8,25.5 60.8,27C59.8,27.7 59,28.5 58.2,29.4C57.4,30.4 56.8,31.4 56.1,33.3C56,32.6 55.9,32 55.8,31.3C56.2,30.4 56.8,29.5 57.4,28.7C58.2,27.7 59.2,26.8 60.2,26.1C62.3,24.6 64.7,23.5 67.3,22.4L67.7,22.2C68.9,21.6 70.2,21 71.5,20.4C72.9,19.7 74.2,18.9 75.4,18C76.7,17.1 77.9,16 78.9,14.8C79.9,13.6 80.8,12.2 81.4,10.7C81.6,10.2 81.9,9.6 82,9.1C82.1,8.9 82.1,8.7 82.2,8.5L83.3,8.8Z" style="fill-rule:nonzero;"/>
    </g>
    <g transform="matrix(1,0,0,1,9.4369e-16,0.1)">
        <path d="M99.3,36.8C99.8,36.7 100.2,36.5 100.7,36.4C101.4,36.2 102.1,36.1 102.7,35.9C103.2,35.8 103.7,35.7 104.2,35.7L104.3,36.7C103.9,36.7 103.4,36.8 102.9,36.9C102.3,37 101.6,37.2 101,37.3L100.6,37.4L100,37.1C99.8,37 99.7,36.9 99.5,36.8L99.3,36.8Z" style="fill-rule:nonzero;"/>
    </g>
    <g transform="matrix(1,0,0,1,9.4369e-16,0.1)">
        <path d="M92.3,40.7C92,40.8 91.7,41 91.4,41.2C90.6,41.7 89.8,42.1 89.2,42.5L89.1,42.4L88.2,42C89.1,41.4 90,40.8 90.9,40.3C91.1,40.2 91.3,40.1 91.5,40C91.6,40.1 91.7,40.2 91.8,40.4L92.3,40.7Z" style="fill-rule:nonzero;"/>
    </g>
    <g transform="matrix(1,0,0,1,9.4369e-16,0.1)">
        <path d="M90.7,38.9L90.3,39.1C89.1,39.7 88,40.4 86.9,41.3C86.6,41.1 86.2,40.9 85.9,40.8L86,40.7C87.2,39.8 88.4,39 89.7,38.3L90.1,38.1L90.2,38.2L90.3,38.4L90.7,38.9Z" style="fill-rule:nonzero;"/>
    </g>
    <g transform="matrix(1,0,0,1,9.4369e-16,0.1)">
        <path d="M97.3,35C97.5,34.9 97.7,34.9 97.9,34.8C98.6,34.6 99.3,34.4 100,34.2C100.8,34 101.5,33.8 102.2,33.7C102.9,33.6 103.6,33.5 104.3,33.4L104.4,34.4C103.7,34.5 103.1,34.5 102.4,34.7C101.7,34.8 101,35 100.3,35.2C99.6,35.4 98.9,35.6 98.2,35.8L98,35.9L97.4,35.3C97.4,35.1 97.4,35.1 97.3,35Z" style="fill-rule:nonzero;"/>
    </g>
    <g transform="matrix(1,0,0,1,9.4369e-16,0.1)">
        <path d="M96,32.9C96.4,32.8 96.8,32.6 97.2,32.5C98,32.3 98.7,32 99.4,31.9C100.2,31.7 101,31.5 101.7,31.4C102.4,31.3 103,31.2 103.6,31.1L103.7,32.1C103.1,32.2 102.6,32.2 101.9,32.4C101.2,32.5 100.4,32.7 99.6,32.9C98.9,33.1 98.1,33.3 97.4,33.5C97.1,33.6 96.7,33.7 96.4,33.8L96.4,33.7L96,32.9Z" style="fill-rule:nonzero;"/>
    </g>
    <g transform="matrix(1,0,0,1,9.4369e-16,0.1)">
        <path d="M89.5,36.9L89.2,37.1C87.8,37.8 86.5,38.7 85.3,39.7C85.1,39.9 84.9,40 84.7,40.2C84.4,40 84,39.9 83.7,39.7C84,39.4 84.3,39.1 84.6,38.9C85.9,37.9 87.3,37 88.7,36.2L89,36L89.2,36.5L89.5,36.9Z" style="fill-rule:nonzero;"/>
    </g>
    <g transform="matrix(1,0,0,1,9.4369e-16,0.1)">
        <path d="M34.3,4.8L34.1,4.4L35,3.9L35.2,4.3C35.3,4.4 35.3,4.6 35.4,4.7C35.4,4.7 35.4,4.8 35.5,4.8L35.7,5.4C36.3,7 36.7,8.7 36.8,10.4L36.8,10.5L35.8,10.5C35.7,8.9 35.3,7.3 34.7,5.8L34.5,5.2C34.5,5.2 34.5,5.1 34.4,5C34.4,5 34.4,4.9 34.3,4.8Z" style="fill-rule:nonzero;"/>
    </g>
    <g transform="matrix(1,0,0,1,9.4369e-16,0.1)">
        <path d="M35.4,23.9C35,26.9 35,29.4 35.5,31.5C35.9,33.6 36.9,35.6 38.4,37.6L37.1,37.6C35.8,35.8 34.9,33.9 34.5,31.7C34,29.4 34,26.9 34.4,23.7C34.6,22.5 34.8,21.4 35,20.2C35.1,19.5 35.2,18.8 35.4,18L36.5,18C36.4,18.8 36.2,19.5 36.1,20.3C35.8,21.6 35.6,22.8 35.4,23.9Z" style="fill-rule:nonzero;"/>
    </g>
    <g transform="matrix(1,0,0,1,9.4369e-16,0.1)">
        <path d="M32.2,5.8L31.9,5.2L32.8,4.7L33.1,5.3C33.2,5.4 33.2,5.6 33.3,5.7L33.4,5.8L33.6,6.3C34.1,7.6 34.4,9 34.5,10.4L34,10.4L33.5,10.3C33.3,9 33,7.8 32.6,6.7L32.4,6.2C32.4,6.2 32.4,6.1 32.3,6.1C32.3,6 32.2,5.9 32.2,5.8Z" style="fill-rule:nonzero;"/>
    </g>
    <g transform="matrix(1,0,0,1,9.4369e-16,0.1)">
        <path d="M32.8,27.8C32.8,29.2 32.9,30.6 33.2,32C33.7,34 34.5,36 35.6,37.7L35.4,37.7C35.2,37.7 35,37.8 34.8,37.8L34.5,37.8C33.4,36.1 32.6,34.1 32.2,32.1C31.9,30.7 31.7,29.2 31.7,27.7C31.7,26.2 31.8,24.8 32,23.3C32.2,22.1 32.4,20.8 32.6,19.6C32.7,19 32.8,18.3 32.9,17.7L33.1,17.7C33.4,17.7 33.7,17.8 34,17.8C33.9,18.5 33.8,19.1 33.7,19.8C33.5,21 33.3,22.2 33.1,23.4C32.9,25 32.8,26.4 32.8,27.8Z" style="fill-rule:nonzero;"/>
    </g>
    <g transform="matrix(1,0,0,1,9.4369e-16,0.1)">
        <path d="M33.1,38L33.2,38.2C32.8,38.3 32.5,38.4 32.2,38.5L32,38.3C31.8,38 31.7,37.8 31.6,37.5C30.8,36 30.3,34.4 29.9,32.8C29.6,31.2 29.4,29.5 29.4,27.9C29.4,26.3 29.5,24.8 29.7,23.2C29.9,21.9 30.1,20.6 30.3,19.4C30.4,18.7 30.5,18.1 30.6,17.4C30.9,17.5 31.1,17.5 31.4,17.6L31.6,17.6C31.5,18.2 31.4,18.9 31.3,19.5C31.1,20.7 30.9,22 30.7,23.3C30.5,24.8 30.4,26.3 30.4,27.9C30.4,29.5 30.6,31 30.9,32.6C31.2,34.2 31.8,35.7 32.5,37.1C32.6,37.3 32.7,37.6 32.9,37.8L33.1,38Z" style="fill-rule:nonzero;"/>
    </g>
    <g transform="matrix(1,0,0,1,9.4369e-16,0.1)">
        <path d="M30.1,6.8L29.7,6L30.6,5.5L31,6.3C31.1,6.4 31.1,6.5 31.2,6.6L31.2,6.7L31.4,7.1C31.7,8 31.9,9 32.1,9.9L31.7,9.8C31.5,9.7 31.3,9.7 31.2,9.6L31,9.5C30.9,8.8 30.7,8.2 30.4,7.5L30.2,7.1C30.2,7.1 30.2,7 30.1,7L30.1,6.8Z" style="fill-rule:nonzero;"/>
    </g>
    <g transform="matrix(1,0,0,1,9.4369e-16,0.1)">
        <path d="M42.8,3.8C42.7,3.4 42.7,2.9 42.6,2.5C42.6,2.3 42.6,2.1 42.5,1.9L43.5,1.8C43.5,2 43.5,2.2 43.6,2.4C43.6,2.8 43.7,3.3 43.8,3.7C44.1,6 44.7,8.2 45.5,10.4C45.9,11.4 46.3,12.4 46.8,13.3C46.5,13.5 46.3,13.7 46,14C45.5,13 45,11.9 44.5,10.8C43.7,8.5 43.1,6.2 42.8,3.8Z" style="fill-rule:nonzero;"/>
    </g>
    <g transform="matrix(1,0,0,1,9.4369e-16,0.1)">
        <path d="M40.5,4.2C40.4,3.7 40.4,3.2 40.3,2.8C40.3,2.6 40.3,2.4 40.2,2.2L41.2,2.1C41.2,2.3 41.2,2.5 41.3,2.8C41.3,3.3 41.4,3.7 41.5,4.2C41.8,6.7 42.5,9.1 43.4,11.4C43.9,12.6 44.4,13.8 45,14.9C44.7,15.1 44.4,15.3 44.2,15.6C43.5,14.4 42.9,13.1 42.4,11.8C41.5,9.2 40.8,6.7 40.5,4.2Z" style="fill-rule:nonzero;"/>
    </g>
    <g transform="matrix(1,0,0,1,9.4369e-16,0.1)">
        <path d="M38.1,4.5C38.1,4 38,3.4 37.9,2.9L37.9,2.6L38.9,2.5L38.9,2.8C38.9,3.3 39,3.8 39.1,4.3C39.5,7 40.1,9.6 41.1,12C41.7,13.4 42.3,14.8 43.1,16.2C42.8,16.4 42.6,16.7 42.3,16.9C41.5,15.4 40.8,13.9 40.2,12.4C39.2,9.9 38.5,7.2 38.1,4.5Z" style="fill-rule:nonzero;"/>
    </g>
    <g transform="matrix(1,0,0,1,9.4369e-16,0.1)">
        <path d="M53.9,7.3C53.7,6.9 53.4,6.5 53.3,6C53.3,5.8 53.4,5.6 53.4,5.4L53.4,5.1L53.5,4.3L53.5,1.7L53.4,0.3L54.4,0.2L54.5,1.6L54.5,4.2L54.4,5L54.4,5.1C54.4,5.2 54.4,5.3 54.3,5.4C54.3,6.3 54.2,6.8 53.9,7.3Z" style="fill-rule:nonzero;"/>
    </g>
    <g transform="matrix(1,0,0,1,9.4369e-16,0.1)">
        <path d="M38.9,26.1C38.6,26.1 38.2,26 37.8,26C38.1,24.8 38.5,23.6 39.1,22.5C39.8,21.1 40.8,19.8 41.9,18.7C42.9,17.7 44,16.7 45.1,15.8C45.5,15.5 45.9,15.2 46.3,14.9C46.9,14.4 47.5,13.9 48.1,13.4C48.3,13.2 48.5,13.1 48.6,13C48.8,13.3 49,13.6 49.2,13.8C49,13.9 48.9,14.1 48.7,14.2C48.1,14.7 47.5,15.2 46.9,15.7C46.5,16 46.1,16.3 45.7,16.6C44.6,17.5 43.6,18.4 42.6,19.4C41.6,20.5 40.7,21.7 40,23C39.5,24 39.1,25 38.9,26.1Z" style="fill-rule:nonzero;"/>
    </g>
    <g transform="matrix(1,0,0,1,9.4369e-16,0.1)">
        <path d="M54.8,8.8C55.2,7.9 55.5,6.9 55.7,6L55.7,5.5L55.8,4.6L55.8,1.6L56,0.7L57,0.6L57.1,1.5L57.1,4.6L57,5.6L57,5.7C57,5.8 57,6 56.9,6.1C56.7,7.3 56.3,8.5 55.7,9.6C55.3,9.4 55,9 54.8,8.8Z" style="fill-rule:nonzero;"/>
    </g>
    <g transform="matrix(1,0,0,1,9.4369e-16,0.1)">
        <path d="M40.9,26.4C40.7,26.3 40.4,26.3 40.2,26.2C40.4,25.3 40.8,24.4 41.2,23.6C41.8,22.4 42.6,21.3 43.6,20.3C44.9,19 46.3,17.8 47.7,16.7C48.3,16.2 49,15.7 49.6,15.2C49.8,15.1 49.9,14.9 50,14.8C50.2,15.1 50.5,15.3 50.7,15.6C50.6,15.7 50.4,15.9 50.3,16C49.7,16.5 49,17 48.4,17.5C47,18.6 45.6,19.7 44.4,21C43.5,21.9 42.8,22.9 42.2,24C41.8,24.7 41.5,25.5 41.3,26.4L40.9,26.4Z" style="fill-rule:nonzero;"/>
    </g>
    <g transform="matrix(1,0,0,1,9.4369e-16,0.1)">
        <path d="M56.5,10.8C56.5,10.7 56.6,10.6 56.6,10.6C57.3,9.3 57.8,7.9 58,6.4C58,6.3 58,6.2 58.1,6.1L58.1,5.9L58.3,4.8L58.3,0.9L59.3,0.8L59.3,4.8L59.1,6L59.1,6.2C59.1,6.3 59.1,6.5 59,6.6C58.7,8.1 58.2,9.6 57.5,11C57.4,11.2 57.3,11.4 57.2,11.6L57.1,11.5L56.5,10.8Z" style="fill-rule:nonzero;"/>
    </g>
    <g transform="matrix(1,0,0,1,9.4369e-16,0.1)">
        <path d="M42.9,27.1C42.7,27 42.5,27 42.4,26.9C42.6,26.2 42.9,25.4 43.2,24.8C43.7,23.8 44.4,22.9 45.2,22.1C46.3,20.9 47.7,19.9 49.1,18.7C49.7,18.2 50.4,17.7 51.1,17.1L51.5,16.7L52.2,17.5C52.1,17.6 51.9,17.8 51.7,17.9C51,18.5 50.4,19 49.7,19.5C48.3,20.6 47,21.7 45.9,22.8C45.2,23.5 44.5,24.4 44.1,25.3C43.8,25.9 43.5,26.6 43.3,27.3C43.3,27.2 43.1,27.1 42.9,27.1Z" style="fill-rule:nonzero;"/>
    </g>
    <g transform="matrix(1,0,0,1,9.4369e-16,0.1)">
        <path d="M14.5,42.2L14.3,42.4C14.2,42.6 14.1,42.8 14,42.9L13.9,43C12.7,42.7 11.5,42.4 10.3,42.1C8.9,41.8 7.6,41.5 6.2,41.4C4.8,41.3 3.3,41.2 1.9,41.4C1.4,41.4 0.9,41.5 0.4,41.6L0.2,40.6C0.7,40.5 1.3,40.4 1.8,40.4C3.3,40.3 4.8,40.3 6.3,40.4C7.7,40.5 9.2,40.8 10.6,41.1C11.9,41.4 13.2,41.7 14.4,42.1L14.5,42.2Z" style="fill-rule:nonzero;"/>
    </g>
    <g transform="matrix(1,0,0,1,9.4369e-16,0.1)">
        <path d="M28.4,42.1C27.3,42.6 26,43.1 24.8,43.5C23.9,43.8 23,44 22,44.2C22.1,44.1 22.1,43.9 22.2,43.8C22.3,43.5 22.5,43.3 22.6,43C23.1,42.9 23.7,42.7 24.4,42.5C25.6,42.1 26.8,41.6 27.9,41.1L28.1,41C29.3,40.5 30.5,40 31.8,39.5C33.3,39 34.8,38.6 36.3,38.5L37.5,38.4L38.8,38.4C39.6,38.5 40.5,38.6 41.3,38.8C42.9,39.2 44.3,39.9 45.5,41C45.6,41.6 45.8,42.1 45.9,42.8C45.8,42.7 45.6,42.5 45.5,42.4C44.1,41.1 42.9,40.3 41.1,39.8C40.3,39.6 39.6,39.5 38.8,39.4L37.7,39.4L36.5,39.5C35,39.7 33.6,40 32.2,40.5C30.9,40.9 29.7,41.4 28.5,41.9L28.4,42.1Z" style="fill-rule:nonzero;"/>
    </g>
    <g transform="matrix(1,0,0,1,9.4369e-16,0.1)">
        <path d="M10,43.4C11,43.6 12,43.9 13,44.2C12.7,44.5 12.5,44.8 12.2,45.1C11.4,44.9 10.6,44.7 9.7,44.5C6.7,43.8 4.2,43.6 2,43.8C1.4,43.9 0.8,44 0.2,44.1L0,43.1C0.6,43 1.3,42.9 1.9,42.8C4.3,42.5 6.8,42.7 10,43.4Z" style="fill-rule:nonzero;"/>
    </g>
    <g transform="matrix(1,0,0,1,9.4369e-16,0.1)">
        <path d="M46.3,45.4C46.4,46.1 46.5,46.9 46.5,47.6C46.5,47.5 46.4,47.4 46.4,47.3C44.7,43.9 42.4,42.6 40.5,42.2C39.3,41.9 38,41.8 36.7,41.9C35.4,42 34.2,42.3 33,42.8C31.8,43.2 30.6,43.7 29.5,44.2C28.2,44.7 26.9,45.3 25.6,45.7C24.3,46.1 23,46.5 21.6,46.6L20.6,46.6L20.7,46.4C20.8,46.3 20.8,46.2 20.9,46.1C21,45.9 21.1,45.8 21.2,45.6L21.4,45.6C22.7,45.5 23.9,45.2 25.1,44.7C26.4,44.3 27.7,43.7 28.9,43.2C30.1,42.7 31.3,42.2 32.5,41.8C33.8,41.3 35.1,41 36.5,40.9C37.9,40.8 39.3,40.9 40.6,41.2C43.1,41.8 44.8,43.1 46.3,45.4Z" style="fill-rule:nonzero;"/>
    </g>
    <g transform="matrix(1,0,0,1,9.4369e-16,0.1)">
        <path d="M2.2,45.1C4.3,44.9 6.6,45.1 9.5,45.7C10,45.8 10.5,45.9 11,46.1L10.8,46.3C10.5,46.5 10.1,46.7 9.7,46.9L9.3,46.8C6.5,46.2 4.3,46 2.3,46.2C1.7,46.3 1.2,46.4 0.6,46.5L0.4,45.5C1,45.3 1.6,45.1 2.2,45.1Z" style="fill-rule:nonzero;"/>
    </g>
    <g transform="matrix(1,0,0,1,9.4369e-16,0.1)">
        <path d="M37.7,43.2C42.8,43.2 46.3,46.9 46.3,53.6L46.3,64.5L45.3,64.5L45.3,53.5C45.3,47.5 42.1,44.2 37.7,44.2L36.9,44.2C35.8,44.3 34.7,44.6 33.7,45C32.6,45.4 31.6,45.8 30.4,46.3C29.1,46.9 27.7,47.4 26.2,47.9C25.6,48.1 24.9,48.3 24,48.5L23,48.8L21.9,49L18.9,49C19,48.8 19.2,48.7 19.3,48.5L19.7,48L21.6,48L23.8,47.6C24.6,47.4 25.3,47.2 25.9,47C27.3,46.5 28.7,46 30,45.4C31.2,44.9 32.2,44.5 33.3,44.1C34.4,43.7 35.6,43.4 36.7,43.3C37.1,43.2 37.3,43.2 37.7,43.2Z" style="fill-rule:nonzero;"/>
    </g>
    <g transform="matrix(1,0,0,1,9.4369e-16,0.1)">
        <path d="M8.7,25.5L8.4,25.3L9.1,24.5L9.3,24.7C9.4,24.8 9.5,24.8 9.5,24.9C9.7,25 9.8,25.2 10,25.3L11,26.1L11.6,26.5C12,26.8 12.4,27 12.8,27.3L13.3,27.6C14.4,28.2 15.5,28.7 16.7,29.1C17.9,29.5 19.1,29.7 20.3,29.7C21.6,29.8 22.8,29.7 24.1,29.5C25.5,29.3 26.9,29 28.1,28.7L28.5,28.6L28.5,29.7L28.3,29.8C27.1,30.1 25.7,30.5 24.2,30.7C22.9,30.9 21.5,31 20.2,30.9C18.9,30.8 17.6,30.6 16.4,30.2C15.1,29.8 13.9,29.3 12.8,28.6L12.3,28.3C11.9,28.1 11.5,27.8 11.1,27.5L10.5,27.1L9.5,26.3C9.3,26.2 9.1,26 9,25.8L8.7,25.5Z" style="fill-rule:nonzero;"/>
    </g>
    <g transform="matrix(1,0,0,1,9.4369e-16,0.1)">
        <path d="M37.3,28C36.9,28 36.5,28 36,28.1L36,27.1L38.7,27.1C38.9,27.1 39,27.1 39.2,27.2L39.6,27.2C39.8,27.2 39.9,27.2 40.1,27.3L41.1,27.5L41.4,27.6C41.6,27.7 41.8,27.7 42,27.8C42.2,27.9 42.4,27.9 42.6,28C43.4,28.3 44.3,28.7 45,29.2C45.8,29.7 46.6,30.3 47.2,31C47.6,31.4 47.9,31.8 48.3,32.2C48.4,32.4 48.4,32.7 48.4,32.9C48.5,33.5 48.6,34.1 48.7,34.7C48.1,33.6 47.4,32.6 46.5,31.7C45.9,31.1 45.2,30.6 44.4,30.1C43.7,29.7 42.9,29.3 42.1,29C41.9,28.9 41.7,28.9 41.5,28.8C41.3,28.7 41.2,28.7 40.9,28.6L40.6,28.5L39.6,28.3C39.5,28.3 39.3,28.3 39.2,28.2L38.4,28.2L37.9,28L37.3,28Z" style="fill-rule:nonzero;"/>
    </g>
    <g transform="matrix(1,0,0,1,9.4369e-16,0.1)">
        <path d="M7.4,27.5C7.3,27.4 7.2,27.4 7.2,27.3L6.4,26.6L7,25.8L7.8,26.5L8,26.7C8.2,26.9 8.3,27 8.5,27.1L9.6,27.9L10.3,28.4C10.7,28.7 11.2,29 11.7,29.3L12.2,29.6C13.4,30.3 14.7,30.9 16.1,31.3C17.5,31.7 18.8,32 20.3,32C21.7,32.1 23.1,32 24.6,31.8C26,31.6 27.4,31.3 28.8,30.9C28.8,31.2 28.9,31.6 29,31.9C27.6,32.3 26.2,32.6 24.8,32.8C23.3,33 21.8,33.1 20.3,33C18.8,32.9 17.3,32.7 15.9,32.2C14.5,31.7 13.1,31.1 11.8,30.4L11.3,30.1C10.8,29.8 10.3,29.5 9.9,29.2L9.2,28.7L8,27.9C7.8,27.8 7.6,27.6 7.4,27.5Z" style="fill-rule:nonzero;"/>
    </g>
    <g transform="matrix(1,0,0,1,9.4369e-16,0.1)">
        <path d="M49.1,39.4L49.1,41.9C48.3,38.6 47.1,35.2 45,33.2C44,32.3 42.8,31.5 41.5,31.1C41.3,31 41.2,31 41,30.9C40.9,30.9 40.7,30.8 40.5,30.7L40.2,30.6L39.4,30.4L36.2,30.4C36.1,30.1 36.1,29.7 36.1,29.4L39.2,29.4C39.3,29.4 39.5,29.4 39.6,29.5L40.4,29.7L40.7,29.8C40.9,29.9 41.1,29.9 41.2,30C41.3,30.1 41.6,30.1 41.7,30.2C43.1,30.7 44.5,31.5 45.6,32.5C47.1,33.9 48.3,36.2 48.9,38.5L49.1,39.4Z" style="fill-rule:nonzero;"/>
    </g>
    <g transform="matrix(1,0,0,1,9.4369e-16,0.1)">
        <path d="M24.8,34.1C26.3,33.9 27.7,33.5 29.1,33.2C29.2,33.5 29.3,33.9 29.4,34.2C28,34.6 26.5,34.9 25,35.1C23.4,35.4 21.7,35.4 20.1,35.4C18.4,35.3 16.7,35 15.1,34.5C13.5,34 12,33.3 10.5,32.5L10,32.2C9.5,31.9 8.9,31.5 8.4,31.2L7.7,30.7L6.5,29.8C6.3,29.6 6.1,29.5 5.9,29.3L5.6,29L5.1,28.6L5.8,27.8L6.3,28.2L6.5,28.4C6.7,28.6 6.9,28.7 7.1,28.9L8.3,29.8L9,30.3C9.5,30.7 10,31 10.5,31.3L10.9,31.6C12.3,32.4 13.7,33 15.3,33.5C16.8,34 18.4,34.3 20,34.3C21.6,34.4 23.2,34.4 24.8,34.1Z" style="fill-rule:nonzero;"/>
    </g>
    <g transform="matrix(1,0,0,1,9.4369e-16,0.1)">
        <path d="M47.5,40.9C47.8,42.2 48.1,43.6 48.2,45C48.5,47.8 48.7,50.7 48.6,53.5L48.6,64.3L47.6,64.3L47.6,53.5C47.6,50.7 47.5,47.9 47.2,45.1C47,43.8 46.8,42.4 46.5,41.1C46.5,41 46.5,40.9 46.4,40.8C46.3,40.6 46.3,40.3 46.2,40.1L46.1,39.6L46,39.3C45.9,39.1 45.9,38.9 45.8,38.7C45.8,38.6 45.7,38.5 45.7,38.4C45.7,38.3 45.6,38.2 45.6,38.2L45.4,38C45.3,37.9 45.3,37.7 45.2,37.6C44.7,36.6 44.1,35.7 43.3,34.9C42.5,34.2 41.6,33.6 40.5,33.3C40.4,33.2 40.2,33.2 40.1,33.2C39.9,33.1 39.8,33.1 39.7,33.1L39.6,33L39,32.8L36.8,32.8C36.7,32.5 36.6,32.1 36.5,31.8L38.7,31.8C38.8,31.8 38.9,31.8 39,31.9L39.6,32L39.8,32.1C39.9,32.1 40.1,32.2 40.3,32.2C40.4,32.2 40.6,32.3 40.7,32.4C41.8,32.8 42.9,33.4 43.8,34.3C44.7,35.2 45.4,36.2 45.9,37.3C46,37.4 46,37.6 46.1,37.8L46.2,38C46.2,38.1 46.3,38.2 46.3,38.3C46.3,38.4 46.4,38.5 46.4,38.6C46.5,38.8 46.6,39 46.6,39.2L46.8,39.7L46.9,40.2C47,40.4 47,40.7 47.1,40.9C47.5,40.8 47.5,40.8 47.5,40.9Z" style="fill-rule:nonzero;"/>
    </g>
    <g transform="matrix(1,0,0,1,9.4369e-16,0.1)">
        <path d="M51,37.2L51,64.4L50,64.4L50,37.3L49.9,36C49.8,34.9 49.7,33.7 49.4,32.6L49.3,32.2C49.3,32.1 49.3,32 49.2,32L49.2,31.8C49.2,31.7 49.2,31.6 49.1,31.5C49.1,31.3 49,31.2 49,31L48.8,30C48.8,29.8 48.7,29.7 48.6,29.5C48.6,29.4 48.5,29.3 48.5,29.2C48.1,28.1 47.7,27 47.2,26C46.9,25.3 46.5,24.6 46.1,23.8C46.3,23.5 46.6,23.3 46.9,23C47.4,23.8 47.8,24.7 48.2,25.5C48.7,26.6 49.1,27.7 49.5,28.8C49.5,28.9 49.6,29 49.6,29.1C49.7,29.3 49.7,29.5 49.8,29.7L50,30.5C50,30.7 50.1,30.9 50.1,31.1C50.1,31.2 50.1,31.3 50.2,31.4L50.2,31.6C50.2,31.7 50.2,31.8 50.3,31.9L50.4,32.4C50.6,33.6 50.8,34.8 50.9,35.9L51,37.2Z" style="fill-rule:nonzero;"/>
    </g>
    <g transform="matrix(1,0,0,1,9.4369e-16,0.1)">
        <path d="M52.7,31.9C52.9,33.2 53.1,34.4 53.2,35.7C53.3,36.9 53.3,38.1 53.3,39.5L53.3,64.3L52.3,64.3L52.3,39.5C52.3,38.1 52.3,36.9 52.2,35.8C52.1,34.6 51.9,33.3 51.7,32.1L51.6,31.6C51.6,31.5 51.6,31.4 51.5,31.3L51.5,31.1C51.5,31 51.4,30.9 51.4,30.8C51.4,30.6 51.3,30.4 51.3,30.2L51,29.3C51,29.1 50.9,28.9 50.8,28.7C50.8,28.6 50.7,28.5 50.7,28.4C50.3,27.2 49.9,26.1 49.3,24.9C48.9,23.9 48.4,22.9 47.8,22L48,21.8C48.2,21.6 48.4,21.5 48.6,21.3C49.2,22.3 49.7,23.4 50.2,24.5C50.7,25.7 51.2,26.9 51.6,28.1C51.6,28.2 51.7,28.3 51.7,28.4C51.8,28.6 51.8,28.8 51.9,29L52.2,29.9C52.3,30.1 52.3,30.3 52.3,30.5L52.4,30.8L52.4,31C52.4,31.1 52.4,31.2 52.5,31.3L52.7,31.9Z" style="fill-rule:nonzero;"/>
    </g>
    <g transform="matrix(1,0,0,1,9.4369e-16,0.1)">
        <path d="M55.7,38.6L55.7,64.4L54.7,64.4L54.7,37.1L54.6,35.6C54.5,34.3 54.3,33 54.1,31.7L54,31.2C54,31.1 54,31 53.9,30.9L53.9,30.7C53.9,30.6 53.8,30.5 53.8,30.4C53.7,30.2 53.7,30 53.6,29.8L53.3,28.8C53.2,28.6 53.2,28.4 53.1,28.2L53,27.8C52.6,26.5 52.1,25.3 51.5,24.1C51,22.9 50.4,21.8 49.7,20.7L50.2,20.3L50.5,20C51.2,21.2 51.8,22.4 52.4,23.7C53,24.9 53.5,26.2 53.9,27.5L54,27.8C54.1,28 54.1,28.2 54.2,28.5L54.5,29.5C54.6,29.7 54.6,30 54.7,30.2C54.7,30.3 54.7,30.4 54.8,30.5L54.8,30.7C54.8,30.8 54.9,30.9 54.9,31L55,31.5C55.3,32.8 55.4,34.2 55.5,35.6L55.7,38.6Z" style="fill-rule:nonzero;"/>
    </g>
    <g transform="matrix(1,0,0,1,9.4369e-16,0.1)">
        <path d="M65.6,10.8C65.4,8.4 65.6,5.9 66.1,3.5C66.2,3.1 66.3,2.6 66.4,2.2L67.4,2.4C67.3,2.8 67.2,3.3 67.1,3.7C66.6,6 66.4,8.4 66.6,10.7C66.7,11.9 66.9,13 67.2,14.1C67.4,14.7 67.5,15.4 67.7,16C67.4,16.2 67.1,16.3 66.8,16.5C66.6,15.8 66.4,15.1 66.2,14.4C65.9,13.2 65.7,12 65.6,10.8Z" style="fill-rule:nonzero;"/>
    </g>
    <g transform="matrix(1,0,0,1,9.4369e-16,0.1)">
        <path d="M63.9,14.9C63.6,13.6 63.4,12.3 63.2,11C63,8.3 63.2,5.7 63.7,3.1C63.9,2.5 64,2 64.1,1.4L64.2,1L65.2,1.2L65.1,1.6C65,2.1 64.8,2.6 64.8,3.2C64.3,5.7 64.1,8.3 64.3,10.9C64.4,12.2 64.6,13.4 64.9,14.7C65.1,15.5 65.3,16.3 65.6,17.1L65.3,17.2L64.6,17.5C64.4,16.7 64.1,15.8 63.9,14.9Z" style="fill-rule:nonzero;"/>
    </g>
    <g transform="matrix(1,0,0,1,9.4369e-16,0.1)">
        <path d="M62.7,34.5C62.1,35.1 61.5,35.7 61,36.4C58.9,38.9 57.7,41.6 56.7,45.1L56.7,42.1C57.4,39.8 58.6,37.6 60.2,35.7C60.8,35 61.4,34.4 62,33.8C62.3,33.5 62.6,33.2 62.9,32.8C63.4,32.3 63.8,31.8 64.1,31.3C64.5,30.8 64.8,30.3 65.1,29.7C65.7,28.6 66.1,27.4 66.2,26.2C66.2,25.8 66.3,25.5 66.3,25.1C66.6,24.9 67,24.8 67.4,24.6C67.4,25.2 67.4,25.8 67.3,26.3C67.1,27.7 66.7,29 66.1,30.2C65.8,30.8 65.4,31.4 65,31.9C64.6,32.4 64.2,32.9 63.7,33.4C63.3,33.8 63,34.1 62.7,34.5Z" style="fill-rule:nonzero;"/>
    </g>
    <g transform="matrix(1,0,0,1,9.4369e-16,0.1)">
        <path d="M60.9,11.2C60.7,8.3 60.9,5.4 61.5,2.6C61.6,2.1 61.7,1.5 61.8,1L62.8,1.2C62.7,1.7 62.6,2.2 62.5,2.7C61.9,5.4 61.7,8.2 61.9,11C62,12.4 62.2,13.8 62.6,15.2C62.8,16.2 63.1,17.1 63.4,18L62.5,18.5C62.2,17.5 61.9,16.5 61.6,15.5C61.3,14.1 61,12.6 60.9,11.2Z" style="fill-rule:nonzero;"/>
    </g>
    <g transform="matrix(1,0,0,1,9.4369e-16,0.1)">
        <path d="M61.9,31.9C61.6,32.2 61.3,32.5 61,32.8C58.5,35.4 57.6,36.8 56.6,39.2L56.6,37.1C57,35.9 58.3,34.1 60.3,32C60.6,31.7 60.9,31.4 61.2,31.1C61.6,30.7 62,30.2 62.3,29.8C62.6,29.4 62.9,29 63.1,28.6C63.3,28.2 63.5,27.7 63.6,27.3C63.7,27 63.8,26.7 63.8,26.3C64.2,26.1 64.5,25.9 64.9,25.7L64.9,26C64.8,26.5 64.7,27.1 64.5,27.6C64.3,28.1 64.1,28.6 63.9,29.1C63.6,29.6 63.3,30.1 63,30.5C62.7,31 62.3,31.4 61.9,31.9Z" style="fill-rule:nonzero;"/>
    </g>
    <g transform="matrix(1,0,0,1,9.4369e-16,0.1)">
        <path d="M69.7,24.2C69.7,25 69.7,25.8 69.6,26.7C69.5,27.5 69.3,28.3 69.1,29.1C68.9,29.9 68.5,30.7 68.2,31.4C67.8,32.1 67.4,32.8 66.9,33.4C66.5,34 66,34.5 65.4,35.1C65.1,35.5 64.8,35.8 64.4,36.1C63.8,36.7 63.3,37.3 62.8,37.9C62.1,38.7 61.4,39.7 60.9,40.6C60.4,41.6 59.9,42.6 59.6,43.7C59.2,44.8 59,46 58.8,47.1C58.4,49.5 58.2,52 58.2,54.4L58.2,64.3L57.2,64.3L57.2,54.4C57.2,51.9 57.4,49.4 57.8,46.9C58,45.7 58.3,44.5 58.7,43.4C59.1,42.3 59.5,41.2 60.1,40.1C60.7,39.1 61.4,38.1 62.2,37.2C62.7,36.6 63.3,36 63.9,35.4C64.2,35.1 64.5,34.7 64.8,34.4C65.3,33.9 65.8,33.3 66.2,32.8C66.7,32.2 67.1,31.6 67.4,30.9C67.8,30.2 68.1,29.5 68.3,28.8C68.5,28.1 68.7,27.3 68.8,26.6C68.9,25.8 68.9,25.1 68.9,24.3L68.9,24.1L69.9,23.6C69.7,23.8 69.7,24 69.7,24.2Z" style="fill-rule:nonzero;"/>
    </g>
    <g transform="matrix(1,0,0,1,9.4369e-16,0.1)">
        <path d="M69.1,38.9C65.3,39.4 62.8,40.8 60.9,42.5C60.9,42.4 61,42.3 61,42.3L61.1,42C61.2,41.8 61.3,41.6 61.4,41.4L61.4,41.3C61.5,41.1 61.7,40.8 61.8,40.6L61.9,40.4C63.4,39.4 65.7,38.3 68.9,37.9L69.2,37.9C69.5,37.9 69.8,37.8 70,37.8L73.4,37.8C74.9,37.9 76.4,38.2 77.9,38.6C79.3,39 80.7,39.5 82,40.1C84.3,41.1 86.4,42.2 88.4,43.3L89.3,43.8C91.6,45 93.9,46.2 96.1,47C98.4,47.9 100.7,48.2 102.8,48.2L103.6,48.2L104.2,48.1L104.3,49.1L103.7,49.2L102.8,49.2C100.5,49.3 98.2,48.9 95.7,48C93.4,47.2 91.1,46 88.8,44.7L88,44.1C86,43 83.9,41.9 81.7,40.9C80.4,40.3 79.1,39.9 77.7,39.5C76.3,39.1 74.9,38.9 73.4,38.8L70.2,38.8C69.9,38.8 69.7,38.9 69.4,38.9L69.1,38.9Z" style="fill-rule:nonzero;"/>
    </g>
    <g transform="matrix(1,0,0,1,9.4369e-16,0.1)">
        <path d="M59.4,47.8C59.4,47.6 59.4,47.5 59.5,47.4C59.6,46.6 59.8,45.9 60,45.2C61.9,42.7 64.7,40.8 69.3,40.2C70.7,40 72,40 73.4,40.1C75.9,40.3 78.4,40.9 81.2,42.1C83.4,43 85.5,44.2 87.5,45.3L88.3,45.8C90.8,47.1 93,48.3 95.4,49.2C96.6,49.6 97.9,50 99.1,50.2C100.4,50.4 101.7,50.5 102.9,50.5L103.9,50.5L104.9,50.4L105,51.4L104,51.5C103.8,51.5 103.5,51.5 103.3,51.6L102.9,51.6C101.5,51.7 100.2,51.6 98.8,51.3C97.5,51.1 96.2,50.7 94.9,50.2C92.4,49.3 90.2,48.1 87.6,46.7L87,46.2C85,45.1 82.9,44 80.8,43.1C78.1,41.9 75.6,41.3 73.3,41.1C72,41 70.7,41.1 69.4,41.2C64.4,41.9 61.3,44.4 59.4,47.8Z" style="fill-rule:nonzero;"/>
    </g>
    <g transform="matrix(1,0,0,1,9.4369e-16,0.1)">
        <path d="M105,52.6L105.1,53.6L104.4,53.7C104.1,53.7 103.8,53.7 103.6,53.8L103.2,53.8C101.7,53.9 100.1,53.8 98.6,53.5C97.1,53.2 95.7,52.8 94.3,52.3C91.5,51.3 89,49.9 86.7,48.7L85.9,48.3C83.8,47.2 81.8,46.1 79.8,45.2C77.3,44.1 75.1,43.6 73.1,43.4L70.5,43.4C70.3,43.4 70.2,43.4 70,43.5L69.7,43.5C68.6,43.6 67.6,43.9 66.5,44.3C62.4,46 60.4,49.2 60.4,53.2L60.4,64.3L59.4,64.3L59.4,53.3C59.4,48.8 61.8,45.1 66.2,43.4C67.3,43 68.4,42.7 69.6,42.5L69.9,42.5C70.1,42.5 70.3,42.5 70.5,42.4L73.1,42.4C75.3,42.5 77.6,43.1 80.2,44.3C82.3,45.2 84.3,46.3 86.4,47.4L87.2,47.8C89.4,49 91.9,50.3 94.6,51.3C95.9,51.8 97.3,52.2 98.7,52.4C100.1,52.7 101.6,52.8 103.1,52.7L103.5,52.7C103.8,52.7 104,52.7 104.3,52.6L105,52.6Z" style="fill-rule:nonzero;"/>
    </g>
</svg>
