<?xml version="1.0" encoding="utf-8"?>
<!-- Generator: Adobe Illustrator 22.1.0, SVG Export Plug-In . SVG Version: 6.00 Build 0)  -->
<svg version="1.1" id="Layer_1" xmlns="http://www.w3.org/2000/svg" xmlns:xlink="http://www.w3.org/1999/xlink" x="0px" y="0px"
	 viewBox="0 0 278.1 65.2" style="enable-background:new 0 0 278.1 65.2;" xml:space="preserve">
<g id="city">
	<path d="M119.1,27.9c-0.1-4.3,3.4-7.9,7.7-8c0.2,0,0.3,0,0.5,0c2.3-0.1,4.5,0.9,6,2.6l-1.8,1.8c-2-2.3-5.5-2.5-7.7-0.5
		c-2.3,2-2.5,5.5-0.5,7.7c2,2.3,5.5,2.5,7.7,0.5c0.2-0.1,0.3-0.3,0.5-0.5l1.8,1.8c-1.5,1.7-3.8,2.7-6.1,2.6c-4.3,0.1-8-3.3-8.1-7.6
		C119.1,28.2,119.1,28.1,119.1,27.9L119.1,27.9z"/>
	<path d="M135.2,20.2h2.8v15.6h-2.8V20.2z"/>
	<path d="M145.2,22.6h-5.1v-2.4h13v2.5H148v13.1h-2.8L145.2,22.6z"/>
	<path d="M163.8,30.2v5.5H161v-5.4l-6-10.1h3l4.5,7.6l4.5-7.6h2.8L163.8,30.2z"/>
</g>
<g id="of">
	<path d="M176.6,27.9c-0.1-4.5,3.5-8.3,8-8.4c4.5-0.1,8.3,3.5,8.4,8s-3.5,8.3-8,8.4c-0.1,0-0.1,0-0.2,0
		c-4.4,0.2-8-3.2-8.2-7.6C176.6,28.2,176.6,28.1,176.6,27.9z M190.2,27.9c-0.1-3-2.5-5.3-5.5-5.3c-3,0.1-5.3,2.5-5.3,5.5
		c0.1,2.9,2.4,5.3,5.4,5.3c2.9,0.1,5.3-2.2,5.4-5.1C190.2,28.2,190.2,28.1,190.2,27.9z"/>
	<path d="M197.5,22.6v4.7h7.4v2.5h-7.4v6h-2.8V20.2h11.1v2.4H197.5z"/>
</g>
<g id="oakland">
	<path d="M119.2,54.3c0-6.3,4.9-10.9,11.4-10.9c6.5,0,11.4,4.6,11.4,10.9s-4.9,10.9-11.4,10.9S119.2,60.6,119.2,54.3z
		 M136.2,54.3c0-3.6-2.4-6-5.6-6s-5.6,2.4-5.6,6s2.4,6,5.6,6S136.2,58,136.2,54.3z"/>
	<path d="M157.8,60.7H149l-1.6,4.1h-5.9l9.1-21h5.8l9.1,21h-6.1L157.8,60.7z M156,56.4l-2.6-6.7l-2.6,6.7H156z"/>
	<path d="M175.6,57.2l-2.2,2.4v5.2h-5.8v-21h5.8v8.7l8-8.7h6.4l-8.4,9.3l8.9,11.7h-6.8L175.6,57.2z"/>
	<path d="M190.4,43.8h5.8v16.3h9.8v4.7h-15.6V43.8z"/>
	<path d="M224.3,60.7h-8.7l-1.6,4.1h-5.9l9.1-21h5.7l9.1,21h-6.1L224.3,60.7z M222.6,56.4l-2.6-6.7l-2.6,6.7H222.6z"/>
	<path d="M253.8,43.8v21H249l-9.1-11.2v11.2h-5.7v-21h4.8l9.1,11.2V43.8H253.8z"/>
	<path d="M256.8,43.8h9.7c6.8,0,11.5,4,11.5,10.5s-4.7,10.5-11.5,10.5h-9.7V43.8z M266.3,60.1c3.5,0,5.9-2.1,5.9-5.8
		s-2.4-5.8-5.9-5.8h-3.7V60L266.3,60.1z"/>
</g>
<g id="tree">
	<path d="M28.5,20.8c-0.1,0-0.3-0.1-0.4-0.1l0,0c-0.1-0.1-0.3-0.1-0.4-0.2c-0.3-0.1-0.6-0.2-0.9-0.4L26.5,20
		c-0.1-0.1-0.2-0.1-0.4-0.2l-0.6-0.3c-0.1-0.1-0.3-0.2-0.4-0.2l-0.2-0.1L24.8,19l-0.2-0.1l0,0L24,18.5c-0.1-0.1-0.2-0.2-0.3-0.2
		l-0.5-0.4l0,0L23,17.6c-0.3-0.3-0.5-0.5-0.8-0.8c-0.6-0.7-1.2-1.4-1.7-2.3c-0.1-0.2-0.2-0.3-0.3-0.5c-0.1-0.1-0.1-0.2-0.2-0.3l0,0
		c-0.1-0.2-0.2-0.3-0.3-0.5l0,0l0.9-0.5l0,0c0.1,0.2,0.1,0.3,0.2,0.5c0.1,0.1,0.1,0.2,0.2,0.3c0.1,0.2,0.2,0.3,0.3,0.4l0,0
		c0.5,0.8,1,1.5,1.6,2.1c0.2,0.3,0.5,0.5,0.7,0.7l0.2,0.2l0.5,0.4c0.1,0.1,0.2,0.1,0.2,0.2l0.6,0.4c0.1,0,0.1,0.1,0.2,0.1l0.1,0.1
		l0.2,0.2c0.1,0.1,0.2,0.1,0.3,0.2l0.6,0.3c0.1,0.1,0.2,0.1,0.3,0.1l0.3,0.2l0,0c0.2,0.1,0.5,0.2,0.8,0.3l0.4,0.1
		c0.1,0,0.2,0.1,0.4,0.1l0.3,0.1l0.2,0.1c-0.1,0.3-0.1,0.7-0.2,1l0,0l-0.3-0.1L28.5,20.8z"/>
	<path d="M28.5,23.3l-0.4-0.1l-0.3-0.1l-0.5-0.2l0,0l-0.4-0.2c-0.4-0.1-0.7-0.3-1.1-0.5L25.5,22
		c-0.1-0.1-0.3-0.1-0.4-0.2l-0.7-0.4c-0.2-0.1-0.3-0.2-0.5-0.3L23.7,21l-0.2,0l-0.2-0.2l-0.7-0.5c-0.1-0.1-0.2-0.2-0.4-0.3l-0.6-0.5
		l0,0l-0.2-0.2c-0.3-0.3-0.7-0.6-1-1c-0.7-0.8-1.4-1.7-2-2.6c-0.1-0.2-0.2-0.4-0.4-0.6c-0.1-0.1-0.1-0.2-0.2-0.3l0,0
		c-0.1-0.2-0.2-0.4-0.3-0.6c-0.1-0.1-0.1-0.2-0.2-0.3l0.9-0.5c0.1,0.1,0.1,0.2,0.2,0.3c0.1,0.2,0.2,0.4,0.3,0.6
		c0.1,0.1,0.1,0.2,0.2,0.3c0.1,0.2,0.2,0.4,0.3,0.6c0.5,0.9,1.2,1.7,1.9,2.5c0.3,0.3,0.6,0.6,0.9,0.9l0.2,0.2l0.6,0.5
		c0.1,0.1,0.2,0.2,0.3,0.2l0.7,0.5l0.2,0.1l0.1,0.1l0.2,0.2c0.1,0.1,0.3,0.2,0.4,0.3l0.7,0.4c0.1,0.1,0.2,0.1,0.3,0.2l0.4,0.2
		c0.3,0.2,0.7,0.3,1,0.4l0.4,0.2l0.5,0.2c0.1,0,0.2,0.1,0.3,0.1l0.4,0.1h0.2c0,0.2-0.1,0.5-0.1,0.7c0,0.1,0,0.2,0,0.3L28.5,23.3
		L28.5,23.3z"/>
	<path d="M28.6,25.7l-0.7-0.2l0,0l-0.7-0.2c-0.2-0.1-0.4-0.1-0.6-0.2l0,0c-0.1-0.1-0.3-0.1-0.4-0.2
		c-0.4-0.2-0.9-0.3-1.3-0.5l-0.4-0.2c-0.2-0.1-0.3-0.1-0.4-0.2l-0.8-0.4c-0.2-0.1-0.4-0.2-0.6-0.3l-0.2-0.2L22.2,23L22,22.8
		l-0.8-0.6c-0.2-0.1-0.3-0.2-0.4-0.3l-0.7-0.6l0,0L20,21.2c-0.4-0.4-0.8-0.8-1.2-1.2c-0.8-0.9-1.6-1.9-2.3-3
		c-0.1-0.2-0.3-0.5-0.4-0.7C16,16.2,16,16.1,15.9,16c-0.1-0.2-0.2-0.5-0.4-0.7l0.9-0.5c0.1,0.2,0.2,0.5,0.3,0.7
		c0.1,0.1,0.1,0.2,0.2,0.3c0.1,0.2,0.2,0.5,0.4,0.7c0.6,1,1.4,2,2.2,2.8c0.4,0.4,0.7,0.8,1.1,1.1l0.1,0.1l0.7,0.6
		c0.1,0.1,0.2,0.2,0.3,0.3l0.7,0.5l0.2,0.1l0.1,0.1l0.3,0.2c0.2,0.1,0.3,0.2,0.5,0.3l0.8,0.4c0.1,0.1,0.2,0.1,0.4,0.2l0.4,0.2
		c0.4,0.2,0.8,0.4,1.2,0.5c0.1,0.1,0.3,0.1,0.4,0.2c0.2,0.1,0.4,0.1,0.6,0.2l0.7,0.2l0.5,0.1C28.6,25,28.6,25.4,28.6,25.7z"/>
	<path d="M39.2,12.4L39.2,12.4c-0.6,0-1.1,0.1-1.5,0.1c-0.3,0-0.5,0-0.8,0c-1,0-2-0.1-2.9-0.2c-1.2-0.2-2.4-0.5-3.5-0.9
		s-2.2-1-3.2-1.7l-0.6-0.4l0,0l-0.1-0.1L26,8.8L26.7,8l0.5,0.5l0.1,0.1L27.8,9c0.9,0.6,1.9,1.2,3,1.6c1.1,0.4,2.2,0.7,3.3,0.8
		c1.2,0.2,2.4,0.2,3.5,0.2c0.4,0,0.8,0,1.2-0.1c0,0.1,0.1,0.3,0.1,0.4l0.2,0.4l0,0L39.2,12.4z"/>
	<path d="M40.2,14.7h-0.4l0,0h-0.4c-0.5,0-1.1,0.1-1.6,0.1c-0.3,0-0.6,0-0.9,0c-1.1,0-2.2-0.1-3.3-0.2
		c-1.4-0.2-2.7-0.5-4-1s-2.5-1.2-3.7-1.9l-0.6-0.5l0,0l-0.1-0.1l-0.9-0.7L25,9.6l0.9,0.7l0.1,0.1l0.6,0.4c1.1,0.7,2.2,1.4,3.5,1.8
		c1.2,0.5,2.5,0.8,3.8,1s2.6,0.3,4,0.2c0.5,0,1,0,1.6-0.1c0.1,0,0.3,0,0.4,0l0,0C39.9,14,40,14.4,40.2,14.7z"/>
	<path d="M40.8,15.9c0.2,0.3,0.3,0.6,0.5,1C41,17,40.8,17,40.5,17l-0.4,0.1l0,0h-0.4c-0.6,0-1.2,0.1-1.8,0.1
		c-0.3,0-0.6,0-0.9,0c-1.2,0-2.4-0.1-3.6-0.3c-1.5-0.2-3.1-0.6-4.5-1.2c-1.5-0.6-2.9-1.3-4.2-2.2L24,13c-0.1-0.1-0.1-0.1-0.2-0.1
		l-0.5-0.4l0.7-0.8l0.5,0.4l0.1,0.1l0.7,0.5c1.2,0.9,2.6,1.6,4,2.1c1.4,0.5,2.8,0.9,4.3,1.1c1.4,0.2,2.9,0.3,4.4,0.2
		c0.6,0,1.2-0.1,1.7-0.1h0.4l0.4-0.1L40.8,15.9L40.8,15.9z"/>
	<path d="M105.7,40.1l-0.2,1l-1.4-0.2l0,0l-1.3-0.3l0,0l-0.8-0.3h-0.1c-0.1,0-0.2-0.1-0.3-0.1l0,0l-0.8-0.3h-0.1
		c-0.1,0-0.2-0.1-0.3-0.1l-0.7-0.4c-0.1-0.1-0.3-0.1-0.4-0.2l-0.7-0.5l0,0l-0.8-0.6l0,0L97,37.4l0,0l-0.6-0.6
		c-0.1-0.1-0.2-0.2-0.3-0.3l-0.3-0.3l-0.1-0.1c-0.1-0.1-0.1-0.2-0.2-0.3L95,35.2c-0.6-1-1.1-2-1.5-3.1l0,0l-0.2-0.6l0.8-0.3h0.2
		l0.2,0.7c0.3,1,0.8,1.9,1.3,2.8L96,35l0,0c0,0.1,0.1,0.1,0.1,0.1l0.1,0.1l0.3,0.3c0.1,0.1,0.1,0.2,0.2,0.2l0,0l0.6,0.6L98,37
		l0.8,0.6l0.7,0.5c0.1,0.1,0.2,0.1,0.3,0.2l0,0l0.8,0.4l0,0c0.1,0,0.1,0.1,0.2,0.1l0.1,0.1l0.8,0.3c0.1,0,0.2,0.1,0.2,0.1
		c0.1,0,0.1,0,0.2,0.1l0.8,0.3l1.3,0.3L105.7,40.1z"/>
	<path d="M105,42.3l-0.2,1l-1.1-0.2l0,0l-1.5-0.3l0,0l-0.9-0.3l-0.2-0.1c-0.1,0-0.2-0.1-0.3-0.1L99.7,42l-0.1-0.1
		c-0.1,0-0.2-0.1-0.4-0.2l-0.9-0.4c-0.2-0.1-0.3-0.2-0.4-0.2L97,40.6l0,0l-1-0.7l0,0l-0.2-0.2c-2.1-1.8-3.7-4.1-4.5-6.8l0,0
		c0-0.1-0.1-0.2-0.1-0.4c0-0.1,0-0.1,0-0.2l0.7-0.2l0.2-0.1c0,0.1,0,0.2,0.1,0.2l0.1,0.4c0.8,2.4,2.2,4.6,4.2,6.3l0.2,0.2l1,0.7
		l0.9,0.5c0.1,0.1,0.2,0.1,0.3,0.2l0.9,0.5l0,0c0.1,0,0.2,0.1,0.3,0.1c0,0,0.1,0,0.2,0.1l0.9,0.4c0.1,0,0.2,0.1,0.3,0.1l0.2,0.1
		l0.9,0.3l1.4,0.3L105,42.3z"/>
	<path d="M104.4,44.6l-0.2,1l-1-0.2l0,0l-1.7-0.4l0,0l-1.1-0.3l-0.2-0.1c-0.1,0-0.3-0.1-0.4-0.1l-1.1-0.4L98.5,44
		c-0.1-0.1-0.3-0.1-0.4-0.2l-1-0.5c-0.2-0.1-0.3-0.2-0.5-0.3l-1-0.6l0,0l-1.2-0.9l0,0l-0.2-0.2c-2.5-2.1-4.3-4.8-5.3-7.9l0,0
		l0.1-0.2c0-0.1,0-0.2-0.1-0.2l0.9-0.3h0.1c0,0.1,0.1,0.2,0.1,0.3l0.1,0.2c0.9,2.9,2.6,5.5,4.9,7.4l0.2,0.2l1.1,0.8l1,0.6
		c0.1,0.1,0.3,0.2,0.4,0.2l1,0.5C98.8,43,98.9,43,99,43l0.2,0.1l1,0.4c0.1,0,0.2,0.1,0.3,0.1l0.2,0.1l1,0.3l1.6,0.4L104.4,44.6z"/>
	<path d="M75.8,28.7c-0.1,0.4-0.3,0.7-0.4,1c-1,0-2-0.2-3-0.4c-0.8-0.2-1.6-0.4-2.4-0.7c0-0.1,0.1-0.2,0.1-0.4V28
		c0-0.2,0.1-0.3,0.1-0.5c0.8,0.3,1.6,0.5,2.4,0.7C73.7,28.6,74.8,28.7,75.8,28.7z"/>
	<path d="M99.8,24.1c-0.2,0-0.5,0.1-0.7,0.1l-0.4,0.1c-0.3,0-0.5,0.1-0.7,0.1c-2.5,0.5-4.9,1.3-7.2,2.1L90,26.7
		c-2.1,0.7-4.2,1.4-6.2,1.9c0.1-0.2,0.1-0.5,0.2-0.7c0-0.2,0.1-0.3,0.1-0.5c1.8-0.5,3.7-1.1,5.6-1.8l0.8-0.3
		c2.3-0.8,4.7-1.6,7.3-2.1c0.2-0.1,0.5-0.1,0.8-0.1L99,23c0.3,0,0.5-0.1,0.8-0.1L99.8,24.1z"/>
	<path d="M100.4,26.4H100c-0.2,0-0.4,0.1-0.7,0.1l-0.4,0.1c-0.2,0-0.4,0.1-0.6,0.1c-2.4,0.5-4.8,1.3-7.1,2L90.7,29
		c-2.3,0.8-4.6,1.5-7,2.1c-0.2,0.1-0.5,0.1-0.7,0.2l0.1-0.2c0.1-0.3,0.2-0.6,0.3-0.9h0.1c2.3-0.6,4.7-1.3,6.9-2.1l0.7-0.2
		c2.3-0.8,4.7-1.6,7.2-2.1c0.2,0,0.5-0.1,0.7-0.1l0.4-0.1c0.2,0,0.5-0.1,0.7-0.1h0.4L100.4,26.4z"/>
	<path d="M72.2,30.6c0.9,0.2,1.8,0.3,2.7,0.4c-0.1,0.3-0.3,0.6-0.4,0.8c0,0.1-0.1,0.1-0.1,0.2c-0.8-0.1-1.6-0.2-2.4-0.4
		c-0.9-0.2-1.8-0.5-2.6-0.8c0.1-0.3,0.3-0.6,0.4-1C70.5,30.2,71.4,30.4,72.2,30.6L72.2,30.6z"/>
	<path d="M100.2,28.8l-0.4,0.1L99.5,29c-0.2,0-0.4,0.1-0.6,0.1c-2.3,0.5-4.6,1.2-7,2l-0.6,0.2c-2.3,0.8-4.6,1.5-7.1,2.2
		c-0.8,0.2-1.6,0.4-2.3,0.5c0.1-0.2,0.2-0.3,0.2-0.5l0,0c0.1-0.2,0.2-0.4,0.3-0.6c0.5-0.1,1-0.2,1.6-0.4c2.4-0.6,4.8-1.4,7-2.1
		l0.6-0.2c2.5-0.8,4.8-1.6,7.1-2.1c0.2,0,0.4-0.1,0.6-0.1l0.3-0.1c0.1,0,0.3,0,0.4-0.1L100.2,28.8z"/>
	<path d="M73.6,33.2L73.6,33.2c-0.1,0.2-0.3,0.4-0.4,0.5l0,0c-0.1,0.1-0.1,0.2-0.2,0.3l-0.1,0.1c-0.5-0.1-1-0.2-1.4-0.3
		c-1.1-0.2-2.2-0.6-3.3-1c0.2-0.3,0.4-0.6,0.5-0.9c1,0.4,1.9,0.7,3,0.9C72.3,33.1,73,33.2,73.6,33.2z"/>
	<path d="M87.3,17.8C86.9,17.9,86.5,18,86,18c0.8-1.2,1.7-2.3,2.6-3.4c0.3-0.3,0.6-0.7,0.9-1l0.1-0.1l0.8,0.7l-0.1,0.1
		c-0.3,0.3-0.6,0.7-0.9,1c-0.7,0.8-1.3,1.6-1.9,2.4L87.3,17.8L87.3,17.8z"/>
	<path d="M82.5,25.8c0.4,0,0.7,0,1.1,0c0,0.1-0.1,0.2-0.1,0.3c-0.1,0.5-0.3,1-0.4,1.5c-0.2,0.6-0.3,1.2-0.5,1.8
		c-0.3,1.2-0.8,2.4-1.2,3.5c-0.5,1.2-1.1,2.3-1.8,3.4c-0.3,0.4-0.6,0.9-0.9,1.3c-0.4-0.1-0.7-0.2-1.1-0.3c0.4-0.5,0.8-1.1,1.1-1.6
		c0.7-1,1.2-2.1,1.7-3.3c0.5-1.1,0.9-2.2,1.2-3.4c0.2-0.6,0.4-1.2,0.5-1.8C82.2,26.9,82.4,26.4,82.5,25.8L82.5,25.8L82.5,25.8z"/>
	<path d="M83.2,18.2c0.5-0.9,1-1.7,1.5-2.4c0.7-0.9,1.4-1.8,2.2-2.7c0.3-0.4,0.7-0.7,1-1.1c0.1-0.1,0.3-0.3,0.4-0.4
		l0.8,0.7l-0.4,0.4c-0.3,0.3-0.7,0.7-1,1.1c-0.7,0.8-1.5,1.7-2.1,2.6c-0.4,0.6-0.8,1.2-1.2,1.8l0,0C84,18.3,83.6,18.3,83.2,18.2z"/>
	<path d="M80.2,25.6c0.3,0,0.7,0.1,1,0.1c-0.1,0.4-0.3,0.9-0.4,1.3c-0.5,1.7-1,3.4-1.7,5c-0.5,1.1-1,2.1-1.6,3.1
		c-0.4,0.7-0.9,1.4-1.5,2c-0.4-0.1-0.8-0.1-1.2-0.2c0.6-0.8,1.2-1.6,1.8-2.4c0.6-0.9,1.1-1.9,1.5-2.9c0.7-1.6,1.2-3.3,1.6-4.9
		C79.9,26.3,80.1,26,80.2,25.6L80.2,25.6L80.2,25.6z"/>
	<path d="M80.6,18l0.2-0.3c0.6-1.1,1.3-2.2,2-3.2s1.5-2,2.3-2.9c0.4-0.4,0.7-0.8,1.1-1.2l0,0l0.8,0.7l0,0
		c-0.4,0.4-0.7,0.8-1.1,1.2c-0.8,0.9-1.6,1.8-2.3,2.8c-0.7,1-1.3,2-1.9,3c-0.1,0-0.3,0-0.4,0C81.1,18,80.9,18,80.6,18z"/>
	<path d="M77.9,25.1c0.3,0.1,0.7,0.2,1,0.2c-0.1,0.3-0.2,0.7-0.3,1c-0.5,1.7-0.9,3.3-1.6,4.8c-0.4,1-0.9,1.9-1.4,2.7
		c-0.6,0.9-1.2,1.7-1.9,2.5l-0.2,0.3l-0.2,0.2H73h-0.3l0,0h-0.2h-0.6l0.4-0.4c0.1-0.1,0.3-0.3,0.4-0.4c0.1-0.1,0.2-0.2,0.2-0.3
		c0.6-0.7,1.2-1.5,1.8-2.3c0.5-0.8,1-1.7,1.4-2.6c0.6-1.4,1.1-3,1.5-4.7C77.7,25.7,77.8,25.4,77.9,25.1L77.9,25.1z"/>
	<path d="M94.9,15.9c-0.1,0.1-0.2,0.2-0.3,0.2c-0.1,0.1-0.3,0.3-0.4,0.4l-0.5,0.4l0,0L93.5,17c-2.6,1.9-5.8,3-9.1,3.2
		c-0.2,0-0.5,0-0.7,0c-1.4,0-2.8-0.2-4.2-0.5c-0.7-0.2-1.5-0.4-2.2-0.7c0.3-0.3,0.6-0.5,0.9-0.8c0.5,0.2,1,0.3,1.5,0.4
		c1.5,0.4,3.1,0.5,4.6,0.4c3.1-0.1,6-1.1,8.5-2.9L93,16l0.5-0.4c0.1-0.1,0.3-0.2,0.4-0.3s0.2-0.2,0.3-0.2L94.9,15.9z"/>
	<path d="M96.3,17.8L96.3,17.8c-0.2,0.2-0.4,0.4-0.6,0.5l-0.6,0.5l0,0L94.9,19c-3,2.2-6.6,3.5-10.4,3.6
		c-0.3,0-0.5,0-0.8,0c-1.6,0-3.2-0.2-4.7-0.6c-1.3-0.3-2.7-0.8-3.9-1.4c0.4-0.2,0.7-0.5,1-0.7c1,0.4,2.1,0.8,3.1,1
		c1.7,0.4,3.5,0.6,5.2,0.5c3.5-0.1,6.9-1.3,9.8-3.4l0.2-0.2l0.6-0.5c0.2-0.1,0.3-0.3,0.5-0.4h0.1L96.3,17.8z"/>
	<path d="M97.7,19.7c-0.1,0.1-0.3,0.2-0.4,0.4l-0.7,0.6l0,0l-0.2,0.2c-0.8,0.6-1.7,1.2-2.7,1.7
		c-0.4,0.2-0.9,0.4-1.3,0.6l-0.1,0.1l0,0h-0.1c-0.4,0.2-0.9,0.4-1.4,0.5c-1,0.3-2,0.6-3,0.8c-1,0.2-2.1,0.3-3.1,0.3
		c-0.3,0-0.6,0-0.9,0c-3.9,0-7.7-1-11.1-2.8l0,0c0.4-0.2,0.7-0.4,1.1-0.6c4.2,2.2,9.1,2.9,13.8,2.1c1-0.2,1.9-0.4,2.9-0.8
		c0.4-0.1,0.9-0.3,1.3-0.5l0.2-0.1c0.4-0.2,0.8-0.4,1.2-0.6c0.9-0.5,1.7-1,2.5-1.6l0.2-0.2l0.7-0.5c0.1-0.1,0.3-0.2,0.4-0.3
		L97.7,19.7z"/>
	<path d="M52,15.9c-0.5-0.5-0.9-1.1-1.4-1.6c-0.7-0.8-1.3-1.7-1.9-2.6c-0.6-0.9-1.1-1.9-1.6-2.9c-0.4-1-0.8-2.1-1.1-3.2
		c-0.2-1-0.4-2.1-0.5-3.2V2c0-0.3,0-0.5-0.1-0.8V0.5h1v0.7c0,0.2,0,0.5,0.1,0.8v0.4c0.1,1,0.3,2,0.5,3s0.6,2,1,3s0.9,1.9,1.5,2.8
		c0.6,0.8,1.2,1.7,1.8,2.4c0.5,0.6,0.9,1.1,1.4,1.6c0.8,0.9,1.5,1.8,2.2,2.7c0.5,0.7,1.1,1.5,1.5,2.2c0.3,0.4,0.5,0.8,0.8,1.3
		c-0.3,0.2-0.6,0.4-0.9,0.6c-0.3-0.5-0.5-0.9-0.8-1.4c-0.4-0.7-0.9-1.4-1.5-2.1C53.6,17.7,52.8,16.8,52,15.9L52,15.9z"/>
	<path d="M52.5,12.7c-0.6-0.7-1.2-1.5-1.7-2.3s-1-1.7-1.4-2.6C49,6.9,48.7,6,48.4,5c-0.2-0.9-0.4-1.9-0.5-2.9
		c0-0.1,0-0.3,0-0.4c0-0.2,0-0.5-0.1-0.7v-1.1h1v1c0,0.2,0,0.4,0.1,0.7c0,0.1,0,0.3,0,0.4c0.1,0.9,0.2,1.8,0.5,2.7
		c0.2,0.9,0.5,1.8,0.9,2.6s0.8,1.7,1.3,2.4c0.5,0.8,1.1,1.5,1.7,2.2c0.4,0.5,0.9,1.1,1.3,1.6c0.8,0.9,1.6,1.9,2.3,2.8
		c0.6,0.8,1.1,1.6,1.6,2.4c0.3,0.4,0.5,0.8,0.8,1.3c-0.3,0.2-0.6,0.3-0.9,0.5c-0.2-0.4-0.5-0.9-0.7-1.3c-0.5-0.8-1-1.5-1.6-2.3
		c-0.7-1-1.5-1.9-2.3-2.8C53.4,13.8,52.9,13.3,52.5,12.7L52.5,12.7z"/>
	<path d="M51.5,6.9c-0.3-0.8-0.6-1.6-0.8-2.4s-0.3-1.7-0.4-2.6c0-0.1,0-0.3,0-0.4c0-0.2,0-0.4,0-0.6V0.4h1v0.5
		c0,0.2,0,0.4,0,0.6c0,0.1,0,0.3,0,0.4c0.1,0.8,0.2,1.6,0.4,2.4s0.4,1.5,0.7,2.2c0.5,1.3,1.4,2.6,2.6,4.1c0.4,0.5,0.8,1,1.3,1.5
		c0.8,0.9,1.6,1.9,2.4,3c0.6,0.8,1.2,1.7,1.8,2.6c0.3,0.4,0.6,0.9,0.8,1.4c-0.3,0.2-0.6,0.3-0.9,0.5c-0.3-0.5-0.5-0.9-0.8-1.3
		c-0.5-0.8-1.1-1.7-1.7-2.5c-0.8-1-1.6-2-2.4-2.9c-0.4-0.5-0.9-1-1.3-1.5C53,9.6,52.1,8.3,51.5,6.9L51.5,6.9z"/>
	<path d="M71.6,3.8c-0.1,0.4-0.3,0.9-0.5,1.3c-0.8,1.7-2,3.3-3.6,4.4c0-0.4,0-0.9,0-1.3c1.1-1,2-2.2,2.6-3.5
		c0.2-0.4,0.3-0.8,0.5-1.2L71.6,3.8z"/>
	<path d="M73.9,4.1c-0.2,0.7-0.5,1.4-0.8,2c-0.1,0.3-0.2,0.5-0.4,0.7c-0.1,0.1-0.1,0.2-0.2,0.3l0,0l-0.2,0.3
		c-0.1,0.2-0.3,0.5-0.4,0.7c-0.4,0.7-0.9,1.3-1.5,1.8L70,10.3c-0.1,0.1-0.2,0.2-0.3,0.3l-0.1,0.1L69.4,11c-0.1,0.1-0.1,0.1-0.2,0.1
		l-0.5,0.4l0,0l-0.6,0.4L67.9,12l0,0l-0.2,0.1c-0.1-0.4-0.1-0.7-0.1-1.1l0.5-0.3l0.5-0.4l0.1-0.1l0.2-0.2l0.2-0.1
		c0.1-0.1,0.2-0.1,0.3-0.2l0.4-0.4c0.5-0.5,1-1.1,1.4-1.7l0,0c0.1-0.2,0.3-0.4,0.4-0.6c0.1-0.1,0.1-0.2,0.2-0.3
		c0.1-0.1,0.1-0.2,0.2-0.3c0.1-0.2,0.2-0.4,0.3-0.7l0,0c0.3-0.6,0.5-1.2,0.7-1.9L73.9,4.1z"/>
	<path d="M76,5.3c-0.2,0.6-0.4,1.2-0.7,1.8C75.2,7.4,75,7.7,74.9,8l-0.2,0.3l0,0l-0.2,0.3c-0.2,0.3-0.3,0.6-0.5,0.9
		c-0.5,0.8-1.1,1.5-1.8,2.2l-0.5,0.5c-0.1,0.1-0.3,0.2-0.4,0.3l-0.2,0.1l-0.3,0.2c-0.1,0.1-0.1,0.1-0.2,0.2L70,13.5l0,0l-0.7,0.4
		c-0.1,0-0.1,0.1-0.2,0.1l0,0l-0.5,0.2l-0.4,0.2c-0.1-0.4-0.2-0.7-0.3-1l0.2-0.1l0.4-0.2l0.2-0.1l0.7-0.4l0.6-0.5
		c0.1,0,0.1-0.1,0.2-0.1l0.3-0.2l0.2-0.1c0.1-0.1,0.2-0.2,0.3-0.3l0.5-0.5c0.6-0.6,1.2-1.3,1.7-2l0,0c0.2-0.2,0.3-0.5,0.5-0.8
		l0.2-0.3C74,7.7,74,7.6,74.1,7.5c0.2-0.3,0.3-0.6,0.4-0.8l0,0C74.6,6.1,74.8,5.5,75,5L76,5.3z"/>
	<path d="M3.9,32.4c-0.2-0.1-0.5-0.2-0.7-0.3L2.8,32l0.4-1l0.3,0.1c0.3,0.1,0.5,0.2,0.8,0.3l0.6,0.3
		c0.2,0.1,0.3,0.1,0.5,0.2L6,32.3c0.2,0.1,0.3,0.2,0.5,0.3l0.2,0.1L7,32.8l0,0L7.3,33l0.2,0.1c0.1,0.1,0.3,0.2,0.4,0.3
		c0.8,0.6,1.6,1.3,2.3,2.1s1.3,1.6,1.8,2.6c0.5,0.9,0.9,1.8,1.2,2.7c-0.4-0.1-0.8-0.2-1.2-0.3c-0.3-0.6-0.6-1.3-0.9-1.9
		c-0.5-0.8-1.1-1.6-1.7-2.4c-0.7-0.7-1.4-1.4-2.2-2c-0.1-0.1-0.3-0.2-0.4-0.3l-0.2-0.1l-0.3-0.2L6,33.4l0,0
		c-0.1-0.1-0.3-0.2-0.4-0.2L5,32.9c-0.1-0.1-0.3-0.1-0.4-0.2L3.9,32.4L3.9,32.4z"/>
	<path d="M3.3,34.7c-0.1,0-0.2-0.1-0.4-0.1c-0.2-0.1-0.4-0.2-0.6-0.2L2,34.2l0.4-1l0.3,0.1c0.2,0.1,0.4,0.2,0.6,0.2l0,0
		l0.3,0.1c0.2,0.1,0.4,0.2,0.6,0.3c0.8,0.4,1.5,0.8,2.2,1.4c0.7,0.5,1.4,1.1,2,1.8s1.1,1.4,1.5,2.2c0.2,0.3,0.3,0.6,0.4,0.9
		l-0.4-0.1C9.6,40,9.3,40,9,39.9v-0.1c-0.4-0.7-0.9-1.4-1.4-2s-1.1-1.2-1.8-1.6c-0.7-0.5-1.4-0.9-2.1-1.3
		C3.7,34.9,3.5,34.8,3.3,34.7L3.3,34.7z"/>
	<path d="M2.9,37.1C2.8,37,2.7,37,2.6,36.9l-0.5-0.2l0.4-0.9L3,36c0.1,0.1,0.2,0.1,0.4,0.2l0.5,0.2
		c0.1,0.1,0.2,0.1,0.3,0.2l0.2,0.1l0.2,0.1l0,0L4.8,37L5,37.1c0.1,0.1,0.2,0.1,0.3,0.2c0.6,0.4,1.1,0.9,1.6,1.5
		c0.3,0.3,0.5,0.6,0.7,0.9c-0.2,0-0.4-0.1-0.7-0.1c-0.3,0-0.5-0.1-0.8-0.1l0,0c-0.4-0.5-0.9-0.9-1.4-1.3C4.5,38.1,4.4,38,4.4,38
		l-0.2-0.1L4,37.7l-0.2-0.1c-0.1,0-0.1-0.1-0.2-0.1c-0.1-0.1-0.2-0.1-0.3-0.1L2.9,37.1L2.9,37.1z"/>
	<path d="M24.9,36.1c0.2,0,0.5-0.1,0.7-0.1c-1.1,1.4-2,3.3-3,5.2l-0.1,0.3c-1.1,2.1-2.2,4.4-3.9,6.5
		c-0.9,1.1-1.9,2.1-3,3s-2.4,1.7-3.7,2.2s-2.7,0.9-4.1,1.1l0,0l-1,0.1H6.6c-0.1,0-0.2,0-0.4,0H5.4c-0.2,0-0.5,0-0.7,0l0,0H3.2l0,0
		H2.6l0.1-1h0.6h1.5c0.2,0,0.5,0,0.7,0h0.8c0.1,0,0.2,0,0.3,0h0.2l1-0.1c1.3-0.2,2.6-0.6,3.8-1c1.3-0.5,2.4-1.2,3.5-2.1
		c1-0.8,2-1.8,2.8-2.8c1.6-2,2.7-4.2,3.8-6.3l0.1-0.3c0.8-1.6,1.6-3.2,2.5-4.5C24.4,36.1,24.7,36.1,24.9,36.1L24.9,36.1z"/>
	<path d="M21.3,36.3c0.4,0,0.8,0,1.2,0c-0.2,0.3-0.3,0.5-0.5,0.8C21.5,38,21,39,20.5,40l-0.1,0.2c-1,2-2.2,4.2-3.7,6.2
		c-0.8,1-1.6,1.8-2.6,2.6s-2,1.4-3.2,1.9c-1.1,0.4-2.3,0.8-3.5,0.9l0,0L6.5,52H6.3c-0.1,0-0.2,0-0.3,0l-1.3,0.1l0,0H3.3l0,0L1.7,52
		l0.1-1h1.5h1.4H6c0.1,0,0.2,0,0.2,0c0.1,0,0.1,0,0.2,0l0.9-0.1c1.1-0.2,2.2-0.5,3.3-0.9c1-0.4,2-1,2.9-1.7c0.9-0.7,1.7-1.5,2.4-2.5
		c1.5-1.9,2.6-4.1,3.6-6l0.1-0.2c0.5-1,1-2,1.6-2.9C21.2,36.5,21.2,36.4,21.3,36.3L21.3,36.3z"/>
	<path d="M19,36.2c0.3,0,0.5,0,0.8,0.1c-0.5,0.9-0.9,1.8-1.4,2.6l-0.1,0.3c-1.1,2.2-2.1,4.2-3.4,5.8
		c-1.4,1.8-3,3-4.8,3.8c-1,0.4-2,0.6-3,0.8l0,0l-0.8,0.1H6.2c-0.1,0-0.2,0-0.3,0H4.7l0,0H3.4l0,0L2,49.6l0.1-1l1.4,0.1h1.2h1.2
		c0.1,0,0.1,0,0.2,0h0.2L7,48.5c0.9-0.1,1.9-0.4,2.7-0.7c1.6-0.7,3.1-1.8,4.4-3.4c1.2-1.6,2.2-3.5,3.3-5.6l0.1-0.3
		c0.4-0.7,0.8-1.5,1.2-2.3H19L19,36.2z"/>
	<path d="M17.9,23.1c-1.4-1.7-3.1-3.3-5-4.6c-0.5-0.3-1-0.7-1.5-1l0.5-0.9c0.5,0.3,1.1,0.6,1.6,1
		c1.9,1.4,3.6,2.9,5.2,4.7c0.8,0.9,1.5,1.9,2.1,2.9c0.7,1.1,1.2,2.2,1.6,3.4c-0.4,0-0.7,0-1.1,0c-0.4-1-0.8-2-1.4-2.9
		C19.3,24.9,18.6,23.9,17.9,23.1L17.9,23.1z"/>
	<path d="M16.1,24.6c-1.3-1.6-2.8-3-4.5-4.1c-0.6-0.4-1.1-0.7-1.7-1.1l0.5-0.9c0.6,0.3,1.2,0.7,1.8,1.1
		c1.7,1.2,3.3,2.7,4.7,4.3c0.7,0.8,1.3,1.7,1.9,2.6c0.4,0.7,0.8,1.4,1.1,2.2h-0.1c-0.4,0-0.7-0.1-1.1-0.2c-0.2-0.5-0.5-1-0.8-1.5
		C17.3,26.2,16.7,25.3,16.1,24.6L16.1,24.6z"/>
	<path d="M14.3,26.1c-1.2-1.4-2.5-2.7-4-3.7c-0.5-0.3-1-0.7-1.5-0.9l0.5-0.9c0.6,0.3,1.1,0.6,1.6,1
		c1.6,1.1,3,2.4,4.2,3.9c0.6,0.7,1.2,1.5,1.7,2.3c0.1,0.1,0.2,0.3,0.2,0.4c-0.1,0-0.3-0.1-0.4-0.1l-0.7-0.3c-0.1,0-0.2-0.1-0.3-0.2
		h-0.1C15,27.1,14.7,26.6,14.3,26.1L14.3,26.1z"/>
	<path d="M78.7,7.7L78.6,8c-0.1,0.4-0.3,0.8-0.5,1.2c-0.5,1.2-1.2,2.3-2,3.2c-0.8,1-1.8,1.9-2.8,2.6
		c-2.1,1.5-4.5,2.7-7.2,3.9l-0.3,0.2c-1.2,0.5-2.4,1.1-3.6,1.7c-1.4,0.7-2.7,1.5-3.9,2.3c-1.3,0.9-2.5,2-3.5,3.3l-0.1,0.1
		c-0.1-0.3-0.2-0.6-0.3-1c0-0.1,0-0.1-0.1-0.2c1-1.1,2.1-2.2,3.4-3c1.3-0.9,2.7-1.7,4.1-2.4c1.2-0.6,2.5-1.2,3.7-1.7l0.3-0.2
		c2.7-1.2,5.1-2.3,7-3.8c1-0.7,1.9-1.5,2.6-2.5c0.8-0.9,1.4-1.9,1.8-3l0,0c0.2-0.4,0.3-0.7,0.4-1.1l0.1-0.3L78.7,7.7z"/>
	<path d="M81,8.2c-0.1,0.1-0.1,0.3-0.1,0.4c-0.2,0.5-0.4,1-0.6,1.5c-0.6,1.4-1.4,2.6-2.3,3.8c-1,1.1-2,2.1-3.2,3
		c-2.4,1.8-5.2,3.1-7.7,4.2l-0.5,0.2c-2.4,1.1-4.9,2.2-7,3.8c-1.1,0.8-2.2,1.7-3.1,2.8c-0.4,0.5-0.7,0.9-1,1.5
		c-0.1-0.5-0.2-0.9-0.4-1.3c0.2-0.3,0.4-0.5,0.6-0.8c0.9-1.2,2-2.2,3.3-3c2.2-1.6,4.7-2.7,7.2-3.9l0.5-0.2c2.4-1.1,5.1-2.3,7.5-4.1
		c1.1-0.8,2.2-1.8,3.1-2.8c0.9-1.1,1.6-2.3,2.2-3.5l0,0c0.2-0.4,0.4-0.9,0.5-1.3c0-0.1,0.1-0.3,0.2-0.4L81,8.2z"/>
	<path d="M83.3,8.8c-0.1,0.2-0.1,0.4-0.2,0.5c-0.2,0.6-0.4,1.2-0.7,1.7c-0.7,1.6-1.6,3-2.7,4.3s-2.3,2.4-3.7,3.4
		c-1.3,0.9-2.6,1.8-4,2.5c-1.3,0.7-2.6,1.3-3.9,1.9l-0.4,0.2c-2.5,1.2-4.9,2.2-6.9,3.7c-1,0.7-1.8,1.5-2.6,2.4c-0.8,1-1.4,2-2.1,3.9
		c-0.1-0.7-0.2-1.3-0.3-2c0.4-0.9,1-1.8,1.6-2.6c0.8-1,1.8-1.9,2.8-2.6c2.1-1.5,4.5-2.6,7.1-3.7l0.4-0.2c1.2-0.6,2.5-1.2,3.8-1.8
		c1.4-0.7,2.7-1.5,3.9-2.4c1.3-0.9,2.5-2,3.5-3.2s1.9-2.6,2.5-4.1c0.2-0.5,0.5-1.1,0.6-1.6c0.1-0.2,0.1-0.4,0.2-0.6L83.3,8.8z"/>
	<path d="M99.3,36.8c0.5-0.1,0.9-0.3,1.4-0.4c0.7-0.2,1.4-0.3,2-0.5c0.5-0.1,1-0.2,1.5-0.2l0.1,1
		c-0.4,0-0.9,0.1-1.4,0.2c-0.6,0.1-1.3,0.3-1.9,0.4l-0.4,0.1l-0.2-0.1l-0.4-0.2c-0.2-0.1-0.3-0.2-0.5-0.3H99.3z"/>
	<path d="M92.3,40.7c-0.3,0.1-0.6,0.3-0.9,0.5c-0.8,0.5-1.6,0.9-2.2,1.3l-0.1-0.1L88.2,42c0.9-0.6,1.8-1.2,2.7-1.7
		c0.2-0.1,0.4-0.2,0.6-0.3c0.1,0.1,0.2,0.2,0.3,0.4L92.3,40.7z"/>
	<path d="M90.7,38.9l-0.4,0.2c-1.2,0.6-2.3,1.3-3.4,2.2c-0.3-0.2-0.7-0.4-1-0.5l0.1-0.1c1.2-0.9,2.4-1.7,3.7-2.4
		l0.4-0.2l0.1,0.1l0.1,0.2L90.7,38.9z"/>
	<path d="M97.3,35c0.2-0.1,0.4-0.1,0.6-0.2c0.7-0.2,1.4-0.4,2.1-0.6c0.8-0.2,1.5-0.4,2.2-0.5s1.4-0.2,2.1-0.3l0.1,1
		c-0.7,0.1-1.3,0.1-2,0.3c-0.7,0.1-1.4,0.3-2.1,0.5s-1.4,0.4-2.1,0.6L98,35.9l0,0l-0.6-0.6C97.4,35.1,97.4,35.1,97.3,35L97.3,35z"/>
	<path d="M96,32.9c0.4-0.1,0.8-0.3,1.2-0.4c0.8-0.2,1.5-0.5,2.2-0.6c0.8-0.2,1.6-0.4,2.3-0.5c0.7-0.1,1.3-0.2,1.9-0.3
		l0.1,1c-0.6,0.1-1.1,0.1-1.8,0.3c-0.7,0.1-1.5,0.3-2.3,0.5c-0.7,0.2-1.5,0.4-2.2,0.6c-0.3,0.1-0.7,0.2-1,0.3v-0.1L96,32.9L96,32.9z
		"/>
	<path d="M89.5,36.9l-0.3,0.2c-1.4,0.7-2.7,1.6-3.9,2.6c-0.2,0.2-0.4,0.3-0.6,0.5c-0.3-0.2-0.7-0.3-1-0.5
		c0.3-0.3,0.6-0.6,0.9-0.8c1.3-1,2.7-1.9,4.1-2.7L89,36l0,0l0.2,0.5L89.5,36.9z"/>
	<path d="M34.3,4.8l-0.2-0.4L35,3.9l0.2,0.4c0.1,0.1,0.1,0.3,0.2,0.4c0,0,0,0.1,0.1,0.1l0.2,0.6c0.6,1.6,1,3.3,1.1,5
		v0.1c-0.3,0-0.7,0-1,0c-0.1-1.6-0.5-3.2-1.1-4.7l-0.2-0.6c0,0,0-0.1-0.1-0.2C34.4,5,34.4,4.9,34.3,4.8z"/>
	<path d="M35.4,23.9c-0.4,3-0.4,5.5,0.1,7.6c0.4,2.1,1.4,4.1,2.9,6.1h-0.1h-0.2c-0.2,0-0.4,0-0.7,0h-0.3
		c-1.3-1.8-2.2-3.7-2.6-5.9c-0.5-2.3-0.5-4.8-0.1-8c0.2-1.2,0.4-2.3,0.6-3.5c0.1-0.7,0.2-1.4,0.4-2.2c0.4,0,0.7,0,1.1,0
		c-0.1,0.8-0.3,1.5-0.4,2.3C35.8,21.6,35.6,22.8,35.4,23.9L35.4,23.9z"/>
	<path d="M32.2,5.8L32.2,5.8l-0.3-0.6l0.9-0.5l0.3,0.6c0.1,0.1,0.1,0.3,0.2,0.4l0.1,0.1l0.2,0.5
		c0.5,1.3,0.8,2.7,0.9,4.1h-0.2H34l-0.5-0.1C33.3,9,33,7.8,32.6,6.7l-0.2-0.5c0,0,0-0.1-0.1-0.1C32.3,6,32.2,5.9,32.2,5.8L32.2,5.8z
		"/>
	<path d="M32.8,27.8c0,1.4,0.1,2.8,0.4,4.2c0.5,2,1.3,4,2.4,5.7h-0.2c-0.2,0-0.4,0.1-0.6,0.1h-0.1h-0.2
		c-1.1-1.7-1.9-3.7-2.3-5.7c-0.3-1.4-0.5-2.9-0.5-4.4s0.1-2.9,0.3-4.4c0.2-1.2,0.4-2.5,0.6-3.7c0.1-0.6,0.2-1.3,0.3-1.9h0.2
		c0.3,0,0.6,0.1,0.9,0.1c-0.1,0.7-0.2,1.3-0.3,2c-0.2,1.2-0.4,2.4-0.6,3.6C32.9,25,32.8,26.4,32.8,27.8L32.8,27.8z"/>
	<path d="M33.1,38l0.1,0.2c-0.4,0.1-0.7,0.2-1,0.3L32,38.3c-0.2-0.3-0.3-0.5-0.4-0.8c-0.8-1.5-1.3-3.1-1.7-4.7
		c-0.3-1.6-0.5-3.3-0.5-4.9s0.1-3.1,0.3-4.7c0.2-1.3,0.4-2.6,0.6-3.8c0.1-0.7,0.2-1.3,0.3-2c0.3,0.1,0.5,0.1,0.8,0.2h0.2
		c-0.1,0.6-0.2,1.3-0.3,1.9c-0.2,1.2-0.4,2.5-0.6,3.8c-0.2,1.5-0.3,3-0.3,4.6s0.2,3.1,0.5,4.7c0.3,1.6,0.9,3.1,1.6,4.5l0,0
		c0.1,0.2,0.2,0.5,0.4,0.7L33.1,38z"/>
	<path d="M30.1,6.8L29.7,6l0.9-0.5L31,6.3c0.1,0.1,0.1,0.2,0.2,0.3v0.1l0.2,0.4C31.7,8,31.9,9,32.1,9.9l-0.4-0.1
		c-0.2-0.1-0.4-0.1-0.5-0.2L31,9.5c-0.1-0.7-0.3-1.3-0.6-2l-0.2-0.4c0,0,0-0.1-0.1-0.1C30.1,6.9,30.1,6.9,30.1,6.8L30.1,6.8z"/>
	<path d="M42.8,3.8c-0.1-0.4-0.1-0.9-0.2-1.3c0-0.2,0-0.4-0.1-0.6l1-0.1c0,0.2,0,0.4,0.1,0.6c0,0.4,0.1,0.9,0.2,1.3
		c0.3,2.3,0.9,4.5,1.7,6.7c0.4,1,0.8,2,1.3,2.9c-0.3,0.2-0.5,0.4-0.8,0.7c-0.5-1-1-2.1-1.5-3.2C43.7,8.5,43.1,6.2,42.8,3.8L42.8,3.8
		z"/>
	<path d="M40.5,4.2c-0.1-0.5-0.1-1-0.2-1.4c0-0.2,0-0.4-0.1-0.6l1-0.1c0,0.2,0,0.4,0.1,0.7c0,0.5,0.1,0.9,0.2,1.4
		c0.3,2.5,1,4.9,1.9,7.2c0.5,1.2,1,2.4,1.6,3.5c-0.3,0.2-0.6,0.4-0.8,0.7c-0.7-1.2-1.3-2.5-1.8-3.8C41.5,9.2,40.8,6.7,40.5,4.2
		L40.5,4.2z"/>
	<path d="M38.1,4.5c0-0.5-0.1-1.1-0.2-1.6V2.6l1-0.1v0.3c0,0.5,0.1,1,0.2,1.5c0.4,2.7,1,5.3,2,7.7
		c0.6,1.4,1.2,2.8,2,4.2c-0.3,0.2-0.5,0.5-0.8,0.7c-0.8-1.5-1.5-3-2.1-4.5C39.2,9.9,38.5,7.2,38.1,4.5L38.1,4.5z"/>
	<path d="M53.9,7.3c-0.2-0.4-0.5-0.8-0.6-1.3c0-0.2,0.1-0.4,0.1-0.6l0,0c0-0.1,0-0.1,0-0.2V5.1l0.1-0.8V3.9
		c0-0.1,0-0.2,0-0.3c0-0.2,0-0.3,0-0.5V2.2V2V1.7l-0.1-1.4l1-0.1l0.1,1.4c0,0.1,0,0.2,0,0.3c0,0.1,0,0.1,0,0.2V3c0,0.2,0,0.4,0,0.5
		s0,0.2,0,0.3v0.4l0,0L54.4,5v0.1c0,0.1,0,0.2-0.1,0.3C54.3,6.3,54.2,6.8,53.9,7.3L53.9,7.3L53.9,7.3z"/>
	<path d="M38.9,26.1c-0.3,0-0.7-0.1-1.1-0.1c0.3-1.2,0.7-2.4,1.3-3.5c0.7-1.4,1.7-2.7,2.8-3.8c1-1,2.1-2,3.2-2.9
		c0.4-0.3,0.8-0.6,1.2-0.9c0.6-0.5,1.2-1,1.8-1.5c0.2-0.2,0.4-0.3,0.5-0.4c0.2,0.3,0.4,0.6,0.6,0.8c-0.2,0.1-0.3,0.3-0.5,0.4
		c-0.6,0.5-1.2,1-1.8,1.5c-0.4,0.3-0.8,0.6-1.2,0.9c-1.1,0.9-2.1,1.8-3.1,2.8c-1,1.1-1.9,2.3-2.6,3.6C39.5,24,39.1,25,38.9,26.1
		L38.9,26.1z"/>
	<path d="M54.8,8.8c0.4-0.9,0.7-1.9,0.9-2.8l0,0c0-0.1,0-0.2,0-0.3V5.5l0.1-0.9V4.1c0-0.1,0-0.2,0-0.3
		c0-0.2,0-0.4,0-0.6v-1V1.9V1.6L56,0.7l1-0.1l0.1,0.9c0,0.1,0,0.3,0,0.4s0,0.1,0,0.2v1c0,0.2,0,0.4,0,0.7c0,0.1,0,0.2,0,0.3v0.5l0,0
		l-0.1,1v0.1c0,0.1,0,0.3-0.1,0.4c-0.2,1.2-0.6,2.4-1.2,3.5C55.3,9.4,55,9,54.8,8.8z"/>
	<path d="M40.9,26.4c-0.2-0.1-0.5-0.1-0.7-0.2c0.2-0.9,0.6-1.8,1-2.6c0.6-1.2,1.4-2.3,2.4-3.3c1.3-1.3,2.7-2.5,4.1-3.6
		c0.6-0.5,1.3-1,1.9-1.5c0.2-0.1,0.3-0.3,0.4-0.4c0.2,0.3,0.5,0.5,0.7,0.8c-0.1,0.1-0.3,0.3-0.4,0.4c-0.6,0.5-1.3,1-1.9,1.5
		c-1.4,1.1-2.8,2.2-4,3.5c-0.9,0.9-1.6,1.9-2.2,3c-0.4,0.7-0.7,1.5-0.9,2.4l0,0H40.9L40.9,26.4z"/>
	<path d="M56.5,10.8c0-0.1,0.1-0.2,0.1-0.2c0.7-1.3,1.2-2.7,1.4-4.2l0,0c0-0.1,0-0.2,0.1-0.3c0-0.1,0-0.1,0-0.2l0.2-1.1
		V4.3c0-0.1,0-0.2,0-0.3c0-0.2,0-0.5,0-0.7V1.9V1.5V0.9l1-0.1v0.6c0,0.1,0,0.3,0,0.4v1.3c0,0.3,0,0.5,0,0.8v0.3v0.6l0,0L59.1,6
		c0,0.1,0,0.1,0,0.2s0,0.3-0.1,0.4c-0.3,1.5-0.8,3-1.5,4.4c-0.1,0.2-0.2,0.4-0.3,0.6l-0.1-0.1L56.5,10.8z"/>
	<path d="M42.9,27.1c-0.2-0.1-0.4-0.1-0.5-0.2c0.2-0.7,0.5-1.5,0.8-2.1c0.5-1,1.2-1.9,2-2.7c1.1-1.2,2.5-2.2,3.9-3.4
		c0.6-0.5,1.3-1,2-1.6l0.4-0.4l0.7,0.8c-0.1,0.1-0.3,0.3-0.5,0.4c-0.7,0.6-1.3,1.1-2,1.6c-1.4,1.1-2.7,2.2-3.8,3.3
		c-0.7,0.7-1.4,1.6-1.8,2.5c-0.3,0.6-0.6,1.3-0.8,2C43.3,27.2,43.1,27.1,42.9,27.1L42.9,27.1z"/>
	<path d="M14.5,42.2l-0.2,0.2c-0.1,0.2-0.2,0.4-0.3,0.5L13.9,43c-1.2-0.3-2.4-0.6-3.6-0.9c-1.4-0.3-2.7-0.6-4.1-0.7
		c-1.4-0.1-2.9-0.2-4.3,0c-0.5,0-1,0.1-1.5,0.2l-0.2-1c0.5-0.1,1.1-0.2,1.6-0.2c1.5-0.1,3-0.1,4.5,0c1.4,0.1,2.9,0.4,4.3,0.7
		c1.3,0.3,2.6,0.6,3.8,1L14.5,42.2z"/>
	<path d="M28.4,42.1c-1.1,0.5-2.4,1-3.6,1.4C23.9,43.8,23,44,22,44.2c0.1-0.1,0.1-0.3,0.2-0.4c0.1-0.3,0.3-0.5,0.4-0.8
		c0.5-0.1,1.1-0.3,1.8-0.5c1.2-0.4,2.4-0.9,3.5-1.4l0.2-0.1c1.2-0.5,2.4-1,3.7-1.5c1.5-0.5,3-0.9,4.5-1l0,0l1.2-0.1h0.1
		c0.4,0,0.8,0,1.2,0c0.8,0.1,1.7,0.2,2.5,0.4c1.6,0.4,3,1.1,4.2,2.2c0.1,0.6,0.3,1.1,0.4,1.8c-0.1-0.1-0.3-0.3-0.4-0.4
		c-1.4-1.3-2.6-2.1-4.4-2.6c-0.8-0.2-1.5-0.3-2.3-0.4c-0.3,0-0.7,0-1.1,0l-1.2,0.1c-1.5,0.2-2.9,0.5-4.3,1c-1.3,0.4-2.5,0.9-3.7,1.4
		L28.4,42.1L28.4,42.1z"/>
	<path d="M10,43.4c1,0.2,2,0.5,3,0.8c-0.3,0.3-0.5,0.6-0.8,0.9c-0.8-0.2-1.6-0.4-2.5-0.6c-3-0.7-5.5-0.9-7.7-0.7
		c-0.6,0.1-1.2,0.2-1.8,0.3l-0.2-1c0.6-0.1,1.3-0.2,1.9-0.3C4.3,42.5,6.8,42.7,10,43.4L10,43.4z"/>
	<path d="M46.3,45.4c0.1,0.7,0.2,1.5,0.2,2.2c0-0.1-0.1-0.2-0.1-0.3c-1.7-3.4-4-4.7-5.9-5.1c-1.2-0.3-2.5-0.4-3.8-0.3
		c-1.3,0.1-2.5,0.4-3.7,0.9c-1.2,0.4-2.4,0.9-3.5,1.4c-1.3,0.5-2.6,1.1-3.9,1.5s-2.6,0.8-4,0.9c-0.2,0-0.3,0-0.5,0h-0.5l0.1-0.2
		c0.1-0.1,0.1-0.2,0.2-0.3l0,0c0.1-0.2,0.2-0.3,0.3-0.5c0.1,0,0.1,0,0.2,0l0,0c1.3-0.1,2.5-0.4,3.7-0.9c1.3-0.4,2.6-1,3.8-1.5
		c1.2-0.5,2.4-1,3.6-1.4c1.3-0.5,2.6-0.8,4-0.9c1.4-0.1,2.8,0,4.1,0.3C43.1,41.8,44.8,43.1,46.3,45.4L46.3,45.4L46.3,45.4z"/>
	<path d="M2.2,45.1c2.1-0.2,4.4,0,7.3,0.6c0.5,0.1,1,0.2,1.5,0.4l-0.2,0.2c-0.3,0.2-0.7,0.4-1.1,0.6l-0.4-0.1
		c-2.8-0.6-5-0.8-7-0.6c-0.6,0.1-1.1,0.2-1.7,0.3l-0.2-1C1,45.3,1.6,45.1,2.2,45.1L2.2,45.1z"/>
	<path d="M37.7,43.2c5.1,0,8.6,3.7,8.6,10.4v10.9h-1v-11c0-6-3.2-9.3-7.6-9.3c-0.2,0-0.5,0-0.8,0
		c-1.1,0.1-2.2,0.4-3.2,0.8c-1.1,0.4-2.1,0.8-3.3,1.3c-1.3,0.6-2.7,1.1-4.2,1.6c-0.6,0.2-1.3,0.4-2.2,0.6l0,0l-1,0.3l0,0L21.9,49
		c-0.2,0-0.4,0-0.6,0h-0.6h-0.2c-0.1,0-0.3,0-0.4,0h-0.2c-0.1,0-0.3,0-0.5,0s-0.3,0-0.5,0c0.1-0.2,0.3-0.3,0.4-0.5l0.4-0.5h0.1H20
		c0.1,0,0.2,0,0.3,0h0.2h0.6c0.2,0,0.3,0,0.5,0l1.1-0.2l1.1-0.2c0.8-0.2,1.5-0.4,2.1-0.6c1.4-0.5,2.8-1,4.1-1.6
		c1.2-0.5,2.2-0.9,3.3-1.3c1.1-0.4,2.3-0.7,3.4-0.8l0,0C37.1,43.2,37.3,43.2,37.7,43.2L37.7,43.2L37.7,43.2z"/>
	<path d="M8.7,25.5l-0.3-0.2l0.7-0.8l0.2,0.2c0.1,0.1,0.2,0.1,0.2,0.2c0.2,0.1,0.3,0.3,0.5,0.4l1,0.8l0.6,0.4
		c0.4,0.3,0.8,0.5,1.2,0.8l0.5,0.3c1.1,0.6,2.2,1.1,3.4,1.5s2.4,0.6,3.6,0.6c1.3,0.1,2.5,0,3.8-0.2c1.4-0.2,2.8-0.5,4-0.8l0.4-0.1
		c0,0.4,0,0.7,0,1.1l-0.2,0.1c-1.2,0.3-2.6,0.7-4.1,0.9c-1.3,0.2-2.7,0.3-4,0.2c-1.3-0.1-2.6-0.3-3.8-0.7c-1.3-0.4-2.5-0.9-3.6-1.6
		l0,0l-0.5-0.3c-0.4-0.2-0.8-0.5-1.2-0.8l-0.6-0.4l0,0l-1-0.8C9.3,26.2,9.1,26,9,25.8L8.7,25.5z"/>
	<path d="M37.3,28c-0.4,0-0.8,0-1.3,0.1c0-0.3,0-0.7,0-1c0.4,0,0.8,0,1.3,0h0.3c0.1,0,0.2,0,0.3,0h0.8
		c0.2,0,0.3,0,0.5,0.1h0.2h0.2c0.2,0,0.3,0,0.5,0.1l1,0.2l0,0l0.3,0.1c0.2,0.1,0.4,0.1,0.6,0.2c0.2,0.1,0.4,0.1,0.6,0.2
		c0.8,0.3,1.7,0.7,2.4,1.2c0.8,0.5,1.6,1.1,2.2,1.8c0.4,0.4,0.7,0.8,1.1,1.2c0.1,0.2,0.1,0.5,0.1,0.7c0.1,0.6,0.2,1.2,0.3,1.8
		c-0.6-1.1-1.3-2.1-2.2-3c-0.6-0.6-1.3-1.1-2.1-1.6c-0.7-0.4-1.5-0.8-2.3-1.1c-0.2-0.1-0.4-0.1-0.6-0.2c-0.2-0.1-0.3-0.1-0.6-0.2
		l-0.3-0.1l-1-0.2c-0.1,0-0.3,0-0.4-0.1c-0.1,0-0.2,0-0.2,0c-0.1,0-0.1,0-0.2,0c-0.1,0-0.3,0-0.4,0L37.9,28h-0.2H37.3L37.3,28z"/>
	<path d="M7.4,27.5c-0.1-0.1-0.2-0.1-0.2-0.2l-0.8-0.7L7,25.8l0.8,0.7L8,26.7c0.2,0.2,0.3,0.3,0.5,0.4l1.1,0.8l0.7,0.5
		c0.4,0.3,0.9,0.6,1.4,0.9l0.5,0.3c1.2,0.7,2.5,1.3,3.9,1.7c1.4,0.4,2.7,0.7,4.2,0.7c1.4,0.1,2.8,0,4.3-0.2c1.4-0.2,2.8-0.5,4.2-0.9
		c0,0.3,0.1,0.7,0.2,1c-1.4,0.4-2.8,0.7-4.2,0.9c-1.5,0.2-3,0.3-4.5,0.2s-3-0.3-4.4-0.8s-2.8-1.1-4.1-1.8l0,0l-0.5-0.3
		c-0.5-0.3-1-0.6-1.4-0.9l-0.7-0.5l0,0L8,27.9C7.8,27.8,7.6,27.6,7.4,27.5L7.4,27.5z"/>
	<path d="M49.1,39.4c0,0.3,0,0.5,0,0.8v1.7c-0.8-3.3-2-6.7-4.1-8.7c-1-0.9-2.2-1.7-3.5-2.1C41.3,31,41.2,31,41,30.9l0,0
		c-0.1,0-0.3-0.1-0.5-0.2l-0.3-0.1l-0.8-0.2c-0.1,0-0.2,0-0.3,0h-0.2h-0.2c-0.1,0-0.2,0-0.3,0h-0.6h-0.1h-0.1h-0.3
		c-0.4,0-0.7,0-1.1,0c-0.1-0.3-0.1-0.7-0.1-1c0.4,0,0.8,0,1.2,0h0.3c0.1,0,0.1,0,0.2,0h0.6c0.1,0,0.3,0,0.4,0H39l0,0h0.2
		c0.1,0,0.3,0,0.4,0.1l0.8,0.2l0,0l0.3,0.1c0.2,0.1,0.4,0.1,0.5,0.2s0.4,0.1,0.5,0.2c1.4,0.5,2.8,1.3,3.9,2.3c1.5,1.4,2.7,3.7,3.3,6
		L49.1,39.4L49.1,39.4z"/>
	<path d="M24.8,34.1c1.5-0.2,2.9-0.6,4.3-0.9c0.1,0.3,0.2,0.7,0.3,1c-1.4,0.4-2.9,0.7-4.4,0.9c-1.6,0.3-3.3,0.3-4.9,0.3
		c-1.7-0.1-3.4-0.4-5-0.9s-3.1-1.2-4.6-2l0,0L10,32.2c-0.5-0.3-1.1-0.7-1.6-1l-0.7-0.5l0,0l-1.2-0.9c-0.2-0.2-0.4-0.3-0.6-0.5
		L5.6,29l-0.5-0.4l0.7-0.8l0.5,0.4l0.2,0.2c0.2,0.2,0.4,0.3,0.6,0.5l1.2,0.9L9,30.3c0.5,0.4,1,0.7,1.5,1l0.4,0.3
		c1.4,0.8,2.8,1.4,4.4,1.9c1.5,0.5,3.1,0.8,4.7,0.8C21.6,34.4,23.2,34.4,24.8,34.1L24.8,34.1z"/>
	<path d="M47.5,40.9c0.3,1.3,0.6,2.7,0.7,4.1c0.3,2.8,0.5,5.7,0.4,8.5v10.8h-1V53.5c0-2.8-0.1-5.6-0.4-8.4
		c-0.2-1.3-0.4-2.7-0.7-4c0-0.1,0-0.2-0.1-0.3c-0.1-0.2-0.1-0.5-0.2-0.7l-0.1-0.5L46,39.3c-0.1-0.2-0.1-0.4-0.2-0.6
		c0-0.1-0.1-0.2-0.1-0.3s-0.1-0.2-0.1-0.2L45.4,38c-0.1-0.1-0.1-0.3-0.2-0.4c-0.5-1-1.1-1.9-1.9-2.7c-0.8-0.7-1.7-1.3-2.8-1.6
		c-0.1-0.1-0.3-0.1-0.4-0.1l0,0c-0.2-0.1-0.3-0.1-0.4-0.1L39.6,33L39,32.8c-0.1,0-0.1,0-0.2,0c-0.1,0-0.1,0-0.2,0h-0.2
		c-0.1,0-0.1,0-0.2,0h-0.5h-0.1h-0.1h-0.2c-0.2,0-0.4,0-0.5,0c-0.1-0.3-0.2-0.7-0.3-1c0.3,0,0.6,0,0.8,0h0.2c0.1,0,0.1,0,0.2,0h0.5
		c0.1,0,0.2,0,0.3,0h0.1l0,0h0.1c0.1,0,0.2,0,0.3,0.1l0.6,0.1l0,0l0.2,0.1c0.1,0,0.3,0.1,0.5,0.1l0,0c0.1,0,0.3,0.1,0.4,0.2
		c1.1,0.4,2.2,1,3.1,1.9c0.9,0.9,1.6,1.9,2.1,3c0.1,0.1,0.1,0.3,0.2,0.5l0.1,0.2c0,0.1,0.1,0.2,0.1,0.3s0.1,0.2,0.1,0.3
		c0.1,0.2,0.2,0.4,0.2,0.6l0.2,0.5l0,0l0.1,0.5c0.1,0.2,0.1,0.5,0.2,0.7C47.5,40.8,47.5,40.8,47.5,40.9L47.5,40.9z"/>
	<path d="M51,38.6c0,0.2,0,0.4,0,0.6v25.2h-1V39.2v-0.6v-1.3L49.9,36c-0.1-1.1-0.2-2.3-0.5-3.4l-0.1-0.4
		c0-0.1,0-0.2-0.1-0.2v-0.2c0-0.1,0-0.2-0.1-0.3c0-0.2-0.1-0.3-0.1-0.5l-0.2-1c0-0.2-0.1-0.3-0.2-0.5c0-0.1-0.1-0.2-0.1-0.3
		c-0.4-1.1-0.8-2.2-1.3-3.2c-0.3-0.7-0.7-1.4-1.1-2.2c0.2-0.3,0.5-0.5,0.8-0.8c0.5,0.8,0.9,1.7,1.3,2.5c0.5,1.1,0.9,2.2,1.3,3.3
		c0,0.1,0.1,0.2,0.1,0.3c0.1,0.2,0.1,0.4,0.2,0.6l0.2,0.8c0,0.2,0.1,0.4,0.1,0.6c0,0.1,0,0.2,0.1,0.3v0.2c0,0.1,0,0.2,0.1,0.3
		l0.1,0.5c0.2,1.2,0.4,2.4,0.5,3.5l0.1,1.3l0,0L51,38.6z"/>
	<path d="M52.7,31.9c0.2,1.3,0.4,2.5,0.5,3.8c0.1,1.2,0.1,2.4,0.1,3.8v24.8h-1V39.5c0-1.4,0-2.6-0.1-3.7
		c-0.1-1.2-0.3-2.5-0.5-3.7l-0.1-0.5c0-0.1,0-0.2-0.1-0.3v-0.2c0-0.1-0.1-0.2-0.1-0.3c0-0.2-0.1-0.4-0.1-0.6L51,29.3
		c0-0.2-0.1-0.4-0.2-0.6c0-0.1-0.1-0.2-0.1-0.3c-0.4-1.2-0.8-2.3-1.4-3.5c-0.4-1-0.9-2-1.5-2.9l0.2-0.2c0.2-0.2,0.4-0.3,0.6-0.5
		c0.6,1,1.1,2.1,1.6,3.2c0.5,1.2,1,2.4,1.4,3.6c0,0.1,0.1,0.2,0.1,0.3c0.1,0.2,0.1,0.4,0.2,0.6l0.3,0.9c0.1,0.2,0.1,0.4,0.1,0.6
		l0.1,0.3V31c0,0.1,0,0.2,0.1,0.3L52.7,31.9L52.7,31.9z"/>
	<path d="M55.7,38.6c0,0.2,0,0.4,0,0.6v25.2h-1V39.2v-0.6v-1.5l-0.1-1.5c-0.1-1.3-0.3-2.6-0.5-3.9L54,31.2
		c0-0.1,0-0.2-0.1-0.3v-0.2c0-0.1-0.1-0.2-0.1-0.3c-0.1-0.2-0.1-0.4-0.2-0.6l-0.3-1c-0.1-0.2-0.1-0.4-0.2-0.6L53,27.8
		c-0.4-1.3-0.9-2.5-1.5-3.7c-0.5-1.2-1.1-2.3-1.8-3.4l0.5-0.4l0.3-0.3c0.7,1.2,1.3,2.4,1.9,3.7c0.6,1.2,1.1,2.5,1.5,3.8l0.1,0.3
		c0.1,0.2,0.1,0.4,0.2,0.7l0.3,1c0.1,0.2,0.1,0.5,0.2,0.7c0,0.1,0,0.2,0.1,0.3v0.2c0,0.1,0.1,0.2,0.1,0.3l0.1,0.5
		c0.3,1.3,0.4,2.7,0.5,4.1l0.1,1.5l0,0L55.7,38.6L55.7,38.6z"/>
	<path d="M65.6,10.8c-0.2-2.4,0-4.9,0.5-7.3c0.1-0.4,0.2-0.9,0.3-1.3l1,0.2c-0.1,0.4-0.2,0.9-0.3,1.3
		c-0.5,2.3-0.7,4.7-0.5,7c0.1,1.2,0.3,2.3,0.6,3.4c0.2,0.6,0.3,1.3,0.5,1.9c-0.3,0.2-0.6,0.3-0.9,0.5c-0.2-0.7-0.4-1.4-0.6-2.1
		C65.9,13.2,65.7,12,65.6,10.8z"/>
	<path d="M63.9,14.9c-0.3-1.3-0.5-2.6-0.7-3.9c-0.2-2.7,0-5.3,0.5-7.9C63.9,2.5,64,2,64.1,1.4L64.2,1l1,0.2l-0.1,0.4
		c-0.1,0.5-0.3,1-0.3,1.6c-0.5,2.5-0.7,5.1-0.5,7.7c0.1,1.3,0.3,2.5,0.6,3.8c0.2,0.8,0.4,1.6,0.7,2.4l-0.3,0.1l0,0l-0.7,0.3
		C64.4,16.7,64.1,15.8,63.9,14.9L63.9,14.9z"/>
	<path d="M62.7,34.5c-0.6,0.6-1.2,1.2-1.7,1.9c-2.1,2.5-3.3,5.2-4.3,8.7v-3c0.7-2.3,1.9-4.5,3.5-6.4
		c0.6-0.7,1.2-1.3,1.8-1.9c0.3-0.3,0.6-0.6,0.9-1c0.5-0.5,0.9-1,1.2-1.5c0.4-0.5,0.7-1,1-1.6c0.6-1.1,1-2.3,1.1-3.5
		c0-0.4,0.1-0.7,0.1-1.1c0.3-0.2,0.7-0.3,1.1-0.5c0,0.6,0,1.2-0.1,1.7c-0.2,1.4-0.6,2.7-1.2,3.9c-0.3,0.6-0.7,1.2-1.1,1.7
		c-0.4,0.5-0.8,1-1.3,1.5C63.3,33.8,63,34.1,62.7,34.5L62.7,34.5z"/>
	<path d="M60.9,11.2c-0.2-2.9,0-5.8,0.6-8.6c0.1-0.5,0.2-1.1,0.3-1.6l1,0.2c-0.1,0.5-0.2,1-0.3,1.5
		c-0.6,2.7-0.8,5.5-0.6,8.3c0.1,1.4,0.3,2.8,0.7,4.2c0.2,1,0.5,1.9,0.8,2.8l-0.9,0.5c-0.3-1-0.6-2-0.9-3
		C61.3,14.1,61,12.6,60.9,11.2z"/>
	<path d="M61.9,31.9c-0.3,0.3-0.6,0.6-0.9,0.9c-2.5,2.6-3.4,4-4.4,6.4c0-0.5,0-1.6,0-2.1c0.4-1.2,1.7-3,3.7-5.1
		c0.3-0.3,0.6-0.6,0.9-0.9c0.4-0.4,0.8-0.9,1.1-1.3s0.6-0.8,0.8-1.2c0.2-0.4,0.4-0.9,0.5-1.3l0,0c0.1-0.3,0.2-0.6,0.2-1
		c0.4-0.2,0.7-0.4,1.1-0.6c0,0.1,0,0.2,0,0.3c-0.1,0.5-0.2,1.1-0.4,1.6c-0.2,0.5-0.4,1-0.6,1.5c-0.3,0.5-0.6,1-0.9,1.4
		C62.7,31,62.3,31.4,61.9,31.9L61.9,31.9z"/>
	<path d="M69.7,24.2c0,0.8,0,1.6-0.1,2.5c-0.1,0.8-0.3,1.6-0.5,2.4s-0.6,1.6-0.9,2.3c-0.4,0.7-0.8,1.4-1.3,2
		c-0.4,0.6-0.9,1.1-1.5,1.7c-0.3,0.4-0.6,0.7-1,1c-0.6,0.6-1.1,1.2-1.6,1.8c-0.7,0.8-1.4,1.8-1.9,2.7c-0.5,1-1,2-1.3,3.1
		c-0.4,1.1-0.6,2.3-0.8,3.4c-0.4,2.4-0.6,4.9-0.6,7.3v9.9h-1v-9.9c0-2.5,0.2-5,0.6-7.5c0.2-1.2,0.5-2.4,0.9-3.5s0.8-2.2,1.4-3.3
		c0.6-1,1.3-2,2.1-2.9c0.5-0.6,1.1-1.2,1.7-1.8c0.3-0.3,0.6-0.7,0.9-1c0.5-0.5,1-1.1,1.4-1.6c0.5-0.6,0.9-1.2,1.2-1.9
		c0.4-0.7,0.7-1.4,0.9-2.1c0.2-0.7,0.4-1.5,0.5-2.2c0.1-0.8,0.1-1.5,0.1-2.3c0-0.1,0-0.1,0-0.2l1-0.5C69.7,23.8,69.7,24,69.7,24.2
		L69.7,24.2z"/>
	<path d="M69.1,38.9c-3.8,0.5-6.3,1.9-8.2,3.6c0-0.1,0.1-0.2,0.1-0.2l0.1-0.3c0.1-0.2,0.2-0.4,0.3-0.6v-0.1
		c0.1-0.2,0.3-0.5,0.4-0.7l0.1-0.2c1.5-1,3.8-2.1,7-2.5h0.3c0.3,0,0.6-0.1,0.8-0.1h0.4c0.2,0,0.5,0,0.8,0h0.5c0.2,0,0.4,0,0.6,0h0.3
		c0.3,0,0.5,0,0.8,0c1.5,0.1,3,0.4,4.5,0.8c1.4,0.4,2.8,0.9,4.1,1.5c2.3,1,4.4,2.1,6.4,3.2l0.9,0.5c2.3,1.2,4.6,2.4,6.8,3.2
		c2.3,0.9,4.6,1.2,6.7,1.2h0.3c0.2,0,0.4,0,0.5,0l0.6-0.1l0.1,1l-0.6,0.1c-0.2,0-0.4,0-0.6,0c-0.1,0-0.2,0-0.3,0
		c-2.3,0.1-4.6-0.3-7.1-1.2c-2.3-0.8-4.6-2-6.9-3.3L88,44.1c-2-1.1-4.1-2.2-6.3-3.2c-1.3-0.6-2.6-1-4-1.4s-2.8-0.6-4.3-0.7
		c-0.3,0-0.5,0-0.8,0h-0.3h-0.5h-0.5c-0.2,0-0.5,0-0.7,0h-0.4c-0.3,0-0.5,0.1-0.8,0.1L69.1,38.9z"/>
	<path d="M59.4,47.8L59.4,47.8c0-0.2,0-0.3,0.1-0.4c0.1-0.8,0.3-1.5,0.5-2.2c1.9-2.5,4.7-4.4,9.3-5
		c1.4-0.2,2.7-0.2,4.1-0.1c2.5,0.2,5,0.8,7.8,2c2.2,0.9,4.3,2.1,6.3,3.2l0.8,0.5c2.5,1.3,4.7,2.5,7.1,3.4c1.2,0.4,2.5,0.8,3.7,1
		c1.3,0.2,2.6,0.3,3.8,0.3c0.1,0,0.2,0,0.4,0c0.2,0,0.4,0,0.6,0l1-0.1l0.1,1l-1,0.1c-0.2,0-0.5,0-0.7,0.1h-0.4
		c-1.4,0.1-2.7,0-4.1-0.3c-1.3-0.2-2.6-0.6-3.9-1.1c-2.5-0.9-4.7-2.1-7.3-3.5L87,46.2c-2-1.1-4.1-2.2-6.2-3.1
		c-2.7-1.2-5.2-1.8-7.5-2c-1.3-0.1-2.6,0-3.9,0.1C64.4,41.9,61.3,44.4,59.4,47.8z"/>
	<path d="M105,52.6l0.1,1l-0.7,0.1c-0.3,0-0.6,0-0.8,0.1h-0.4c-1.5,0.1-3.1,0-4.6-0.3s-2.9-0.7-4.3-1.2
		c-2.8-1-5.3-2.4-7.6-3.6l-0.8-0.4c-2.1-1.1-4.1-2.2-6.1-3.1c-2.5-1.1-4.7-1.6-6.7-1.8c-0.2,0-0.3,0-0.5,0h-0.4h-0.4h-0.5
		c-0.2,0-0.3,0-0.5,0h-0.3c-0.2,0-0.3,0-0.5,0.1h-0.3c-1.1,0.1-2.1,0.4-3.2,0.8c-4.1,1.7-6.1,4.9-6.1,8.9v11.1h-1v-11
		c0-4.5,2.4-8.2,6.8-9.9c1.1-0.4,2.2-0.7,3.4-0.9h0.3c0.2,0,0.4,0,0.6-0.1h0.3c0.2,0,0.4,0,0.6,0h0.4c0.1,0,0.3,0,0.5,0h0.3
		c0.2,0,0.4,0,0.5,0c2.2,0.1,4.5,0.7,7.1,1.9c2.1,0.9,4.1,2,6.2,3.1l0.8,0.4c2.2,1.2,4.7,2.5,7.4,3.5c1.3,0.5,2.7,0.9,4.1,1.1
		c1.4,0.3,2.9,0.4,4.4,0.3h0.4c0.3,0,0.5,0,0.8-0.1L105,52.6z"/>
</g>
</svg>
