<?xml version="1.0" encoding="utf-8"?>
<!-- Generator: Adobe Illustrator 22.1.0, SVG Export Plug-In . SVG Version: 6.00 Build 0)  -->
<svg version="1.2" baseProfile="tiny" id="Layer_1_1_"
	 xmlns="http://www.w3.org/2000/svg" xmlns:xlink="http://www.w3.org/1999/xlink" x="0px" y="0px" viewBox="0 0 627.7 282.1"
	 xml:space="preserve">
<g>
	<path d="M200.9,24.9c0-0.8,0.2-1.5,0.1-2.2c-0.2-2.8-0.4-5.6-0.8-8.3c-0.8-5-1.9-9.8-3.4-14.5h-3c2.3,7.1,3.9,14.5,4.4,22.2
		C198.3,23.7,199.2,24.6,200.9,24.9z"/>
	<path d="M570.5-0.2h-3.8c-0.9,1.1-1.9,2.1-2.8,3.2c-12.6,13.7-27.6,24.2-44.7,31.7c-0.6,0.2-1.1,0.5-2,1c2.7,0.7,4.9,1,7.2-0.2
		C542.7,26.8,558,14.9,570.5-0.2z"/>
	<path d="M586.6,75.1c-0.8-2.9-2.3-4.4-4.7-5.3c-3.4-1.3-6.6-2.9-9.9-4.3c-17.4-7.2-35.3-12.4-54-14.5c-0.5-0.1-1,0-2.1,0
		c2.6,2,4.7,3.3,7.4,3.7c4.9,0.7,9.8,1.6,14.6,2.8c16,3.7,31.3,9.6,46.2,16.6C584.9,74.3,585.6,74.6,586.6,75.1z"/>
	<path d="M579,61.7c-13.7-6-27.8-10.8-42.5-14C526,45.4,515.4,44,504.7,44c-1.2,0-2.5,0-3.7,0c0,0.2,0,0.4-0.1,0.5
		c2.8,0.7,5.3,2.3,8.4,2.4c6.7,0.2,13.4,1,20,2.2c15.6,2.8,30.7,7.6,45.3,13.7c2.4,1,4.8,2.1,7.6,3.2
		C581.5,62.9,581.3,62.7,579,61.7z"/>
	<path d="M576,53.6c-6.8-2.4-13.5-5.1-20.3-7.2c-16.4-5.2-33.1-8.4-50.4-8.5c-8.9-0.1-17.7,0.7-26.4,2.5c-1.1,0.2-2.3,0.6-3.7,1
		c3.9,0.1,7.4,0.3,10.9,0.4c1,0,2.1-0.1,3.1-0.2c2.3-0.2,4.6-0.6,6.9-0.7c11.4-0.5,22.7,0.1,33.9,2.1c16,2.8,31.3,7.7,46.3,13.9
		c0.8,0.3,1.6,0.6,2.7,1C578.8,55.4,577.9,54.2,576,53.6z"/>
	<path d="M170.3,18c7.5,6.5,15.5,12.1,24.3,16.6c12.8,6.5,26.3,10.4,40.9,9.1c8.2-0.7,16-3.1,23.3-6.9c0.5-0.2,0.8-0.7,1.3-1.1
		c-0.6-0.7-1.1-1.3-1.7-1.8c-0.8,0.4-1.3,0.6-1.9,0.9c-8.3,4.2-17.1,6.4-26.3,6.4c-7.8,0-15.4-1.5-22.8-4.1
		c-11.3-4-21.4-10.1-30.7-17.4c-2.3-1.8-4.4-3.6-6.8-5.6C168.5,16.5,168.5,16.5,170.3,18z"/>
	<path d="M187.2-0.2c2,5.8,3.5,11.8,4.3,18.1c0.2,1.7,1.1,2.7,3.1,3.2c0-1,0-1.7-0.1-2.4c-0.8-6.5-2.3-12.7-4.3-18.9H187.2z"/>
	<path d="M540.8,83.5c-2.8-7.1-6.8-13.4-12-18.9c-10.6-11.3-23.8-17.6-38.9-20c-6.5-1-13-1.3-19.6,0.1c-5.7,1.2-11,3.3-16.2,5.8
		C441,56.7,429,64.8,417.3,73.3c-1.9,1.3-3.7,2.7-5.6,4.1c0.1,0.2,0.1,0.4,0.2,0.5c2,0.4,3.8,0.1,5.6-1.1c5.7-4,11.3-8.1,17.1-11.9
		c8.6-5.7,17.6-10.8,27.2-14.6c6.4-2.5,13-3.9,19.9-3.6c6.3,0.3,12.4,1.3,18.4,3.3c10.6,3.5,19.9,9.1,27.4,17.5
		c4.4,4.9,7.9,10.4,10.4,16.6c0.9,2.1,1.2,2.2,3.4,1.4c0-0.2,0.1-0.3,0-0.5C541.2,84.4,541,84,540.8,83.5z"/>
	<path d="M184.5,13.3c0.4,1.9,1.6,2.7,3.6,3.5c-1-5.9-2.6-11.6-4.5-17h-3C182.2,4.2,183.5,8.7,184.5,13.3z"/>
	<path d="M172.1,11.3c8.9,8,18.5,14.7,29.4,19.7c8.9,4.1,18.2,6.6,28,6.8c8.8,0.1,17.1-1.9,25-5.8c0.6-0.3,1-0.7,1.6-1.1
		c-0.2-0.5-0.4-0.8-0.6-1.2c-0.2-0.4-0.4-0.7-0.7-1.1c-1.7,0.8-3,1.4-4.2,1.9c-7.1,3.1-14.5,4.6-22.2,4.3
		c-7.9-0.3-15.5-2.1-22.8-5.2c-12-5-22.5-12.2-32-20.8c-0.7-0.6-1.4-1.2-2.1-1.9C170.4,9.5,170.4,9.8,172.1,11.3z"/>
	<path d="M489.1,134c2.5,0.2,2.8,0,2.6-2.2c-0.4-4.3-0.8-8.6-1.3-12.9c-1.4-12-4.3-23.6-9.1-34.7c-3-6.9-6.7-13.3-11.3-19.1
		c-1.3-1.7-1.5-1.7-3.6-0.2c0.4,0.6,0.7,1.2,1.2,1.7c5.9,7.5,10.3,15.8,13.5,24.7c4.3,12,6.6,24.4,7.4,37
		C488.7,130.3,488.9,132.1,489.1,134z"/>
	<path d="M416.7,127.3c6.7-5.1,14-9.1,22.2-10.9c3.6-0.8,7.4-1.2,11.1-1.5c5.4-0.5,9.5-3,12.7-7.2c3.6-4.7,5.5-10.2,7.1-15.9
		c0.6-2.3-0.1-4-1.7-5.8c-0.2,0.7-0.3,1.4-0.5,2c-1.2,5.4-2.7,10.7-5.6,15.5c-3.3,5.5-7.9,8.5-14.5,8.7c-12.4,0.5-23,5.5-32.8,12.8
		c-1.6,1.2-1.6,1.5-0.5,3.9C415.2,128.4,416,127.8,416.7,127.3z"/>
	<path d="M560.6,92.6c-1.1-0.4-2.1-0.7-3.2-1c-10-2.8-20.2-3-30.4-2.2c-4.9,0.4-9.7,0.4-14.6-0.2c-8.3-1.1-16-3.9-22.7-9.1
		c-0.4-0.3-0.8-0.5-1.4-0.9c0.8,3.5,2.7,5.6,5.7,7.2c9.8,5.1,20.3,6.7,31.1,6c5.6-0.4,11.2-0.6,16.8-0.4c5.9,0.3,11.7,1.3,17.4,3.1
		c0.8,0.3,1.6,0.5,2.6,0.8C562.5,93.4,562.5,93.3,560.6,92.6z"/>
	<path d="M412.2,137.5c0-0.9,0.1-1.7,0-2.5c-0.3-2.6-0.5-5.3-1-7.8c-3-15.8-11.6-27.4-25.9-34.9c-9.5-4.9-19.7-7-30.2-7.8
		c-5.2-0.4-10.4-0.6-15.6-0.9c-9.8-0.6-19.6-1.9-29.2-4c-0.6-0.1-1.2-0.2-2-0.3c-0.2,0.9-0.3,1.6-0.6,2.6c2.6,0.6,5,1.1,7.4,1.6
		c12.9,2.5,26,3.1,39.1,3.8c9.1,0.5,17.9,2.3,26.3,5.9c11.1,4.9,19.6,12.5,24.6,23.8c2.5,5.8,3.8,11.9,4.2,18.1
		C409.4,137.2,409.4,137.2,412.2,137.5z"/>
	<path d="M417.1,135c6.2-5.3,13.1-9.5,20.9-12c4.4-1.4,8.9-1.6,13.5-2.1c5-0.5,9.4-2.6,13.1-6c4-3.7,6.6-8.2,8.7-13.1
		c1-2.2,0.4-4-0.8-6.1c-0.4,1.1-0.7,1.9-1,2.7c-1.5,4.3-3.5,8.4-6.5,11.9c-3.7,4.4-8.3,7.2-14.2,7.7c-2.1,0.2-4.3,0.3-6.4,0.6
		c-10.8,1.5-19.9,6.6-28.3,13.4c-1.4,1.2-1.8,2.5-1,4.6C415.9,136,416.5,135.5,417.1,135z"/>
	<path d="M403,133.9c0.2,2,0.3,2.1,2.7,2c0-0.6,0.2-1.2,0.1-1.8c-0.6-6.6-2.1-12.9-5.3-18.8c-5.3-9.7-13.5-16-23.7-20
		c-9.6-3.7-19.7-4.7-29.9-5.1c-10.6-0.4-21-1.4-31.4-3.3c-2.4-0.4-4.7-1-7-1.4c-1.4-0.3-2.4,0.7-1.9,1.8c0.2,0.5,1.1,0.9,1.7,1
		c6.3,1.1,12.6,2.5,18.9,3.2c9.2,1,18.5,1.3,27.7,2c8.1,0.6,16,2.2,23.4,5.5c10.3,4.6,17.9,11.9,21.8,22.6
		C401.8,125.7,402.5,129.8,403,133.9z"/>
	<path d="M499.2,95.4c6.5,2.2,13.2,3.4,20,3.3c5.4,0,10.7-0.4,16.1-0.6c8.7-0.2,17.2,0.7,25.4,4.1c0.5,0.2,1,0.2,1.5,0.4
		c0.3-2.7,0.3-2.7-1.9-3.6c-1.2-0.5-2.4-0.9-3.6-1.2c-9.9-3-20-2.9-30.2-2.2c-10.9,0.8-21.4-0.4-31.4-5.1c-0.6-0.3-1.2-0.5-2.1-0.9
		c0.2,2.3,0.9,3.7,2.9,4.4C496.9,94.5,498,95,499.2,95.4z"/>
	<path d="M495.3,133.6c1-0.1,1.7-0.2,2.6-0.3c0-0.8,0-1.4,0-2.1c-0.2-2.9-0.5-5.9-0.8-8.8c-1.1-11.9-3.6-23.5-7.7-34.8
		c-3.2-8.7-7.3-16.8-12.9-24.3c-1.4-1.8-1.6-1.9-3.9-0.6c0.5,0.7,0.9,1.4,1.5,2.1c4.1,5.5,7.4,11.4,10.2,17.6
		c6.3,14.5,9.3,29.7,10.5,45.3C494.9,129.7,495.1,131.5,495.3,133.6z"/>
	<path d="M482.9,135c2.4,0.2,2.7,0,2.6-2c0-1.4-0.3-2.7-0.3-4.1c-0.7-10.6-2.4-21-5.5-31.1c-3.3-10.9-8.1-21-15.4-29.9
		c-0.5-0.6-1-1.2-1.7-1.9c-0.8,0.4-1.5,0.7-2.2,1.1c0.2,0.5,0.2,0.7,0.3,0.8c0.2,0.3,0.4,0.5,0.6,0.8c6.8,8,11.5,17.1,14.8,27
		c3.6,10.7,5.5,21.7,6.3,32.9C482.4,130.8,482.7,132.9,482.9,135z"/>
	<path d="M165.9,22.4c0.7,0.6,1.2,1.2,1.8,1.7c9.3,7.7,19.3,14.3,30.4,19c11.9,5.1,24.3,7.9,37.4,6.8c10-0.8,19.3-3.7,27.9-8.7
		c0.4-0.2,0.7-0.6,1-0.9c-1.7-2.1-1.6-2-4-0.8c-12.2,6.5-25.2,8.9-39,7.2c-9.3-1.2-18-4.1-26.5-8.2c-9.2-4.5-17.6-10.1-25.4-16.6
		c-0.7-0.6-1.5-1.1-2.4-1.9C166.8,21,166.4,21.6,165.9,22.4z"/>
	<path d="M439.8,108.9c1.3,1.7,1.4,1.7,3.9,0.8c-0.5-0.8-0.9-1.5-1.4-2.2c-4.8-6.5-11-10.8-18.7-13c-9.2-2.6-18.4-1.5-27.5,0.7
		c-0.2,0-0.4,0.3-0.6,0.5c0.9,1.5,1.9,2.3,3.7,1.8c1.2-0.3,2.3-0.5,3.5-0.7c4.7-0.9,9.5-1.2,14.3-0.6
		C426.4,97.2,434.1,101.4,439.8,108.9z"/>
	<path d="M125.2,244.5c-1.8-1.4-3.4-2.9-5.2-4.2c-3.5-2.5-6.5-5.3-9.2-8.6c-0.4-0.5-0.9-1-1.4-1.6c-1.5,2.3-1.5,2.5-0.1,4.2
		c2.7,3.4,6,6.1,9.5,8.7c2.3,1.7,4.4,3.7,6.5,5.6c0.5,0.4,0.7,1,1.1,1.5C127.5,247.6,127,245.9,125.2,244.5z"/>
	<path d="M138.1,154.9c0.5,5.5,0.8,11,1.4,16.5c2.4,22.2,14,37.9,34,47.6c0.8,0.4,1.6,0.6,2.6,1c0.3-1,0.5-1.7,0.8-2.5
		c-1.2-0.6-2.2-1.1-3.2-1.5c-5.5-2.6-10.5-6-15-10.3C147.8,195.1,142.6,182,142,167c-0.2-6-0.8-12-2-17.8c-0.5-2.5-1.2-4.9-1.8-7.3
		c-0.9,3.5-1.5,6.8-0.6,10.2C137.9,153,138,153.9,138.1,154.9z"/>
	<path d="M126.7,237.5c-0.7-0.6-1.5-1.2-2.3-1.7c-4.5-3-8.2-6.8-11.2-11.4c-0.3-0.5-0.8-1-1.2-1.5c-1.5,2.2-1.5,2.5-0.6,3.9
		c4,6.2,9.9,10.4,15.9,14.6C128.3,239.2,128.2,238.8,126.7,237.5z"/>
	<path d="M116.9,281.9h7.4c0.8-0.3,1.5-0.6,2.3-0.9c1.6-0.7,1.7-0.9,0.8-3.3C123.8,279,120.3,280.3,116.9,281.9z"/>
	<path d="M120.1,186.8c-0.4,0.8-0.8,1.6-1.1,2.4c-5.7,14.9-11.4,29.7-17,44.6c-2.3,6-4.3,12.1-6.3,18.1c-0.7,2-0.5,2.2,1.8,3.3
		c0.3-0.8,0.6-1.6,0.9-2.4c4.5-12.4,8.9-24.8,13.4-37.2c3.1-8.2,6.4-16.4,9.5-24.6C122.2,188.8,122.2,188.5,120.1,186.8z"/>
	<path d="M125,253.6c-2.2-3-4.8-5.6-7.9-7.6c-3.3-2.3-6.3-4.9-9-7.8c-0.4-0.4-0.9-0.8-1.4-1.2c-1.3,2.6-1.4,2.7,0.4,4.3
		c2.8,2.5,5.6,4.9,8.6,7.2c4.6,3.5,8.2,7.6,10.1,13c0.1,0.4,0.3,0.7,0.4,1.1c0.2,0,0.3,0,0.5-0.1c0-1.2-0.1-2.4,0-3.6
		C126.9,256.9,126.2,255.2,125,253.6z"/>
	<path d="M69.7,202c0.3,0.7,0.4,1.3,0.6,1.7c5.8,12,7.6,24.6,6.5,37.8c-0.2,2,0,2.2,2.6,2.7c1.7-15.1-0.2-29.5-7.3-43.3
		C71.2,201.3,70.5,201.7,69.7,202z"/>
	<path d="M66.6,204.2c-2.2,1.3-2.3,1.3-1.4,3.2c2.9,6.2,4.8,12.7,5.3,19.5c0.3,4,0.2,8.1,0.3,12.2c0,1.9,0,1.9,2.5,2.6
		c0.2-1.1,0.4-2,0.4-2.9c0.1-2.6,0.1-5.1,0-7.7c-0.4-8.8-2.3-17.2-6.1-25.2C67.4,205.3,66.9,204.7,66.6,204.2z"/>
	<path d="M78.9,200.5c-0.3-0.6-0.7-1.1-1-1.6c-0.6,0.1-1,0.2-1.5,0.3c-0.3,0.1-0.5,0.3-1.1,0.6c6.5,12.7,8.7,26.2,8.2,40.3
		c1.6-3.4,3-6.7,2.7-10.6C85.5,219.4,83.3,209.7,78.9,200.5z"/>
	<path d="M115.4,181.6c-0.4,0.8-0.7,1.6-1,2.4c-5.3,13.8-10.7,27.5-16,41.4c-2.9,7.5-5.4,15.2-8.1,22.8c-0.7,2.1-0.6,2.2,1.9,3.1
		c0.3-0.9,0.6-1.6,0.9-2.4c4.9-13.5,9.8-27.1,14.8-40.5c2.9-7.8,6.1-15.5,9.1-23.2C117.8,183.1,117.7,182.8,115.4,181.6z"/>
	<path d="M154.8,36.2c-0.2,0.2-0.3,0.5-0.5,0.8c0.2,0.3,0.4,0.6,0.7,0.8c7.5,6.1,14.4,12.9,21,19.9c1.6,1.7,3.7,2.2,5.9,2.7
		c-7.8-9.3-16.4-17.7-25.8-25.3C155.5,35.6,155.1,35.9,154.8,36.2z"/>
	<path d="M140,49.6c-0.4,0.5-0.9,1.1-1.4,1.7c0.3,0.4,0.4,0.6,0.6,0.7c0.5,0.3,1.1,0.7,1.7,0.9c5.4,2.8,11.1,4.5,17,5.5
		c9.9,1.8,19.3,4.9,28.2,9.8c0.5,0.3,1,0.4,1.7,0.8c-0.2-3.1-0.2-3.3-2.5-4.4c-7.3-3.7-14.9-6.5-23-8.1c-7.4-1.4-14.7-3.1-21.4-6.7
		C140.7,49.7,140.4,49.7,140,49.6z"/>
	<path d="M163.9,25.6c-0.5,0.8-1,1.4-1.3,1.9c7.3,6.9,14.4,13.5,21.7,20.3c-0.1-2.5-0.5-4.6-2.4-6.3c-5.4-4.8-10.7-9.8-16.1-14.7
		C165.3,26.5,164.6,26.1,163.9,25.6z"/>
	<path d="M160.1,30.6c-0.5,0.7-1,1.2-1.7,2.1c10.1,8.3,19.2,17.3,27.8,26.8c0.2-2.3-0.3-4.3-1.8-6c-7.1-7.7-14.5-15-22.6-21.7
		C161.4,31.3,160.8,31,160.1,30.6z"/>
	<path d="M136.1,54.7c-0.3,0.7-0.6,1.3-1,2.2c1,0.6,1.8,1.1,2.6,1.5c5.5,2.8,11.3,4.8,17.4,5.9c10.4,1.8,20.3,5,29.5,10.3
		c1.9,1.1,3.8,2.3,6.2,3.7c-0.3-2.6-1.2-4.2-3.1-5.3c-8.8-5.1-18.1-8.8-28.1-10.7c-7.9-1.5-15.6-3.6-22.6-7.5
		C136.8,54.7,136.5,54.7,136.1,54.7z"/>
	<path d="M151.2,121.3c8.3,8.1,17.8,14.9,27.8,20.8c9.5,5.6,19.6,9.7,29.6,14.4c0.3,0.2,0.7,0.2,1.5,0.4c-1-2.1-1.7-3.8-3.7-4.6
		c-2.3-0.9-4.5-2.1-6.8-3c-8.5-3.7-16.6-7.8-24.4-12.8c-15.4-9.8-28.7-21.9-39.5-36.7c-0.3-0.4-0.7-0.8-1-1.2c0.9,5.9,0.8,6,3.2,8.7
		C142.3,112,146.6,116.8,151.2,121.3z"/>
	<path d="M130.8,77.2c-0.5,2.1-1,3.8,0.1,5.7c8.1,14.8,19.7,26.1,35.1,33.3c7.5,3.5,14.9,7.4,21.7,12.3c8.7,6.3,16.3,13.7,22.1,22.7
		c4.6,7.2,7.8,15,8.8,23.6c0.3,2.4,0.3,4.7,0.4,7.1c1.6-2.2,2.9-4.3,2.5-7.3c-1.2-9.3-4.6-17.8-9.7-25.6
		c-6.2-9.5-14.3-17.2-23.5-23.7c-6.6-4.6-13.6-8.3-20.9-11.7c-8-3.7-15.1-8.7-21.3-15c-5.6-5.7-10.1-12.2-13.7-19.3
		C131.9,78.7,131.7,77.8,130.8,77.2z"/>
	<path d="M51.1,239.1c-0.4,2.5-0.4,2.5,1.5,2.8c2.8,0.5,5.7,1,8.5,1.7c18.3,4.6,33.1,14.8,45.8,28.4c1,1.1,2,2.2,3.1,3.3
		c0.6-0.2,0.9-0.3,1.3-0.4c0.3-0.2,0.7-0.4,1.3-0.8c-0.9-1-1.5-1.8-2.2-2.6c-4.7-5.1-9.6-9.9-15-14.1c-12.3-9.6-26-15.9-41.5-18.2
		C52.9,239.1,52,239.2,51.1,239.1z"/>
	<path d="M133.3,60.1c-0.3,0.8-0.6,1.5-1,2.3c0.9,0.5,1.6,1,2.4,1.4c6.2,3.3,12.8,5.2,19.7,6.7c4.7,1,9.4,2,13.9,3.5
		c9,2.9,17,7.7,24.4,13.5c0.6,0.5,1.3,0.9,2,1.4c-0.3-2.3-0.8-4.2-2.7-5.6c-10-7.3-21-12.6-33.2-14.9c-8.4-1.6-16.7-3.8-24.3-7.9
		C134.3,60.4,133.9,60.3,133.3,60.1z"/>
	<path d="M132.5,71.5c5.5,13.7,14,25.1,26.3,33.4c4.5,3,9.3,5.3,14.1,7.6c13.8,6.6,26.1,15.2,36,27c7.5,8.9,12.9,18.8,15.2,30.4
		c0.1,0.4,0.3,0.9,0.5,1.4c1.7-1.6,2.1-3.2,1.6-5.3c-1.9-7.4-5.1-14.1-9.2-20.5c-7.3-11.2-16.9-19.9-28-27.3
		c-6.5-4.4-13.6-7.7-20.7-11.2c-11.6-5.7-20.9-14.2-27.5-25.4c-2.3-4-4.1-8.3-6.1-12.5c-0.5-0.9-0.7-2-2.1-1.9
		C131.7,69.4,131.7,69.6,132.5,71.5z"/>
	<path d="M240.2,68c-2.5-1.6-2.6-1.6-4.5-0.1c-7,5.5-12.4,12.4-16.8,20.1c-0.9,1.6-0.8,1.9,0.8,3.6c3-4.3,5.9-8.6,9-12.8
		C231.9,74.6,236,71.3,240.2,68z"/>
	<path d="M202.3,50c-0.4-3-0.5-3-3.2-3.4c0,0.8,0,1.6,0.1,2.3c0.2,1.7,0.5,3.5,0.8,5.2c3.1,16.8,9.5,32.3,18.7,46.6
		c1,1.6,2.3,1.9,4.3,1.5c-0.6-0.9-1-1.7-1.5-2.4c-4.3-6.6-8-13.5-11-20.7C206.6,69.8,203.7,60.1,202.3,50z"/>
	<path d="M228.8,102.1c0.6-1.1,1.1-2.2,1.6-3.2c3.2-6.2,7.1-12,12.3-16.8c3.6-3.3,7.6-5.8,12.4-6.9c0.3-0.1,0.6-0.3,1-0.5
		c-3.3-2-3.7-2-6.8-0.5c-3.8,1.7-7,4.1-9.9,7c-5.8,5.8-9.9,12.7-13.4,20c-0.2,0.5-0.3,1-0.4,1.5
		C227.7,103.9,227.9,103.9,228.8,102.1z"/>
	<path d="M211.7,50.3c-0.4-0.1-0.8,0-1.2,0c0.4,0.7,0.9,1,1.3,1.2c13.8,8,28.1,14.9,43.1,20.3c10,3.6,20,7.3,30,10.9
		c0.5,0.2,1,0.3,1.6,0.4c0.9-2.5,0.9-2.6-1.3-3.4c-8.2-3-16.5-6.2-24.8-9c-13-4.5-25.7-9.9-37.7-16.5
		C219.2,52.2,215.6,51,211.7,50.3z"/>
	<path d="M195.6,47c-0.4-2.6-0.5-2.7-3.1-3.4c0,0.8-0.1,1.3,0,1.9c0.4,3.1,0.8,6.2,1.3,9.3c2.8,16.2,8.7,31.2,17.1,45.3
		c1.1,1.9,1.5,2,4,1.2c-0.4-0.7-0.8-1.4-1.2-2.1c-6.6-11-11.8-22.6-14.9-35C197.4,58.6,196.6,52.8,195.6,47z"/>
	<path d="M223.7,98.1c1.2-2.1,2.3-4.2,3.5-6.2c1.3-2.1,2.6-4.2,4.1-6.2c1.4-1.9,2.9-3.8,4.6-5.5c1.7-1.8,3.6-3.4,5.5-5
		c1.8-1.4,3.8-2.6,5.9-4c-2.7-1.6-2.7-1.6-4.8-0.3c-0.9,0.6-1.9,1.2-2.8,1.9c-7.5,5.8-12.9,13.3-17.2,21.6
		C221.7,95.9,221.9,96.3,223.7,98.1z"/>
	<path d="M225.7,53.1c5.3,2.3,10.4,4.6,15.4,6.7c5.1,2.1,10.3,4,15.5,5.9c5.2,1.9,10.5,3.7,15.8,5.7c5.1,1.9,10.3,3.8,15.6,5.8
		c0.2-1.1,0.4-1.9,0.5-2.5c-0.3-0.3-0.5-0.5-0.7-0.6c-1.7-0.7-3.4-1.4-5.1-2c-16.6-6.3-33.5-11.6-49.7-18.8
		C231.4,52.4,227.6,52.4,225.7,53.1z"/>
	<path d="M151,85.6c-3.1-3.9-5.8-8.1-7.9-12.6c-0.8-1.8-2.2-2.5-4.3-2.7c0.3,0.8,0.4,1.3,0.6,1.8c4.2,9.5,10.2,17.7,18.3,24.3
		c5.1,4.2,10.9,7.3,16.8,10.1c9,4.2,17.4,9.2,25.1,15.4c10.6,8.6,19.5,18.7,25.4,31.2c1.6,3.4,2.8,6.9,4.3,10.7
		c1.7-1.2,2.2-2.5,1.4-4.4c-1.6-3.6-2.9-7.3-4.7-10.7c-6.8-13-16.7-23.3-28.5-32c-7.7-5.7-16-10.2-24.7-14.2
		C164.3,98.5,157,92.9,151,85.6z"/>
	<path d="M239.8,150c0.1,0.1,0.3,0.1,0.4,0.2c1-1.7,3-2.7,3.1-4.9c0-2.5,0.2-5.2-0.3-7.6c-1.8-9.2-7.4-15.2-16.1-18.5
		c-7.4-2.8-15.1-3.1-22.9-2c-0.2,0-0.5,0.3-0.8,0.5c1.2,1.7,2.6,2.2,4.6,2c7.1-0.7,14.1,0.1,20.6,3.3c8.4,4.1,12.9,12.2,12.1,21.6
		C240.3,146.4,240,148.2,239.8,150z"/>
	<path d="M247,141.4c1.9-1.5,2.8-2.9,2.1-5c-0.7-2-1.1-4.2-1.9-6.2c-3.9-9.1-10.8-14.7-20-17.6c-9.9-3.2-20-2.7-30.1-0.7
		c-0.3,0.1-0.5,0.3-0.9,0.5c1.2,1.5,2.5,2.2,4.5,1.8c2.3-0.4,4.6-0.7,6.9-0.8c7.8-0.6,15.4,0.2,22.5,3.5
		c9.8,4.5,15.4,12.1,16.6,22.9C246.7,140.2,246.8,140.7,247,141.4z"/>
	<path d="M188.8,107.8c1.4,1.2,2.6,2,4.4,1.7c4.3-0.8,8.6-1.6,13-2.1c7.4-0.9,14.7-0.2,21.8,2.1c12.1,3.9,20.4,11.7,23.9,24.1
		c0.1,0.4,0.4,0.8,0.6,1.3c1.8-1.3,2.1-2.7,1.4-4.7c-2.4-6.5-6.2-12.1-11.6-16.4c-8.1-6.5-17.7-9.1-27.9-9.5
		c-8.2-0.4-16.2,0.9-24.2,3C189.8,107.3,189.4,107.5,188.8,107.8z"/>
	<path d="M186.1,40.4c0,0.8-0.1,1.6,0,2.4c0.5,4.1,0.8,8.3,1.5,12.4c2.6,16.1,8.3,31.1,16.3,45.3c1.1,1.9,1.2,1.9,3.6,1.1
		c0-0.3,0-0.5-0.1-0.6c-0.9-1.6-1.8-3.2-2.6-4.8C195.9,79.6,190.4,62,189,43.3C188.8,41.2,188.5,40.9,186.1,40.4z"/>
	<path d="M239.9,52c1.9,1.4,47.4,18.4,49.7,18.6c0.2-0.7,0.4-1.4,0.7-2.4c-2.7-1.1-5.2-2.1-7.7-3c-12-4.4-24-8.7-36-13.3
		C244.3,51,242.2,51.4,239.9,52z"/>
	<path d="M481.5,1.1c-1.2,0.7-1.9,1-2.5,1.4c-3.6,2-7.4,3.4-11.4,4.2c-5.9,1.1-11.8,0.9-17.7,0.2c-13.6-1.7-25.4,2.1-35.3,11.8
		c-4.7,4.6-8.4,9.9-11.5,15.6c-6.7,12.5-10.5,26-13,40c-0.4,2.1-0.7,4.2-1,6.5c2.7,0.1,2.7,0.1,3.1-1.7c0.1-0.6,0.2-1.3,0.3-1.9
		c1.6-9.9,4-19.6,7.5-29c3.3-8.8,7.5-17.1,13.7-24.3c9.4-11,21.3-15.9,35.8-14.2c5,0.6,10,0.9,15.1,0.3c6-0.7,11.6-2.4,16.7-5.6
		c0.6-0.4,1.1-0.8,1.9-1.4C482.5,2.2,482,1.7,481.5,1.1z"/>
	<path d="M431.4,1.8c-4.2,0.2-8.5,0-12.7,0c-5.3-0.1-10.5,0.2-15.7,1.5c-11.3,2.9-19.1,9.7-22.8,20.9c-0.3,0.9-0.4,1.8-0.6,2.7
		c2.3,0.5,2.5,0.5,3.2-1.2c0.2-0.5,0.4-1.1,0.6-1.6c3.1-8.5,8.9-14.2,17.5-17.2c4.1-1.4,8.3-2.2,12.7-2.3c5,0,10.1,0,15.1,0
		c6.3,0,12.5-0.7,18.5-2.5c2.2-0.7,4.4-1.5,6.4-2.4H445C440.6,1,436,1.6,431.4,1.8z"/>
	<path d="M109.6,281.9c1.9-1.1,3.9-2.2,6-3.1c3.4-1.5,6.8-2.8,10.2-4.2c1.8-0.7,1.9-0.9,0.9-3.4c-3.2,1.2-6.2,2.4-9.3,3.6
		c-4.8,1.9-9.1,4.3-13.1,7.1H109.6z"/>
	<path d="M503.8,31.2c-0.3-0.7-0.4-1.2-0.6-1.6c-1.4-2.9-2.3-6-2.6-9.1c-0.2-1.8-1.2-2.6-2.7-3.1c-0.7,4.2,1.3,11.9,3.8,14.6
		C502.2,31.7,502.9,31.5,503.8,31.2z"/>
	<path d="M268.3,38.9c2.7,2.3,5.3,4.6,7.9,6.9c5.8,5,11.5,10.1,15.5,17.1c1.5-2,1.4-3.5,0.1-5.3c-3.8-5.1-8.5-9.3-13.2-13.5
		c-4.8-4.3-9.7-8.6-14.3-13.2c-5.7-5.7-9.5-12.6-11.8-20.3c-1.1-3.6-1.9-7.2-2.6-10.8h-2.9c0.1,0.6,0.2,1.2,0.3,1.8
		C250,16.5,256.8,29,268.3,38.9z"/>
	<path d="M513.5,33.4c1.1-0.4,2.2-0.9,3.3-1.4c17.8-7.6,32.9-18.3,45.4-32.2h-3.9c-0.1,0.1-0.2,0.2-0.3,0.3
		c-15.5,16.3-34.2,27.5-55.6,34c-0.8,0.2-1.6,0.5-2.8,0.9C505,35.9,508.1,35.5,513.5,33.4z"/>
	<path d="M217.2,29c0.5-0.9,0.9-1.9,1.2-2.9c3.5-8.8,4.8-17.5,4.2-26.3h-2.8c0.1,1.3,0.2,2.6,0.2,3.9c0.1,8.2-1.7,16-5.1,23.5
		c-0.4,0.8-0.7,1.6-1,2.3C216.1,30.8,216.3,30.8,217.2,29z"/>
	<path d="M210.2,28.7c0.4-0.6,0.7-1.1,1-1.5c2.9-5.7,4.6-11.7,5.2-18.1c0.3-3.1,0.3-6.2,0.1-9.3h-2.9c0,0.5,0.1,1,0.1,1.4
		c0.5,9.3-1.7,18-5.8,26.5C208.7,28.2,209.4,28.4,210.2,28.7z"/>
	<path d="M401.8,258.7c0-5.3,0.8-10.5,2.2-15.6c0.9-3.2,1.5-6.5,1.6-9.9c0.2-7.5-1.7-14.6-4.8-21.3c-5.7-12.5-14.2-22.9-23.5-32.8
		c-0.3-0.3-0.6-0.5-1.2-0.9c-0.4,2.2-0.2,3.8,1.2,5.2c1.3,1.2,2.5,2.7,3.7,4.1c6.6,7.6,12.5,15.6,16.8,24.7
		c4.8,10.1,6.6,20.5,3.2,31.4c-1.6,5.1-2.1,10.5-2,15.9c0.1,7.7,1.5,15.3,4.2,22.5h3.1C403.2,274.5,401.7,266.7,401.8,258.7z"/>
	<path d="M531.8,279c0.6-2.8,0.2-5.3-0.8-8.5c-0.3,0.8-0.4,1.1-0.5,1.4c-0.8,3.3-1.6,6.7-2.3,10.1h3C531.4,281,531.6,280,531.8,279z
		"/>
	<path d="M529.4,266.6c2-1.2,2-1.2,1.3-4c-10,5.5-19.2,11.6-27.5,19.4h4.3c1-0.9,2-1.7,3.1-2.6C516.4,274.6,522.8,270.4,529.4,266.6
		z"/>
	<path d="M399.3,281.9h1c-0.3-0.7-0.6-1.5-1-2.2C399.3,280.5,399.3,281.2,399.3,281.9z"/>
	<path d="M334.2,281.9c1-6.8,1.1-13.8,0.3-20.8c-1.4-11.4-5.6-21.6-12.6-30.7c-4.1-5.2-8.9-9.6-14-13.7
		c-8.3-6.8-16.1-14.2-22.8-22.6c-9.2-11.4-16.2-24-19.5-38.4c-0.1-0.5-0.4-0.9-0.6-1.5c-2.2,1.9-2.2,1.9-1.7,4.2
		c0.1,0.5,0.2,0.9,0.4,1.4c3.2,11.9,9,22.5,16.3,32.4c7.8,10.5,17.2,19.6,27.4,27.8c4.6,3.7,8.9,7.8,12.6,12.5
		c7.3,9.5,11.2,20.2,12.1,32.1c0.4,5.8,0.2,11.6-0.7,17.3H334.2z"/>
	<path d="M394.6,124.3c0.9,2.6,1.3,5.3,1.9,7.9c0.4,1.9,0.9,2.2,3.1,1.8c-0.1-1-0.2-2-0.4-3.1c-1.9-12.3-8.1-21.5-19.2-27.4
		c-6.6-3.5-13.7-5.4-21-6.2c-6.8-0.7-13.5-1-20.3-1.4c-10-0.6-19.9-1.9-29.7-4c-0.8-0.2-1.7-0.3-2.5-0.4c-0.7,2.5-0.6,2.6,1.6,3.1
		c7.7,1.7,15.4,2.9,23.2,3.6c7.8,0.6,15.6,0.9,23.4,1.5c7.2,0.5,14.3,2,20.9,4.9C384.7,108.6,391.3,114.9,394.6,124.3z"/>
	<path d="M576.7,252.5c0.6,9.5,2.2,18.9,4.8,28.1c0.1,0.5,0.3,0.9,0.4,1.4h3.1c-0.6-1.9-1.1-3.8-1.6-5.6c-2.4-8.9-3.8-18-4-27.2
		c-0.2-8.4,0.7-16.8,3.2-24.9c0.1-0.4,0.2-0.9,0.3-1.3c-2.2,2.6-4.6,5-5.2,8.6C576.8,238.5,576.3,245.4,576.7,252.5z"/>
	<path d="M535.7,153.1c-0.1-0.1-0.1-0.3-0.2-0.4c-0.4-0.4-0.9-0.7-1.3-1c-5.6-3.5-11.6-6.1-18-7.8c-10-2.6-20.1-2.3-30.2-0.2
		c-11.5,2.3-23,3.9-34.7,4.4c-12.2,0.6-24.4,0.1-36.6-1.8c-16.6-2.6-32.6-7.4-47.4-15.4c-0.5-0.3-1.1-0.5-1.7-0.7
		c-0.2,2.4,0.4,3.6,2.3,4.4c0.8,0.3,1.6,0.8,2.4,1.1c5.5,2.3,10.8,4.8,16.4,6.8c13.5,4.7,27.5,7.3,41.7,8.3
		c11.7,0.8,23.3,0.7,34.9-0.7c8.6-1,17.1-2.5,25.6-4c7.1-1.2,14.3-1.6,21.5-0.4c7.8,1.3,15.1,4,21.8,8.2
		C534.1,155,534.1,155,535.7,153.1z"/>
	<path d="M337.4,101.5c0.8,0.9,1.3,1.5,1.8,2c18.1,18.7,28.5,40.9,31.1,66.7c0.2,1.8,1.7,4.7,3.3,6.2c0-0.7,0.1-1.2,0-1.8
		c-0.5-4.6-0.8-9.2-1.6-13.8c-3.9-22-13.7-41.1-28.8-57.5C341.8,101.6,340.1,101.1,337.4,101.5z"/>
	<path d="M530.6,157c-0.7-0.5-1.3-0.9-1.9-1.3c-11.4-6.5-23.6-8.8-36.6-6.7c-12.5,2.1-24.9,4.4-37.5,5.1
		c-12.9,0.7-25.7,0.5-38.5-1.3c-15.8-2.2-31-6.4-45.4-13.2c-0.5-0.3-1.1-0.4-1.8-0.6c0.1,2.3,0.9,3.6,2.9,4.4
		c4.2,1.6,8.3,3.4,12.5,4.9c14.3,4.9,29,7.7,44.1,8.7c10.2,0.7,20.5,0.6,30.7-0.2c10.2-0.8,20.3-2.4,30.4-4.4
		c13.2-2.6,25.8-1,37.6,5.7C528.8,159,528.8,159,530.6,157z"/>
	<path d="M572.3,280.9c-0.2,0.3-0.3,0.4-0.4,0.5c-0.1,0.2-0.1,0.4-0.2,0.5h1C572.6,281.6,572.5,281.2,572.3,280.9z"/>
	<path d="M150.5,227.4c-1.1,3.1-1.2,5.9,0.2,8.6c1.3,2.6,2.4,5.2,3.8,7.7c6.3,11,14.7,20.1,24.2,28.2c3.7,3.2,7.2,6.5,10.5,10h3.9
		c-3.2-3.7-6.7-7.1-10.4-10.3c-5.7-4.9-11.2-10.1-16-15.8c-7-8.2-12.7-17-15.6-27.5C151,228.1,150.8,227.8,150.5,227.4z"/>
	<path d="M137.9,110.5c-0.2,0.1-0.4,0.3-0.6,0.4c0.1,2,0.3,3.9,1.2,5.8c1.1,2.1,2,4.2,3,6.3c4.5,10.3,7.9,21,9.2,32.2
		c0.6,5,0.8,10,1.3,15c1.6,16.2,9.7,28.1,23.9,36c0.7,0.4,1.4,0.6,2.2,1c0.6-2.5,0.5-2.6-1.2-3.7c-3-2-6.1-3.9-8.7-6.3
		c-9-8-12.9-18.4-13.6-30.2c-0.3-4.2-0.5-8.5-1-12.7c-1.9-14.7-6.8-28.4-13.7-41.4C139.3,112,138.5,111.3,137.9,110.5z"/>
	<path d="M144.5,155.6c0.6,5.2,0.7,10.5,1.3,15.8c2.3,19.5,12.5,33.3,30.1,41.7c0.5,0.3,1.2,0.3,1.7,0.5c0.6-2.5,0.6-2.5-1.6-3.6
		c-17.8-9.1-27.1-23.7-27.8-43.5c-0.5-13.9-3.5-27.1-8.8-39.8c-0.2-0.6-0.6-1.1-0.8-1.6c-0.3,2.9-0.7,5.7,0.4,8.5
		C141.7,140.7,143.6,148.1,144.5,155.6z"/>
	<path d="M211.2,161.6c-4.4-2.1-8.7-4.3-13.2-6.2c-18.3-7.9-35-18.1-49.5-31.9c-0.2-0.2-0.6-0.3-1.1-0.6c1.4,4.6,1.6,5.1,3.5,6.7
		c11.1,9.7,23.4,17.8,36.7,24.1c8.2,3.9,16.4,7.8,24.7,11.7c0.4,0.2,0.9,0.3,1.5,0.5C213.7,163.8,213,162.4,211.2,161.6z"/>
	<path d="M213.6,170.1c-5.8-3-11.6-6.2-17.6-8.8c-15.1-6.7-29.5-14.6-42.4-25c-0.4-0.3-0.9-0.5-1.6-0.8c0.2,2.4,0.9,4,2.6,5.4
		c11.4,8.7,23.8,15.8,36.9,21.6c8,3.5,16,7,23.2,11.9c0.2,0.1,0.4,0.1,0.8,0.2C216.2,172.4,215.4,171,213.6,170.1z"/>
	<path d="M165.2,245.3c-0.5,0.6-1,1.2-1.6,2c0.6,0.7,1.1,1.3,1.8,2.1c0.9-1,1.5-1.6,2.1-2.4c4.2-5.2,7.9-10.7,10.7-16.7
		c5.7-12.1,7.1-24.6,3.7-37.6c-2.8-10.6-8.2-19.7-15-28.2c-3.1-3.9-6.5-7.6-10.7-11.4c0.1,2.8,0.6,4.7,2.3,6.4
		c7,7.1,12.9,15.1,17.1,24.2c6.9,15,7.1,30,0.2,45C173.1,234.6,169.4,240.1,165.2,245.3z"/>
	<path d="M321.6,267.7c-2.3-0.3-4.6-0.5-6.9-0.8c-15.5-2.2-30.3-6.5-44.1-13.8c-0.5-0.3-1-0.4-1.5-0.7c-0.6,2.5-0.4,2.8,1.3,3.8
		c0.4,0.2,0.9,0.4,1.3,0.7c14.5,7.3,30,11.4,46,13.3c1.8,0.2,3.6,0.3,5.3,0.4C323.5,268,323.5,267.9,321.6,267.7z"/>
	<path d="M150,204.7c-0.2,0.5-0.3,1.1-0.4,1.6c-0.7,3.3-1.3,6.6-2.1,9.8c-3.3,13.5-5.5,27.1-5.8,41c-0.1,6.9,0.3,13.7,1.3,20.6
		c0.2,1.4,0.5,2.8,0.7,4.2h2.9c-1.4-7.1-2-14.4-2-21.7c-0.1-13.5,1.8-26.8,4.9-39.9c0.9-4,1.9-8.1,2.7-12.2
		C152.4,206.2,152.1,205.8,150,204.7z"/>
	<path d="M317.9,273c-1.9-0.9-3.3-0.8-4.8,0.3c-4.7,3.6-9.8,6.5-15.3,8.6h7c4-2,7.7-4.5,11.2-7.3C316.6,274.2,317.1,273.6,317.9,273
		z"/>
	<path d="M211.9,209.8c-0.5,2.2,0.5,3.8,1.8,6c0.2-0.9,0.2-1.3,0.3-1.7c1.6-9.4,4.7-18.4,8.8-27c7.1-14.7,16.6-27.9,27-40.4
		c3.5-4.2,6.8-8.5,10.2-12.7c1.2-1.5,1.5-3-0.1-4.8c-0.4,0.5-0.8,0.9-1.1,1.4c-1.9,2.6-3.7,5.2-5.7,7.7c-3.6,4.4-7.3,8.7-10.8,13.1
		c-9.3,11.7-17.6,24.2-23.7,37.9C215.7,195.9,213.4,202.7,211.9,209.8z"/>
	<path d="M627.9,231.9c0.4-2.4,0.4-2.5-1.6-3.3c-5.9-2.3-11.7-4.9-17.1-8.2c-12.3-7.5-20.7-18-23.5-32.4c-0.7-3.6-1.1-7.3-1.7-10.9
		c-1.4-8.7-3.7-17.2-8.1-25c-3.4-6-8-10.9-14-14.5c-2.3-1.3-4.3-1.2-6.9,0c0.7,0.3,1,0.5,1.3,0.6c6.6,2.5,11.6,6.9,15.5,12.7
		c3.9,5.8,6.4,12.2,7.8,19c1.2,5.6,2,11.3,2.9,17c2.1,11.9,7.5,22,16.8,29.9c8.2,7,17.7,11.4,27.7,15.1
		C627.3,231.9,627.6,231.9,627.9,231.9z"/>
	<path d="M626.3,7.1c-3-1.3-6-2.7-9.1-3.6C608,1.1,598.7,1.4,589.4,3c-0.4,0.1-0.8,0.4-1.5,0.6c0.3,0.8,0.5,1.5,0.8,2.3
		c13.6-2.1,26.8-2.4,39.1,5.3c0.1-0.8,0.2-1.5,0.3-1.9V8.9C628.1,8,627.6,7.7,626.3,7.1z"/>
	<path d="M626.2,3.2c0.5,0.3,1.1,0.4,1.7,0.6c0.4-2.7,0.3-2.9-1.7-3.7c-0.2-0.1-0.4-0.1-0.6-0.2h-9.3C619.8,0.6,623.1,1.7,626.2,3.2
		z"/>
	<path d="M148.3,16.8c-3.3,4.5-7.4,8.2-11.7,11.7c-2.2,1.8-4.4,3.7-6.5,5.7c-7.4,7.1-12.7,15.6-15.6,25.5c-0.7,2.3-0.6,2.6,1.7,4.3
		c0.3-0.9,0.5-1.7,0.8-2.5c1.2-4.2,2.8-8.2,4.9-12c4.2-7.6,10.1-13.8,16.9-19.1c4.7-3.7,9-7.7,12.4-12.7c3.6-5.1,6-10.7,6.2-17.1
		c0-0.3,0-0.5,0-0.8h-2.9c0,1.6-0.2,3.2-0.5,4.9C153.1,9.2,150.9,13.1,148.3,16.8z"/>
	<path d="M600.2,50.8c-0.3,2.4,0.2,3.1,2.5,3.4c8.4,1.3,16.2-0.6,23.8-3.9c1.9-0.8,1.9-1.1,1.3-3.7C619,50.6,609.9,53.2,600.2,50.8z
		"/>
	<path d="M623.3,34.8c-3.1,1.2-6.2,2.7-9.4,3.6c-6.3,1.8-12.2,1-17.5-3.1c-0.2-0.2-0.5-0.3-1-0.5c-0.2,2.3,0.4,4,2.6,5
		c4,1.9,8.1,2.7,12.6,2.2c6-0.6,11.2-3.2,16.5-5.7c1.3-0.6,1.3-0.9,0.6-3.3C626.2,33.6,624.8,34.2,623.3,34.8z"/>
	<path d="M627.7,39.8c-0.9,0.4-1.7,0.7-2.6,1c-2.6,1-5.1,2.2-7.8,3.1c-4.6,1.5-9.4,2.1-14.2,1.1c-1.8-0.4-3.5-0.9-5.5-1.5
		c0.2,2.8,0.4,3.1,2.5,3.7c3.6,1,7.2,1.3,10.9,0.9c5.6-0.6,10.7-2.5,15.7-4.9C628.4,42.5,628.4,42.2,627.7,39.8z"/>
	<path d="M119,0.7c8.7,4,17,8.5,25,13.8c0.6,0.4,1.3,0.8,2.1,1.2c0.5-0.8,0.9-1.4,1.4-2.1c-0.7-0.5-1.1-0.9-1.6-1.2
		c-5.9-3.4-11.7-7-17.6-10.2c-1.4-0.8-2.8-1.5-4.3-2.2h-6.8C117.9,0.1,118.5,0.4,119,0.7z"/>
	<path d="M23.5,34.9c-2.2-10.5-3.5-21.1-3.9-31.8c0-1.2-0.4-2.3-0.9-3.3h-1.8c0,12.9,1.5,25.6,4.5,38.3C23.9,37.1,24,37.1,23.5,34.9
		z"/>
	<path d="M15.7,41.3c2.6-1,2.6-1.1,2.1-3.4c-2.8-12.4-4.3-25-4.5-37.8c0-0.1,0-0.2,0-0.3h-2.9c0.2,12,1.5,23.9,3.9,35.7
		C14.7,37.5,15.2,39.4,15.7,41.3z"/>
	<path d="M4.6,9.9c0.6,11.2,2.3,22.2,5,33.1c0.2,0.7,0.4,1.3,0.7,1.9c2.5-1.1,2.5-1.1,1.9-3.7c-3.3-13.6-5-27.4-5.1-41.4H4.3
		C4.1,0.7,4.1,1.5,4.2,2.5C4.4,4.9,4.5,7.4,4.6,9.9z"/>
	<path d="M626.5,221.9c-4.7-2.3-9.5-4.3-14-6.9c-8.5-5-15-11.8-18.7-21.2c-1.7-4.5-2.5-9.2-3.1-14c-1.2-9.1-3.2-17.9-7.1-26.3
		c-3-6.5-7-12.2-12.4-16.9c-1.6-1.4-3.2-1.5-5.2-0.6c1.7,1.4,3.3,2.6,4.7,4c5.8,5.4,9.6,12.1,12.3,19.5c2.9,7.7,4.3,15.7,5.3,23.8
		c1.6,13,7.6,23.4,18.2,31.2c6.1,4.5,12.9,7.7,19.9,10.5c0.4,0.2,0.9,0.2,1.4,0.3C628.4,223,628.3,222.8,626.5,221.9z"/>
	<path d="M627.8,276.9c-0.5,1.7-0.9,3.4-1.4,5h1.7v-5C628.1,277,627.9,276.9,627.8,276.9z"/>
	<path d="M609.9,237.8c-5.2-5.3-9.5-11.3-12.4-18.1c-1.1-2.5-3-4-4.8-5.8c-0.2,0.1-0.3,0.2-0.5,0.3c0.3,0.9,0.6,1.8,0.9,2.6
		c3.5,8.7,8.2,16.6,15,23.2c3.7,3.6,7,7.4,9.8,11.8c3.1,4.9,4.8,10.2,4.6,16.1c-0.1,4.4-1,8.6-2.2,12.7c-0.1,0.4-0.3,0.9-0.4,1.3h3
		c0.7-2.1,1.2-4.2,1.7-6.4c2.1-9.9,0.5-19.1-5.6-27.3C616.2,244.6,613.1,241.1,609.9,237.8z"/>
	<path d="M21,280c-1.1-0.3-1.9-0.4-2.8-0.7c-0.4,0.9-0.8,1.7-1.2,2.5h3.1C20.4,281.3,20.7,280.7,21,280z"/>
	<path d="M482.9,7.7c-0.9,0.4-1.6,0.7-2.2,1c-8.2,4.3-16.9,5.5-26.1,4.9c-3.2-0.2-6.4-0.6-9.6-0.7c-8.9-0.5-16.7,2.3-23.5,8
		c-5.8,4.8-10.1,10.9-13.5,17.6c-6.4,12.4-10,25.8-12.2,39.5c-0.1,0.6,0,1.2,0,1.8c2.6-0.1,2.6-0.1,3-2.5c1.6-9.1,3.8-18,7-26.6
		c2.8-7.5,6.3-14.7,11.3-21c8.1-10.2,18.5-15.3,31.7-13.6c5.2,0.7,10.5,1,15.8,0.4c5.6-0.6,11-2,16.1-4.3
		C482.5,11.2,483.3,10,482.9,7.7z"/>
	<path d="M626.7,90.8C614.5,83,606,72,600.2,58.8c-3.8-8.6-6.3-17.6-8-26.8c-1.9-10.5-4.3-21-7.8-31.1c-0.1-0.3-0.3-0.7-0.4-1h-2.4
		c-0.3,0.6-0.2,1.1,0.2,2.3c3.4,9.9,5.6,20,7.5,30.2c2,11.3,5.2,22.2,10.5,32.5c6,11.6,14.1,21.3,25.2,28.4c0.9,0.6,1.8,1,2.9,1.7
		c0.2-0.5,0.3-0.9,0.3-1.3v-0.6C628.1,92.1,627.6,91.4,626.7,90.8z"/>
	<path d="M47.9,49.6c-0.7,0.3-1.4,0.5-2.2,0.8c0.1,0.5,0.1,0.8,0.2,1c0.3,0.6,0.6,1.1,0.9,1.7c3.6,5.9,7.8,11.3,12.6,16.3
		C67.7,77.7,77,84.6,87.4,90c9,4.7,18.1,9.3,26.3,15.3c0.3,0.2,0.6,0.3,1.1,0.4c-0.1-2.4-0.9-4-2.8-5.1c-4-2.3-7.9-4.9-11.9-7.2
		c-5.8-3.3-11.8-6.1-17.5-9.5c-13.9-8.3-25.3-19.2-33.7-33.1C48.6,50.4,48.2,50.1,47.9,49.6z"/>
	<path d="M613.9,171.2c2.3,3.4,4.4,6.9,6.7,10.2c2.2,3.1,4.5,6.1,6.8,9.2c0.2-0.1,0.4-0.2,0.6-0.3c0.1-0.3,0.1-0.5,0.1-0.8v-1.7
		c-0.1-0.8-0.4-1.6-1-2.4c-2.7-3.7-5.3-7.4-7.8-11.2c-3.7-5.6-7.5-11.1-12-16.1c-5.9-6.5-12.5-12.1-20.1-16.5
		c-0.6-0.4-1.2-1-2.2-0.6c1.2,1.9,2.1,3.7,3.9,4.9C599,152.6,607.2,161.2,613.9,171.2z"/>
	<path d="M626.5,127.7c-3.9-1.5-7.7-3.1-11.7-4.3c-17.8-5.6-36.1-6.6-54.6-4.7c-18.5,1.9-36.3,6.8-53.6,13.5
		c-0.6,0.2-1.2,0.6-1.7,0.8c2.3,0.8,4.5,1.1,6.7,0.4c5.5-1.9,11-3.8,16.6-5.4c20.1-5.9,40.7-8.5,61.6-6.6c12.3,1.1,24.1,4.1,35.4,9
		c0.8,0.3,1.6,0.6,2.4,1c0.2-0.8,0.4-1.4,0.4-1.9v-0.2C628.1,128.5,627.7,128.2,626.5,127.7z"/>
	<path d="M576,135.9c0,0.2-0.1,0.3,0,0.4c0.2,0.3,0.3,0.5,0.6,0.8c5.8,5.9,9.6,13.1,12.5,20.8c3,8.1,4.4,16.5,5.5,25
		c1.1,9,4.7,16.7,11.3,23c6.2,5.8,13.5,9.6,21.3,12.6c0.2,0.1,0.4,0,0.7-0.1c0.4-2.4,0.4-2.5-1.6-3.3c-5.4-2.3-10.6-5-15.2-8.6
		c-7.9-6.1-12.4-14-13.7-23.9c-1-7.9-2.3-15.7-4.8-23.2c-2.7-8.1-6.4-15.5-11.8-22.1C579.4,135.7,577.9,135.5,576,135.9z"/>
	<path d="M36.3,54.4c-0.8,0.4-1.5,0.7-2.1,1c0.1,0.4,0.1,0.7,0.2,0.9c0.3,0.6,0.6,1.3,1,1.9C44.2,73.2,56.3,85.4,71,94.7
		c6.7,4.3,13.9,7.9,20.9,11.7c9.2,5,17.8,10.7,25,18.4c0.4,0.4,0.8,0.7,1.4,1.3c0.6-2.7-0.1-4.6-2-6.1c-3.2-2.6-6.3-5.4-9.7-7.8
		c-6.6-4.9-14-8.7-21.3-12.4c-6.4-3.3-12.6-7-18.4-11.3c-12-8.8-22-19.5-29.5-32.4C37.1,55.5,36.8,55,36.3,54.4z"/>
	<path d="M2.8,281.9h3.4c-1.6-2.4-3.1-4.9-4.4-7.5c-0.2-0.4-0.6-0.8-1.1-1.4c-0.1,0.4-0.1,0.8-0.1,1.1v2.7c0.2,1.5,0.7,3,1.7,4.3
		C2.4,281.4,2.6,281.7,2.8,281.9z"/>
	<path d="M2.9,251.6c5.2,6.4,11.7,10.7,19.4,13.1c4.6,1.4,9.3,2.4,13.9,3.5c10.1,2.4,19.1,6.8,26.6,13.7h4.2
		c-1.6-1.6-3.3-3.1-5.1-4.5c-8.2-6.5-17.5-10.5-27.7-12.5c-3.8-0.8-7.7-1.7-11.4-2.9c-7-2.3-13.2-6.1-17.7-12.2
		c-1.7-2.2-3-4.7-4.6-7.3c-0.1,0.4-0.1,0.7-0.2,1.1v2.7C0.8,248.2,1.6,250,2.9,251.6z"/>
	<path d="M42,51.8c-0.8,0.4-1.5,0.7-2.3,1.1c0.5,1,0.9,1.9,1.4,2.7C49.6,69.8,61.2,81.2,75.2,90c6.1,3.9,12.6,7.2,19,10.6
		c7.1,3.8,13.8,8,20,13.1c0.9,0.7,1.7,1.4,2.8,2.4c0.1-2.8-0.7-4.7-2.7-6c-1.2-0.8-2.3-1.7-3.4-2.6c-7-5.1-14.6-9.2-22.3-13.1
		c-6.3-3.2-12.4-6.9-18.2-11.1c-11.1-8.2-20.3-18-27.3-29.9C42.8,52.9,42.4,52.4,42,51.8z"/>
	<path d="M7.7,247c5.9,1.3,11.8,2.7,17.7,4c1.7,0.4,3.4,0.6,5.3,0.9c0.2-2.6,0.1-2.7-2.1-3.2c-7.5-1.7-14.9-3.4-22.4-5.1
		c-0.6-0.1-1.2-0.2-2-0.4C4.8,245.3,5.7,246.5,7.7,247z"/>
	<path d="M618.4,237.7c-3.2-3.9-6.6-7.6-10-11.3c-1.3-1.4-3-2.3-4.9-2.9c0.6,1.5,1.3,2.9,2.3,4.1c2.9,3.5,5.9,6.9,9,10.3
		c5.5,6.1,10.6,12.4,12.9,20.5c0,0.1,0.2,0.2,0.5,0.4v-6.5c-0.3-1.6-0.9-3-1.9-4.4C623.7,244.5,621.2,241,618.4,237.7z"/>
	<path d="M627.2,174.9c-2.7-3.9-5.1-7.9-7.9-11.7c-7.3-10.2-16-18.8-26.6-25.6c-2.5-1.6-5.2-1.5-8-1.3c0.4,0.3,0.9,0.6,1.3,0.8
		c7.5,3.9,14.1,9,20.1,14.9c6.3,6.3,11.6,13.4,16.3,20.9c1.4,2.2,2.8,4.3,4.2,6.4c0.3,0.4,0.7,0.7,1.3,1.3c0.1-0.4,0.1-0.9,0.2-1.3
		v-2C628,176.5,627.8,175.7,627.2,174.9z"/>
	<path d="M0.6,83.6c1.5-2.8,2.7-5.3,4.1-7.5c4.9-7.8,11.7-13.7,19.4-18.6c7.6-4.8,15.8-8.4,24.3-11.3c2.5-0.9,5-1.7,7.7-2.6
		c-2.3-2.3-2.3-2.3-4.8-1.4c-4.5,1.6-9.1,3.2-13.5,5c-9.2,3.9-17.8,8.7-25.3,15.4c-4.3,3.9-8,8.2-11.1,13.2c-0.6,1-0.9,2.1-1,3.2v3
		C0.5,82.5,0.6,83,0.6,83.6z"/>
	<path d="M9.4,143.5c-2.9-4-5.6-7.9-8.3-11.7c-0.3,0.2-0.4,0.2-0.4,0.2c-0.1,0.2-0.1,0.4-0.2,0.6v2.3c0.3,1.5,1.1,2.9,2.2,4.2
		C4,140.8,7.3,143.1,9.4,143.5z"/>
	<path d="M1,60.5C13,47.5,28.2,40,44.3,34.2c-1.4-2.3-1.6-2.5-3.9-1.6c-9.8,3.7-19.2,7.9-27.7,14c-3.8,2.7-7.2,5.8-10.8,8.8
		c-0.8,0.7-1.3,1.5-1.4,2.4v1C0.6,59.3,0.7,59.9,1,60.5z"/>
	<path d="M30.3,238.8c0.4-2.3,0.4-2.4-1.5-2.8c-8.3-1.5-16.6-3.5-24.6-6.2c-0.4-0.1-0.8-0.1-1.3-0.1c-0.2,0.8-0.4,1.4-0.6,2
		C5.5,233.9,26.1,239.1,30.3,238.8z"/>
	<path d="M0.5,226.5c0,0.2,0,0.4,0.1,0.6c0.2,0,0.3,0,0.5,0.1c0.3-1,0.6-1.9,0.8-2.9c3.3-13.8,2.6-27.5-0.6-41.2
		c-0.1-0.4-0.3-0.7-0.5-1.1c-0.3,5.1-0.1,10.1,0,15.1c0.1,3.9,0.4,7.8,0.3,11.7c-0.1,5.1-0.3,10.3-0.5,15.4V226.5z"/>
	<path d="M15.2,67.8c-2.3,1.5-2.4,1.6-1.9,3.9c1.8,8.9,5.7,16.9,11.5,23.9c2.3,2.8,4.7,5.5,6.2,8.8c3.1,6.6,2.7,13-1.2,19.2
		c-2,3.2-4.7,5.6-7.8,7.7c-0.6,0.4-1.2,0.8-1.9,1.3c0.5,0.7,1,1.4,1.6,2.2c6-3.4,10.3-7.8,12.7-13.9c1.8-4.4,1.9-9,0.7-13.6
		c-1.2-4.4-3.5-8.2-6.5-11.6c-6.8-7.6-11.1-16.4-12.8-26.4C15.6,68.8,15.4,68.4,15.2,67.8z"/>
	<path d="M20.9,62.9c-2.4,1.3-2.5,1.5-2.2,3.8c1.4,9.8,5.2,18.5,11.8,26.1c1.6,1.9,3.2,3.8,4.5,5.9c3.8,6.1,5.3,12.6,3.7,19.7
		c-1.3,6-4.5,10.9-9.1,14.9c-1.7,1.5-3.5,2.8-5.6,4.4c0.6,0.7,1.1,1.3,1.7,2c0.8-0.5,1.6-0.8,2.2-1.3c2.4-2.1,5.1-4,7.1-6.4
		c7.6-9.2,9.3-19.4,4.7-30.5c-1.7-4.2-4.5-7.7-7.4-11.1c-6.3-7.4-9.8-16-10.8-25.7C21.4,64.1,21.1,63.5,20.9,62.9z"/>
	<path d="M27.1,58.9c-2.3,0.8-2.6,1.1-2.5,2.8c0.5,9.6,3.5,18.3,9.7,25.8c2.1,2.5,4.2,5,5.9,7.8c6.8,11.2,7.3,22.6,0.7,34.1
		c-2.7,4.6-6.4,8.4-10.8,11.5c-0.7,0.5-1.3,1-2.1,1.7c0.7,0.9,1.2,1.5,1.6,2.1c4-2.5,7.2-5.2,9.9-8.4c9.2-11.2,11.4-23.5,6-37
		c-2-4.9-5.1-9-8.5-13c-4.7-5.4-7.6-11.6-8.8-18.6C27.7,64.8,27.4,62,27.1,58.9z"/>
	<path d="M1.9,268c3.9,3.1,8.3,5.4,12.9,7.3c5.7,2.4,11.7,3.6,17.8,4.9c2.1,0.4,4.1,1,6,1.7H46c-0.6-0.3-1.2-0.6-1.8-0.9
		c-5.1-2.3-10.4-3.5-15.8-4.6c-9.8-2-18.8-5.7-26.5-12.1c-0.3-0.2-0.6-0.4-1-0.5c-0.2,0.8-0.3,1.3-0.4,1.8v0.5
		C0.6,266.8,1,267.3,1.9,268z"/>
	<path d="M0.9,144.6c-0.7,2.4-0.6,2.8,1.4,4C13.5,155,25,160.5,37,165c9.8,3.7,18.9,8.6,26.9,15.5c1.7,1.5,1.9,1.4,3.8-0.1
		c-0.1-0.1-0.1-0.3-0.2-0.4c-0.3-0.3-0.7-0.7-1-1c-7.8-7-16.8-12.2-26.6-15.9c-12.8-4.8-25.2-10.5-37-17.5
		C2.2,145.2,1.6,144.9,0.9,144.6z"/>
	<path d="M2.4,115.3c8,14.3,17.9,27.2,29.2,39c2.4,2.5,5.5,3.3,8.5,4.6c-15.9-15.3-29.3-32.4-39.2-52.3
		C-0.1,109.9,0.8,112.6,2.4,115.3z"/>
	<path d="M4,239.4c8,2.5,16.2,4.4,24.5,5.8c0.6,0.1,1.2,0,1.8,0c0.3-2.4,0.3-2.5-1.7-2.9c-8.6-1.5-17.1-3.5-25.4-6.2
		c-0.4-0.1-0.9-0.2-1.7-0.3C1.6,237.8,2.3,238.8,4,239.4z"/>
	<path d="M0.5,174c0.1,0.9,0.5,1.7,1.2,2.5c2.3,2.4,4.5,5,6.7,7.5c7.1,8.4,13.3,17.4,17.5,27.6c1.7,4.2,2.9,8.6,4.4,12.9
		c0.3,0.8,0.6,1.6,0.8,2.4c0.9-2,1.7-3.9,1-6.1c-1.4-5-3.1-9.9-5.5-14.6c-6.3-12.7-14.9-23.6-24.8-33.7c-0.3-0.3-0.7-0.5-1.2-0.9
		c-0.1,0.4-0.2,0.8-0.2,1.2V174z"/>
	<path d="M17.2,147.7c1.7,2.1,4.1,2.8,6.6,3.6c-8.4-9.8-16.2-20.1-22.9-31.2c-0.6,2.2-0.6,4.2,0.6,6.2
		C6.3,133.7,11.5,140.9,17.2,147.7z"/>
	<path d="M567.9,152.5c-1.2-0.1-2.4-0.4-3.6-0.4c-6.7-0.3-12.8,2-18.3,5.6c-3.6,2.3-7.1,4.9-10.4,7.6c-6.5,5.4-13.4,10.2-21.3,13.2
		c-0.3,0.1-0.5,0.3-1,0.6c2.4,2,2.5,2.1,4.8,0.9c2.9-1.4,6-2.8,8.6-4.6c4.3-2.9,8.4-6.1,12.4-9.4c4.9-3.9,10-7.5,16-9.6
		c5.1-1.8,10.3-2.2,15.5-0.1c0.4,0.2,0.8,0.2,1.5,0.4C571.4,154.3,570.3,152.7,567.9,152.5z"/>
	<path d="M565.6,10.3C555.5,20.6,544,29,531.3,35.8c-0.7,0.4-1.3,0.8-2.3,1.3c2.3,1,4,1.1,6,0c17.2-9.6,31.7-22,43.5-37.3h-3.7
		C571.9,3.5,568.9,7,565.6,10.3z"/>
	<path d="M158.6,23.8c-3.9,5.4-8.6,9.8-13.7,14c-2.9,2.4-5.8,4.8-8.3,7.6c-7.5,8.1-11.4,17.8-12,28.8c-0.1,2.5,1.2,4.3,2.4,6.2
		c0.2-0.2,0.3-0.2,0.3-0.2c0-1.3,0.1-2.5,0.1-3.8c0.1-9.7,3-18.4,8.8-26.1c3.3-4.4,7.5-7.8,11.7-11.3c6.7-5.4,12.4-11.5,16.5-19.1
		c3.5-6.6,5.5-13.3,5.5-20H167c0,1.8-0.2,3.6-0.4,5.4C165.6,12.1,162.7,18.2,158.6,23.8z"/>
	<path d="M587.6-0.2L587.6-0.2C587.6-0.2,587.6-0.2,587.6-0.2z"/>
	<path d="M579.3,115.2c-0.2-0.4-0.2-0.7-0.3-0.9c-4.1-5.4-5.5-11.6-5.1-18.3c0.2-3.2,0.2-6.4,0.2-9.6c0-4.9-1.3-9.5-3-14
		c-0.9-2.3-2.6-3-4.8-3.5c0.1,0.4,0.1,0.7,0.2,0.8c4.2,7.2,5.5,14.9,4.8,23.1c-0.2,2.7-0.2,5.4-0.1,8.1c0.2,4.5,1.6,8.6,3.8,12.5
		C575.9,115.3,577.2,115.8,579.3,115.2z"/>
	<path d="M625.2,107.7c0.8,0.4,1.7,0.7,2.6,1.1c0.6-2.6,0.5-2.7-1.6-3.8c-13.8-7.2-24.5-17.8-32.4-31.2
		c-6.5-11.1-10.5-23.1-13.2-35.6c-1.8-8.7-3.8-17.3-5.7-26c-0.2-0.8-0.5-1.6-0.9-2.7c-2.3,1.7-2.3,1.8-1.8,4
		c1.9,8.3,3.7,16.7,5.5,25c2.8,13.3,7.1,26.1,14.2,37.7C600.2,89.9,611.1,100.5,625.2,107.7z"/>
	<path d="M589,115.6c-0.8-0.7-1.3-1.2-1.8-1.6c-4.6-3.9-7.1-8.8-7.1-14.8c0-2.5,0.1-5,0.2-7.4c0.2-5.5-0.1-10.9-1.6-16.1
		c-0.6-2-1.3-2.5-3.6-2.5c0,0.2,0,0.5,0.1,0.7c2.1,6.4,2.9,12.9,2.3,19.6c-0.2,2.1-0.2,4.3-0.1,6.5c0.1,4.7,1.7,8.9,4.5,12.7
		C583.5,114.9,585.6,116.3,589,115.6z"/>
	<path d="M117.2,43.4c-2.7-4.7-4.3-9.8-5.1-15.1c-0.1-0.6-0.3-1.3-0.5-2c-2.4,2.1-2.5,2.2-1.9,4.7c0.8,3.2,1.7,6.3,2.8,9.4
		c1,2.5,2.4,4.8,3.7,7.5C118,46.2,118.1,45,117.2,43.4z"/>
	<path d="M28.8,270.2c-10.4-2.3-19.7-6.6-27-14.6c-0.3-0.3-0.7-0.5-1.1-0.8c-0.1,0.4-0.2,0.7-0.2,1v1.3c0.2,1.2,0.8,2.2,1.9,3.2
		c3.7,3.3,7.7,6,12.1,8.1c6,2.8,12.3,4.3,18.8,5.6c7,1.4,13.6,3.9,19.4,7.9h5c-5.1-3.9-11-7-17.7-9.1
		C36.3,271.7,32.5,271,28.8,270.2z"/>
	<path d="M99.9,51.4c-0.7-0.6-1.4-1-2.1-1.5c-1.6,2-1.5,2.2,0,3.6c3.5,3.3,7.2,6.6,10.5,10.1c7.1,7.5,12.6,16.1,16.8,25.5
		c4.2,9.6,6.7,19.6,7.7,30.1c0.8,8.5,0.6,16.9-0.4,25.4c-0.8,6.3-2.1,12.5-3.7,18.6c-0.6,2.1-0.4,2.4,1.8,3.5
		c0.2-0.6,0.5-1.1,0.7-1.7c4.6-16.5,6.3-33.3,4-50.3C131.8,89,119.6,68.1,99.9,51.4z"/>
	<path d="M123.4,159c-0.4,2.1-0.4,2.2,1.9,3.4c0.3-0.8,0.5-1.3,0.7-1.9c4.1-16,5.3-32.1,2.5-48.5c-3.9-22.4-14.9-40.6-32-55.3
		c-0.3-0.3-0.8-0.5-1.2-0.7c-1.3,2.3-1.3,2.3,0.5,3.9c8.6,7.7,15.9,16.5,21.2,26.7c9.3,17.9,11.7,37,9.3,56.8
		C125.7,148.6,124.4,153.8,123.4,159z"/>
	<path d="M323.1,273.2c-0.6,0.4-1.1,0.7-1.5,1c-3.2,2.9-6.5,5.5-10.1,7.7h5.2c1.8-1.3,3.5-2.7,5.2-4.1
		C323.4,276.5,323.6,275.1,323.1,273.2z"/>
	<path d="M581.1,201.3c-1.3,2.6-2.5,5.2-3.8,7.7c-5.9,10.8-13.5,20.2-22.5,28.5c-1.4,1.3-1.8,2.7-1.2,4.8c0.8-0.6,1.4-1,2-1.5
		c2-1.9,4-3.9,6-5.9c9.1-9.2,16.4-19.8,21.8-31.6c0.9-1.9,1-3.6-0.8-5.4C582,199.2,581.6,200.3,581.1,201.3z"/>
	<path d="M578.9,189.5c-1.8,5.7-4.1,11.1-6.9,16.3c-4.6,8.4-10.2,16-17,22.8c-1.4,1.4-2,2.8-1,4.6c0.2,0,0.4,0,0.5-0.1
		c0.3-0.2,0.6-0.5,0.9-0.8c11-11,19.6-23.5,25-38.2c0.9-2.5,0.3-4.6-0.5-7.4C579.4,188,579.1,188.7,578.9,189.5z"/>
	<path d="M525.9,104.9c5.2-0.3,10.4-0.5,15.6-0.3c7.6,0.2,14.9,1.9,21.5,5.9c0.3,0.2,0.6,0.2,1,0.4c-0.1-2.3-0.9-3.8-3-4.8
		c-8.1-3.7-16.7-4.7-25.5-4.6c-3.8,0.1-7.7,0.5-11.5,0.6c-9.1,0.4-18-0.7-26.6-3.8c-0.4-0.2-0.9-0.2-1.6-0.4c0,2.2,0.7,3.2,2.5,3.8
		C507.3,104.6,516.5,105.4,525.9,104.9z"/>
	<path d="M586.5,205.6c-0.2,0.1-0.3,0.2-0.4,0.2c-1.1,2-2.2,4.1-3.3,6.1c-7.4,13.6-17.4,25-29.2,34.9c-1.6,1.3-2.1,2.8-1.8,5.1
		c1.2-0.9,2.1-1.6,3-2.4c5.8-4.7,11.1-9.9,16-15.5c6.5-7.5,11.9-15.6,16.4-24.4C588.1,208.1,588,206.8,586.5,205.6z"/>
	<path d="M578.7,180.7c-0.5,0.5-1,1-1.5,1.6c-4.8,5.4-10.5,9.5-17.4,11.9c-6.2,2.2-12.6,2.9-19.1,2.6c-0.9,0-1.9,0-3.1,0
		c1,2.2,2.3,3,4.2,2.9c3.1-0.2,6.2-0.1,9.3-0.5c10.5-1.3,19.5-5.8,26.9-13.4c1.6-1.6,1.8-3.2,0.9-5.1
		C578.8,180.6,578.7,180.6,578.7,180.7z"/>
	<path d="M562.4,145.8c-2,0.2-4,0.4-5.9,0.8c-7.1,1.5-13.3,5-19,9.3c-4,3-7.7,6.2-11.7,9.2c-6,4.4-12.4,7.9-19.8,9.3
		c-0.4,0.1-0.7,0.3-1.3,0.5c2,1.4,3.8,2.2,6,1.3c0.9-0.4,1.8-0.6,2.7-1c7.4-2.8,13.7-7.1,19.7-12.2c4.2-3.6,8.6-6.9,13.5-9.6
		c5.6-3,11.4-5,17.9-4.8c0.6,0,1.2-0.1,2.2-0.1C565.5,146.6,564.3,145.6,562.4,145.8z"/>
	<path d="M126.2,33c-1.4-3.8-2-7.7-2.1-11.7c-0.1-1.7-0.3-1.8-2.5-2.4c-1,4.8,1,14.7,3.3,17C125.7,35.2,126.7,34.6,126.2,33z"/>
	<path d="M573.1,161.6c-4.9-3.6-10.1-4-15.7-2.3c-6,1.8-11.1,5.3-15.9,9.2c-6.4,5.3-13,10.4-20.6,14c-0.3,0.1-0.5,0.4-0.8,0.6
		c1.8,1.9,2.1,2,4.1,1c2.1-1.1,4.3-2.2,6.2-3.6c4.6-3.3,9.1-6.8,13.6-10.3c4.1-3.2,8.3-6,13.1-7.8c7.1-2.6,13-0.9,17.7,5.1
		c0.6,0.8,1.2,1.6,1.9,2.4c0.1-0.1,0.2-0.1,0.4-0.2c-0.4-1.3-0.8-2.6-1.1-3.9C575.6,164,574.6,162.7,573.1,161.6z"/>
	<path d="M575.8,173.8c-7.2,10.9-17.5,16.2-30.4,16.7c-4.9,0.2-9.7-0.2-14.5-1.1c-0.5-0.1-1-0.1-2-0.1c2.3,2,4,3.7,6.8,3.7
		c3.3,0,6.5,0.4,9.8,0.3c13-0.4,23.6-5.4,31.5-16c1.4-1.8,1.6-3.5,0.4-5.8C576.6,172.5,576.2,173.2,575.8,173.8z"/>
	<path d="M120.1,41.4c2-1.7,2-1.8,1.1-3.9c-2.2-5.1-3.3-10.5-3.4-16c0-0.6-0.1-1.2-0.2-2.3c-1.9,1.5-2.8,2.9-2.5,5
		c0.5,5.4,1.7,10.5,4,15.4C119.3,40.2,119.8,40.8,120.1,41.4z"/>
	<path d="M47.5,132.8c5.9,6.4,12.8,11.5,20.6,15.5c5,2.6,10.2,4.6,15.6,6.1c1.4,0.4,2.1,1.1,2,2.5c0,0.4,0,0.8,0,1.2
		c0.5,15.1-0.1,30.1-2,45c-0.3,2.5,0.8,4.6,1.8,6.7c0.2-0.4,0.3-0.7,0.4-1.1c2.4-16.3,3.3-32.8,2.8-49.3c-0.1-3.7-2.9-7.4-6.5-8.5
		c-10.7-3.4-20.4-8.7-28.8-16.3c-2-1.8-4-3.6-6.1-5.5C46,131.1,45.9,131.1,47.5,132.8z"/>
	<path d="M50.2,126.4c8.2,9.7,18.4,16.2,30.2,20.4c0.3,0.1,0.6,0.1,1,0.1c-0.7-2.1-1.7-3.4-3.7-4.3c-10.4-4.2-19.3-10.6-26.4-19.4
		c-0.3-0.4-0.7-0.9-1.2-1.6C48.7,124.6,48.7,124.7,50.2,126.4z"/>
	<path d="M52,113.3c-0.2-0.4-0.6-0.6-1-1.1c-0.6,2.8-0.1,5,1.5,7.2c6,7.8,13.4,13.9,22.2,18.3c0.6,0.3,1.3,0.5,2.2,0.9
		c-0.4-2.2-1.3-3.6-3-4.6C64.8,129,57.4,122.3,52,113.3z"/>
	<path d="M75.8,102.1c0,0.7,0,1.4,0.1,2c0.4,2.3,0.7,4.6,1.2,6.8c3,14,8.2,27.1,16.7,38.7c5.5,7.5,12.1,13.8,19.8,19
		c4.3,2.9,8.3,6,11.6,10c3.9,4.7,6.9,10,9,15.8c0.2,0.7,0.2,1.6,1.2,1.9c1.2-3.9,1.2-4.2-0.3-7.5c-2.7-5.9-6.2-11.2-11-15.6
		c-3.1-2.8-6.5-5.4-10-7.8c-8.9-6.3-16.1-14.1-21.8-23.3c-6.9-11.3-11-23.6-13.2-36.6C78.8,103.6,77.9,102.5,75.8,102.1z"/>
	<path d="M69.1,97.9c0,0.8-0.1,1.5,0,2.1c0.9,5.3,1.6,10.6,2.8,15.8c3.1,13.5,8.5,26,16.7,37.2c5.9,8.1,13,15,21.3,20.6
		c3.5,2.3,6.8,4.8,9.6,7.9c7.1,7.8,10.4,17.3,11.9,27.5c0.1,0.9,0.3,1.8,0.5,2.8c1.3-3.5,2.3-6.9,1-10.5c-0.3-0.7-0.4-1.4-0.6-2.1
		c-3.2-11.1-9.2-20.1-18.8-26.7c-3-2-5.9-4.1-8.7-6.4c-12-10-20.2-22.5-25.8-37c-3.4-8.9-5.7-18-6.7-27.4
		C72.1,99.8,71.4,98.3,69.1,97.9z"/>
	<path d="M53.7,248.5c9.3,1.5,17.9,4.8,26,9.4c8.6,4.9,16,11.4,22.8,18.6c0.7,0.7,1.4,1.4,2.2,2.2c0.8-0.6,1.4-1,2.2-1.6
		c-15.1-17.1-32.8-28.8-55.8-31.9C50.9,248,50.9,248.1,53.7,248.5z"/>
	<path d="M51.8,165.6c0.2-0.2,0.4-0.2,0.5-0.3c3.6-5,6.4-10.4,8.3-16.4c0.6-1.9,0.4-2.2-2.1-3.1c-1.7,6.8-5.1,12.8-9,18.6
		c0.6,0.4,0.9,0.7,1.3,0.8C51.1,165.5,51.5,165.5,51.8,165.6z"/>
	<path d="M94.8,133.8c-4-7.8-6.8-16-8.6-24.6c-0.4-1.9-1.3-3-3.2-3.2c-0.1,0.2-0.2,0.3-0.2,0.5c0.2,1.3,0.4,2.5,0.6,3.8
		c2.9,13.1,7.8,25.3,15.8,36.2c5.5,7.5,12.4,13.5,20.1,18.6c7,4.7,12.4,10.8,16.5,18.1c0.4,0.7,0.9,1.5,1.6,2.6
		c1.1-2.4,1.2-4.2-0.2-5.9c-1-1.3-1.8-2.7-2.7-4c-4.4-6.2-10.1-10.9-16.3-15.1C108.1,153.8,100.4,144.7,94.8,133.8z"/>
	<path d="M139,22.7c-1.2-0.8-2.5-1.7-3.7-2.5c-7.2-4.6-14.9-8.3-22.7-12c-4.8-2.3-9.1-5.1-12.6-8.4h-4.1c4.3,4.5,9.4,8.1,15.2,10.8
		c8.4,4,16.7,8,24.5,13.1C137.4,25,137.5,24.9,139,22.7z"/>
	<path d="M66.6,150.4c-0.8-0.5-1.5-0.8-2.3-1.3c-1.5,3.4-2.7,6.5-4.1,9.5c-1.5,3-3.3,5.9-5.1,9.1c0.8,0.5,1.5,0.8,2.3,1.3
		C61.4,163.1,64.6,157.1,66.6,150.4z"/>
	<path d="M72,153.1c-0.2-0.2-0.5-0.4-0.7-0.5c-0.4-0.2-0.7-0.3-1.1-0.4c-3.2,6.4-6.4,12.6-9.6,19c0.4,0.3,1.1,0.7,1.6,1.1
		C65.4,169.4,71.5,157.4,72,153.1z"/>
	<path d="M65.1,22.3c-0.7,2-0.5,2.2,1.7,3.1c0.1-0.2,0.3-0.4,0.4-0.6c0.3-0.7,0.5-1.3,0.8-2c2.6-7.5,3.4-15.2,3.1-22.9h-2.8
		c0,1,0.1,2.1,0.1,3.1C68.2,9.5,67.3,16,65.1,22.3z"/>
	<path d="M74.5,3.7c-0.1,7.7-1.4,15.3-4.2,22.5c-0.7,1.8-0.5,2.1,1.7,2.9c0.3-0.5,0.6-1.1,0.8-1.6c2.5-6.1,3.8-12.5,4.3-19.1
		c0.2-2.9,0.2-5.7,0.1-8.5h-2.8C74.5,1.1,74.5,2.4,74.5,3.7z"/>
	<path d="M86.9,83c0.1-0.5,0.2-0.9,0.3-1.3c0.3-2.9,0.5-5.9,1-8.8c3.5-18.6,10.4-35.7,22.9-50.2c1.5-1.8,3-3.5,4.5-5.3
		c0.3-0.4,0.5-0.9,0.8-1.5c-0.8-0.4-1.4-0.7-2.4-1.2c-3.5,4.2-7,8-10,12.2c-7.7,10.7-12.9,22.6-16.4,35.2C86,67.8,85,73.6,84.4,79.5
		C84.2,82,84.4,82.3,86.9,83z"/>
	<path d="M80.8,2.4c0,9.3-1.5,18.3-5,26.9c-0.3,0.7-0.5,1.5-0.8,2.3c0.8,0.5,1.4,0.8,2.1,1.2c0.3-0.4,0.4-0.5,0.5-0.6
		c0.2-0.4,0.4-0.7,0.5-1.1c3-7.2,4.8-14.7,5.2-22.5c0.2-2.9,0.2-5.8,0.1-8.7h-2.8C80.8,0.7,80.8,1.5,80.8,2.4z"/>
	<path d="M43.5,0.3c0.1-0.1,0.3-0.3,0.4-0.4H42c0.2,0.3,0.5,0.6,0.7,0.9C43.1,0.5,43.3,0.4,43.5,0.3z"/>
	<path d="M81,78.9c1-8.2,2.6-16.1,5.2-23.8c2.6-7.7,6-15,9.8-22.1c3.9-7.2,9.4-13.2,14.8-19.6c-2.2-1.7-2.3-1.7-3.6-0.2
		c-2.9,3.4-6,6.7-8.5,10.3c-7.4,10.4-12.7,21.8-16.2,34c-1.6,5.6-2.6,11.3-3.8,17.1C78.2,77.3,78.5,77.7,81,78.9z"/>
	<path d="M75.1,73.3c1.4-5.7,2.5-11.5,4.3-17.1c1.8-5.6,3.9-11.2,6.3-16.6c2.5-5.4,5.3-10.6,8.6-15.5c3.2-4.9,7.1-9.3,10.9-14.1
		c-0.8-0.4-1.4-0.8-2-1.2c-0.4,0.2-0.6,0.3-0.8,0.5c-3.3,4.1-6.8,8.1-9.9,12.3c-4.1,5.7-7.2,11.9-10.1,18.2
		c-4.3,9.6-7.5,19.6-9.3,29.9C72.8,71.8,73.1,72.4,75.1,73.3z"/>
	<path d="M41.6,8.5c10,13,22.6,23,36.6,31.3c0.3,0.2,0.7,0.2,1.3,0.4c0.3-0.8,0.6-1.5,1-2.3c-1.6-1-3-1.9-4.4-2.7
		C63.7,27.4,52.6,18.2,43.7,6.5c-1.7-2.2-3.2-4.4-4.7-6.7h-3.4C37.5,2.8,39.4,5.7,41.6,8.5z"/>
	<path d="M75.7,45.6c0.4,0.2,0.8,0.4,1.4,0.6c0.3-0.9,0.6-1.6,0.8-2.2c-0.3-0.3-0.4-0.5-0.6-0.7c-0.8-0.5-1.6-1.1-2.4-1.5
		C62.9,34.5,52,26,42.8,15.3c-4.2-4.9-7.9-10.1-11-15.5h-3.3c4,7.3,9,14.1,14.9,20.4C52.8,30.4,63.7,38.6,75.7,45.6z"/>
	<path d="M51.1,267.1c0-0.5-0.1-0.9-0.1-1.4c-0.8-5.5-1.7-10.9-2.3-16.4c-0.9-7.8-0.4-15.5,1.2-23.1c1.5-7,4.3-13.4,9.1-18.8
		c5.6-6.3,12.7-9.9,20.8-11.6c2.3-0.5,2.2-0.5,2.3-3.1c-0.5,0-0.8,0-1.1,0c-0.8,0.1-1.6,0.2-2.4,0.4c-16.8,3.9-27.1,14.4-31.2,31
		c-3.4,13.6-2.1,27.3,0.5,40.9C48.3,266.7,48.9,267.1,51.1,267.1z"/>
	<path d="M272.8,199.7c-1,0.1-2.1,0.2-3.1,0.4c-9.8,1.7-14.6,6.9-15.9,17.3c-0.3,2,0.7,3.4,2.4,4.8c0.2-1.5,0.2-2.7,0.4-3.9
		c0.4-2.2,0.8-4.4,1.5-6.5c1.1-3.3,3.4-5.7,6.6-7.2c2.9-1.3,5.9-1.8,9-2.1c0.8-0.1,1.5-0.2,2.3-0.3
		C275.1,199.9,274.7,199.6,272.8,199.7z"/>
	<path d="M291.9,244.1c2.2,1.4,2.3,1.4,3.7-0.3c2.6-3.1,5.1-6.4,7.6-9.6c0.9-1.2,1.7-2.5,2.6-4c-0.7-0.6-1.4-1.1-1.9-1.6
		C299.7,233.9,295.9,239,291.9,244.1z"/>
	<path d="M412.4,280.6c-3.3-8.2-4.9-16.7-4.2-25.6c0.3-4.2,1.2-8.2,2.3-12.2c1.5-5.7,1.7-11.5,0.9-17.4c-1-7.2-3.5-13.9-6.9-20.3
		c-7.2-13.6-17-25.1-28-35.7c-0.2-0.2-0.5-0.3-0.9-0.5c-0.3,2.4,0.4,4.1,2,5.7c3.3,3.3,6.4,6.7,9.4,10.2
		c6.6,7.7,12.4,15.9,16.6,25.1c3.7,8,6,16.4,5.2,25.3c-0.3,3.1-1,6.2-1.7,9.2c-3.2,12.6-2.3,24.9,2.5,36.9c0.1,0.2,0.2,0.4,0.2,0.6
		h3.1C412.8,281.5,412.5,281,412.4,280.6z"/>
	<path d="M483,245.6c2.9-4.8,5.5-9.7,7.6-15c0.8-2.1,0.8-2.2-1.5-3.7c-0.3,0.7-0.6,1.3-0.9,1.9c-1.4,3.1-2.7,6.3-4.4,9.3
		c-2.8,5.1-5.9,10.1-8.9,15.1c-5.4,9.1-9.7,18.6-12.1,28.7h2.9c1.6-6.6,4-12.9,7.2-18.9C476.1,257.1,479.6,251.3,483,245.6z"/>
	<path d="M536.1,259.4c-0.1-5.2,0.7-10.3,1.5-15.5c0.5-3.5,1.1-7,1-10.5c-0.2-8.6-3.5-16.1-9-22.7c-6.3-7.6-14.3-13-22.8-17.7
		c-0.3-0.2-0.7-0.3-1.3-0.5c-0.4,2.3,0.6,3.4,2.2,4.3c6.8,3.9,13,8.4,18.3,14.2c4.7,5.2,8,11.1,9.3,18.1c0.9,5,0.4,9.9-0.6,14.8
		c-1.4,7.6-2,15.2-1.1,22.9c0.6,5.4,1.9,10.4,3.9,15.2h3.1C537.7,274.9,536.2,267.4,536.1,259.4z"/>
	<path d="M300.2,247.9c3.7-4.2,7.1-8.4,10-13.3c-0.6-0.7-1.1-1.3-1.7-2c-3.8,5-7.3,9.6-10.9,14.3
		C298.6,247.3,299.4,247.6,300.2,247.9z"/>
	<path d="M292.5,233.3c-2.2,2.8-4.5,5.4-6.8,8.1c2.5,1.4,2.6,1.5,4-0.3c3.4-4.2,6.7-8.5,10-12.8c0.5-0.6,0.8-1.3,1.3-2.2
		c-0.7-0.6-1.3-1.1-2-1.7C296.6,227.7,294.6,230.6,292.5,233.3z"/>
	<path d="M148.8,278.6c2.5-0.5,8.3-3.5,9.9-5.2c-0.5-0.6-1-1.1-1.5-1.7c-2.9,1.4-5.4,2.7-7.9,4C147.9,276.3,147.9,276.7,148.8,278.6
		z"/>
	<path d="M371.9,81.1c0.8-1.5,1.6-3,2.3-4.5c3.5-7.8,5.3-16,6.2-24.5c0.1-1.3,0-2.7,0-4c-2.3-0.2-2.5,0-2.7,1.9
		c-0.2,1.7-0.3,3.5-0.6,5.2c-1.3,9.1-3.8,17.9-8.6,25.9c-0.2,0.4-0.4,0.8-0.7,1.5C370.6,83.2,370.8,83.2,371.9,81.1z"/>
	<path d="M264,234c0.8,2.9,1.8,5.2,4.4,6.5c2.6,1.4,5,3.1,7.7,4.5c12.4,6.5,25.6,10.2,39.4,12.2c2.1,0.3,4.2,0.5,6.4,0.7
		c0.1-2.6-0.1-2.8-2.1-3.1c-4.2-0.6-8.4-1.1-12.5-2c-15.2-3.2-29.4-8.6-41.9-18.1C265,234.5,264.6,234.4,264,234z"/>
	<path d="M312.8,122.7c-0.1,0.1-0.3,0.3-0.4,0.4c3,4.3,5.5,9,9.3,12.6c11,10.4,22.6,20.1,34.8,29c7.8,5.7,12.9,13.3,14.5,22.9
		c0.4,2.7,0.3,5.4,0.3,8.1c0,2,0.1,2,2.5,2.5c0.1-0.4,0.3-0.9,0.3-1.3c0.9-10.6-1.9-19.9-8.8-28c-2.9-3.5-6.6-6-10.2-8.7
		c-14.6-10.9-28.3-22.7-40.8-35.9C313.9,123.7,313.4,123.2,312.8,122.7z"/>
	<path d="M542.9,221.7c-3.1-9.4-9-16.7-16.3-23c-7-6-14.8-10.6-23-14.6c-0.5-0.2-1-0.4-1.6-0.6c0.8,3.2,1,3.5,3.3,4.7
		c7.6,3.9,14.8,8.5,21.2,14.3c4.1,3.7,7.6,7.8,10.3,12.6c5.2,9.1,6.3,18.8,4.3,29c-1.5,7.4-2.1,14.9-1.1,22.4
		c0.7,5.5,2.2,10.6,4.4,15.4h3.2c-3.4-7-5.2-14.7-5.2-23c0-5.8,1.1-11.4,2-17.1C545.5,235.1,545,228.3,542.9,221.7z"/>
	<path d="M415.2,86.8c-6.8-0.4-13.5,0.7-20.2,2.1c-2.4,0.5-4.8,0.9-7.5,1.5c1.9,1.6,3.5,2.5,5.7,1.8c0.6-0.2,1.3-0.2,1.9-0.4
		c6.8-1.4,13.6-2.7,20.7-2.2c5.9,0.4,11.5,1.9,16.7,4.7c6,3.3,10.8,7.9,14.4,13.7c1.1,1.8,1.3,1.8,3.5,0.9c0-0.2,0-0.5-0.1-0.7
		c-0.2-0.5-0.5-1-0.8-1.5C441.6,94.2,430,87.7,415.2,86.8z"/>
	<path d="M399.4,81.7c-7.3,1.4-14.6,2.9-22,3.3c-0.5,0-1,0.3-1.5,0.4c2.1,0.9,4,2.4,6.3,2.1c3.4-0.4,6.8-0.9,10.2-1.5
		c6.8-1.2,13.6-2.8,20.6-2.6c17.4,0.4,30.9,7.7,39.9,22.8c0.4,0.7,0.8,1.3,1.4,2.1c0.8-0.6,1.4-1.1,2-1.6c-0.3-0.8-0.6-1.4-0.9-1.9
		c-5.8-10.1-14.1-17.3-25.1-21.3C420.3,79.8,409.9,79.8,399.4,81.7z"/>
	<path d="M534.8,85.5c-0.3-0.7-0.4-1.5-0.8-2.2c-1.3-2.4-2.5-4.9-3.9-7.1c-8.5-12.9-20.6-20.7-35.5-24.4c-7.7-1.9-15.4-2.6-23.3-1
		c-4.8,1-9.3,2.8-13.8,4.9c-10.5,4.9-20.3,11.2-29.8,17.8c-2,1.4-3.9,2.8-6.2,4.4c2.2,0.9,3.8,1,5.4-0.3c0.6-0.5,1.2-0.8,1.8-1.3
		c9.3-6.5,18.9-12.5,29.1-17.6c10.3-5.2,21.1-7.3,32.5-5c18.5,3.8,32.7,13.3,41.1,30.6C532.1,86.1,532.2,86.1,534.8,85.5z"/>
	<path d="M489.2,57.1c-9.2-1.7-18.1-0.8-26.7,3.3c-1.3,0.6-2.6,1.2-3.9,1.8c-9.5,4.6-18.3,10.3-26.9,16.2c-0.6,0.4-1,0.9-1.6,1.4
		c2.3,1.5,2.4,1.6,4.2,0.3c1-0.7,2-1.3,3-2c8.5-5.6,17.1-11,26.4-15.1c6.5-2.9,13.3-4.4,20.5-3.6c17.7,2,31.7,9.8,40.5,25.8
		c1,1.8,1,1.8,3.5,0.9c-0.3-0.8-0.6-1.5-0.9-2.1c-2-3.9-4.4-7.4-7.4-10.6C511.6,64.3,501.1,59.3,489.2,57.1z"/>
	<path d="M147.9,262.4c-1,0.4-1.1,1.1-0.3,3.2c0.8-0.4,1.6-0.9,2.7-1.4C149.5,263.1,149.3,261.8,147.9,262.4z"/>
	<path d="M334.7,108c14.5,15,24,32.6,27.9,53.1c0.4,2.2,1.7,3.4,3.5,4.6c0.1-0.4,0.2-0.7,0.1-0.9c-0.3-1.8-0.5-3.6-0.9-5.4
		c-4.6-22.5-15.7-41.4-32.1-57.2c-1.8-1.7-3.7-1.8-6.2-1.8c0.6,0.6,0.8,1,1.2,1.3C330.4,103.8,332.6,105.8,334.7,108z"/>
	<path d="M314.6,99c2.5,2.1,5,4.1,7.4,6.2c15.7,13.7,27.4,30.1,32.9,50.4c0.5,2,1.9,3,4.1,3.9c-0.8-3-1.4-5.6-2.2-8.2
		c-6.6-20.9-19.4-37.4-36.1-51.1C319.3,99,316.9,98.6,314.6,99z"/>
	<path d="M309.1,68.4c0.8-2,0.3-3.5-0.9-5.2c-0.3,0.5-0.5,0.9-0.7,1.2c-2.5,6.2-4.5,12.5-5.7,19c-1.3,7.3-1.8,14.6-0.8,21.9
		c1.3,9.7,5.1,18.4,10.8,26.3c2.8,3.9,5.5,8.1,7.6,12.5c7.2,14.6,8.4,30,5.6,45.9c-1.3,7.4-3.5,14.6-6.4,21.6
		c-1,2.3-0.8,2.6,1.5,3.7c0.4-0.9,0.8-1.7,1.2-2.6c3.8-9.4,6.5-19.1,7.5-29.2c1.2-12.4-0.1-24.4-4.7-36c-2.7-6.8-6.5-12.8-10.7-18.7
		c-8.7-12-11.3-25.5-9.5-40C304.8,81.8,306.6,75,309.1,68.4z"/>
	<path d="M284,265.1c2.3,3.7,4.3,6.9,6.4,10.3c0.9-0.3,1.6-0.6,2.6-1c-1.3-2.2-2.6-4.1-3.6-6.2C288.3,266.1,286.6,265.4,284,265.1z"
		/>
	<path d="M257.2,228.1c-2-2.6-4-5.2-5.7-8c-5.4-8.9-8.7-18.7-11.2-28.7c-0.2-0.9-0.4-1.8-0.8-3.2c-1.7,1.9-2.3,3.6-1.6,5.6
		c1.4,4.4,2.6,8.9,4.2,13.3c2.7,7.7,6.5,14.9,11.6,21.4c1.6,2,3.1,4.1,4.3,6.3c4.2,7.3,5.6,15.2,5.4,23.5
		c-0.1,7.3-1.4,14.5-3.5,21.5c-0.3,1.2-0.5,1.8-0.1,2.2h2.4c0.2-0.4,0.3-0.9,0.4-1.3c2.6-8.7,4.1-17.6,3.6-26.7
		C265.8,244.4,263,235.7,257.2,228.1z"/>
	<path d="M250.9,155.2c4.1-5.1,8.3-10.1,12.4-15.2c1.5-1.8,1.4-1.9-0.3-4.1c-0.6,0.7-1.1,1.3-1.5,1.8c-2.4,2.9-4.7,5.9-7.1,8.8
		c-8.8,10.3-17,21-23.7,32.8c-6.7,11.7-11.8,23.9-13.7,37.4c-0.6,4.1-0.9,8.1,0.8,12c0.6,1.5,1,3,1.6,5c0-4.4-0.3-8.4,0-12.3
		c0.9-11.1,4.1-21.5,8.9-31.4C234.4,177.4,242.2,166,250.9,155.2z"/>
	<path d="M173.2,279.8c-9.5-8.2-18-17.2-24.9-27.7c-0.2-0.3-0.6-0.6-1-1c-0.5,4-0.5,4.1,1.5,6.9c1.2,1.6,2.4,3.2,3.6,4.8
		c5.6,7,11.9,13.2,18.6,19.1h4.4C174.8,281.2,174,280.5,173.2,279.8z"/>
	<path d="M231.9,207.4c-1.2,2.2-1.5,4.1-0.7,6.2c3.4,8.4,7.7,16.3,13.4,23.4c4.2,5.2,6,11.2,6.3,17.7c0.2,5.5-0.3,11-1.6,16.4
		c-0.5,2.2-0.3,2.4,1.8,3.3c0.1-0.1,0.2-0.2,0.3-0.4c0.2-0.4,0.3-0.9,0.4-1.4c1.5-5.8,2.1-11.6,1.9-17.6c-0.2-7.5-2.4-14.3-7.1-20.2
		c-6.1-7.5-10.5-16-13.8-25.1C232.7,209.2,232.4,208.5,231.9,207.4z"/>
	<path d="M235.3,197.3c-1.3,2-1.9,3.6-1.2,5.7c3.5,11.1,8.5,21.5,15.8,30.7c4.7,5.9,6.8,12.7,7.3,20.2c0.4,7.4-0.5,14.7-2.5,21.8
		c-0.6,2.2-0.4,2.5,1.9,3.2c0.3-0.9,0.6-1.8,0.9-2.7c2-7.3,3-14.7,2.6-22.3c-0.4-8.2-2.9-15.7-7.9-22.2c-2-2.7-4-5.4-5.8-8.2
		c-4.6-7.3-7.6-15.3-10.1-23.5C236,199.3,235.7,198.5,235.3,197.3z"/>
	<path d="M222.2,246.3c-0.2,0.1-0.3,0.1-0.5,0.2c0.4,2.4,0.1,4.8,1.9,7c2,2.5,3.8,5.2,5.7,7.7c6,7.6,12.4,14.8,20,20.8h4.8
		c-4.1-2.9-7.9-6.2-11.5-9.8c-7.3-7.4-13.6-15.5-19.3-24.1C223.1,247.4,222.6,246.9,222.2,246.3z"/>
	<path d="M465.4,22.5c5.3-0.6,10.4-1.7,15.3-3.8c2-0.8,2.2-1.3,1.3-3.5c-2.2,0.8-4.3,1.7-6.5,2.3c-8.6,2.7-17.4,2.8-26.4,1.9
		c-3.5-0.4-7.1-0.5-10.5,0c-6.9,0.9-12.3,4.7-16.9,9.7c-3.7,4.1-6.7,8.8-9.1,13.8c-5.1,10.4-8.1,21.4-10.2,32.6
		c-0.2,0.9-0.3,1.7-0.4,2.7c2.6,0.3,2.6,0.3,3.1-1.5c0.1-0.5,0.2-0.9,0.3-1.4c1.5-7.7,3.4-15.3,6.2-22.7c2.6-7.1,5.9-13.8,10.7-19.8
		c6.7-8.4,15.3-12.3,26.1-10.9C454.1,22.9,459.7,23.1,465.4,22.5z"/>
	<path d="M274.1,251c13.8,7,28.6,11,43.9,12.8c1.6,0.2,3.3,0.3,4.9,0.4c0.2-2.5,0.2-2.6-1.8-2.9c-3.1-0.5-6.2-0.7-9.3-1.2
		c-14.8-2.5-29-7-42-14.7c-0.5-0.3-1.1-0.5-2-0.9c-0.2,2.2,0.3,3.5,2,4.3C271.3,249.4,272.6,250.3,274.1,251z"/>
	<path d="M269.8,266.8c2.8,3.9,5.3,8,8,11.9c0.3,0.5,0.7,1,1.1,1.4c0.5-0.2,0.9-0.4,1.2-0.6c0.3-0.2,0.6-0.5,1-0.9
		c-3.6-6.1-7.4-11.8-12-17.7C268.4,263.5,268.6,265.1,269.8,266.8z"/>
	<path d="M273.2,260.5c3.8,5.8,7.5,11.2,11.2,16.9c0.7-0.3,1.4-0.6,2.7-1.1c-3.1-4.7-5.9-9.1-8.8-13.3
		C277.2,261.5,275.2,261.1,273.2,260.5z"/>
	<path d="M309.5,271.6c-2-0.7-3.4-1.1-5-0.1c-4.5,2.9-9.4,4.8-14.4,6.4c-3.2,1-6.3,2.3-9.2,3.9h6.8c1.6-0.7,3.3-1.2,4.9-1.8
		c5.2-1.6,10-3.9,14.5-6.9C307.8,272.9,308.4,272.4,309.5,271.6z"/>
	<path d="M202.9,213.2c-1-2.1-2-4.1-3.1-6.2c-0.2,0-0.4,0.1-0.5,0.1c-0.6,2.6-0.1,5,1,7.5c9.3,21.1,13.9,43,11.2,66.1
		c0,0.4-0.1,0.8-0.2,1.2h2.9c1.3-8.6,1.2-17.2,0.2-25.9C212.9,241.1,209.1,226.9,202.9,213.2z"/>
	<path d="M225.1,281.9c0-0.1-0.1-0.2-0.1-0.3c-0.3-0.8-0.7-1.5-1-2.3c-0.4,0.9-0.7,1.8-0.9,2.6H225.1z"/>
	<path d="M205.1,281.9h2.9c1-6.4,1.2-12.8,0.8-19.4c-0.8-14.4-4-28.3-9.4-41.7c-0.3-0.7-0.6-1.4-1.2-2.5c-0.8,2.5-1.2,4.3-0.4,6.4
		c6.1,16.6,9.3,33.6,7.9,51.3C205.6,278,205.4,280,205.1,281.9z"/>
	<path d="M174.3,258.6c0.4-0.6,0.7-1.1,1.1-1.5c6.2-7.2,11.4-15,15.2-23.7c5.4-12.2,7-24.8,4.8-38c-2.2-13.2-8.1-24.8-16.1-35.5
		c-1.4-1.8-3.5-2.5-5.7-3.2c0.3,0.8,0.7,1.4,1.2,2c5,6.2,9.3,12.8,12.5,20.1c7.5,16.8,8.4,33.8,1.6,51c-3.6,9.1-8.8,17.2-15.1,24.6
		c-0.6,0.7-1.1,1.5-1.7,2.2c0.4,0.5,0.7,0.8,0.9,1.1C173.2,258,173.5,258.2,174.3,258.6z"/>
	<path d="M186.2,185.3c-3.3-9.1-8.3-17.3-14.4-24.8c-4.6-5.6-9.2-11.1-15.6-14.6c-0.5-0.2-0.9-0.4-1.5-0.7c-0.2,1.5,0.6,2.2,1.4,3
		c3.2,3.1,6.5,6.2,9.5,9.5c6.5,7,11.9,14.8,15.9,23.6c6.9,15.2,7.7,30.7,1.6,46.4c-3.3,8.4-8.2,15.9-14,22.8c-1.6,1.9-1.5,2,0.9,3.8
		c0.3-0.4,0.5-0.9,0.9-1.4c5.8-6.6,10.5-13.9,14.1-21.9C191.3,215.9,191.7,200.7,186.2,185.3z"/>
	<path d="M179.9,277.4c-3.1-2.7-6.1-5.4-9.1-8.2c-8.7-8.3-16.3-17.4-21.6-28.2c-0.2-0.3-0.4-0.6-0.8-1.1c-0.9,2.6-0.9,4.8,0.6,7
		c1.3,1.7,2.3,3.7,3.5,5.5c6.6,9.6,14.6,18,23.5,25.5c1.5,1.3,3,2.7,4.5,4h4.1C183.2,280.4,181.6,278.9,179.9,277.4z"/>
	<path d="M225.1,261.1c-0.5-0.7-1-1.3-1.9-2.4c-0.1,3,0.1,5.2,1.8,7.1c3.7,4.1,7.2,8.4,11,12.4c1.2,1.3,2.5,2.6,3.8,3.8h4.3
		c-1.3-1.1-2.5-2.2-3.7-3.4C234.8,273.2,229.8,267.3,225.1,261.1z"/>
	<path d="M225.7,271.9c-0.4-0.4-0.8-0.8-1.3-1.3c-0.8,2.4-0.3,4.3,1.4,5.8c1,0.9,1.8,2,2.7,3c0.8,0.8,1.6,1.7,2.4,2.5h4.1
		C231.7,278.7,228.6,275.4,225.7,271.9z"/>
	<path d="M217.7,281.9h2.9c1.1-8,1.1-16,0.4-24.1c-1.1-12.1-3.6-23.9-7.7-35.3c-3.1-8.9-7-17.5-12.2-25.4c-0.5-0.8-1.1-1.5-1.9-2.6
		c-0.2,2.9-0.1,5,1.2,7c1.7,2.6,3.2,5.4,4.5,8.2c10,21.4,15,43.8,13.3,67.5C218.1,278.7,217.9,280.3,217.7,281.9z"/>
	<path d="M340.7,260.4c-1.5-12.2-5.9-23.2-13.3-33c-4.6-6.1-10.3-11.1-16.2-15.9c-9.6-7.9-18.4-16.6-25.6-26.9
		c-6.9-9.8-12.1-20.3-14.4-32.2c-0.3-1.4-0.5-2.8-0.8-4.4c-2.2,1.3-2.4,2.8-2.1,4.8c1.7,8.5,4.7,16.4,8.9,24
		c7.8,14,18.5,25.6,30.8,35.9c5.8,4.8,11.6,9.6,16.3,15.5c8.6,11,13.2,23.5,14,37.4c0.3,5.6,0,11-0.7,16.4h2.9
		C341.4,274.9,341.5,267.7,340.7,260.4z"/>
	<path d="M15.8,172.5c-0.1,0.1-0.2,0.3-0.4,0.4c1.7,2.1,3.5,4.1,5.1,6.3c1.7,2.1,3.3,4.3,4.9,6.5c1.6,2.2,3.1,4.5,4.5,6.8
		c1.4,2.3,2.8,4.7,4,7.1c1.3,2.3,2.4,4.8,3.6,7.3c1.8-2.4,1.9-2.5,0.8-4.8c-4.3-9.1-9.9-17.3-16-25.2
		C20.7,174.5,18.4,173.3,15.8,172.5z"/>
	<path d="M112.2,4.2c9.5,4.7,19.2,9.2,28,15.2c1.7,1.1,1.8,1,3.4-1.1c-1.3-0.9-2.5-1.7-3.7-2.5c-8-5.2-16.5-9.4-25.1-13.5
		c-1.6-0.8-3.1-1.6-4.6-2.5h-5.1C107.3,1.5,109.7,3,112.2,4.2z"/>
	<path d="M626.4,98c-13.6-7.8-23.4-19.2-30.3-33.1c-5.5-11-8.5-22.7-10.6-34.7c-1.4-8-3.3-16-5.8-23.8c-0.3-0.8-0.6-1.5-1-2.4
		c-2.1,1.8-2.2,1.9-1.6,3.8c2.8,9,4.7,18.3,6.4,27.6c2.5,13.3,6.7,26,13.7,37.7c6.9,11.4,16,20.7,27.6,27.4c0.9,0.5,1.9,1,3,1.5
		c0.2-0.8,0.3-1.3,0.3-1.8v-0.4C628.1,99,627.6,98.7,626.4,98z"/>
	<path d="M1.9,167.7c4,4.4,8.2,8.7,12.1,13.3c8.2,9.8,15.1,20.4,19.4,32.5c0.2,0.5,0.4,1,0.8,1.7c1.2-2,1.6-3.7,0.8-5.8
		c-6.6-15.9-16.9-29.2-28.8-41.5c-1.4-1.5-3.4-2.2-5.4-2.9C0.4,166.5,1.3,167,1.9,167.7z"/>
	<path d="M456.8,44.5c-0.2-0.2-0.3-0.4-0.5-0.5c-8.5-5.8-17.8-9.7-27.7-12.3c-1.6-0.4-2.6,0.3-3.4,2c0.6,0.2,0.9,0.4,1.3,0.5
		c9.4,2.4,18.3,6,26.6,11.2C454.7,46.3,455.3,46.2,456.8,44.5z"/>
	<path d="M138.9,34.6c-10,8-16.6,18.1-19.4,30.6c-0.5,2.1-0.4,3.9,1.8,5.5c0.2-0.8,0.4-1.3,0.5-1.8c1.6-10.5,6.1-19.5,13.5-27
		c2.9-2.9,6.2-5.5,9.4-8.2c5.9-5,11.1-10.6,14.8-17.5c2.8-5.2,4.3-10.7,4.3-16.4h-2.9c0,2.3-0.3,4.7-0.9,7
		c-1.2,5.1-3.6,9.5-6.7,13.7C149.2,26.1,144.1,30.4,138.9,34.6z"/>
	<path d="M605.5,242.1c-6.4-6.3-11.2-13.7-14.7-22c-0.9-2.2-1.8-4.4-2.8-6.9c-1.9,2.3-2,2.6-1.3,4.6c2.3,6.1,5,12,8.9,17.2
		c2.6,3.5,5.6,6.8,8.6,10c3.1,3.4,6.3,6.8,8.7,10.8c2.2,3.7,3.3,7.5,3.3,11.9c-0.1,4.1-0.8,8.2-2.3,12c-0.3,0.8-0.6,1.6-1,2.3h3.2
		c0.8-2.2,1.5-4.4,2-6.7c2.2-9.3,0.4-17.6-5.6-25C610.4,247.4,608.1,244.7,605.5,242.1z"/>
	<path d="M536.7,132.1c17.5-4.5,35.2-6.3,53.3-4.5c11.7,1.1,23,4,33.7,8.8c1.3,0.6,2.6,1.1,4.1,1.8c0.5-2.7,0.5-2.8-1.4-3.7
		c-5.7-2.6-11.5-4.7-17.6-6.4c-16-4.3-32.4-4.9-48.8-3.2c-13.6,1.4-26.9,4.6-39.9,9c-0.8,0.3-1.6,0.6-2.8,1.1
		c2.4,1.1,4.3,1.5,6.5,0.8C528.1,134.4,532.4,133.2,536.7,132.1z"/>
	<path d="M564.9,102.1c0.2,4.1,1.4,8,3.1,11.7c0.9,1.9,1.3,2,3.7,1.3c-0.1-0.4-0.2-0.7-0.4-1.1c-3-5.7-4-11.9-3.7-18.3
		c0.2-3.1,0.2-6.2,0.1-9.3c-0.2-6.1-2.2-11.5-5.4-16.6c-2-3.2-4.9-4.6-8.7-5.2c0.3,0.5,0.3,0.6,0.4,0.7c0.4,0.4,0.8,0.7,1.3,1.1
		c4.2,3.6,7,8,8.5,13.3c1.1,3.9,1.4,7.8,1.2,11.9C564.8,95,564.7,98.6,564.9,102.1z"/>
	<path d="M488.1,137c-12.1,2.2-24.3,4.3-36.6,4.9c-15.2,0.7-30.2-0.1-45.1-3.4c-16.2-3.5-31.4-9.3-45.2-18.6c-0.4-0.3-0.9-0.5-1.9-1
		c1.3,2.6,2,4.8,4.3,6c2.4,1.3,4.7,2.8,7.1,4c19.8,10.2,41.1,14.9,63.2,15.9c17.3,0.7,34.5-1.1,51.5-4.5c8.2-1.6,16.5-2.3,24.8-1
		c9.8,1.4,18.8,5,27.1,10.5c1.9,1.3,2,1.3,4.2-0.5c-1.2-0.9-2.2-1.6-3.3-2.3C522.9,137,506.1,133.7,488.1,137z"/>
	<path d="M2.5,163c9.6,5.1,19.4,9.8,29.6,13.5c7.1,2.6,13.7,6,19.9,10.5c0.5,0.4,1.1,0.7,1.7,1.1c0.7-0.5,1.3-1,2.2-1.6
		c-0.8-0.7-1.3-1.2-1.9-1.6c-5.9-4.4-12.2-7.9-19.1-10.4c-10.8-4-21.3-8.7-31.4-14.2c-0.8-0.4-1.7-0.9-2.7-1.4
		C0.3,161.7,0.3,161.8,2.5,163z"/>
	<path d="M2.6,155.9c10.2,5.7,20.7,10.7,31.7,14.7c8.5,3.1,16.3,7.3,23.5,12.8c1.7,1.4,2.1,1.3,3.6-0.5c-0.1-0.1-0.1-0.3-0.2-0.4
		c-0.4-0.4-0.8-0.7-1.3-1.1c-6.9-5.5-14.4-9.8-22.6-12.8C25.4,164.3,14,159,3.1,152.9c-0.7-0.4-1.4-0.7-2.3-1.1
		C0.4,154.6,0.4,154.7,2.6,155.9z"/>
	<path d="M607.6,140.9c-2.3-2-4.8-2.5-7.7-2.6c0.5,0.4,1.1,0.9,1.6,1.3c2.8,2.5,5.7,4.8,8.5,7.4c6.4,6,11.6,13,16.3,20.3
		c0.4,0.7,1,1.3,1.6,2.3c0.1-0.5,0.2-1,0.2-1.5v-1.6c-0.1-1.4-0.6-2.6-1.5-3.9C621.1,154.7,615,147.3,607.6,140.9z"/>
	<path d="M46.1,37.2c-9.2,3-18,7-26.3,12.1C13.1,53.5,7.2,58.5,2,64.4c-0.9,1-1.4,2.1-1.5,3.3v1c0,0.5,0.1,1.1,0.3,1.7
		c0.7-0.7,1-1.1,1.4-1.6c5.4-7,12-12.6,19.5-17.2C29.5,46.7,38,43,46.8,40c1-0.4,2.1-0.8,3.1-1.2C48.5,36.7,48.2,36.6,46.1,37.2z"/>
	<path d="M74.7,52.1c1.3-2.2,1.3-2.3-0.6-3.5c-0.9-0.6-1.8-1.1-2.7-1.6c-9.3-5.6-18-12.1-25.9-19.7C37.1,19.1,30,10,24.6-0.2h-3.2
		c5,9.7,11.4,18.6,19.2,26.6c9.7,10.1,21,18.2,33.1,25.2C74,51.8,74.3,51.9,74.7,52.1z"/>
	<path d="M626.4,141.4c-3.6-1.6-7.1-3.3-10.8-4.6c-16.6-6.1-33.8-7.4-51.3-6c-11.5,0.9-22.8,3.2-33.9,6.4c-0.9,0.3-1.7,0.6-2.9,1
		c2,1.5,3.6,1.9,5.7,1.3c2.6-0.8,5.2-1.4,7.9-2c15.7-3.8,31.7-5.2,47.8-3.7c12.9,1.2,25.1,4.7,36.7,10.4c0.7,0.3,1.4,0.6,2.1,1
		c0.2-0.8,0.3-1.4,0.4-1.8V143C628.1,142.3,627.6,142,626.4,141.4z"/>
	<path d="M65.5,187.4c4.5-2.1,9.3-3.5,14.2-4.3c2.3-0.4,2.4-0.5,2-3c-0.7,0-1.2,0-1.8,0.1c-20.7,3-37.8,16.2-44.1,38.9
		c-3.2,11.6-3.4,23.4-2.1,35.2c0.2,2.1,0.5,4.3,0.8,6.4c0.3,2,0.9,2.2,3,1.8c-0.5-4.3-1-8.5-1.3-12.8c-0.9-10.3-0.3-20.5,2.6-30.4
		C43,204.8,51.6,193.9,65.5,187.4z"/>
	<path d="M101.7,280.7c-13.6-15.3-29.5-25.9-50-29.1c-0.3,2.6-0.1,2.8,2,3.2c6,1.2,11.8,3,17.3,5.6c10.3,4.9,19.1,11.9,26.8,20.2
		c0.4,0.4,0.8,0.9,1.3,1.3h1.1C100.7,281.5,101.1,281.1,101.7,280.7z"/>
	<path d="M24,281.9h3c0,0,0,0,0-0.1C25.1,281.1,24.6,281,24,281.9z"/>
	<path d="M63.3,195.7c5.2-3.2,10.7-5.3,16.7-6.3c2.4-0.4,2.5-0.6,2-2.9c-0.1-0.1-0.3-0.2-0.4-0.2c-0.2,0-0.5,0-0.7,0
		c-9.9,1.4-18.7,5.3-26.1,12.2c-7.9,7.4-12.1,16.7-14.1,27.2c-2.4,12.3-1.6,24.5,0.5,36.7c0.3,1.8,0.5,1.9,3.1,2.2
		c-0.1-0.9-0.2-1.6-0.2-2.3c-0.5-4.2-1.1-8.4-1.6-12.6c-0.9-8.9-0.4-17.7,1.7-26.4C47,211.7,52.9,202.2,63.3,195.7z"/>
	<path d="M120,158.3c0.2-0.6,0.4-1.2,0.6-1.8c3.2-13.6,4.2-27.3,2.2-41.2c-3-20.6-12.6-37.7-27.9-51.8c-0.4-0.4-1-0.7-1.5-1.1
		c-1.2,2.2-1.2,2.3,0.2,3.8c2.3,2.3,4.6,4.6,6.8,7.1c12.9,14.7,19.4,32,20.4,51.4c0.5,10.3-0.5,20.4-2.9,30.5
		C117.4,157.5,117.6,157.7,120,158.3z"/>
	<path d="M491.5,12.1c-0.7,7.2,0.2,13.8,3,20.2c0.7,1.5,1.1,1.5,3,0.4c-0.1-0.3-0.1-0.6-0.2-0.9c-2.3-5.2-3.3-10.6-3.1-16.3
		C494.2,13.8,493.3,12.8,491.5,12.1z"/>
	<path d="M226.2,6.2c-0.3,8.7-2.4,16.9-6.1,24.9c2.5,0.9,2.7,0.8,3.5-1c0.4-0.7,0.7-1.5,0.9-2.2c3.6-9.3,5-18.6,4.4-28.1H226
		C226.2,1.9,226.2,4,226.2,6.2z"/>
	<path d="M138.4,253.1c0.5-11.1,2.2-22.1,4.5-33c1.3-6,2.5-12,3.9-18c0.5-2.1-0.4-3.5-1.9-5c-0.2,0.8-0.4,1.4-0.5,2
		c-1.1,5.6-2.1,11.2-3.4,16.7c-3.2,13.7-5.4,27.5-5.6,41.5c-0.1,8,0.4,16,1.8,23.9c0,0.2,0.1,0.5,0.1,0.7h3
		C138.5,272.5,138,262.9,138.4,253.1z"/>
	<path d="M570.5,252.9c0.4,9.9,2.2,19.6,4.9,29.1h3c-1.5-5.5-2.8-11-3.6-16.6c-1.2-8.2-2.1-16.3-1.3-24.6c0.2-1.8,0.2-3.7,0.4-5.9
		c-2.1,1.6-3.3,3.2-3.3,5.6C570.6,244.6,570.4,248.7,570.5,252.9z"/>
	<path d="M586.4,223.9c-0.3,0.7-0.5,1-0.6,1.4c-0.6,2.4-1.3,4.8-1.8,7.2c-2.3,12.5-1.3,25,1.2,37.3c0.8,4.1,1.9,8.2,3,12.2h3
		c-2.9-10-5-20.1-5.6-30.6c-0.4-7.4,0.1-14.7,1.9-21.9C588.1,227.5,587.9,225.8,586.4,223.9z"/>
	<path d="M328.6,265.7c-0.6-9.8-3.4-18.8-8.6-27.1c-4-6.3-9.2-11.4-15-16.1c-7.5-6.1-14.7-12.6-21.1-19.9
		c-10.4-11.9-18.7-25.2-23.2-40.5c-0.2-0.6-0.5-1.1-0.7-1.7c-2.1,1.5-2.2,1.8-1.6,3.8c0.1,0.5,0.3,0.9,0.4,1.4
		c5.3,16.1,14.5,29.8,25.9,42.2c7,7.5,14.9,14,22.7,20.7c6.8,5.8,11.9,12.9,15,21.4c3.9,10.5,4.2,21.2,2.5,32.1h2.9
		C328.7,276.6,329,271.2,328.6,265.7z"/>
	<path d="M517.6,25.7c1.3,0.5,2.5,0.3,3.8-1.1c-0.8-0.4-1.4-0.8-2.1-1.1c-9.7-4.3-18.3-10.2-25.9-17.5c-2.1-2-4.2-4.1-6.2-6.3h-3.8
		c0.8,0.9,1.5,1.8,2.3,2.6c8.3,9.1,17.7,16.6,28.8,22C515.5,25,516.6,25.4,517.6,25.7z"/>
	<path d="M418.2,45c0.8,0.2,1.7,0.5,2.5,0.6c6.8,1.5,13.4,3.6,19.6,6.8c1.6,0.8,2.8,0.8,4.1-0.9c-0.3-0.2-0.5-0.4-0.7-0.5
		c-7.3-4-15-6.7-23.1-8.3C418.8,42.3,418.6,42.6,418.2,45z"/>
	<path d="M450.5,47.9c-0.5-0.4-0.7-0.7-1-0.9c-7.9-4.7-16.4-8-25.3-10c-1.7-0.4-2-0.1-2.8,2.1c0.5,0.2,1,0.4,1.5,0.5
		c8.4,1.8,16.4,4.8,23.9,9.1C448.2,49.6,449.3,49.3,450.5,47.9z"/>
	<path d="M486,6.7c-1,3.8-1.5,11.7-0.6,16.1c0.7,3.6,1.7,7.1,2.8,10.6c0.6,1.9,1,1.9,3,0.8c0-0.2,0.1-0.3,0.1-0.5
		c0-0.2-0.1-0.5-0.2-0.7c-3.1-7.3-3.7-15-2.9-22.8C488.3,8.3,487.4,7.5,486,6.7z"/>
	<path d="M98.9,168.3c-0.9,12.7-1.7,25.2-2.5,37.6c1.3-3.5,3.4-6.7,3.7-10.6c0.5-7.8,0.8-15.6,1.3-23.4
		C101.3,170.2,100.5,169.1,98.9,168.3z"/>
	<path d="M132.2,252.8c0.5-10.2,1.8-20.2,3.9-30.2c2-9.3,4.3-18.5,5.6-28c0.4-2.9,0-5.3-1.7-8.2c-0.2,1-0.4,1.6-0.5,2.1
		c-1.1,8.9-2.6,17.7-4.7,26.4c-3.4,13.9-5.4,27.9-5.7,42.2c-0.1,8.2,0.4,16.5,1.8,24.6c0,0.1,0,0.1,0,0.2h2.9
		C132.2,272.4,131.7,262.7,132.2,252.8z"/>
	<path d="M91.6,185.6c-0.5,10.9-1.9,21.6-3.7,32.4c-0.5,2.8,0.3,5.5,0.5,8.2c0.2,0,0.3,0.1,0.5,0.1c0.4-1.2,0.9-2.5,1.2-3.7
		c0.4-2,0.8-3.9,1-5.9c1.1-8.7,2.3-17.4,3-26.2c0.6-8.1,0.7-16.3,1-24.4c0.1-1.9-0.9-3-2.9-4.2c0,1.2,0,2.1,0,2.9
		C92,171.7,91.9,178.7,91.6,185.6z"/>
	<path d="M546.5,205.8c1.9-0.1,3.8-0.2,5.7-0.5c6.9-1,13.4-3.1,19.4-6.6c2-1.1,2.6-2.9,3-5.4c-9.6,6.9-20,9.8-31.5,9.8
		C544.2,205.7,544.5,205.9,546.5,205.8z"/>
	<path d="M86.6,248.4c0.4-1,0.7-1.8,1-2.6c4.7-13,9.4-26,14.2-39c3.3-8.8,6.8-17.4,10.3-26.1c0.8-2.1,0.6-2.5-1.8-3.1
		c-9.3,22.9-18.2,46-26.2,69.6C85.1,247.6,85.7,247.9,86.6,248.4z"/>
	<path d="M475.5,111.1c1.1-1.8,1.2-3.4-0.1-5.5c-0.4,0.6-0.7,1-0.9,1.4c-1.4,2.2-2.6,4.4-4.1,6.5c-5,6.4-11.4,10.4-19.7,10.9
		c-2.9,0.2-5.9,0.5-8.8,1.1c-8.3,1.8-15.4,6.1-21.9,11.4c-0.3,0.3-0.6,0.7-1.1,1.3c1.8,0.4,3.1,0.6,4.5-0.4c1.8-1.3,3.6-2.7,5.5-3.8
		c6.1-3.7,12.6-6.2,19.8-6.6c4.4-0.2,8.7-1,12.8-2.9C467.6,121.5,472,116.9,475.5,111.1z"/>
	<path d="M459.9,129.8c0.1,2.4,0,4.8,0.1,7.1c0,0.5,0.1,1,0.2,1.5c2.3,0.1,2.4,0.1,2.6-1.6c0.5-3.2,0.2-6.5-0.3-9.7
		C459.9,127.6,459.8,127.8,459.9,129.8z"/>
	<path d="M447.6,130.2c0,3,0,6,0,9.1c2.2,0.4,2.4,0.3,2.6-1.7c0.2-1.9,0.3-3.8,0.2-5.7C450.3,130.1,450,130,447.6,130.2z"/>
	<path d="M529.2,192.9c-10.2-8.2-21.6-14.2-33.7-19.2c-0.3-0.1-0.7-0.2-1.6-0.5c2.2,2.5,3.9,4.6,6.6,5.8c4.8,2.2,9.5,4.6,14.1,7.2
		c8.7,5,16.5,11,22.8,18.8c8,10,12,21.2,10.6,34.1c-0.3,2.9-0.8,5.7-1.3,8.5c-1.1,6.3-1.4,12.5-0.5,18.9c0.8,5.6,2.5,10.6,5,15.3
		h3.3c-4.4-7.6-6.3-16-5.9-25.1c0.2-4,0.8-7.9,1.5-11.9c2.3-12.9,0.4-25-6.6-36.2C539.8,202.7,534.9,197.4,529.2,192.9z"/>
	<path d="M453.8,130.5c-0.1,2.8,0,5.5,0,8.5c1.1,0.2,2.3,0.6,2.5-0.7c0.6-3,0.7-5.9,0-8.9C455,129.1,453.9,129,453.8,130.5z"/>
	<path d="M148.8,268.9c-1.7,0.9-1.7,1.1-0.7,3.5c2.1-1.1,4.1-2.1,6.4-3.3c-0.7-0.9-1.2-1.5-1.8-2.2
		C151.3,267.6,150,268.2,148.8,268.9z"/>
	<path d="M423.7,200.5c-0.7-0.3-1.4-0.5-2-0.8c-0.3,0.3-0.5,0.4-0.5,0.6c-1.1,4.5-2.3,8.9-3.3,13.5c-0.4,1.7,0.7,4.3,1.6,5.4
		C420.9,213,422.3,206.8,423.7,200.5z"/>
	<path d="M453.1,278.6c-3.9-3.8-7.5-7.8-11.5-11.5c-7.6-7-14.9-14.2-21-22.6c-0.3-0.4-0.6-0.7-0.9-1.1c-1.4,2.5-1.4,2.9,0.1,4.8
		c5.2,6.8,11.1,13,17.5,18.8c5.2,4.8,10.6,9.4,14.9,15h1.9C454.4,280.7,454.2,279.6,453.1,278.6z"/>
	<path d="M395.4,214.9c-5.1-3.8-10.5-7.1-16.2-9.9c-6.6-3.2-13.4-6.1-20-9.3c-8.9-4.3-17-9.8-23.5-17.5c-1.2-1.5-2.4-3-3.8-4.8
		c-0.6,3.6-0.6,4,1.2,6.2c3.6,4.4,7.8,8.2,12.5,11.5c6.7,4.8,14.1,8.2,21.6,11.4c10.3,4.5,20.3,9.5,29,16.8c0.3,0.3,0.8,0.4,1.4,0.7
		C397.7,217.7,397.1,216.1,395.4,214.9z"/>
	<path d="M458.8,252.1c-0.5-5-2.4-9.6-5-13.9c-2.6-4.3-5.9-8.1-9.4-11.8c-6.2-6.5-11.4-13.6-14.5-22.1c-0.6-1.7-1.8-2.2-3.4-2.4
		c-0.1,0.3-0.3,0.4-0.2,0.5c0.2,0.6,0.3,1.2,0.5,1.8c2,5.8,4.9,11.1,8.6,16c2.7,3.5,5.7,6.7,8.6,10c3,3.3,5.9,6.8,8.1,10.7
		c3,5.4,4.7,11,3.7,17.3c-0.6,3.4-1.8,6.6-3.9,9.5c-0.6-0.4-1-0.7-1.3-1c-0.3-0.3-0.6-0.7-0.9-1c0-0.3,0-0.5,0.1-0.6
		c0.2-0.4,0.3-0.7,0.5-1.1c2.9-5.3,3.1-10.8,1.1-16.5c-1.9-5.3-5-9.8-8.8-13.9c-6.9-7.3-13.4-14.9-17.4-24.2
		c-0.1-0.3-0.5-0.5-0.8-0.8c-1.2,3.1-1.3,3.7,0.1,6.1c1.8,3,3.5,6.1,5.6,8.9c3,3.9,6.4,7.6,9.7,11.3c3.9,4.5,7.6,9.1,9.2,15
		c1.1,3.8,0.9,7.6-0.6,11.3c-0.3,0.8-0.8,1.5-1.4,2.4c-1.9-1.7-3.6-3.2-5.2-4.7c-1.6-1.5-3.1-3-4.6-4.5c-1.6-1.6-3.1-3.2-4.6-4.9
		c-1.5-1.7-3-3.4-4.4-5.1c-1.3-1.7-2.6-3.4-3.9-5.2c-1.2-1.8-2.4-3.6-3.8-5.7c-0.7,2.8-0.3,4.9,1.1,7c6.5,9.3,14.4,17.1,22.7,24.7
		c3.2,3,6.3,6.1,9.5,9.2c0.4,0.4,0.9,0.8,1.4,1.3c1.2-2.2,1.2-2.2-1.1-5.7c0.4-0.7,0.9-1.6,1.4-2.4
		C458.3,262.7,459.4,257.6,458.8,252.1z"/>
	<path d="M464.5,248.1c-0.7-3-1.7-6-3-8.8c-2.4-5.5-6-10.2-10.1-14.5c-5.2-5.5-10.3-11.2-13.7-18.1c-0.7-1.5-2.1-1.7-3.9-1.9
		c0.4,1,0.6,1.7,1,2.4c2.1,4.4,4.7,8.5,7.9,12.3c2.8,3.2,5.7,6.3,8.5,9.5c7,8.3,11.9,17.4,11.2,29.2
		C465.3,253.3,465.6,252.6,464.5,248.1z"/>
	<path d="M439.8,273.8c-7.5-6.6-14.7-13.6-20.9-21.4c-0.3-0.4-0.5-0.8-0.8-1.6c-1.3,2.4-1.1,3.9,0.2,5.4c5.2,6,10.7,11.7,16.6,16.9
		c3.2,2.8,6.3,5.7,9.1,8.8h3.8C445.3,279,442.7,276.3,439.8,273.8z"/>
	<path d="M411.3,198.8c0.3-0.7,0.6-1.3,0.8-1.9c0.7-2.1,0.5-2.4-1.8-2.9C409.2,196.3,409.3,196.6,411.3,198.8z"/>
	<path d="M415.8,196.6c-0.7,2.1-1.2,4-1.8,5.7c-0.7,2,0.2,3.4,1.5,5.1c1-3.4,1.8-6.4,2.7-9.5C417.5,197.5,416.9,197.2,415.8,196.6z"
		/>
	<path d="M375.1,159.6c-0.2-0.1-0.4-0.2-0.8-0.3c0.2,2.2,0.6,4,2.3,5.7c5.4,5.4,10.7,10.8,15.7,16.5c6.9,7.9,12.8,16.6,17.2,26.2
		c5.7,12.6,7.5,25.4,3.6,39c-2.5,8.7-2.1,17.6,0.3,26.3c0.9,3.1,2,6.1,3.3,9h3.2c-1.2-2.4-2.2-4.9-3.1-7.5c-2-6.1-3.1-12.5-2.2-18.9
		c0.5-4.2,1.4-8.3,2.3-12.5c1.4-5.9,1.5-11.9,0.8-17.9c-1.1-8.4-4-16.1-7.9-23.5C401,185.3,388.6,172,375.1,159.6z"/>
	<path d="M498.2,233.7c4.7,6.5,8.3,13.6,11.3,21.1c0.3,0.8,0.7,1.5,1.2,2.5c0.9-0.7,1.5-1.1,2.2-1.7c-0.8-2.1-1.6-4-2.4-5.9
		c-5.6-12.4-12.9-23.6-23.3-32.4c-9.2-7.8-19.8-12.6-31.8-13.8c-8.8-0.9-17.3-2.8-25.6-6.2c-10.9-4.4-20.8-10.5-30.3-17.4
		c-0.7-0.5-1.4-1-2.1-1.4c-0.1,0.1-0.2,0.2-0.3,0.3c1,1.3,2.1,2.5,3,3.9c1.5,2.2,3.4,3.8,5.6,5.1c4.1,2.4,8.2,5,12.4,7.3
		c10.9,5.8,22.4,9.8,34.8,10.9c7.7,0.7,15.1,2.8,21.9,6.4C484.5,217.5,491.9,224.9,498.2,233.7z"/>
	<path d="M466.7,261.6c3-6.1,6.5-11.9,10-17.7c3.5-5.8,6.8-11.8,9.1-18.2c0.7-2.1,0.6-2.3-1.7-3.5c-0.3,0.7-0.5,1.3-0.8,1.9
		c-1.5,3.4-2.8,7-4.5,10.3c-2.9,5.3-6.2,10.5-9.2,15.7c-5.9,10.1-10.6,20.6-13.1,31.9h2.9C461,274.9,463.5,268.2,466.7,261.6z"/>
	<path d="M330.6,226.6c2-7.5,4.8-14.7,9-21.4c-0.4-0.4-0.7-0.7-1-0.9c-0.3-0.2-0.7-0.4-1.1-0.6c-0.3,0.3-0.5,0.4-0.6,0.5
		c-3.9,5.9-6.4,12.3-8.3,19C328.2,224.9,328.6,225.6,330.6,226.6z"/>
	<path d="M342.6,207c-0.7,1.1-1.3,2-1.9,2.9c-3.3,5.9-5.5,12.2-7.2,18.7c-0.6,2.2-0.3,3.9,1.6,5.7c2.1-9.3,4.7-18,9.8-25.9
		C344.1,207.9,343.5,207.5,342.6,207z"/>
	<path d="M382.2,213.7c-7.1-4.2-14.7-7.4-22.2-10.7c-10.1-4.5-19.3-10.3-27-18.4c-0.4-0.4-0.9-0.7-1.5-1.1c-0.8,2.7-0.8,3,0.9,4.7
		c5.1,5.1,10.8,9.5,17.3,12.8c6.2,3.2,12.7,6.1,19.1,9c9.9,4.6,19.4,9.8,27.3,17.5c0.3,0.3,0.6,0.5,1.2,0.9c0.8-1.9,0.6-3.2-0.8-4.4
		C392.2,220,387.3,216.7,382.2,213.7z"/>
	<path d="M347.4,211c-0.4,0.6-0.8,1.2-1.1,1.8c-4.5,8.1-6.9,16.8-8.5,25.9c-0.4,2,0.7,3.7,1.9,5.9c1.8-12,4.3-23.2,10.7-33.2
		c-0.9-0.5-1.6-0.8-2.5-1.2C347.8,210.5,347.6,210.7,347.4,211z"/>
	<path d="M355.3,229.3c0.5-4.3,1.1-8.6,1.7-12.8c0.3-2.4,0.2-2.4-2.4-2.9c-0.2,0.8-0.4,1.5-0.5,2.3c-0.9,8-1.8,16-2.5,24.1
		c-0.9,10.2,0,20.3,1.7,30.3c0.7,4,1.6,7.9,2.7,11.7h3.1C354,264.7,353.2,247.1,355.3,229.3z"/>
	<path d="M400.1,231c-0.3,0.1-0.5,0.1-0.6,0.2c-0.2,0.3-0.5,0.6-0.7,1c-3.3,5.7-7.9,10.2-13.4,13.8c-4.6,3-9.6,5-14.8,6.7
		c-1.9,0.6-2,1-1,3c0.2,0,0.5,0.1,0.7,0c0.5-0.1,0.9-0.2,1.4-0.3c4.9-1.5,9.6-3.5,14-6.2c5.2-3.2,9.8-7.1,13.4-12.1
		C400.5,235.1,400.4,233.2,400.1,231z"/>
	<path d="M392.4,248.7c-6.2,4.9-13.4,8.1-21,10.3c-2.1,0.6-2.2,0.9-1.1,3.1c0.5-0.1,1.1-0.1,1.6-0.3c8.2-2.4,15.9-5.9,22.7-11.2
		c2.1-1.6,3.6-3.4,3.4-6.6c-0.6,0.4-1,0.7-1.4,1C395.2,246.3,393.8,247.5,392.4,248.7z"/>
	<path d="M374.8,267.5c7.2-2.1,13.9-5.1,20.1-9.3c1.6-1.1,2.1-2.4,1.6-4.3c-4,2.3-7.8,4.8-11.9,6.7c-4.1,2-8.5,3.4-12.8,5.1
		C372.8,267.8,373.1,268,374.8,267.5z"/>
	<path d="M372.7,270.7c-0.3-0.2-0.6-0.4-1.1-0.7c0.2,2.8,1.1,4.7,3.2,6.3c3.3,2.4,6.8,4.2,10.5,5.6h10.9c-0.3-0.1-0.7-0.2-1.2-0.3
		C386.5,280.1,379,276.7,372.7,270.7z"/>
	<path d="M477.9,280c-0.2-0.3-0.4-0.7-0.6-1.2c-1,1.6-1.4,2.3-1.3,3.1h3.2C478.7,281.3,478.3,280.6,477.9,280z"/>
	<path d="M321.1,78.3c-0.3-0.7-0.4-1.3-0.7-1.8c-5.8-11.7-8.5-24-8.6-37c0-3.2-0.7-6.3-1.8-9.4c-2.1-5.9-5.5-11-9.5-15.7
		c-4.5-5.3-9.5-10.1-14.7-14.5h-4.6c3.1,2.5,6.1,5.1,9,7.8c5.7,5.3,10.8,11.1,14.6,18c2.2,3.9,3.7,8,4,12.4c0.2,2.9,0.3,5.9,0.4,8.9
		c0.6,10.2,3.4,19.8,7.6,29.1C317.8,77.8,319.1,78.4,321.1,78.3z"/>
	<path d="M442.2,160.9c-6.1,4.5-11.5,9.8-16,16c-0.4,0.5-0.6,1.1-0.9,1.7c0.5,0.3,0.8,0.6,1.1,0.7c0.3,0.2,0.7,0.2,1.3,0.4
		c5.4-7.7,12.1-13.9,19.8-19.3C445.5,159.6,443.9,159.7,442.2,160.9z"/>
	<path d="M371.7,147.2c0.2,3.7,0.7,4.8,2.8,6.8c2.7,2.6,5.4,5.2,8.2,7.7c9.5,8.7,19.6,16.7,30.6,23.4c13,7.9,26.8,13.4,42.1,14.9
		c16.2,1.6,29.6,9.1,40.6,21c8,8.6,13.9,18.5,18.5,29.3c0.5,1.1,1,2.1,1.6,3.4c0.9-0.5,1.5-0.9,2.4-1.4c-0.7-1.8-1.4-3.4-2.1-5
		c-6.1-13.8-14.3-26-26.1-35.7c-10-8.2-21.5-13.2-34.4-14.5c-11.2-1.1-21.8-4.2-31.7-9.4c-5.1-2.7-10.1-5.6-14.9-8.7
		c-11.3-7.4-21.6-16.2-31.2-25.7C375.9,151.3,373.9,149.3,371.7,147.2z"/>
	<path d="M432,161.1c-4.1,3.7-7.7,7.9-11,12.3c-0.5,0.6-0.8,1.3-1.3,2.1c0.8,0.5,1.4,0.8,2.3,1.3c4.5-6.1,9.3-11.6,15.6-16.6
		C435.2,159.5,433.6,159.7,432,161.1z"/>
	<path d="M387,153.3c-2.4-2.3-5.1-3.5-8.4-4.4c0.1,0.4,0.1,0.6,0.2,0.7c2,1.9,3.9,3.8,5.9,5.6c10.6,9.8,21.8,18.8,34.3,26.1
		c9,5.2,18.5,9.5,28.9,11.3c3.5,0.6,7.1,0.9,10.7,1.4c17.7,2.7,32.1,11.4,43.7,24.8c7.6,8.7,13.4,18.5,17.9,29.1
		c0.3,0.8,0.7,1.5,1.1,2.3c2.4-0.9,2.5-1.1,1.7-3.1c-6.2-14.6-14.5-27.8-26.5-38.3c-11.5-10.1-24.8-16.2-40.1-17.9
		c-6-0.7-11.9-1.7-17.6-3.6c-8.9-3.1-17.1-7.5-25-12.6C404.3,168.4,395.4,161.2,387,153.3z"/>
	<path d="M329.2,79.6c-0.1-0.3-0.2-0.6-0.3-0.9c-7.3-12.3-10.7-25.7-10.8-40c0-3.1-0.7-6.2-1.6-9.2c-2-6.9-5.8-12.8-10.3-18.3
		c-3.4-4.1-7-7.9-10.9-11.5h-4.4c0.4,0.4,0.9,0.8,1.3,1.2c6,5.4,11.4,11.2,15.9,17.9c4.6,7,7.3,14.5,7.2,23
		c-0.1,5.8,0.8,11.6,2.3,17.3c1.7,6.6,4.2,12.9,7.5,18.9C326.2,80.1,327,80.3,329.2,79.6z"/>
	<path d="M364.5,81.2c1.4-2.4,2.9-4.8,4-7.3c3.2-7,4.7-14.4,5.6-21.9c0.1-0.9,0-1.8,0-2.8c-2.5-0.1-2.6,0-2.8,1.9
		c-0.2,1.3-0.3,2.7-0.5,4c-1.4,9.2-4,18.1-9.6,25.8c-0.3,0.4-0.5,0.8-0.8,1.4C363.2,83.1,363.4,83.1,364.5,81.2z"/>
	<path d="M357.5,80.2c1.1-1.4,2.1-2.8,3-4.3c4.5-7.6,6.4-15.9,7.4-24.6c0-0.4-0.1-0.8-0.2-1.1c-2.3-0.3-2.4-0.3-2.7,1.5
		c-0.8,3.8-1.4,7.7-2.4,11.5c-1.4,5.6-3.8,10.8-7.6,15.3c-0.8,1-1.7,1.9-2.7,3C355.5,82.3,355.9,82.2,357.5,80.2z"/>
	<path d="M372.7,46.6c6.9-1.1,13.8-1.9,20.7-2.8c2.1-0.3,2.2-0.5,2.3-2.9c-0.5,0-0.9-0.1-1.4-0.1c-4.5,0.5-9.1,1-13.6,1.6
		c-5.9,0.8-11.7,2-17.6,2.5c-11.6,1-23-0.5-33.9-4.7c-0.7-0.3-1.3-0.4-2.2-0.7c-0.2,2.7-0.2,2.8,1.8,3.6c7.2,2.7,14.6,4.3,22.2,4.7
		C358.3,48.4,365.5,47.8,372.7,46.6z"/>
	<path d="M337.2,80.9c-0.1-0.4-0.1-0.6-0.2-0.7c-0.1-0.3-0.3-0.6-0.5-0.8c-8.3-12.2-12.3-25.7-12.2-40.5c0-1.3-0.1-2.6-0.3-3.8
		c-0.9-7.3-3.7-13.9-7.6-20c-3.5-5.6-7.7-10.6-12.2-15.2h-4.1c5,4.8,9.5,10,13.3,15.8c3.9,6,6.9,12.5,7.7,19.7
		c0.4,3.6,0.4,7.2,0.6,10.8c0.8,11.9,4.8,22.8,11,32.9C333.9,80.7,335.3,81.2,337.2,80.9z"/>
	<path d="M430.9,181.1c2.3,1.5,2.3,1.5,3.7-0.2c4.2-5.3,9-9.9,14.6-13.7c0.6-0.4,1.1-0.9,1.9-1.5c-0.5-0.7-1-1.4-1.6-2.2
		C442.1,168.3,435.9,174,430.9,181.1z"/>
	<path d="M529.2,259.4c1.8-1.1,1.9-1.6,1-3.8c-11.9,6.6-23.4,13.9-33.5,23.8c0.7,0.7,1.2,1.2,1.9,1.9c1.4-1.2,2.2-2,3.2-2.7
		c4.6-3.6,9-7.4,13.8-10.7C520,264.8,524.7,262.2,529.2,259.4z"/>
	<path d="M484.7,262.7c0-0.3-0.2-0.6-0.3-1.1c-2.1,2.3-2.5,4.7-1.2,7.3c0.5,1.1,0.9,2.2,1.4,3.3c1.8,3.7,4.4,6.9,7.3,9.7h4.6
		c-1-0.9-2-1.7-3-2.6C488.6,274.9,485.5,269.4,484.7,262.7z"/>
	<path d="M343,256.7c-0.1,2.5,0.1,2.8,2.1,2.7c1.2-0.1,2.3-0.3,3.7-0.4c-0.1-0.9-0.1-1.7-0.2-2.7C346.5,256.5,344.7,256.6,343,256.7
		z"/>
	<path d="M479.9,271.1c-1.5,1.8-1.4,3.4-0.3,5.3c1.1,1.9,2.4,3.8,3.7,5.5h3.9c-2.8-3.1-5.1-6.5-6.8-10.5
		C480.4,271.3,480.1,271.3,479.9,271.1z"/>
	<path d="M488.3,248.9c2.3-4.1,4.5-8.3,6.6-12.5c1-2.1,0.9-2.1-1.1-4.1c-0.3,0.6-0.6,0.9-0.8,1.4c-2.6,5.9-5.8,11.6-9.3,17.1
		c-4.5,7.1-8.5,14.5-11.6,22.3c-1.1,2.9-2.1,5.9-2.9,8.9h2.9c1.4-5.2,3.4-10.2,5.9-15.1C481.2,260.7,484.9,254.9,488.3,248.9z"/>
	<path d="M531.4,247.7c-13.9,7.8-27.4,15.7-38.8,27.1c0.6,0.7,1.1,1.3,1.7,2.1c0.8-0.7,1.5-1.2,2.1-1.8c4.7-4.3,9.6-8.4,15-11.8
		c5.9-3.8,11.9-7.4,18-11C531.1,251.1,531.7,249.9,531.4,247.7z"/>
	<path d="M450.9,160.2c0,0.2,0,0.5,0.1,0.7c0.3,0.6,0.6,1.1,1,1.7c2.8,4.3,6.2,7.9,10.1,11.1c4.2,3.5,8.8,6.3,13.8,8.7
		c6.2,3,10.2,7.9,11.9,14.5c0.5,1.9,1.5,2.9,3.4,3.3c0-0.4,0.2-0.7,0.1-1c-1.3-6.5-3.9-12.4-9.4-16.4c-2.2-1.6-4.6-2.8-7-4.1
		c-8.1-4.3-15.2-9.8-20.3-17.5C453.4,159.5,453.1,159.5,450.9,160.2z"/>
	<path d="M457.7,159.8c0.5,0.7,0.9,1.3,1.4,1.9c3.2,4.1,7.1,7.6,11.5,10.4c3.3,2.1,6.8,3.8,10.2,5.8c4.7,2.7,8.3,6.5,10.7,11.3
		c2,3.9,3,8.1,3.6,12.4c0.2,1.7,1.2,2.5,2.7,3c0.1-0.3,0.3-0.5,0.3-0.7c0-0.6,0-1.3,0-1.9c-0.6-4.6-1.6-9.1-3.6-13.4
		c-2.7-5.7-6.8-10.2-12.4-13.3c-1.3-0.7-2.5-1.3-3.8-2c-6.3-3.2-11.9-7.4-16.5-12.9C460.5,158.9,460,158.9,457.7,159.8z"/>
	<path d="M482.5,168.5c-4.9-2.4-9.5-5.3-13.4-9.2c-1.2-1.2-2.4-1.3-4.1-0.3c0.7,0.8,1.2,1.4,1.8,2c4.2,4.4,9.3,7.5,14.7,10.2
		c4.4,2.2,8.3,5,11.5,8.9c5.4,6.6,7.8,14.4,8.5,22.7c0.1,1.5,0.2,3,0.3,4.5c0.1,1.5,1.1,2.5,2.6,3.2c0.1-4.3,0.1-8.2-0.6-12.2
		C501.6,184.9,495,174.6,482.5,168.5z"/>
	<path d="M268.9,194c-8.7,1.5-15.5,5.6-19.1,14c-0.9,2.1-0.3,3.6,1.2,5.4c1.4-4.9,3.4-9.1,7.3-12.1c3.9-3,8.5-4.2,13.5-4.9
		C271.1,194.7,270.6,193.7,268.9,194z"/>
	<path d="M261.1,4.8c1.8,8.4,6,15.5,12.1,21.4c2.5,2.5,5.1,4.8,7.8,7.1c5.5,4.8,11.2,9.4,15.8,15c0.2,0.3,0.6,0.5,0.9,0.7
		c1.6-2,1.7-2.3,0.1-3.9c-3.1-3.1-6.2-6.2-9.5-9.2c-4.9-4.6-10-9-14.8-13.7c-4.2-4.1-7.1-9.1-8.6-14.8c-0.7-2.6-1.3-5.1-1.9-7.7
		h-2.9C260.4,1.5,260.8,3.2,261.1,4.8z"/>
	<path d="M333.6,9.4c1.3,1.5,2.7,2,4.7,1.3c-0.4-0.6-0.6-1-0.9-1.3c-3-3.2-6-6.5-9.1-9.6h-4.1C327.6,2.8,330.7,6,333.6,9.4z"/>
	<path d="M322.3,15.8c7.5,1,14.9,1.3,22.4,0.5c8.5-1,16.6-3.1,24.5-6.3c2-0.8,2.8-2.5,3.5-4.5c-8.6,3.8-17.5,6.5-26.8,7.8
		c-9.3,1.2-18.6,0.6-28-1.1C318.5,14.7,320.1,15.5,322.3,15.8z"/>
	<path d="M286,7.8c-2.1,5.3-5.8,9.5-9.8,13.7c0.6,0.7,1.1,1.2,1.8,1.9c4.3-3.9,7.7-8,9.9-13C288.5,9.1,288.2,8.6,286,7.8z"/>
	<path d="M280.9,3.3c-1.5,5.4-5,9.5-8.9,13.5c0.6,0.7,1.1,1.3,1.7,1.9c0.5-0.4,1-0.6,1.3-1c3.2-3.2,5.9-6.7,7.7-10.9
		C283.7,4.7,283.5,4.4,280.9,3.3z"/>
	<path d="M282.3,28c4.4-4,7.7-8.1,10.2-12.7c0.8-1.5,0.5-2-1.7-2.9c-2.5,5.1-6.1,9.4-10.4,13.7C281.1,26.7,281.6,27.2,282.3,28z"/>
	<path d="M325,22.4c1,0.1,2.1,0.1,3.1,0.2c12.5,1.2,24.7-0.6,36.7-4.4c2.1-0.7,2.4-1.2,2.6-3.9c-14.7,5.3-29.7,7.2-45.3,4.9
		C322.8,22,322.9,22.2,325,22.4z"/>
	<path d="M335.9,26.6c3.5,1.6,6.6,2.3,9.3,2.1c6-0.6,11.8-1.7,17.6-3.4c1.9-0.5,2-0.8,2-3.3c-4.8,1-9.4,2.3-14.2,3.1
		C345.9,25.8,341,26.1,335.9,26.6z"/>
	<path d="M361.5,6.8c2.6-0.4,3-0.7,2.6-2.9c-0.3-1.4-0.6-2.7-0.9-4.1h-2.8c0.3,0.9,0.5,1.8,0.7,2.8C361.2,3.9,361.3,5.3,361.5,6.8z"
		/>
	<path d="M367.6,4.4c2.6-0.4,2.7-0.6,2.4-2.7c-0.1-0.6-0.2-1.3-0.3-1.9h-2.9C367.2,1.3,367.4,2.8,367.6,4.4z"/>
	<path d="M401.6,0.2c0.4-0.1,0.9-0.2,1.3-0.3h-8.9c-11.3,5.1-18.2,14.3-21.1,27c-0.1,0.4-0.1,0.8-0.1,1.3c2.6,0.1,2.6,0.1,3.2-1.8
		c0.1-0.5,0.2-0.9,0.4-1.4C380.1,12,388.6,3.7,401.6,0.2z"/>
	<path d="M266.6,141.7c-0.3,0.3-0.6,0.5-0.8,0.8c-4.2,5.1-8.5,10.2-12.6,15.4c-8.9,11.1-16.9,22.7-22.7,35.7
		c-5.8,13-9.1,26.4-7.4,40.8c0.9,7.3,2.6,14.3,7.8,20c0.1,0.1,0.2,0.3,0.3,0.4c0.3,0.4,0.7,0.7,1,1c-0.2-1.2-0.6-2.2-1.1-3.2
		c-4.3-9.8-6.3-20-5.4-30.6c0.9-10.5,4-20.4,8.6-29.8c5.4-11.2,12.4-21.5,20.1-31.2c4.2-5.3,8.5-10.4,12.8-15.6
		C268.5,143.6,268.5,143.5,266.6,141.7z"/>
	<path d="M265.7,112.4c0.5,9.8,3.6,18.6,9.8,26.3c2.9,3.5,5.9,7,8.3,10.8c5.5,8.5,6.1,17.3,0.7,26.2c-1.1,1.8-1,1.9,0.8,3.6
		c0.2-0.2,0.5-0.4,0.7-0.6c4-5.6,5.9-11.9,4.9-18.8c-0.9-6.3-3.9-11.6-7.8-16.5c-2.1-2.5-4.2-5.1-6.2-7.6
		c-5.2-6.6-7.8-14.3-8.3-22.6c-0.4-6,0.7-11.8,2.1-17.6c1-4.4,1.6-8.8,0.9-13.3c-0.3-2.3-0.6-2.5-3.1-2.6c0,0.4,0,0.8,0.1,1.2
		c0.9,5.2,0.3,10.4-1,15.4C266.3,101.6,265.5,106.9,265.7,112.4z"/>
	<path d="M279.8,154.8c2.5,4.8,3.2,9.7,0.9,14.8c-0.7,1.6-0.1,2.7,1.1,4c2-2.9,2.9-5.9,3.1-9.1c0.4-6-2-11.1-5.6-15.7
		c-2.1-2.7-4.3-5.4-6.5-8c-8.6-10.7-11.7-22.9-10.2-36.4c0.4-3.8,1.4-7.5,2.2-11.3c0.9-4.3,1-8.5,0.1-12.9c-0.5-2.2-1.6-3.4-4-3.6
		c0.1,0.4,0,0.7,0.1,0.9c1.7,4.2,2.1,8.5,1.3,13c-0.5,2.8-1.1,5.5-1.7,8.2c-2,9.6-1.7,19.1,1.4,28.4c2.1,6.4,5.5,12,9.9,17.2
		C274.8,147.5,277.8,150.8,279.8,154.8z"/>
	<path d="M376.7,36.7c-4.8,0.6-9.5,1.7-14.2,2c-11.8,0.9-23.1-0.8-34-5.5c-0.7-0.3-1.4-0.5-2.2-0.8c-0.1,3-0.1,3,2.3,3.9
		c12.7,5.2,25.8,6.6,39.3,4.6c9.5-1.4,18.9-3.1,28.5-3.7c1.7-0.1,1.9-0.4,2.5-2.9c-0.9,0-1.8-0.1-2.6,0
		C389.7,35.2,383.2,35.9,376.7,36.7z"/>
	<path d="M265.1,188.4c-7.4,1.8-13.7,5.3-18.1,11.7c-1.3,1.9-1.3,2.5,0.4,4.9c4.3-8.3,11.4-12.5,20.4-14.3
		C266.8,188.1,266.7,188,265.1,188.4z"/>
	<path d="M272.8,102c-2.3,12.4,0.1,23.6,8.2,33.5c3,3.6,6,7.1,8.4,11c7.2,11.5,7,23.1-0.8,34.4c-0.4,0.6-0.8,1.2-1.3,1.9
		c0.5,0.6,0.9,1.2,1.5,2c0.5-0.4,0.9-0.7,1.2-1c5.6-7.2,8.3-15.3,7.2-24.4c-0.9-7.1-4-13.3-8.4-18.8c-2.1-2.7-4.3-5.3-6.5-8
		c-4.7-5.8-7-12.5-7.5-19.9c-0.4-5.7,1.1-11.1,2.1-16.6c0.7-3.7,0.9-7.4,1.1-11.2c0.1-2.2-0.3-2.4-3-3c0,2.8,0.3,5.5-0.1,8.1
		C274.5,94,273.5,98,272.8,102z"/>
	<path d="M403.1,28.2c-0.8-0.1-1.3-0.2-1.8-0.2c-10.5,0.3-20.9,1.6-31.2,3.4c-7.1,1.3-14.3,1.7-21.5,0.8c-8-0.9-15.4-3.4-22.6-7
		c-0.5-0.3-1.1-0.4-1.7-0.6c0,2.3,1,3.5,2.9,4.4c12.9,6,26.3,7.9,40.2,5.7c10.7-1.7,21.5-3.5,32.4-3.7
		C401.6,31,402.4,30.1,403.1,28.2z"/>
	<path d="M541.9,7.6c0.3,0.9,0.7,1.7,1,2.6c2.4-1.1,2.6-1.3,1.8-3.3c-1-2.4-2-4.8-3.1-7.1h-3C539.9,2.3,540.9,4.9,541.9,7.6z"/>
	<path d="M547.1,3.5c0.3,0.8,0.7,1.6,1,2.4c2.4-1.3,2.5-1.4,1.6-3.6c-0.3-0.9-0.7-1.7-1-2.5h-3.2C546,1.1,546.6,2.3,547.1,3.5z"/>
	<path d="M347.2,262.6c-1.2,0-2.3,0.2-3.4,0.4c-0.3,2.5-0.2,2.7,1.6,2.6c1.3,0,2.5-0.2,3.9-0.3C349.4,262.7,349.3,262.6,347.2,262.6
		z"/>
	<path d="M296.7,191.9c4-1.6,7.5-3.9,10.8-6.5c1.9-1.5,2.6-3.3,2.1-6.2c-4.7,5.3-10.1,8.7-16.3,11
		C294.7,192.5,294.8,192.6,296.7,191.9z"/>
	<path d="M331.7,161.2c5.8,4.4,11.4,9,17.3,13.4c5.4,4.1,9.1,9.1,10,16c0.2,1.8,0.5,2,2.9,2.2c-0.1-1.4-0.1-2.7-0.3-4
		c-1.3-6.8-4.9-12-10.3-16.2c-6.5-5-12.9-10-19.3-15c-0.6-0.5-1.2-0.9-2.1-1.6C329.7,158.3,330.1,159.9,331.7,161.2z"/>
	<path d="M357.9,174.3c4.7,5.2,7.4,11.3,7.3,18.5c0,2.3,0.1,2.3,2.5,2.8c0.1-0.4,0.3-0.6,0.3-0.8c0.1-0.6,0.1-1.1,0.1-1.7
		c0.2-6.7-1.9-12.7-5.9-18.1c-2.2-3-4.8-5.5-7.8-7.7c-9.1-6.5-17.8-13.6-26.2-21c-0.7-0.6-1.2-1.5-2.5-1.5c0.7,2.3,1.3,4.4,3.2,5.9
		c8,6.3,15.9,12.6,23.8,19C354.6,171.1,356.4,172.6,357.9,174.3z"/>
	<path d="M301.3,196.7c1.9-1,3.7-2.1,5.6-3.1c1.8-1,2.1-2.6,1.9-4.5c-3.7,2.1-7.2,4.2-10.9,6.3C299.3,197.4,299.5,197.6,301.3,196.7
		z"/>
	<path d="M309.6,168.2c-0.4,0.5-0.7,0.7-0.8,1c-3.3,6.2-8,10.8-14.4,13.8c-1.6,0.8-2.5,2.2-3.3,4c0.4,0,0.7,0.1,0.9,0
		c7-2.4,12.8-6.4,17-12.6C310.3,172.5,310,170.6,309.6,168.2z"/>
	<path d="M368.9,222c0.2-2.3,0.2-2.5-2.4-3.2c-0.2,0.8-0.3,1.4-0.4,2c-0.7,6.6-1.4,13.2-2,19.8c-0.8,8.7-0.2,17.4,1.3,26
		c0.9,5.2,2.3,10.3,4,15.2h3.1c-4.3-11.8-6.1-24.1-5.7-36.7C367.1,237.5,368.1,229.8,368.9,222z"/>
	<path d="M343.7,270.7c0.1,0.8,0.5,1.2,1.3,1.1c1.8-0.1,3.6-0.2,5.6-0.4c-0.1-2.3-0.2-2.6-1.3-2.6c-1.5,0-3,0.1-4.5,0.3
		C343.8,269.2,343.6,270,343.7,270.7z"/>
	<path d="M376.4,281.4c-0.4-0.2-0.9-0.3-1.5-0.5c0.1,0.4,0.2,0.7,0.2,1h2.2C377,281.8,376.7,281.6,376.4,281.4z"/>
	<path d="M393.6,234c0.2,0.3,0.6,0.4,0.9,0.5c1.6-2,1.6-2,0.1-3.7c-4.6-4.8-9.9-8.5-15.6-11.8c-6.9-4-14.2-7.1-21.4-10.3
		c-9.5-4.2-18.3-9.5-25.9-16.7c-0.3-0.3-0.7-0.5-1.1-0.8c-1.2,2.6-1.2,2.8,0.7,4.4c6.7,5.8,14,10.6,22.1,14.3
		c4.6,2.1,9.2,4.1,13.8,6.2C376.9,220.7,386.2,225.9,393.6,234z"/>
	<path d="M360.3,216.1c-0.2,0.6-0.4,1.2-0.5,1.8c-0.4,2.7-0.8,5.4-1.1,8.1c-1.5,12-1.8,24-0.4,36.1c0.8,6.9,2.3,13.5,4.3,19.9h3.2
		c-3.7-11.4-5.5-23.5-5.4-36.1c0.1-8.9,0.9-17.7,2.2-26.5C363,216.8,362.8,216.6,360.3,216.1z"/>
	<path d="M366.3,28.4c-0.1,0.3,0,0.6,0.1,0.9c2.5,0.1,2.6,0,3.1-2.3c1.3-6.2,3.5-12,7.2-17.1c2.9-4.1,6.4-7.4,10.4-10h-4.9
		C373.2,7,368.3,16.8,366.3,28.4z"/>
	<path d="M523.7,21.9c1.9,0.8,3.3,0.5,4.9-1.2c-1-0.4-1.9-0.8-2.8-1.1c-11.5-4.5-21.3-11.2-29.9-19.7h-4c1,1,2,2,3,3
		C503.2,11.1,512.8,17.4,523.7,21.9z"/>
	<path d="M373.5,1.7c2.1-0.6,2.6-0.8,2.5-1.9h-2.9C373.3,0.5,373.4,1.1,373.5,1.7z"/>
	<path d="M537.5,14.1c2.4-0.9,2.5-1.1,1.9-3.1c-0.7-2.1-1.4-4.1-2.2-6.1c-0.7-1.7-1.6-3.4-2.4-5.1h-3.3c2.2,3.7,3.8,7.6,5.1,11.6
		C536.9,12.3,537.2,13.2,537.5,14.1z"/>
	<path d="M306.2,59c1-2.3,0.9-4.6,0.7-6.9c-0.2-0.1-0.4-0.1-0.6-0.2c-1.4,3.1-2.9,6.2-4.1,9.4c-5.4,13.3-8.7,27.1-7.6,41.6
		c0.6,7.4,2.4,14.5,5.5,21.2c2.4,5.2,5.8,9.7,9,14.4c9.2,13.5,12.3,28.4,10.7,44.5c-0.9,8.5-3.1,16.6-6.2,24.6
		c-0.8,2.2-0.8,2.2,1.6,3.6c0.4-0.8,0.7-1.6,1-2.4c3.2-8.3,5.6-16.8,6.5-25.7c1-10.4,0.2-20.6-3.2-30.5c-2.5-7.4-6.6-14-11.2-20.3
		c-9.6-13.3-12.5-28.1-10.5-44.1C299,77.9,302,68.3,306.2,59z"/>
	<path d="M534.8,16.2c-1-0.4-2-0.7-2.9-1c-10.1-3.3-19-8.5-26.9-15.3h-4.3c2.6,2.4,5.2,4.6,8.1,6.7c6.7,4.9,14,8.6,21.9,11.2
		C532.9,18.5,533.3,18.3,534.8,16.2z"/>
	<path d="M268.1,29.9c3.3,3.2,6.7,6.4,10.2,9.4c5.5,4.8,11.2,9.6,15.7,15.5c0.2,0.2,0.5,0.4,0.8,0.7c1.5-2.4,1.6-2.5,0.1-4.2
		c-1.8-2-3.5-4.1-5.5-6c-5.1-4.7-10.4-9.2-15.6-13.9c-7.1-6.4-12.6-13.8-15.2-23.1c-0.8-2.8-1.5-5.7-2-8.5h-2.9
		c0.5,2.6,1.1,5.2,1.8,7.8C257.6,16.2,261.8,23.7,268.1,29.9z"/>
	<path d="M288.3,103.4c0.5,6.2,1.8,12.2,3.9,18c2.6,7.3,6.8,13.7,11.3,20c8.8,12.4,11.7,26.3,10,41.2c-0.8,7.2-2.6,14.1-5.1,20.9
		c-0.7,2-0.7,2,1.7,3.5c0.4-0.9,0.7-1.6,1-2.4c2.6-7,4.5-14.2,5.3-21.6c1.2-11.3,0-22.3-4.6-32.9c-2.3-5.3-5.6-10.1-8.9-14.7
		c-8.1-11.2-11.8-23.9-11.9-37.6c-0.1-12.4,2.6-24.3,7.3-35.7c2.3-5.7,5.1-11.2,7.8-16.7c0.9-1.9,0.9-3.7,0.2-6
		c-0.7,1.2-1.3,1.9-1.7,2.8c-2.8,5.7-5.8,11.2-8.2,17C290.4,73.4,287.1,88,288.3,103.4z"/>
	<path d="M348.7,8.2c1.4,1.9,1.4,1.9,4,0.7c-0.6-0.8-1-1.5-1.4-2.1c-1.8-2.4-3.6-4.7-5.6-7h-3.8C344.2,2.5,346.5,5.3,348.7,8.2z"/>
	<path d="M341.8,9.5c1.5,1.7,1.7,1.8,4,0.7c-0.5-0.7-0.9-1.3-1.3-1.9c-1-1.3-2-2.5-3-3.7c-1.3-1.6-2.7-3.1-4.1-4.6h-4.2
		C336.1,3,338.9,6.3,341.8,9.5z"/>
</g>
<g>
</g>
<g>
</g>
<g>
</g>
<g>
</g>
<g>
</g>
</svg>
