<?xml version="1.0" encoding="UTF-8" standalone="no"?>
<svg width="300px" height="71px" xmlns="http://www.w3.org/2000/svg" xmlns:xlink="http://www.w3.org/1999/xlink" xmlns:serif="http://www.serif.com/"   viewBox="0 0 279 66" xml:space="preserve" style="fill-rule:evenodd;clip-rule:evenodd;stroke-linejoin:round;stroke-miterlimit:2;">
  <g id="city">
    <path d="M119.1,27.9c-0.1,-4.3 3.4,-7.9 7.7,-8l0.5,0c2.3,-0.1 4.5,0.9 6,2.6l-1.8,1.8c-2,-2.3 -5.5,-2.5 -7.7,-0.5c-2.3,2 -2.5,5.5 -0.5,7.7c2,2.3 5.5,2.5 7.7,0.5c0.2,-0.1 0.3,-0.3 0.5,-0.5l1.8,1.8c-1.5,1.7 -3.8,2.7 -6.1,2.6c-4.3,0.1 -8,-3.3 -8.1,-7.6l0,-0.4Z" style="fill-rule:nonzero;"></path>
    <rect x="135.2" y="20.2" width="2.8" height="15.6" style="fill-rule:nonzero;"></rect>
    <path d="M145.2,22.6l-5.1,0l0,-2.4l13,0l0,2.5l-5.1,0l0,13.1l-2.8,0l0,-13.2Z" style="fill-rule:nonzero;"></path>
    <path d="M163.8,30.2l0,5.5l-2.8,0l0,-5.4l-6,-10.1l3,0l4.5,7.6l4.5,-7.6l2.8,0l-6,10Z" style="fill-rule:nonzero;"></path>
  </g>
  <g id="of">
    <path d="M176.6,27.9c-0.1,-4.5 3.5,-8.3 8,-8.4c4.5,-0.1 8.3,3.5 8.4,8c0.1,4.5 -3.5,8.3 -8,8.4l-0.2,0c-4.4,0.2 -8,-3.2 -8.2,-7.6l0,-0.4Zm13.6,0c-0.1,-3 -2.5,-5.3 -5.5,-5.3c-3,0.1 -5.3,2.5 -5.3,5.5c0.1,2.9 2.4,5.3 5.4,5.3c2.9,0.1 5.3,-2.2 5.4,-5.1l0,-0.4Z" style="fill-rule:nonzero;"></path>
    <path d="M197.5,22.6l0,4.7l7.4,0l0,2.5l-7.4,0l0,6l-2.8,0l0,-15.6l11.1,0l0,2.4l-8.3,0Z" style="fill-rule:nonzero;"></path>
  </g>
  <g id="oakland">
    <path d="M119.2,54.3c0,-6.3 4.9,-10.9 11.4,-10.9c6.5,0 11.4,4.6 11.4,10.9c0,6.3 -4.9,10.9 -11.4,10.9c-6.5,0 -11.4,-4.6 -11.4,-10.9Zm17,0c0,-3.6 -2.4,-6 -5.6,-6c-3.2,0 -5.6,2.4 -5.6,6c0,3.6 2.4,6 5.6,6c3.2,0 5.6,-2.3 5.6,-6Z" style="fill-rule:nonzero;"></path>
    <path d="M157.8,60.7l-8.8,0l-1.6,4.1l-5.9,0l9.1,-21l5.8,0l9.1,21l-6.1,0l-1.6,-4.1Zm-1.8,-4.3l-2.6,-6.7l-2.6,6.7l5.2,0Z" style="fill-rule:nonzero;"></path>
    <path d="M175.6,57.2l-2.2,2.4l0,5.2l-5.8,0l0,-21l5.8,0l0,8.7l8,-8.7l6.4,0l-8.4,9.3l8.9,11.7l-6.8,0l-5.9,-7.6Z" style="fill-rule:nonzero;"></path>
    <path d="M190.4,43.8l5.8,0l0,16.3l9.8,0l0,4.7l-15.6,0l0,-21Z" style="fill-rule:nonzero;"></path>
    <path d="M224.3,60.7l-8.7,0l-1.6,4.1l-5.9,0l9.1,-21l5.7,0l9.1,21l-6.1,0l-1.6,-4.1Zm-1.7,-4.3l-2.6,-6.7l-2.6,6.7l5.2,0Z" style="fill-rule:nonzero;"></path>
    <path d="M253.8,43.8l0,21l-4.8,0l-9.1,-11.2l0,11.2l-5.7,0l0,-21l4.8,0l9.1,11.2l0,-11.2l5.7,0Z" style="fill-rule:nonzero;"></path>
    <path d="M256.8,43.8l9.7,0c6.8,0 11.5,4 11.5,10.5c0,6.5 -4.7,10.5 -11.5,10.5l-9.7,0l0,-21Zm9.5,16.3c3.5,0 5.9,-2.1 5.9,-5.8c0,-3.7 -2.4,-5.8 -5.9,-5.8l-3.7,0l0,11.5l3.7,0.1Z" style="fill-rule:nonzero;"></path>
  </g>
  <g id="tree">
    <path d="M28.5,20.8c-0.1,0 -0.3,-0.1 -0.4,-0.1c-0.1,-0.1 -0.3,-0.1 -0.4,-0.2c-0.3,-0.1 -0.6,-0.2 -0.9,-0.4l-0.3,-0.1c-0.1,-0.1 -0.2,-0.1 -0.4,-0.2l-0.6,-0.3c-0.1,-0.1 -0.3,-0.2 -0.4,-0.2l-0.2,-0.1l-0.1,-0.2l-0.2,-0.1l-0.6,-0.4c-0.1,-0.1 -0.2,-0.2 -0.3,-0.2l-0.5,-0.4l-0.2,-0.3c-0.3,-0.3 -0.5,-0.5 -0.8,-0.8c-0.6,-0.7 -1.2,-1.4 -1.7,-2.3c-0.1,-0.2 -0.2,-0.3 -0.3,-0.5c-0.1,-0.1 -0.1,-0.2 -0.2,-0.3c-0.1,-0.2 -0.2,-0.3 -0.3,-0.5l0.9,-0.5c0.1,0.2 0.1,0.3 0.2,0.5c0.1,0.1 0.1,0.2 0.2,0.3c0.1,0.2 0.2,0.3 0.3,0.4c0.5,0.8 1,1.5 1.6,2.1c0.2,0.3 0.5,0.5 0.7,0.7l0.2,0.2l0.5,0.4c0.1,0.1 0.2,0.1 0.2,0.2l0.6,0.4c0.1,0 0.1,0.1 0.2,0.1l0.3,0.3c0.1,0.1 0.2,0.1 0.3,0.2l0.6,0.3c0.1,0.1 0.2,0.1 0.3,0.1l0.3,0.2c0.2,0.1 0.5,0.2 0.8,0.3l0.4,0.1c0.1,0 0.2,0.1 0.4,0.1l0.3,0.1l0.2,0.1c-0.1,0.3 -0.1,0.7 -0.2,1l-0.3,-0.1l-0.2,0.1Z" style="fill-rule:nonzero;"></path>
    <path d="M28.5,23.3l-0.4,-0.1l-0.3,-0.1l-0.5,-0.2l-0.4,-0.2c-0.4,-0.1 -0.7,-0.3 -1.1,-0.5l-0.3,-0.2c-0.1,-0.1 -0.3,-0.1 -0.4,-0.2l-0.7,-0.4c-0.2,-0.1 -0.3,-0.2 -0.5,-0.3l-0.2,-0.1l-0.2,0l-0.2,-0.2l-0.7,-0.5c-0.1,-0.1 -0.2,-0.2 -0.4,-0.3l-0.6,-0.5l-0.2,-0.2c-0.3,-0.3 -0.7,-0.6 -1,-1c-0.7,-0.8 -1.4,-1.7 -2,-2.6c-0.1,-0.2 -0.2,-0.4 -0.4,-0.6c-0.1,-0.1 -0.1,-0.2 -0.2,-0.3c-0.1,-0.2 -0.2,-0.4 -0.3,-0.6c-0.1,-0.1 -0.1,-0.2 -0.2,-0.3l0.9,-0.5c0.1,0.1 0.1,0.2 0.2,0.3c0.1,0.2 0.2,0.4 0.3,0.6c0.1,0.1 0.1,0.2 0.2,0.3c0.1,0.2 0.2,0.4 0.3,0.6c0.5,0.9 1.2,1.7 1.9,2.5l1.1,1.1l0.6,0.5c0.1,0.1 0.2,0.2 0.3,0.2l0.7,0.5l0.2,0.1l0.3,0.3c0.1,0.1 0.3,0.2 0.4,0.3l0.7,0.4c0.1,0.1 0.2,0.1 0.3,0.2l0.4,0.2c0.3,0.2 0.7,0.3 1,0.4l0.4,0.2l0.5,0.2c0.1,0 0.2,0.1 0.3,0.1l0.4,0.1l0.2,0c0,0.2 -0.1,0.5 -0.1,0.7l0,0.3l-0.3,-0.2Z" style="fill-rule:nonzero;"></path>
    <path d="M28.6,25.7l-0.7,-0.2l-0.7,-0.2c-0.2,-0.1 -0.4,-0.1 -0.6,-0.2c-0.1,-0.1 -0.3,-0.1 -0.4,-0.2c-0.4,-0.2 -0.9,-0.3 -1.3,-0.5l-0.4,-0.2c-0.2,-0.1 -0.3,-0.1 -0.4,-0.2l-0.8,-0.4c-0.2,-0.1 -0.4,-0.2 -0.6,-0.3l-0.2,-0.2l-0.3,-0.1l-0.2,-0.2l-0.8,-0.6c-0.2,-0.1 -0.3,-0.2 -0.4,-0.3l-0.7,-0.6l-0.1,-0.1c-0.4,-0.4 -0.8,-0.8 -1.2,-1.2c-0.8,-0.9 -1.6,-1.9 -2.3,-3c-0.1,-0.2 -0.3,-0.5 -0.4,-0.7c-0.1,-0.1 -0.1,-0.2 -0.2,-0.3c-0.1,-0.2 -0.2,-0.5 -0.4,-0.7l0.9,-0.5c0.1,0.2 0.2,0.5 0.3,0.7c0.1,0.1 0.1,0.2 0.2,0.3c0.1,0.2 0.2,0.5 0.4,0.7c0.6,1 1.4,2 2.2,2.8c0.4,0.4 0.7,0.8 1.1,1.1l0.1,0.1l0.7,0.6c0.1,0.1 0.2,0.2 0.3,0.3l0.7,0.5l0.2,0.1l0.1,0.1l0.3,0.2c0.2,0.1 0.3,0.2 0.5,0.3l0.8,0.4c0.1,0.1 0.2,0.1 0.4,0.2l0.4,0.2c0.4,0.2 0.8,0.4 1.2,0.5c0.1,0.1 0.3,0.1 0.4,0.2c0.2,0.1 0.4,0.1 0.6,0.2l0.7,0.2l0.5,0.1c0.1,0.4 0.1,0.8 0.1,1.1Z" style="fill-rule:nonzero;"></path>
    <path d="M39.2,12.4c-0.6,0 -1.1,0.1 -1.5,0.1l-0.8,0c-1,0 -2,-0.1 -2.9,-0.2c-1.2,-0.2 -2.4,-0.5 -3.5,-0.9c-1.1,-0.4 -2.2,-1 -3.2,-1.7l-0.6,-0.4l-0.1,-0.1l-0.6,-0.4l0.7,-0.8l0.6,0.6l0.5,0.4c0.9,0.6 1.9,1.2 3,1.6c1.1,0.4 2.2,0.7 3.3,0.8c1.2,0.2 2.4,0.2 3.5,0.2c0.4,0 0.8,0 1.2,-0.1c0,0.1 0.1,0.3 0.1,0.4l0.2,0.4l0.1,0.1Z" style="fill-rule:nonzero;"></path>
    <path d="M40.2,14.7l-0.4,0l-0.4,0c-0.5,0 -1.1,0.1 -1.6,0.1l-0.9,0c-1.1,0 -2.2,-0.1 -3.3,-0.2c-1.4,-0.2 -2.7,-0.5 -4,-1c-1.3,-0.5 -2.5,-1.2 -3.7,-1.9l-0.6,-0.5l-0.1,-0.1l-0.9,-0.7l0.7,-0.8l0.9,0.7l0.1,0.1l0.6,0.4c1.1,0.7 2.2,1.4 3.5,1.8c1.2,0.5 2.5,0.8 3.8,1c1.3,0.2 2.6,0.3 4,0.2c0.5,0 1,0 1.6,-0.1l0.4,0c0,0.3 0.1,0.7 0.3,1Z" style="fill-rule:nonzero;"></path>
    <path d="M40.8,15.9c0.2,0.3 0.3,0.6 0.5,1c-0.3,0.1 -0.5,0.1 -0.8,0.1l-0.4,0.1l-0.4,0c-0.6,0 -1.2,0.1 -1.8,0.1l-0.9,0c-1.2,0 -2.4,-0.1 -3.6,-0.3c-1.5,-0.2 -3.1,-0.6 -4.5,-1.2c-1.5,-0.6 -2.9,-1.3 -4.2,-2.2l-0.7,-0.5c-0.1,-0.1 -0.1,-0.1 -0.2,-0.1l-0.5,-0.4l0.7,-0.8l0.5,0.4l0.1,0.1l0.7,0.5c1.2,0.9 2.6,1.6 4,2.1c1.4,0.5 2.8,0.9 4.3,1.1c1.4,0.2 2.9,0.3 4.4,0.2c0.6,0 1.2,-0.1 1.7,-0.1l0.4,0l0.4,-0.1l0.3,0Z" style="fill-rule:nonzero;"></path>
    <path d="M105.7,40.1l-0.2,1l-1.4,-0.2l-1.3,-0.3l-0.8,-0.3l-0.1,0c-0.1,0 -0.2,-0.1 -0.3,-0.1l-0.8,-0.3l-0.1,0c-0.1,0 -0.2,-0.1 -0.3,-0.1l-0.7,-0.4c-0.1,-0.1 -0.3,-0.1 -0.4,-0.2l-0.7,-0.5l-0.8,-0.6l-0.8,-0.7l-0.6,-0.6c-0.1,-0.1 -0.2,-0.2 -0.3,-0.3l-0.3,-0.3l-0.1,-0.1c-0.1,-0.1 -0.1,-0.2 -0.2,-0.3l-0.5,-0.6c-0.6,-1 -1.1,-2 -1.5,-3.1l-0.2,-0.6l0.8,-0.3l0.2,0l0.2,0.7c0.3,1 0.8,1.9 1.3,2.8l0.2,0.3c0,0.1 0.1,0.1 0.1,0.1l0.4,0.4c0.1,0.1 0.1,0.2 0.2,0.2l1.3,1.3l0.8,0.6l0.7,0.5c0.1,0.1 0.2,0.1 0.3,0.2l0.8,0.4c0.1,0 0.1,0.1 0.2,0.1l0.1,0.1l0.8,0.3c0.1,0 0.2,0.1 0.2,0.1c0.1,0 0.1,0 0.2,0.1l0.8,0.3l1.3,0.3l1.5,0.1Z" style="fill-rule:nonzero;"></path>
    <path d="M105,42.3l-0.2,1l-1.1,-0.2l-1.5,-0.3l-0.9,-0.3l-0.2,-0.1c-0.1,0 -0.2,-0.1 -0.3,-0.1l-1.1,-0.3l-0.1,-0.1c-0.1,0 -0.2,-0.1 -0.4,-0.2l-0.9,-0.4c-0.2,-0.1 -0.3,-0.2 -0.4,-0.2l-0.9,-0.5l-1,-0.7l-0.2,-0.2c-2.1,-1.8 -3.7,-4.1 -4.5,-6.8c0,-0.1 -0.1,-0.2 -0.1,-0.4l0,-0.2l0.7,-0.2l0.2,-0.1c0,0.1 0,0.2 0.1,0.2l0.1,0.4c0.8,2.4 2.2,4.6 4.2,6.3l0.2,0.2l1,0.7l0.9,0.5c0.1,0.1 0.2,0.1 0.3,0.2l0.9,0.5c0.1,0 0.2,0.1 0.3,0.1c0,0 0.1,0 0.2,0.1l0.9,0.4c0.1,0 0.2,0.1 0.3,0.1l0.2,0.1l0.9,0.3l1.4,0.3l1,-0.1Z" style="fill-rule:nonzero;"></path>
    <path d="M104.4,44.6l-0.2,1l-1,-0.2l-1.7,-0.4l-1.1,-0.3l-0.2,-0.1c-0.1,0 -0.3,-0.1 -0.4,-0.1l-1.1,-0.4l-0.2,-0.1c-0.1,-0.1 -0.3,-0.1 -0.4,-0.2l-1,-0.5c-0.2,-0.1 -0.3,-0.2 -0.5,-0.3l-1,-0.6l-1.2,-0.9l-0.2,-0.2c-2.5,-2.1 -4.3,-4.8 -5.3,-7.9l0.1,-0.2c0,-0.1 0,-0.2 -0.1,-0.2l0.9,-0.3l0.1,0c0,0.1 0.1,0.2 0.1,0.3l0.1,0.2c0.9,2.9 2.6,5.5 4.9,7.4l0.2,0.2l1.1,0.8l1,0.6c0.1,0.1 0.3,0.2 0.4,0.2l1,0.5c0.1,0.1 0.2,0.1 0.3,0.1l0.2,0.1l1,0.4c0.1,0 0.2,0.1 0.3,0.1l0.2,0.1l1,0.3l1.6,0.4l1.1,0.2Z" style="fill-rule:nonzero;"></path>
    <path d="M75.8,28.7c-0.1,0.4 -0.3,0.7 -0.4,1c-1,0 -2,-0.2 -3,-0.4c-0.8,-0.2 -1.6,-0.4 -2.4,-0.7c0,-0.1 0.1,-0.2 0.1,-0.4l0,-0.2c0,-0.2 0.1,-0.3 0.1,-0.5c0.8,0.3 1.6,0.5 2.4,0.7c1.1,0.4 2.2,0.5 3.2,0.5Z" style="fill-rule:nonzero;"></path>
    <path d="M99.8,24.1c-0.2,0 -0.5,0.1 -0.7,0.1l-0.4,0.1c-0.3,0 -0.5,0.1 -0.7,0.1c-2.5,0.5 -4.9,1.3 -7.2,2.1l-0.8,0.2c-2.1,0.7 -4.2,1.4 -6.2,1.9c0.1,-0.2 0.1,-0.5 0.2,-0.7c0,-0.2 0.1,-0.3 0.1,-0.5c1.8,-0.5 3.7,-1.1 5.6,-1.8l0.8,-0.3c2.3,-0.8 4.7,-1.6 7.3,-2.1c0.2,-0.1 0.5,-0.1 0.8,-0.1l0.4,-0.1c0.3,0 0.5,-0.1 0.8,-0.1l0,1.2Z" style="fill-rule:nonzero;"></path>
    <path d="M100.4,26.4l-0.4,0c-0.2,0 -0.4,0.1 -0.7,0.1l-0.4,0.1c-0.2,0 -0.4,0.1 -0.6,0.1c-2.4,0.5 -4.8,1.3 -7.1,2l-0.5,0.3c-2.3,0.8 -4.6,1.5 -7,2.1c-0.2,0.1 -0.5,0.1 -0.7,0.2l0.1,-0.2c0.1,-0.3 0.2,-0.6 0.3,-0.9l0.1,0c2.3,-0.6 4.7,-1.3 6.9,-2.1l0.7,-0.2c2.3,-0.8 4.7,-1.6 7.2,-2.1c0.2,0 0.5,-0.1 0.7,-0.1l0.4,-0.1c0.2,0 0.5,-0.1 0.7,-0.1l0.4,0l-0.1,0.9Z" style="fill-rule:nonzero;"></path>
    <path d="M72.2,30.6c0.9,0.2 1.8,0.3 2.7,0.4c-0.1,0.3 -0.3,0.6 -0.4,0.8c0,0.1 -0.1,0.1 -0.1,0.2c-0.8,-0.1 -1.6,-0.2 -2.4,-0.4c-0.9,-0.2 -1.8,-0.5 -2.6,-0.8c0.1,-0.3 0.3,-0.6 0.4,-1c0.7,0.4 1.6,0.6 2.4,0.8Z" style="fill-rule:nonzero;"></path>
    <path d="M100.2,28.8l-0.4,0.1l-0.3,0.1c-0.2,0 -0.4,0.1 -0.6,0.1c-2.3,0.5 -4.6,1.2 -7,2l-0.6,0.2c-2.3,0.8 -4.6,1.5 -7.1,2.2c-0.8,0.2 -1.6,0.4 -2.3,0.5c0.1,-0.2 0.2,-0.3 0.2,-0.5c0.1,-0.2 0.2,-0.4 0.3,-0.6c0.5,-0.1 1,-0.2 1.6,-0.4c2.4,-0.6 4.8,-1.4 7,-2.1l0.6,-0.2c2.5,-0.8 4.8,-1.6 7.1,-2.1c0.2,0 0.4,-0.1 0.6,-0.1l0.3,-0.1c0.1,0 0.3,0 0.4,-0.1l0.2,1Z" style="fill-rule:nonzero;"></path>
    <path d="M73.6,33.2c-0.1,0.2 -0.3,0.4 -0.4,0.5c-0.1,0.1 -0.1,0.2 -0.2,0.3l-0.1,0.1c-0.5,-0.1 -1,-0.2 -1.4,-0.3c-1.1,-0.2 -2.2,-0.6 -3.3,-1c0.2,-0.3 0.4,-0.6 0.5,-0.9c1,0.4 1.9,0.7 3,0.9c0.6,0.3 1.3,0.4 1.9,0.4Z" style="fill-rule:nonzero;"></path>
    <path d="M87.3,17.8c-0.4,0.1 -0.8,0.2 -1.3,0.2c0.8,-1.2 1.7,-2.3 2.6,-3.4c0.3,-0.3 0.6,-0.7 0.9,-1l0.1,-0.1l0.8,0.7l-0.1,0.1c-0.3,0.3 -0.6,0.7 -0.9,1c-0.7,0.8 -1.3,1.6 -1.9,2.4l-0.2,0.1Z" style="fill-rule:nonzero;"></path>
    <path d="M82.5,25.8l1.1,0c0,0.1 -0.1,0.2 -0.1,0.3c-0.1,0.5 -0.3,1 -0.4,1.5c-0.2,0.6 -0.3,1.2 -0.5,1.8c-0.3,1.2 -0.8,2.4 -1.2,3.5c-0.5,1.2 -1.1,2.3 -1.8,3.4c-0.3,0.4 -0.6,0.9 -0.9,1.3c-0.4,-0.1 -0.7,-0.2 -1.1,-0.3c0.4,-0.5 0.8,-1.1 1.1,-1.6c0.7,-1 1.2,-2.1 1.7,-3.3c0.5,-1.1 0.9,-2.2 1.2,-3.4c0.2,-0.6 0.4,-1.2 0.5,-1.8c0.1,-0.3 0.3,-0.8 0.4,-1.4Z" style="fill-rule:nonzero;"></path>
    <path d="M83.2,18.2c0.5,-0.9 1,-1.7 1.5,-2.4c0.7,-0.9 1.4,-1.8 2.2,-2.7c0.3,-0.4 0.7,-0.7 1,-1.1c0.1,-0.1 0.3,-0.3 0.4,-0.4l0.8,0.7l-0.4,0.4c-0.3,0.3 -0.7,0.7 -1,1.1c-0.7,0.8 -1.5,1.7 -2.1,2.6c-0.4,0.6 -0.8,1.2 -1.2,1.8c-0.4,0.1 -0.8,0.1 -1.2,0Z" style="fill-rule:nonzero;"></path>
    <path d="M80.2,25.6c0.3,0 0.7,0.1 1,0.1c-0.1,0.4 -0.3,0.9 -0.4,1.3c-0.5,1.7 -1,3.4 -1.7,5c-0.5,1.1 -1,2.1 -1.6,3.1c-0.4,0.7 -0.9,1.4 -1.5,2c-0.4,-0.1 -0.8,-0.1 -1.2,-0.2c0.6,-0.8 1.2,-1.6 1.8,-2.4c0.6,-0.9 1.1,-1.9 1.5,-2.9c0.7,-1.6 1.2,-3.3 1.6,-4.9c0.2,-0.4 0.4,-0.7 0.5,-1.1Z" style="fill-rule:nonzero;"></path>
    <path d="M80.6,18l0.2,-0.3c0.6,-1.1 1.3,-2.2 2,-3.2c0.7,-1 1.5,-2 2.3,-2.9c0.4,-0.4 0.7,-0.8 1.1,-1.2l0.8,0.7c-0.4,0.4 -0.7,0.8 -1.1,1.2c-0.8,0.9 -1.6,1.8 -2.3,2.8c-0.7,1 -1.3,2 -1.9,3l-0.4,0c-0.2,-0.1 -0.4,-0.1 -0.7,-0.1Z" style="fill-rule:nonzero;"></path>
    <path d="M77.9,25.1c0.3,0.1 0.7,0.2 1,0.2c-0.1,0.3 -0.2,0.7 -0.3,1c-0.5,1.7 -0.9,3.3 -1.6,4.8c-0.4,1 -0.9,1.9 -1.4,2.7c-0.6,0.9 -1.2,1.7 -1.9,2.5l-0.2,0.3l-0.2,0.2l-0.3,0l-0.3,0l-0.2,0l-0.6,0l0.4,-0.4c0.1,-0.1 0.3,-0.3 0.4,-0.4c0.1,-0.1 0.2,-0.2 0.2,-0.3c0.6,-0.7 1.2,-1.5 1.8,-2.3c0.5,-0.8 1,-1.7 1.4,-2.6c0.6,-1.4 1.1,-3 1.5,-4.7c0.1,-0.4 0.2,-0.7 0.3,-1Z" style="fill-rule:nonzero;"></path>
    <path d="M94.9,15.9c-0.1,0.1 -0.2,0.2 -0.3,0.2c-0.1,0.1 -0.3,0.3 -0.4,0.4l-0.5,0.4l-0.2,0.1c-2.6,1.9 -5.8,3 -9.1,3.2l-0.7,0c-1.4,0 -2.8,-0.2 -4.2,-0.5c-0.7,-0.2 -1.5,-0.4 -2.2,-0.7c0.3,-0.3 0.6,-0.5 0.9,-0.8c0.5,0.2 1,0.3 1.5,0.4c1.5,0.4 3.1,0.5 4.6,0.4c3.1,-0.1 6,-1.1 8.5,-2.9l0.2,-0.1l0.5,-0.4c0.1,-0.1 0.3,-0.2 0.4,-0.3c0.1,-0.1 0.2,-0.2 0.3,-0.2l0.7,0.8Z" style="fill-rule:nonzero;"></path>
    <path d="M96.3,17.8c-0.2,0.2 -0.4,0.4 -0.6,0.5l-0.6,0.5l-0.2,0.2c-3,2.2 -6.6,3.5 -10.4,3.6l-0.8,0c-1.6,0 -3.2,-0.2 -4.7,-0.6c-1.3,-0.3 -2.7,-0.8 -3.9,-1.4c0.4,-0.2 0.7,-0.5 1,-0.7c1,0.4 2.1,0.8 3.1,1c1.7,0.4 3.5,0.6 5.2,0.5c3.5,-0.1 6.9,-1.3 9.8,-3.4l0.2,-0.2l0.6,-0.5c0.2,-0.1 0.3,-0.3 0.5,-0.4l0.1,0l0.7,0.9Z" style="fill-rule:nonzero;"></path>
    <path d="M97.7,19.7c-0.1,0.1 -0.3,0.2 -0.4,0.4l-0.7,0.6l-0.2,0.2c-0.8,0.6 -1.7,1.2 -2.7,1.7c-0.4,0.2 -0.9,0.4 -1.3,0.6l-0.1,0.1l-0.1,0c-0.4,0.2 -0.9,0.4 -1.4,0.5c-1,0.3 -2,0.6 -3,0.8c-1,0.2 -2.1,0.3 -3.1,0.3l-0.9,0c-3.9,0 -7.7,-1 -11.1,-2.8c0.4,-0.2 0.7,-0.4 1.1,-0.6c4.2,2.2 9.1,2.9 13.8,2.1c1,-0.2 1.9,-0.4 2.9,-0.8c0.4,-0.1 0.9,-0.3 1.3,-0.5l0.2,-0.1c0.4,-0.2 0.8,-0.4 1.2,-0.6c0.9,-0.5 1.7,-1 2.5,-1.6l0.2,-0.2l0.7,-0.5c0.1,-0.1 0.3,-0.2 0.4,-0.3l0.7,0.7Z" style="fill-rule:nonzero;"></path>
    <path d="M52,15.9c-0.5,-0.5 -0.9,-1.1 -1.4,-1.6c-0.7,-0.8 -1.3,-1.7 -1.9,-2.6c-0.6,-0.9 -1.1,-1.9 -1.6,-2.9c-0.4,-1 -0.8,-2.1 -1.1,-3.2c-0.2,-1 -0.4,-2.1 -0.5,-3.2l0,-0.4c0,-0.3 0,-0.5 -0.1,-0.8l0,-0.7l1,0l0,0.7c0,0.2 0,0.5 0.1,0.8l0,0.4c0.1,1 0.3,2 0.5,3c0.2,1 0.6,2 1,3c0.4,1 0.9,1.9 1.5,2.8c0.6,0.8 1.2,1.7 1.8,2.4c0.5,0.6 0.9,1.1 1.4,1.6c0.8,0.9 1.5,1.8 2.2,2.7c0.5,0.7 1.1,1.5 1.5,2.2c0.3,0.4 0.5,0.8 0.8,1.3c-0.3,0.2 -0.6,0.4 -0.9,0.6c-0.3,-0.5 -0.5,-0.9 -0.8,-1.4c-0.4,-0.7 -0.9,-1.4 -1.5,-2.1c-0.4,-0.8 -1.2,-1.7 -2,-2.6Z" style="fill-rule:nonzero;"></path>
    <path d="M52.5,12.7c-0.6,-0.7 -1.2,-1.5 -1.7,-2.3c-0.5,-0.8 -1,-1.7 -1.4,-2.6c-0.4,-0.9 -0.7,-1.8 -1,-2.8c-0.2,-0.9 -0.4,-1.9 -0.5,-2.9l0,-0.4c0,-0.2 0,-0.5 -0.1,-0.7l0,-1.1l1,0l0,1c0,0.2 0,0.4 0.1,0.7l0,0.4c0.1,0.9 0.2,1.8 0.5,2.7c0.2,0.9 0.5,1.8 0.9,2.6c0.4,0.8 0.8,1.7 1.3,2.4c0.5,0.8 1.1,1.5 1.7,2.2c0.4,0.5 0.9,1.1 1.3,1.6c0.8,0.9 1.6,1.9 2.3,2.8c0.6,0.8 1.1,1.6 1.6,2.4c0.3,0.4 0.5,0.8 0.8,1.3c-0.3,0.2 -0.6,0.3 -0.9,0.5c-0.2,-0.4 -0.5,-0.9 -0.7,-1.3c-0.5,-0.8 -1,-1.5 -1.6,-2.3c-0.7,-1 -1.5,-1.9 -2.3,-2.8c-0.4,-0.3 -0.9,-0.8 -1.3,-1.4Z" style="fill-rule:nonzero;"></path>
    <path d="M51.5,6.9c-0.3,-0.8 -0.6,-1.6 -0.8,-2.4c-0.2,-0.8 -0.3,-1.7 -0.4,-2.6l0,-1l0,-0.5l1,0l0,1.5c0.1,0.8 0.2,1.6 0.4,2.4c0.2,0.8 0.4,1.5 0.7,2.2c0.5,1.3 1.4,2.6 2.6,4.1c0.4,0.5 0.8,1 1.3,1.5c0.8,0.9 1.6,1.9 2.4,3c0.6,0.8 1.2,1.7 1.8,2.6c0.3,0.4 0.6,0.9 0.8,1.4c-0.3,0.2 -0.6,0.3 -0.9,0.5c-0.3,-0.5 -0.5,-0.9 -0.8,-1.3c-0.5,-0.8 -1.1,-1.7 -1.7,-2.5c-0.8,-1 -1.6,-2 -2.4,-2.9c-0.4,-0.5 -0.9,-1 -1.3,-1.5c-1.2,-1.8 -2.1,-3.1 -2.7,-4.5Z" style="fill-rule:nonzero;"></path>
    <path d="M71.6,3.8c-0.1,0.4 -0.3,0.9 -0.5,1.3c-0.8,1.7 -2,3.3 -3.6,4.4l0,-1.3c1.1,-1 2,-2.2 2.6,-3.5c0.2,-0.4 0.3,-0.8 0.5,-1.2l1,0.3Z" style="fill-rule:nonzero;"></path>
    <path d="M73.9,4.1c-0.2,0.7 -0.5,1.4 -0.8,2c-0.1,0.3 -0.2,0.5 -0.4,0.7c-0.1,0.1 -0.1,0.2 -0.2,0.3l-0.2,0.3c-0.1,0.2 -0.3,0.5 -0.4,0.7c-0.4,0.7 -0.9,1.3 -1.5,1.8l-0.4,0.4c-0.1,0.1 -0.2,0.2 -0.3,0.3l-0.1,0.1l-0.2,0.3c-0.1,0.1 -0.1,0.1 -0.2,0.1l-0.5,0.4l-0.6,0.4l-0.2,0.1l-0.2,0.1c-0.1,-0.4 -0.1,-0.7 -0.1,-1.1l0.5,-0.3l0.5,-0.4l0.1,-0.1l0.2,-0.2l0.2,-0.1c0.1,-0.1 0.2,-0.1 0.3,-0.2l0.4,-0.4c0.5,-0.5 1,-1.1 1.4,-1.7c0.1,-0.2 0.3,-0.4 0.4,-0.6c0.1,-0.1 0.1,-0.2 0.2,-0.3c0.1,-0.1 0.1,-0.2 0.2,-0.3c0.1,-0.2 0.2,-0.4 0.3,-0.7c0.3,-0.6 0.5,-1.2 0.7,-1.9l0.9,0.3Z" style="fill-rule:nonzero;"></path>
    <path d="M76,5.3c-0.2,0.6 -0.4,1.2 -0.7,1.8c-0.1,0.3 -0.3,0.6 -0.4,0.9l-0.2,0.3l-0.2,0.3c-0.2,0.3 -0.3,0.6 -0.5,0.9c-0.5,0.8 -1.1,1.5 -1.8,2.2l-0.5,0.5c-0.1,0.1 -0.3,0.2 -0.4,0.3l-0.2,0.1l-0.3,0.2c-0.1,0.1 -0.1,0.1 -0.2,0.2l-0.6,0.5l-0.7,0.4c-0.1,0 -0.1,0.1 -0.2,0.1l-0.5,0.2l-0.4,0.2c-0.1,-0.4 -0.2,-0.7 -0.3,-1l0.2,-0.1l0.4,-0.2l0.2,-0.1l0.7,-0.4l0.6,-0.5c0.1,0 0.1,-0.1 0.2,-0.1l0.3,-0.2l0.2,-0.1c0.1,-0.1 0.2,-0.2 0.3,-0.3l0.5,-0.5c0.6,-0.6 1.2,-1.3 1.7,-2c0.2,-0.2 0.3,-0.5 0.5,-0.8l0.2,-0.3c0.1,-0.1 0.1,-0.2 0.2,-0.3c0.2,-0.3 0.3,-0.6 0.4,-0.8c0.1,-0.6 0.3,-1.2 0.5,-1.7l1,0.3Z" style="fill-rule:nonzero;"></path>
    <path d="M3.9,32.4c-0.2,-0.1 -0.5,-0.2 -0.7,-0.3l-0.4,-0.1l0.4,-1l0.3,0.1c0.3,0.1 0.5,0.2 0.8,0.3l0.6,0.3c0.2,0.1 0.3,0.1 0.5,0.2l0.6,0.4c0.2,0.1 0.3,0.2 0.5,0.3l0.2,0.1l0.3,0.1l0.3,0.2l0.2,0.1c0.1,0.1 0.3,0.2 0.4,0.3c0.8,0.6 1.6,1.3 2.3,2.1c0.7,0.8 1.3,1.6 1.8,2.6c0.5,0.9 0.9,1.8 1.2,2.7c-0.4,-0.1 -0.8,-0.2 -1.2,-0.3c-0.3,-0.6 -0.6,-1.3 -0.9,-1.9c-0.5,-0.8 -1.1,-1.6 -1.7,-2.4c-0.7,-0.7 -1.4,-1.4 -2.2,-2c-0.1,-0.1 -0.3,-0.2 -0.4,-0.3l-0.2,-0.1l-0.3,-0.2l-0.3,-0.2c-0.1,-0.1 -0.3,-0.2 -0.4,-0.2l-0.6,-0.3c-0.1,-0.1 -0.3,-0.1 -0.4,-0.2l-0.7,-0.3Z" style="fill-rule:nonzero;"></path>
    <path d="M3.3,34.7c-0.1,0 -0.2,-0.1 -0.4,-0.1c-0.2,-0.1 -0.4,-0.2 -0.6,-0.2l-0.3,-0.2l0.4,-1l0.3,0.1c0.2,0.1 0.4,0.2 0.6,0.2l0.3,0.1c0.2,0.1 0.4,0.2 0.6,0.3c0.8,0.4 1.5,0.8 2.2,1.4c0.7,0.5 1.4,1.1 2,1.8c0.6,0.7 1.1,1.4 1.5,2.2c0.2,0.3 0.3,0.6 0.4,0.9l-0.4,-0.1c-0.3,-0.1 -0.6,-0.1 -0.9,-0.2l0,-0.1c-0.4,-0.7 -0.9,-1.4 -1.4,-2c-0.5,-0.6 -1.1,-1.2 -1.8,-1.6c-0.7,-0.5 -1.4,-0.9 -2.1,-1.3c0,0 -0.2,-0.1 -0.4,-0.2Z" style="fill-rule:nonzero;"></path>
    <path d="M2.9,37.1c-0.1,-0.1 -0.2,-0.1 -0.3,-0.2l-0.5,-0.2l0.4,-0.9l0.5,0.2c0.1,0.1 0.2,0.1 0.4,0.2l0.5,0.2c0.1,0.1 0.2,0.1 0.3,0.2l0.4,0.2l0.2,0.2l0.2,0.1c0.1,0.1 0.2,0.1 0.3,0.2c0.6,0.4 1.1,0.9 1.6,1.5c0.3,0.3 0.5,0.6 0.7,0.9c-0.2,0 -0.4,-0.1 -0.7,-0.1c-0.3,0 -0.5,-0.1 -0.8,-0.1c-0.4,-0.5 -0.9,-0.9 -1.4,-1.3c-0.2,-0.1 -0.3,-0.2 -0.3,-0.2l-0.2,-0.1l-0.2,-0.2l-0.2,-0.1c-0.1,0 -0.1,-0.1 -0.2,-0.1c-0.1,-0.1 -0.2,-0.1 -0.3,-0.1l-0.4,-0.3Z" style="fill-rule:nonzero;"></path>
    <path d="M24.9,36.1c0.2,0 0.5,-0.1 0.7,-0.1c-1.1,1.4 -2,3.3 -3,5.2l-0.1,0.3c-1.1,2.1 -2.2,4.4 -3.9,6.5c-0.9,1.1 -1.9,2.1 -3,3c-1.1,0.9 -2.4,1.7 -3.7,2.2c-1.3,0.5 -2.7,0.9 -4.1,1.1l-1,0.1l-0.2,0l-0.4,0l-0.8,0l-0.7,0l-1.5,0l-0.6,0l0.1,-1l4.1,0l1,-0.1c1.3,-0.2 2.6,-0.6 3.8,-1c1.3,-0.5 2.4,-1.2 3.5,-2.1c1,-0.8 2,-1.8 2.8,-2.8c1.6,-2 2.7,-4.2 3.8,-6.3l0.1,-0.3c0.8,-1.6 1.6,-3.2 2.5,-4.5c0.1,-0.2 0.4,-0.2 0.6,-0.2Z" style="fill-rule:nonzero;"></path>
    <path d="M21.3,36.3l1.2,0c-0.2,0.3 -0.3,0.5 -0.5,0.8c-0.5,0.9 -1,1.9 -1.5,2.9l-0.1,0.2c-1,2 -2.2,4.2 -3.7,6.2c-0.8,1 -1.6,1.8 -2.6,2.6c-1,0.8 -2,1.4 -3.2,1.9c-1.1,0.4 -2.3,0.8 -3.5,0.9l-0.9,0.2l-0.2,0l-0.3,0l-1.3,0.1l-1.4,0l-1.6,-0.1l0.1,-1l4.6,0l0.9,-0.1c1.1,-0.2 2.2,-0.5 3.3,-0.9c1,-0.4 2,-1 2.9,-1.7c0.9,-0.7 1.7,-1.5 2.4,-2.5c1.5,-1.9 2.6,-4.1 3.6,-6l0.1,-0.2c0.5,-1 1,-2 1.6,-2.9c0,-0.2 0,-0.3 0.1,-0.4Z" style="fill-rule:nonzero;"></path>
    <path d="M19,36.2c0.3,0 0.5,0 0.8,0.1c-0.5,0.9 -0.9,1.8 -1.4,2.6l-0.1,0.3c-1.1,2.2 -2.1,4.2 -3.4,5.8c-1.4,1.8 -3,3 -4.8,3.8c-1,0.4 -2,0.6 -3,0.8l-0.8,0.1l-0.1,0l-0.3,0l-1.2,0l-1.3,0l-1.4,-0.1l0.1,-1l1.4,0.1l2.8,0l0.7,-0.2c0.9,-0.1 1.9,-0.4 2.7,-0.7c1.6,-0.7 3.1,-1.8 4.4,-3.4c1.2,-1.6 2.2,-3.5 3.3,-5.6l0.1,-0.3c0.4,-0.7 0.8,-1.5 1.2,-2.3l0.3,0Z" style="fill-rule:nonzero;"></path>
    <path d="M17.9,23.1c-1.4,-1.7 -3.1,-3.3 -5,-4.6c-0.5,-0.3 -1,-0.7 -1.5,-1l0.5,-0.9c0.5,0.3 1.1,0.6 1.6,1c1.9,1.4 3.6,2.9 5.2,4.7c0.8,0.9 1.5,1.9 2.1,2.9c0.7,1.1 1.2,2.2 1.6,3.4l-1.1,0c-0.4,-1 -0.8,-2 -1.4,-2.9c-0.6,-0.8 -1.3,-1.8 -2,-2.6Z" style="fill-rule:nonzero;"></path>
    <path d="M16.1,24.6c-1.3,-1.6 -2.8,-3 -4.5,-4.1c-0.6,-0.4 -1.1,-0.7 -1.7,-1.1l0.5,-0.9c0.6,0.3 1.2,0.7 1.8,1.1c1.7,1.2 3.3,2.7 4.7,4.3c0.7,0.8 1.3,1.7 1.9,2.6c0.4,0.7 0.8,1.4 1.1,2.2l-0.1,0c-0.4,0 -0.7,-0.1 -1.1,-0.2c-0.2,-0.5 -0.5,-1 -0.8,-1.5c-0.6,-0.8 -1.2,-1.7 -1.8,-2.4Z" style="fill-rule:nonzero;"></path>
    <path d="M14.3,26.1c-1.2,-1.4 -2.5,-2.7 -4,-3.7c-0.5,-0.3 -1,-0.7 -1.5,-0.9l0.5,-0.9c0.6,0.3 1.1,0.6 1.6,1c1.6,1.1 3,2.4 4.2,3.9c0.6,0.7 1.2,1.5 1.7,2.3c0.1,0.1 0.2,0.3 0.2,0.4c-0.1,0 -0.3,-0.1 -0.4,-0.1l-0.7,-0.3c-0.1,0 -0.2,-0.1 -0.3,-0.2l-0.1,0c-0.5,-0.5 -0.8,-1 -1.2,-1.5Z" style="fill-rule:nonzero;"></path>
    <path d="M78.7,7.7l-0.1,0.3c-0.1,0.4 -0.3,0.8 -0.5,1.2c-0.5,1.2 -1.2,2.3 -2,3.2c-0.8,1 -1.8,1.9 -2.8,2.6c-2.1,1.5 -4.5,2.7 -7.2,3.9l-0.3,0.2c-1.2,0.5 -2.4,1.1 -3.6,1.7c-1.4,0.7 -2.7,1.5 -3.9,2.3c-1.3,0.9 -2.5,2 -3.5,3.3l-0.1,0.1c-0.1,-0.3 -0.2,-0.6 -0.3,-1c0,-0.1 0,-0.1 -0.1,-0.2c1,-1.1 2.1,-2.2 3.4,-3c1.3,-0.9 2.7,-1.7 4.1,-2.4c1.2,-0.6 2.5,-1.2 3.7,-1.7l0.3,-0.2c2.7,-1.2 5.1,-2.3 7,-3.8c1,-0.7 1.9,-1.5 2.6,-2.5c0.8,-0.9 1.4,-1.9 1.8,-3c0.2,-0.4 0.3,-0.7 0.4,-1.1l0.1,-0.3l1,0.4Z" style="fill-rule:nonzero;"></path>
    <path d="M81,8.2c-0.1,0.1 -0.1,0.3 -0.1,0.4c-0.2,0.5 -0.4,1 -0.6,1.5c-0.6,1.4 -1.4,2.6 -2.3,3.8c-1,1.1 -2,2.1 -3.2,3c-2.4,1.8 -5.2,3.1 -7.7,4.2l-0.5,0.2c-2.4,1.1 -4.9,2.2 -7,3.8c-1.1,0.8 -2.2,1.7 -3.1,2.8c-0.4,0.5 -0.7,0.9 -1,1.5c-0.1,-0.5 -0.2,-0.9 -0.4,-1.3c0.2,-0.3 0.4,-0.5 0.6,-0.8c0.9,-1.2 2,-2.2 3.3,-3c2.2,-1.6 4.7,-2.7 7.2,-3.9l0.5,-0.2c2.4,-1.1 5.1,-2.3 7.5,-4.1c1.1,-0.8 2.2,-1.8 3.1,-2.8c0.9,-1.1 1.6,-2.3 2.2,-3.5c0.2,-0.4 0.4,-0.9 0.5,-1.3c0,-0.1 0.1,-0.3 0.2,-0.4l0.8,0.1Z" style="fill-rule:nonzero;"></path>
    <path d="M83.3,8.8c-0.1,0.2 -0.1,0.4 -0.2,0.5c-0.2,0.6 -0.4,1.2 -0.7,1.7c-0.7,1.6 -1.6,3 -2.7,4.3c-1.1,1.3 -2.3,2.4 -3.7,3.4c-1.3,0.9 -2.6,1.8 -4,2.5c-1.3,0.7 -2.6,1.3 -3.9,1.9l-0.4,0.2c-2.5,1.2 -4.9,2.2 -6.9,3.7c-1,0.7 -1.8,1.5 -2.6,2.4c-0.8,1 -1.4,2 -2.1,3.9c-0.1,-0.7 -0.2,-1.3 -0.3,-2c0.4,-0.9 1,-1.8 1.6,-2.6c0.8,-1 1.8,-1.9 2.8,-2.6c2.1,-1.5 4.5,-2.6 7.1,-3.7l0.4,-0.2c1.2,-0.6 2.5,-1.2 3.8,-1.8c1.4,-0.7 2.7,-1.5 3.9,-2.4c1.3,-0.9 2.5,-2 3.5,-3.2c1,-1.2 1.9,-2.6 2.5,-4.1c0.2,-0.5 0.5,-1.1 0.6,-1.6c0.1,-0.2 0.1,-0.4 0.2,-0.6l1.1,0.3Z" style="fill-rule:nonzero;"></path>
    <path d="M99.3,36.8c0.5,-0.1 0.9,-0.3 1.4,-0.4c0.7,-0.2 1.4,-0.3 2,-0.5c0.5,-0.1 1,-0.2 1.5,-0.2l0.1,1c-0.4,0 -0.9,0.1 -1.4,0.2c-0.6,0.1 -1.3,0.3 -1.9,0.4l-0.4,0.1l-0.2,-0.1l-0.4,-0.2c-0.2,-0.1 -0.3,-0.2 -0.5,-0.3l-0.2,0Z" style="fill-rule:nonzero;"></path>
    <path d="M92.3,40.7c-0.3,0.1 -0.6,0.3 -0.9,0.5c-0.8,0.5 -1.6,0.9 -2.2,1.3l-0.1,-0.1l-0.9,-0.4c0.9,-0.6 1.8,-1.2 2.7,-1.7c0.2,-0.1 0.4,-0.2 0.6,-0.3c0.1,0.1 0.2,0.2 0.3,0.4l0.5,0.3Z" style="fill-rule:nonzero;"></path>
    <path d="M90.7,38.9l-0.4,0.2c-1.2,0.6 -2.3,1.3 -3.4,2.2c-0.3,-0.2 -0.7,-0.4 -1,-0.5l0.1,-0.1c1.2,-0.9 2.4,-1.7 3.7,-2.4l0.4,-0.2l0.1,0.1l0.1,0.2l0.4,0.5Z" style="fill-rule:nonzero;"></path>
    <path d="M97.3,35c0.2,-0.1 0.4,-0.1 0.6,-0.2c0.7,-0.2 1.4,-0.4 2.1,-0.6c0.8,-0.2 1.5,-0.4 2.2,-0.5c0.7,-0.1 1.4,-0.2 2.1,-0.3l0.1,1c-0.7,0.1 -1.3,0.1 -2,0.3c-0.7,0.1 -1.4,0.3 -2.1,0.5c-0.7,0.2 -1.4,0.4 -2.1,0.6l-0.2,0.1l-0.6,-0.6c0,-0.2 0,-0.2 -0.1,-0.3Z" style="fill-rule:nonzero;"></path>
    <path d="M96,32.9c0.4,-0.1 0.8,-0.3 1.2,-0.4c0.8,-0.2 1.5,-0.5 2.2,-0.6c0.8,-0.2 1.6,-0.4 2.3,-0.5c0.7,-0.1 1.3,-0.2 1.9,-0.3l0.1,1c-0.6,0.1 -1.1,0.1 -1.8,0.3c-0.7,0.1 -1.5,0.3 -2.3,0.5c-0.7,0.2 -1.5,0.4 -2.2,0.6c-0.3,0.1 -0.7,0.2 -1,0.3l0,-0.1l-0.4,-0.8Z" style="fill-rule:nonzero;"></path>
    <path d="M89.5,36.9l-0.3,0.2c-1.4,0.7 -2.7,1.6 -3.9,2.6c-0.2,0.2 -0.4,0.3 -0.6,0.5c-0.3,-0.2 -0.7,-0.3 -1,-0.5c0.3,-0.3 0.6,-0.6 0.9,-0.8c1.3,-1 2.7,-1.9 4.1,-2.7l0.3,-0.2l0.2,0.5l0.3,0.4Z" style="fill-rule:nonzero;"></path>
    <path d="M34.3,4.8l-0.2,-0.4l0.9,-0.5l0.2,0.4c0.1,0.1 0.1,0.3 0.2,0.4c0,0 0,0.1 0.1,0.1l0.2,0.6c0.6,1.6 1,3.3 1.1,5l0,0.1l-1,0c-0.1,-1.6 -0.5,-3.2 -1.1,-4.7l-0.2,-0.6c0,0 0,-0.1 -0.1,-0.2c0,0 0,-0.1 -0.1,-0.2Z" style="fill-rule:nonzero;"></path>
    <path d="M35.4,23.9c-0.4,3 -0.4,5.5 0.1,7.6c0.4,2.1 1.4,4.1 2.9,6.1l-0.1,0l-0.2,0l-0.7,0l-0.3,0c-1.3,-1.8 -2.2,-3.7 -2.6,-5.9c-0.5,-2.3 -0.5,-4.8 -0.1,-8c0.2,-1.2 0.4,-2.3 0.6,-3.5c0.1,-0.7 0.2,-1.4 0.4,-2.2l1.1,0c-0.1,0.8 -0.3,1.5 -0.4,2.3c-0.3,1.3 -0.5,2.5 -0.7,3.6Z" style="fill-rule:nonzero;"></path>
    <path d="M32.2,5.8l-0.3,-0.6l0.9,-0.5l0.3,0.6c0.1,0.1 0.1,0.3 0.2,0.4l0.1,0.1l0.2,0.5c0.5,1.3 0.8,2.7 0.9,4.1l-0.2,0l-0.3,0l-0.5,-0.1c-0.2,-1.3 -0.5,-2.5 -0.9,-3.6l-0.2,-0.5c0,0 0,-0.1 -0.1,-0.1c0,-0.1 -0.1,-0.2 -0.1,-0.3Z" style="fill-rule:nonzero;"></path>
    <path d="M32.8,27.8c0,1.4 0.1,2.8 0.4,4.2c0.5,2 1.3,4 2.4,5.7l-0.2,0c-0.2,0 -0.4,0.1 -0.6,0.1l-0.1,0l-0.2,0c-1.1,-1.7 -1.9,-3.7 -2.3,-5.7c-0.3,-1.4 -0.5,-2.9 -0.5,-4.4c0,-1.5 0.1,-2.9 0.3,-4.4c0.2,-1.2 0.4,-2.5 0.6,-3.7c0.1,-0.6 0.2,-1.3 0.3,-1.9l0.2,0c0.3,0 0.6,0.1 0.9,0.1c-0.1,0.7 -0.2,1.3 -0.3,2c-0.2,1.2 -0.4,2.4 -0.6,3.6c-0.2,1.6 -0.3,3 -0.3,4.4Z" style="fill-rule:nonzero;"></path>
    <path d="M33.1,38l0.1,0.2c-0.4,0.1 -0.7,0.2 -1,0.3l-0.2,-0.2c-0.2,-0.3 -0.3,-0.5 -0.4,-0.8c-0.8,-1.5 -1.3,-3.1 -1.7,-4.7c-0.3,-1.6 -0.5,-3.3 -0.5,-4.9c0,-1.6 0.1,-3.1 0.3,-4.7c0.2,-1.3 0.4,-2.6 0.6,-3.8c0.1,-0.7 0.2,-1.3 0.3,-2c0.3,0.1 0.5,0.1 0.8,0.2l0.2,0c-0.1,0.6 -0.2,1.3 -0.3,1.9c-0.2,1.2 -0.4,2.5 -0.6,3.8c-0.2,1.5 -0.3,3 -0.3,4.6c0,1.6 0.2,3.1 0.5,4.7c0.3,1.6 0.9,3.1 1.6,4.5c0.1,0.2 0.2,0.5 0.4,0.7l0.2,0.2Z" style="fill-rule:nonzero;"></path>
    <path d="M30.1,6.8l-0.4,-0.8l0.9,-0.5l0.4,0.8c0.1,0.1 0.1,0.2 0.2,0.3l0,0.1l0.2,0.4c0.3,0.9 0.5,1.9 0.7,2.8l-0.4,-0.1c-0.2,-0.1 -0.4,-0.1 -0.5,-0.2l-0.2,-0.1c-0.1,-0.7 -0.3,-1.3 -0.6,-2l-0.2,-0.4c0,0 0,-0.1 -0.1,-0.1l0,-0.2Z" style="fill-rule:nonzero;"></path>
    <path d="M42.8,3.8c-0.1,-0.4 -0.1,-0.9 -0.2,-1.3c0,-0.2 0,-0.4 -0.1,-0.6l1,-0.1c0,0.2 0,0.4 0.1,0.6c0,0.4 0.1,0.9 0.2,1.3c0.3,2.3 0.9,4.5 1.7,6.7c0.4,1 0.8,2 1.3,2.9c-0.3,0.2 -0.5,0.4 -0.8,0.7c-0.5,-1 -1,-2.1 -1.5,-3.2c-0.8,-2.3 -1.4,-4.6 -1.7,-7Z" style="fill-rule:nonzero;"></path>
    <path d="M40.5,4.2c-0.1,-0.5 -0.1,-1 -0.2,-1.4c0,-0.2 0,-0.4 -0.1,-0.6l1,-0.1c0,0.2 0,0.4 0.1,0.7c0,0.5 0.1,0.9 0.2,1.4c0.3,2.5 1,4.9 1.9,7.2c0.5,1.2 1,2.4 1.6,3.5c-0.3,0.2 -0.6,0.4 -0.8,0.7c-0.7,-1.2 -1.3,-2.5 -1.8,-3.8c-0.9,-2.6 -1.6,-5.1 -1.9,-7.6Z" style="fill-rule:nonzero;"></path>
    <path d="M38.1,4.5c0,-0.5 -0.1,-1.1 -0.2,-1.6l0,-0.3l1,-0.1l0,0.3c0,0.5 0.1,1 0.2,1.5c0.4,2.7 1,5.3 2,7.7c0.6,1.4 1.2,2.8 2,4.2c-0.3,0.2 -0.5,0.5 -0.8,0.7c-0.8,-1.5 -1.5,-3 -2.1,-4.5c-1,-2.5 -1.7,-5.2 -2.1,-7.9Z" style="fill-rule:nonzero;"></path>
    <path d="M53.9,7.3c-0.2,-0.4 -0.5,-0.8 -0.6,-1.3c0,-0.2 0.1,-0.4 0.1,-0.6l0,-0.2l0,-0.1l0.1,-0.8l0,-0.4l0,-0.8l0,-0.9l0,-0.2l0,-0.3l-0.1,-1.4l1,-0.1l0.1,1.4l0,2.6l-0.1,0.8l0,0.1c0,0.1 0,0.2 -0.1,0.3c0,0.9 -0.1,1.4 -0.4,1.9Z" style="fill-rule:nonzero;"></path>
    <path d="M38.9,26.1c-0.3,0 -0.7,-0.1 -1.1,-0.1c0.3,-1.2 0.7,-2.4 1.3,-3.5c0.7,-1.4 1.7,-2.7 2.8,-3.8c1,-1 2.1,-2 3.2,-2.9c0.4,-0.3 0.8,-0.6 1.2,-0.9c0.6,-0.5 1.2,-1 1.8,-1.5c0.2,-0.2 0.4,-0.3 0.5,-0.4c0.2,0.3 0.4,0.6 0.6,0.8c-0.2,0.1 -0.3,0.3 -0.5,0.4c-0.6,0.5 -1.2,1 -1.8,1.5c-0.4,0.3 -0.8,0.6 -1.2,0.9c-1.1,0.9 -2.1,1.8 -3.1,2.8c-1,1.1 -1.9,2.3 -2.6,3.6c-0.5,1 -0.9,2 -1.1,3.1Z" style="fill-rule:nonzero;"></path>
    <path d="M54.8,8.8c0.4,-0.9 0.7,-1.9 0.9,-2.8l0,-0.3l0,-0.2l0.1,-0.9l0,-0.5l0,-0.9l0,-1l0,-0.3l0,-0.3l0.2,-0.9l1,-0.1l0.1,0.9l0,3.1l-0.1,1l0,0.1c0,0.1 0,0.3 -0.1,0.4c-0.2,1.2 -0.6,2.4 -1.2,3.5c-0.4,-0.2 -0.7,-0.6 -0.9,-0.8Z" style="fill-rule:nonzero;"></path>
    <path d="M40.9,26.4c-0.2,-0.1 -0.5,-0.1 -0.7,-0.2c0.2,-0.9 0.6,-1.8 1,-2.6c0.6,-1.2 1.4,-2.3 2.4,-3.3c1.3,-1.3 2.7,-2.5 4.1,-3.6c0.6,-0.5 1.3,-1 1.9,-1.5c0.2,-0.1 0.3,-0.3 0.4,-0.4c0.2,0.3 0.5,0.5 0.7,0.8c-0.1,0.1 -0.3,0.3 -0.4,0.4c-0.6,0.5 -1.3,1 -1.9,1.5c-1.4,1.1 -2.8,2.2 -4,3.5c-0.9,0.9 -1.6,1.9 -2.2,3c-0.4,0.7 -0.7,1.5 -0.9,2.4l-0.4,0Z" style="fill-rule:nonzero;"></path>
    <path d="M56.5,10.8c0,-0.1 0.1,-0.2 0.1,-0.2c0.7,-1.3 1.2,-2.7 1.4,-4.2c0,-0.1 0,-0.2 0.1,-0.3l0,-0.2l0.2,-1.1l0,-0.5l0,-1l0,-1.4l0,-0.4l0,-0.6l1,-0.1l0,4l-0.2,1.2l0,0.2c0,0.1 0,0.3 -0.1,0.4c-0.3,1.5 -0.8,3 -1.5,4.4c-0.1,0.2 -0.2,0.4 -0.3,0.6l-0.1,-0.1l-0.6,-0.7Z" style="fill-rule:nonzero;"></path>
    <path d="M42.9,27.1c-0.2,-0.1 -0.4,-0.1 -0.5,-0.2c0.2,-0.7 0.5,-1.5 0.8,-2.1c0.5,-1 1.2,-1.9 2,-2.7c1.1,-1.2 2.5,-2.2 3.9,-3.4c0.6,-0.5 1.3,-1 2,-1.6l0.4,-0.4l0.7,0.8c-0.1,0.1 -0.3,0.3 -0.5,0.4c-0.7,0.6 -1.3,1.1 -2,1.6c-1.4,1.1 -2.7,2.2 -3.8,3.3c-0.7,0.7 -1.4,1.6 -1.8,2.5c-0.3,0.6 -0.6,1.3 -0.8,2c0,-0.1 -0.2,-0.2 -0.4,-0.2Z" style="fill-rule:nonzero;"></path>
    <path d="M14.5,42.2l-0.2,0.2c-0.1,0.2 -0.2,0.4 -0.3,0.5l-0.1,0.1c-1.2,-0.3 -2.4,-0.6 -3.6,-0.9c-1.4,-0.3 -2.7,-0.6 -4.1,-0.7c-1.4,-0.1 -2.9,-0.2 -4.3,0c-0.5,0 -1,0.1 -1.5,0.2l-0.2,-1c0.5,-0.1 1.1,-0.2 1.6,-0.2c1.5,-0.1 3,-0.1 4.5,0c1.4,0.1 2.9,0.4 4.3,0.7c1.3,0.3 2.6,0.6 3.8,1l0.1,0.1Z" style="fill-rule:nonzero;"></path>
    <path d="M28.4,42.1c-1.1,0.5 -2.4,1 -3.6,1.4c-0.9,0.3 -1.8,0.5 -2.8,0.7c0.1,-0.1 0.1,-0.3 0.2,-0.4c0.1,-0.3 0.3,-0.5 0.4,-0.8c0.5,-0.1 1.1,-0.3 1.8,-0.5c1.2,-0.4 2.4,-0.9 3.5,-1.4l0.2,-0.1c1.2,-0.5 2.4,-1 3.7,-1.5c1.5,-0.5 3,-0.9 4.5,-1l1.2,-0.1l1.3,0c0.8,0.1 1.7,0.2 2.5,0.4c1.6,0.4 3,1.1 4.2,2.2c0.1,0.6 0.3,1.1 0.4,1.8c-0.1,-0.1 -0.3,-0.3 -0.4,-0.4c-1.4,-1.3 -2.6,-2.1 -4.4,-2.6c-0.8,-0.2 -1.5,-0.3 -2.3,-0.4l-1.1,0l-1.2,0.1c-1.5,0.2 -2.9,0.5 -4.3,1c-1.3,0.4 -2.5,0.9 -3.7,1.4l-0.1,0.2Z" style="fill-rule:nonzero;"></path>
    <path d="M10,43.4c1,0.2 2,0.5 3,0.8c-0.3,0.3 -0.5,0.6 -0.8,0.9c-0.8,-0.2 -1.6,-0.4 -2.5,-0.6c-3,-0.7 -5.5,-0.9 -7.7,-0.7c-0.6,0.1 -1.2,0.2 -1.8,0.3l-0.2,-1c0.6,-0.1 1.3,-0.2 1.9,-0.3c2.4,-0.3 4.9,-0.1 8.1,0.6Z" style="fill-rule:nonzero;"></path>
    <path d="M46.3,45.4c0.1,0.7 0.2,1.5 0.2,2.2c0,-0.1 -0.1,-0.2 -0.1,-0.3c-1.7,-3.4 -4,-4.7 -5.9,-5.1c-1.2,-0.3 -2.5,-0.4 -3.8,-0.3c-1.3,0.1 -2.5,0.4 -3.7,0.9c-1.2,0.4 -2.4,0.9 -3.5,1.4c-1.3,0.5 -2.6,1.1 -3.9,1.5c-1.3,0.4 -2.6,0.8 -4,0.9l-0.5,0l-0.5,0l0.1,-0.2c0.1,-0.1 0.1,-0.2 0.2,-0.3c0.1,-0.2 0.2,-0.3 0.3,-0.5l0.2,0c1.3,-0.1 2.5,-0.4 3.7,-0.9c1.3,-0.4 2.6,-1 3.8,-1.5c1.2,-0.5 2.4,-1 3.6,-1.4c1.3,-0.5 2.6,-0.8 4,-0.9c1.4,-0.1 2.8,0 4.1,0.3c2.5,0.6 4.2,1.9 5.7,4.2Z" style="fill-rule:nonzero;"></path>
    <path d="M2.2,45.1c2.1,-0.2 4.4,0 7.3,0.6c0.5,0.1 1,0.2 1.5,0.4l-0.2,0.2c-0.3,0.2 -0.7,0.4 -1.1,0.6l-0.4,-0.1c-2.8,-0.6 -5,-0.8 -7,-0.6c-0.6,0.1 -1.1,0.2 -1.7,0.3l-0.2,-1c0.6,-0.2 1.2,-0.4 1.8,-0.4Z" style="fill-rule:nonzero;"></path>
    <path d="M37.7,43.2c5.1,0 8.6,3.7 8.6,10.4l0,10.9l-1,0l0,-11c0,-6 -3.2,-9.3 -7.6,-9.3l-0.8,0c-1.1,0.1 -2.2,0.4 -3.2,0.8c-1.1,0.4 -2.1,0.8 -3.3,1.3c-1.3,0.6 -2.7,1.1 -4.2,1.6c-0.6,0.2 -1.3,0.4 -2.2,0.6l-1,0.3l-1.1,0.2l-0.6,0l-0.6,0l-0.2,0l-0.4,0l-0.2,0l-1,0c0.1,-0.2 0.3,-0.3 0.4,-0.5l0.4,-0.5l1.9,0l1.1,-0.2l1.1,-0.2c0.8,-0.2 1.5,-0.4 2.1,-0.6c1.4,-0.5 2.8,-1 4.1,-1.6c1.2,-0.5 2.2,-0.9 3.3,-1.3c1.1,-0.4 2.3,-0.7 3.4,-0.8c0.4,-0.1 0.6,-0.1 1,-0.1Z" style="fill-rule:nonzero;"></path>
    <path d="M8.7,25.5l-0.3,-0.2l0.7,-0.8l0.2,0.2c0.1,0.1 0.2,0.1 0.2,0.2c0.2,0.1 0.3,0.3 0.5,0.4l1,0.8l0.6,0.4c0.4,0.3 0.8,0.5 1.2,0.8l0.5,0.3c1.1,0.6 2.2,1.1 3.4,1.5c1.2,0.4 2.4,0.6 3.6,0.6c1.3,0.1 2.5,0 3.8,-0.2c1.4,-0.2 2.8,-0.5 4,-0.8l0.4,-0.1l0,1.1l-0.2,0.1c-1.2,0.3 -2.6,0.7 -4.1,0.9c-1.3,0.2 -2.7,0.3 -4,0.2c-1.3,-0.1 -2.6,-0.3 -3.8,-0.7c-1.3,-0.4 -2.5,-0.9 -3.6,-1.6l-0.5,-0.3c-0.4,-0.2 -0.8,-0.5 -1.2,-0.8l-0.6,-0.4l-1,-0.8c-0.2,-0.1 -0.4,-0.3 -0.5,-0.5l-0.3,-0.3Z" style="fill-rule:nonzero;"></path>
    <path d="M37.3,28c-0.4,0 -0.8,0 -1.3,0.1l0,-1l2.7,0c0.2,0 0.3,0 0.5,0.1l0.4,0c0.2,0 0.3,0 0.5,0.1l1,0.2l0.3,0.1c0.2,0.1 0.4,0.1 0.6,0.2c0.2,0.1 0.4,0.1 0.6,0.2c0.8,0.3 1.7,0.7 2.4,1.2c0.8,0.5 1.6,1.1 2.2,1.8c0.4,0.4 0.7,0.8 1.1,1.2c0.1,0.2 0.1,0.5 0.1,0.7c0.1,0.6 0.2,1.2 0.3,1.8c-0.6,-1.1 -1.3,-2.1 -2.2,-3c-0.6,-0.6 -1.3,-1.1 -2.1,-1.6c-0.7,-0.4 -1.5,-0.8 -2.3,-1.1c-0.2,-0.1 -0.4,-0.1 -0.6,-0.2c-0.2,-0.1 -0.3,-0.1 -0.6,-0.2l-0.3,-0.1l-1,-0.2c-0.1,0 -0.3,0 -0.4,-0.1l-0.2,0l-0.2,0l-0.4,0l-0.5,-0.2l-0.2,0l-0.4,0Z" style="fill-rule:nonzero;"></path>
    <path d="M7.4,27.5c-0.1,-0.1 -0.2,-0.1 -0.2,-0.2l-0.8,-0.7l0.6,-0.8l0.8,0.7l0.2,0.2c0.2,0.2 0.3,0.3 0.5,0.4l1.1,0.8l0.7,0.5c0.4,0.3 0.9,0.6 1.4,0.9l0.5,0.3c1.2,0.7 2.5,1.3 3.9,1.7c1.4,0.4 2.7,0.7 4.2,0.7c1.4,0.1 2.8,0 4.3,-0.2c1.4,-0.2 2.8,-0.5 4.2,-0.9c0,0.3 0.1,0.7 0.2,1c-1.4,0.4 -2.8,0.7 -4.2,0.9c-1.5,0.2 -3,0.3 -4.5,0.2c-1.5,-0.1 -3,-0.3 -4.4,-0.8c-1.4,-0.5 -2.8,-1.1 -4.1,-1.8l-0.5,-0.3c-0.5,-0.3 -1,-0.6 -1.4,-0.9l-0.7,-0.5l-1.2,-0.8c-0.2,-0.1 -0.4,-0.3 -0.6,-0.4Z" style="fill-rule:nonzero;"></path>
    <path d="M49.1,39.4l0,2.5c-0.8,-3.3 -2,-6.7 -4.1,-8.7c-1,-0.9 -2.2,-1.7 -3.5,-2.1c-0.2,-0.1 -0.3,-0.1 -0.5,-0.2c-0.1,0 -0.3,-0.1 -0.5,-0.2l-0.3,-0.1l-0.8,-0.2l-0.3,0l-0.2,0l-0.2,0l-0.3,0l-0.6,0l-0.1,0l-0.1,0l-0.3,0l-1.1,0c-0.1,-0.3 -0.1,-0.7 -0.1,-1l3.1,0c0.1,0 0.3,0 0.4,0.1l0.8,0.2l0.3,0.1c0.2,0.1 0.4,0.1 0.5,0.2c0.1,0.1 0.4,0.1 0.5,0.2c1.4,0.5 2.8,1.3 3.9,2.3c1.5,1.4 2.7,3.7 3.3,6l0.2,0.9Z" style="fill-rule:nonzero;"></path>
    <path d="M24.8,34.1c1.5,-0.2 2.9,-0.6 4.3,-0.9c0.1,0.3 0.2,0.7 0.3,1c-1.4,0.4 -2.9,0.7 -4.4,0.9c-1.6,0.3 -3.3,0.3 -4.9,0.3c-1.7,-0.1 -3.4,-0.4 -5,-0.9c-1.6,-0.5 -3.1,-1.2 -4.6,-2l-0.5,-0.3c-0.5,-0.3 -1.1,-0.7 -1.6,-1l-0.7,-0.5l-1.2,-0.9c-0.2,-0.2 -0.4,-0.3 -0.6,-0.5l-0.3,-0.3l-0.5,-0.4l0.7,-0.8l0.5,0.4l0.2,0.2c0.2,0.2 0.4,0.3 0.6,0.5l1.2,0.9l0.7,0.5c0.5,0.4 1,0.7 1.5,1l0.4,0.3c1.4,0.8 2.8,1.4 4.4,1.9c1.5,0.5 3.1,0.8 4.7,0.8c1.6,0.1 3.2,0.1 4.8,-0.2Z" style="fill-rule:nonzero;"></path>
    <path d="M47.5,40.9c0.3,1.3 0.6,2.7 0.7,4.1c0.3,2.8 0.5,5.7 0.4,8.5l0,10.8l-1,0l0,-10.8c0,-2.8 -0.1,-5.6 -0.4,-8.4c-0.2,-1.3 -0.4,-2.7 -0.7,-4c0,-0.1 0,-0.2 -0.1,-0.3c-0.1,-0.2 -0.1,-0.5 -0.2,-0.7l-0.1,-0.5l-0.1,-0.3c-0.1,-0.2 -0.1,-0.4 -0.2,-0.6c0,-0.1 -0.1,-0.2 -0.1,-0.3c0,-0.1 -0.1,-0.2 -0.1,-0.2l-0.2,-0.2c-0.1,-0.1 -0.1,-0.3 -0.2,-0.4c-0.5,-1 -1.1,-1.9 -1.9,-2.7c-0.8,-0.7 -1.7,-1.3 -2.8,-1.6c-0.1,-0.1 -0.3,-0.1 -0.4,-0.1c-0.2,-0.1 -0.3,-0.1 -0.4,-0.1l-0.1,-0.1l-0.6,-0.2l-0.2,0l-0.2,0l-0.2,0l-0.2,0l-0.5,0l-0.1,0l-0.1,0l-0.2,0l-0.5,0c-0.1,-0.3 -0.2,-0.7 -0.3,-1l2.2,0c0.1,0 0.2,0 0.3,0.1l0.6,0.1l0.2,0.1c0.1,0 0.3,0.1 0.5,0.1c0.1,0 0.3,0.1 0.4,0.2c1.1,0.4 2.2,1 3.1,1.9c0.9,0.9 1.6,1.9 2.1,3c0.1,0.1 0.1,0.3 0.2,0.5l0.1,0.2c0,0.1 0.1,0.2 0.1,0.3c0,0.1 0.1,0.2 0.1,0.3c0.1,0.2 0.2,0.4 0.2,0.6l0.2,0.5l0.1,0.5c0.1,0.2 0.1,0.5 0.2,0.7c0.4,-0.1 0.4,-0.1 0.4,0Z" style="fill-rule:nonzero;"></path>
    <path d="M51,38.6l0,25.8l-1,0l0,-25.2l0,-0.6l0,-1.3l-0.1,-1.3c-0.1,-1.1 -0.2,-2.3 -0.5,-3.4l-0.1,-0.4c0,-0.1 0,-0.2 -0.1,-0.2l0,-0.2c0,-0.1 0,-0.2 -0.1,-0.3c0,-0.2 -0.1,-0.3 -0.1,-0.5l-0.2,-1c0,-0.2 -0.1,-0.3 -0.2,-0.5c0,-0.1 -0.1,-0.2 -0.1,-0.3c-0.4,-1.1 -0.8,-2.2 -1.3,-3.2c-0.3,-0.7 -0.7,-1.4 -1.1,-2.2c0.2,-0.3 0.5,-0.5 0.8,-0.8c0.5,0.8 0.9,1.7 1.3,2.5c0.5,1.1 0.9,2.2 1.3,3.3c0,0.1 0.1,0.2 0.1,0.3c0.1,0.2 0.1,0.4 0.2,0.6l0.2,0.8c0,0.2 0.1,0.4 0.1,0.6c0,0.1 0,0.2 0.1,0.3l0,0.2c0,0.1 0,0.2 0.1,0.3l0.1,0.5c0.2,1.2 0.4,2.4 0.5,3.5l0.1,1.3l0,1.4Z" style="fill-rule:nonzero;"></path>
    <path d="M52.7,31.9c0.2,1.3 0.4,2.5 0.5,3.8c0.1,1.2 0.1,2.4 0.1,3.8l0,24.8l-1,0l0,-24.8c0,-1.4 0,-2.6 -0.1,-3.7c-0.1,-1.2 -0.3,-2.5 -0.5,-3.7l-0.1,-0.5c0,-0.1 0,-0.2 -0.1,-0.3l0,-0.2c0,-0.1 -0.1,-0.2 -0.1,-0.3c0,-0.2 -0.1,-0.4 -0.1,-0.6l-0.3,-0.9c0,-0.2 -0.1,-0.4 -0.2,-0.6c0,-0.1 -0.1,-0.2 -0.1,-0.3c-0.4,-1.2 -0.8,-2.3 -1.4,-3.5c-0.4,-1 -0.9,-2 -1.5,-2.9l0.2,-0.2c0.2,-0.2 0.4,-0.3 0.6,-0.5c0.6,1 1.1,2.1 1.6,3.2c0.5,1.2 1,2.4 1.4,3.6c0,0.1 0.1,0.2 0.1,0.3c0.1,0.2 0.1,0.4 0.2,0.6l0.3,0.9c0.1,0.2 0.1,0.4 0.1,0.6l0.1,0.3l0,0.2c0,0.1 0,0.2 0.1,0.3l0.2,0.6Z" style="fill-rule:nonzero;"></path>
    <path d="M55.7,38.6l0,25.8l-1,0l0,-25.2l0,-0.6l0,-1.5l-0.1,-1.5c-0.1,-1.3 -0.3,-2.6 -0.5,-3.9l-0.1,-0.5c0,-0.1 0,-0.2 -0.1,-0.3l0,-0.2c0,-0.1 -0.1,-0.2 -0.1,-0.3c-0.1,-0.2 -0.1,-0.4 -0.2,-0.6l-0.3,-1c-0.1,-0.2 -0.1,-0.4 -0.2,-0.6l-0.1,-0.4c-0.4,-1.3 -0.9,-2.5 -1.5,-3.7c-0.5,-1.2 -1.1,-2.3 -1.8,-3.4l0.5,-0.4l0.3,-0.3c0.7,1.2 1.3,2.4 1.9,3.7c0.6,1.2 1.1,2.5 1.5,3.8l0.1,0.3c0.1,0.2 0.1,0.4 0.2,0.7l0.3,1c0.1,0.2 0.1,0.5 0.2,0.7c0,0.1 0,0.2 0.1,0.3l0,0.2c0,0.1 0.1,0.2 0.1,0.3l0.1,0.5c0.3,1.3 0.4,2.7 0.5,4.1l0.2,3Z" style="fill-rule:nonzero;"></path>
    <path d="M65.6,10.8c-0.2,-2.4 0,-4.9 0.5,-7.3c0.1,-0.4 0.2,-0.9 0.3,-1.3l1,0.2c-0.1,0.4 -0.2,0.9 -0.3,1.3c-0.5,2.3 -0.7,4.7 -0.5,7c0.1,1.2 0.3,2.3 0.6,3.4c0.2,0.6 0.3,1.3 0.5,1.9c-0.3,0.2 -0.6,0.3 -0.9,0.5c-0.2,-0.7 -0.4,-1.4 -0.6,-2.1c-0.3,-1.2 -0.5,-2.4 -0.6,-3.6Z" style="fill-rule:nonzero;"></path>
    <path d="M63.9,14.9c-0.3,-1.3 -0.5,-2.6 -0.7,-3.9c-0.2,-2.7 0,-5.3 0.5,-7.9c0.2,-0.6 0.3,-1.1 0.4,-1.7l0.1,-0.4l1,0.2l-0.1,0.4c-0.1,0.5 -0.3,1 -0.3,1.6c-0.5,2.5 -0.7,5.1 -0.5,7.7c0.1,1.3 0.3,2.5 0.6,3.8c0.2,0.8 0.4,1.6 0.7,2.4l-0.3,0.1l-0.7,0.3c-0.2,-0.8 -0.5,-1.7 -0.7,-2.6Z" style="fill-rule:nonzero;"></path>
    <path d="M62.7,34.5c-0.6,0.6 -1.2,1.2 -1.7,1.9c-2.1,2.5 -3.3,5.2 -4.3,8.7l0,-3c0.7,-2.3 1.9,-4.5 3.5,-6.4c0.6,-0.7 1.2,-1.3 1.8,-1.9c0.3,-0.3 0.6,-0.6 0.9,-1c0.5,-0.5 0.9,-1 1.2,-1.5c0.4,-0.5 0.7,-1 1,-1.6c0.6,-1.1 1,-2.3 1.1,-3.5c0,-0.4 0.1,-0.7 0.1,-1.1c0.3,-0.2 0.7,-0.3 1.1,-0.5c0,0.6 0,1.2 -0.1,1.7c-0.2,1.4 -0.6,2.7 -1.2,3.9c-0.3,0.6 -0.7,1.2 -1.1,1.7c-0.4,0.5 -0.8,1 -1.3,1.5c-0.4,0.4 -0.7,0.7 -1,1.1Z" style="fill-rule:nonzero;"></path>
    <path d="M60.9,11.2c-0.2,-2.9 0,-5.8 0.6,-8.6c0.1,-0.5 0.2,-1.1 0.3,-1.6l1,0.2c-0.1,0.5 -0.2,1 -0.3,1.5c-0.6,2.7 -0.8,5.5 -0.6,8.3c0.1,1.4 0.3,2.8 0.7,4.2c0.2,1 0.5,1.9 0.8,2.8l-0.9,0.5c-0.3,-1 -0.6,-2 -0.9,-3c-0.3,-1.4 -0.6,-2.9 -0.7,-4.3Z" style="fill-rule:nonzero;"></path>
    <path d="M61.9,31.9c-0.3,0.3 -0.6,0.6 -0.9,0.9c-2.5,2.6 -3.4,4 -4.4,6.4l0,-2.1c0.4,-1.2 1.7,-3 3.7,-5.1c0.3,-0.3 0.6,-0.6 0.9,-0.9c0.4,-0.4 0.8,-0.9 1.1,-1.3c0.3,-0.4 0.6,-0.8 0.8,-1.2c0.2,-0.4 0.4,-0.9 0.5,-1.3c0.1,-0.3 0.2,-0.6 0.2,-1c0.4,-0.2 0.7,-0.4 1.1,-0.6l0,0.3c-0.1,0.5 -0.2,1.1 -0.4,1.6c-0.2,0.5 -0.4,1 -0.6,1.5c-0.3,0.5 -0.6,1 -0.9,1.4c-0.3,0.5 -0.7,0.9 -1.1,1.4Z" style="fill-rule:nonzero;"></path>
    <path d="M69.7,24.2c0,0.8 0,1.6 -0.1,2.5c-0.1,0.8 -0.3,1.6 -0.5,2.4c-0.2,0.8 -0.6,1.6 -0.9,2.3c-0.4,0.7 -0.8,1.4 -1.3,2c-0.4,0.6 -0.9,1.1 -1.5,1.7c-0.3,0.4 -0.6,0.7 -1,1c-0.6,0.6 -1.1,1.2 -1.6,1.8c-0.7,0.8 -1.4,1.8 -1.9,2.7c-0.5,1 -1,2 -1.3,3.1c-0.4,1.1 -0.6,2.3 -0.8,3.4c-0.4,2.4 -0.6,4.9 -0.6,7.3l0,9.9l-1,0l0,-9.9c0,-2.5 0.2,-5 0.6,-7.5c0.2,-1.2 0.5,-2.4 0.9,-3.5c0.4,-1.1 0.8,-2.2 1.4,-3.3c0.6,-1 1.3,-2 2.1,-2.9c0.5,-0.6 1.1,-1.2 1.7,-1.8c0.3,-0.3 0.6,-0.7 0.9,-1c0.5,-0.5 1,-1.1 1.4,-1.6c0.5,-0.6 0.9,-1.2 1.2,-1.9c0.4,-0.7 0.7,-1.4 0.9,-2.1c0.2,-0.7 0.4,-1.5 0.5,-2.2c0.1,-0.8 0.1,-1.5 0.1,-2.3l0,-0.2l1,-0.5c-0.2,0.2 -0.2,0.4 -0.2,0.6Z" style="fill-rule:nonzero;"></path>
    <path d="M69.1,38.9c-3.8,0.5 -6.3,1.9 -8.2,3.6c0,-0.1 0.1,-0.2 0.1,-0.2l0.1,-0.3c0.1,-0.2 0.2,-0.4 0.3,-0.6l0,-0.1c0.1,-0.2 0.3,-0.5 0.4,-0.7l0.1,-0.2c1.5,-1 3.8,-2.1 7,-2.5l0.3,0c0.3,0 0.6,-0.1 0.8,-0.1l3.4,0c1.5,0.1 3,0.4 4.5,0.8c1.4,0.4 2.8,0.9 4.1,1.5c2.3,1 4.4,2.1 6.4,3.2l0.9,0.5c2.3,1.2 4.6,2.4 6.8,3.2c2.3,0.9 4.6,1.2 6.7,1.2l0.8,0l0.6,-0.1l0.1,1l-0.6,0.1l-0.9,0c-2.3,0.1 -4.6,-0.3 -7.1,-1.2c-2.3,-0.8 -4.6,-2 -6.9,-3.3l-0.8,-0.6c-2,-1.1 -4.1,-2.2 -6.3,-3.2c-1.3,-0.6 -2.6,-1 -4,-1.4c-1.4,-0.4 -2.8,-0.6 -4.3,-0.7l-0.8,0l-0.3,0l-0.5,0l-0.5,0l-0.7,0l-0.4,0c-0.3,0 -0.5,0.1 -0.8,0.1l-0.3,0Z" style="fill-rule:nonzero;"></path>
    <path d="M59.4,47.8c0,-0.2 0,-0.3 0.1,-0.4c0.1,-0.8 0.3,-1.5 0.5,-2.2c1.9,-2.5 4.7,-4.4 9.3,-5c1.4,-0.2 2.7,-0.2 4.1,-0.1c2.5,0.2 5,0.8 7.8,2c2.2,0.9 4.3,2.1 6.3,3.2l0.8,0.5c2.5,1.3 4.7,2.5 7.1,3.4c1.2,0.4 2.5,0.8 3.7,1c1.3,0.2 2.6,0.3 3.8,0.3l1,0l1,-0.1l0.1,1l-1,0.1c-0.2,0 -0.5,0 -0.7,0.1l-0.4,0c-1.4,0.1 -2.7,0 -4.1,-0.3c-1.3,-0.2 -2.6,-0.6 -3.9,-1.1c-2.5,-0.9 -4.7,-2.1 -7.3,-3.5l-0.6,-0.5c-2,-1.1 -4.1,-2.2 -6.2,-3.1c-2.7,-1.2 -5.2,-1.8 -7.5,-2c-1.3,-0.1 -2.6,0 -3.9,0.1c-5,0.7 -8.1,3.2 -10,6.6Z" style="fill-rule:nonzero;"></path>
    <path d="M105,52.6l0.1,1l-0.7,0.1c-0.3,0 -0.6,0 -0.8,0.1l-0.4,0c-1.5,0.1 -3.1,0 -4.6,-0.3c-1.5,-0.3 -2.9,-0.7 -4.3,-1.2c-2.8,-1 -5.3,-2.4 -7.6,-3.6l-0.8,-0.4c-2.1,-1.1 -4.1,-2.2 -6.1,-3.1c-2.5,-1.1 -4.7,-1.6 -6.7,-1.8l-0.5,0l-0.4,0l-0.4,0l-0.5,0l-0.5,0l-0.3,0c-0.2,0 -0.3,0 -0.5,0.1l-0.3,0c-1.1,0.1 -2.1,0.4 -3.2,0.8c-4.1,1.7 -6.1,4.9 -6.1,8.9l0,11.1l-1,0l0,-11c0,-4.5 2.4,-8.2 6.8,-9.9c1.1,-0.4 2.2,-0.7 3.4,-0.9l0.3,0c0.2,0 0.4,0 0.6,-0.1l2.6,0c2.2,0.1 4.5,0.7 7.1,1.9c2.1,0.9 4.1,2 6.2,3.1l0.8,0.4c2.2,1.2 4.7,2.5 7.4,3.5c1.3,0.5 2.7,0.9 4.1,1.1c1.4,0.3 2.9,0.4 4.4,0.3l0.4,0c0.3,0 0.5,0 0.8,-0.1l0.7,0Z" style="fill-rule:nonzero;"></path>
  </g>
</svg>
