<svg width="21" height="22" xmlns="http://www.w3.org/2000/svg"><path d="M4.904 8.752c.292-.294 2.043-.733 1.896-2.639-.146-.586-.364-2.198-.656-3.151C5.414.617 5.268-.335 3.08.104 2.059.324 1.11 1.277.673 2.156-3.34 8.972 11.615 25.021 18.618 21.502c.876-.44 1.897-1.32 2.188-2.271.657-1.98-.364-2.492-2.918-3.37-1.02-.294-2.334-.734-2.918-.88-1.897-.294-2.334 1.538-2.626 1.758-2.626-.733-6.857-5.276-7.44-7.988zm12.025 2.538c-.152 1.08-1.892.864-1.74-.217.453-3.024-2.045-5.616-5.299-5.4-1.135.072-1.21-1.584-.076-1.656 4.39-.289 7.72 3.169 7.115 7.273zm4.024.963c-.07 1.088-1.693.943-1.623-.146.494-5.37-3.315-9.58-8.536-9.435-1.059 0-1.059-1.669 0-1.669 6.137-.145 10.724 4.863 10.159 11.25z" fill="#FFF" fill-rule="evenodd"/></svg>