<svg width="64" height="64" xmlns="http://www.w3.org/2000/svg"><g fill="none" fill-rule="evenodd"><path d="M53.923 42.398c-2.96-2.96-7.242-3.773-10.94-2.467L22.065 19.017c1.309-3.699.495-7.98-2.465-10.938a10.48 10.48 0 00-7.69-3.074c-1.247.03-1.519 1.01-.637 1.89l2.688 2.69c2.558 2.558 2.558 5.162 0 7.72-2.559 2.558-5.162 2.558-7.72 0l-2.69-2.69c-.882-.882-1.862-.608-1.891.636a10.475 10.475 0 003.075 7.69c2.959 2.958 7.239 3.773 10.938 2.466L36.59 46.323c-1.309 3.7-.495 7.982 2.465 10.939a10.48 10.48 0 007.69 3.074c1.247-.031 1.519-1.011.637-1.893l-2.69-2.69c-2.558-2.558-2.558-5.162 0-7.722 2.558-2.558 5.162-2.558 7.723 0l2.69 2.69c.881.881 1.861.608 1.89-.637a10.474 10.474 0 00-3.072-7.686h0z" stroke="#008943" stroke-width="3"/><path d="M51.134 16.645a2.98 2.98 0 01.87-.61l4.529-2.11c.754-.35 1.099-.667 1.52-1.383l3.702-6.324c.194-.333.165-.57-.11-.846L58.75 2.478c-.272-.272-.51-.301-.847-.107L51.58 6.073c-.72.42-1.032.766-1.383 1.52l-2.111 4.529a2.972 2.972 0 01-.606.87l-12.459 12.45 3.657 3.655 12.455-12.452z" stroke="#008943" stroke-width="3"/><path d="M17.197 37.776c-.33.034-.582.134-.814.368L4.43 50.092c-3.699 3.699-3.361 6.784 0 10.148l.45.453c3.364 3.364 6.45 3.699 10.148 0L26.982 48.74c.234-.234.334-.484.368-.814.103-1.053.42-2.663 1.659-4.064l-7.748-7.747c-1.4 1.239-3.01 1.553-4.064 1.661zm-12.26 18.01a1.433 1.433 0 010-2.029L17.846 40.85a1.438 1.438 0 012.03 0c.56.561.56 1.47 0 2.029L6.965 55.787a1.433 1.433 0 01-2.029 0zm18.323-10.96a1.433 1.433 0 011.015 2.45L11.362 60.181a1.433 1.433 0 01-2.03 0 1.433 1.433 0 010-2.03l12.91-12.908c.283-.28.65-.42 1.017-.42z" fill="#008943"/></g></svg>