<svg width="71" height="59" xmlns="http://www.w3.org/2000/svg"><g fill="#008943" fill-rule="evenodd"><path d="M59.4 42.418c.734-.73 1.916-.73 2.608 0L70.45 50.8c.735.73.735 1.903 0 2.591l-2.242 2.227a1.793 1.793 0 0 1-1.304.527 1.89 1.89 0 0 1-1.305-.527l-8.44-8.382c-.733-.729-.733-1.903 0-2.59l2.242-2.228zM36.692 22.143c5.424-5.416 14.26-5.416 19.685 0 4.85 4.805 5.425 12.46 1.397 17.915l.453.449a1.074 1.074 0 0 1 0 1.506l-1.48 1.466a1.099 1.099 0 0 1-1.52 0l-.454-.448c-2.424 1.79-5.342 2.646-8.22 2.646-3.575 0-7.192-1.344-9.863-4.03-5.425-5.416-5.425-14.13.002-19.504zm2.055 17.466a10.992 10.992 0 0 0 7.808 3.216 11 11 0 0 0 7.81-3.216c4.315-4.275 4.315-11.197 0-15.43-4.316-4.276-11.345-4.276-15.618-.042a10.864 10.864 0 0 0 0 15.473z"/><path d="M46.763 20.967H43.89l.001-1.826-.009-2.964V7.374c0-.066-.005-.142-.005-.214-.009-.293.014.057.014.063.023-.065-.049-.236-.063-.299-.006-.028-.023-.062-.029-.09-.049-.152-.037-.123.043.07a2.994 2.994 0 0 0-.178-.31c.035.048.08.097.115.148a2.05 2.05 0 0 1-.115-.12c-.186-.21.215.143.058.052-.155-.086.353.07.08.028-.296-.051.359-.014.043 0-.115.006-.23 0-.344 0h-8.373c-.804 0-1.4-.654-1.42-1.405-.035-.769.682-1.423 1.434-1.423h8.356c.115 0 .238-.006.358 0 .947.034 1.693.483 2.239 1.229.496.675.668 1.557.668 2.368.006 1.4 0 2.812 0 4.212v9.284zm0 22.713v10.198c0 .404.015.826-.028 1.23-.178 1.574-1.177 2.945-2.884 2.988H3.647c-1.134-.02-2.13-.603-2.746-1.542C.393 55.779.35 54.94.35 54.072V7.543c0-1.894 1.36-3.667 3.363-3.672 2.754-.015 5.503 0 8.258 0 .804 0 1.4.654 1.435 1.423.034.768-.683 1.423-1.435 1.423h-8.37c-.258-.009.1.005.115-.023-.058.017-.115.028-.173.051.196-.085.239-.108.138-.057-.023.02-.206.091-.2.12.005.037.22-.205.062-.043-.043.043-.192.15-.206.214 0 0 .18-.294.043-.043-.035.074-.078.15-.12.222-.104.17.085-.319.005 0 0 0-.066.19-.052.205.012-.205.02-.225.006-.063v47.494c.009.308 0-.068-.006-.062-.014.011.064.276.087.29-.02-.049-.04-.105-.064-.157.03.057.058.114.092.171.12.256-.057-.065-.057-.051 0 .048.16.17.195.205.152.162-.049-.094-.072-.051-.005.014.187.1.201.113.112.109-.316-.08-.052-.028 0 0 .167.028.173.043-.07-.08-.35-.015-.12-.029h39.733c.16 0 .324-.006.482 0h.043c.295.012-.296.077-.043.006.25-.08-.287.185-.015 0 .144-.105-.25.265-.071.051.005-.006.091-.114.114-.12-.137.18-.166.208-.08.08.014-.028.029-.051.043-.08.115-.187-.098.069-.034.092.008 0 .066-.205.071-.228.009-.043.075-.208.052-.242.02.028-.014.293-.014.071 0-.353.005-.708.005-1.059V43.015l2.881.665z"/><path d="M37.495 19.154H13.02c-1.125 0-2.262-.029-3.386 0H9.58c-.752 0-1.47.654-1.435 1.423C8.18 21.345 8.776 22 9.58 22h24.478c1.125 0 2.261.028 3.386 0h.051c.752 0 1.47-.655 1.435-1.423-.037-.775-.631-1.423-1.435-1.423zm-3.738 11.953H12.398c-.982 0-1.973-.029-2.955 0h-.045c-.656 0-1.282.654-1.252 1.423.03.768.55 1.423 1.252 1.423h21.359c.982 0 1.973.028 2.955 0h.045c.656 0 1.282-.655 1.252-1.423-.033-.774-.551-1.423-1.252-1.423zM23.794 43.06H9.596c-.752 0-1.47.655-1.435 1.423.034.769.631 1.423 1.435 1.423h14.198c.752 0 1.47-.654 1.435-1.423-.035-.774-.632-1.423-1.435-1.423zM29.742.213H14.066c-1.564 0-3.027.934-3.429 2.49-.13.499-.115 1.003-.115 1.515v1.807c0 .398-.006.803 0 1.201a3.426 3.426 0 0 0 1.607 2.86c.717.45 1.515.498 2.324.498h18.325c1.033 0 2.003-.205 2.783-.945.689-.654 1.019-1.56 1.027-2.49V5.692c0-1.21.178-2.604-.407-3.714C35.587.882 34.422.25 33.205.213 32.454.191 34.637 0 34.637 1.625s-2.24 1.412-1.437 1.434c.051 0 .1.006.149.006.158 0-.13-.006-.144-.023.006.006.416.185.195.043-.186-.114.064.057.121.08.158.057-.13-.063-.1-.086.005-.005.129.114.137.12.029.028.058.071.092.1.12.108-.1-.092-.08-.109-.006.006.244.376.109.157-.11-.171.006.085.028.142.064.12-.022-.108-.014-.142-.014.051.006.142.006.199.006.319 0 .632 0 .953 0 .925.029 1.85 0 2.775 0 .043-.023.108-.006.148-.006-.034.072-.262.014-.142-.028.057-.143.313-.028.142.115-.185-.058.063-.08.12-.058.156.063-.137.086-.1.005.014-.15.157-.158.171a.948.948 0 0 1-.11.091c-.028-.023.259-.142.101-.085-.052.022-.301.193-.12.08.172-.109-.087.005-.144.028-.12.062.11-.023.144-.014-.043-.015-.144.005-.201.005H17.81c-1.283 0-2.577.006-3.86 0h-.109c-.043 0-.109-.022-.149-.005.034-.006.264.07.143.014-.057-.029-.315-.142-.143-.029.186.114-.063-.057-.12-.08-.158-.056.137.063.1.086-.014.006-.15-.142-.172-.156a1.081 1.081 0 0 1-.092-.109c.023-.028.143.257.086.1-.023-.051-.195-.299-.08-.12.109.171-.006-.085-.03-.142-.062-.12.024.108.015.142.015-.042-.005-.142-.005-.199V3.492c0-.043.022-.108.005-.148.015.051-.08.242-.014.142.023-.028.029-.108.034-.136.063-.27-.014.09-.043.08-.005 0 .13-.243.144-.243.023.006-.201.205-.08.109.042-.035.086-.091.129-.137a.939.939 0 0 1 .109-.091c.043.028-.264.128-.1.085.034-.005.091-.051.12-.07.235-.157-.08.056-.086.028 0-.029.258-.057.272-.08-.006.006-.301.014-.143.023.051 0 .1-.006.149-.006h19.312c.751 0 1.434-.63 1.434-1.423S34.003.213 33.2.213h-3.458z"/></g></svg>