<svg viewBox="0 0 512 512"><path d="M472.436 69.772H231.952c-21.816 0-39.564 17.749-39.564 39.564V133.9h-8.532a7.5 7.5 0 000 15h8.532v120.758c0 21.816 17.749 39.564 39.564 39.564h72.661v24.565c0 13.545-11.02 24.564-24.564 24.564H135.755c-2.029 0-3.949.82-5.345 2.239-.953.955-24.508 24.511-66.472 66.475-.13.129-.242.241-.539.118-.302-.125-.302-.286-.302-.473v-60.859a7.5 7.5 0 00-7.5-7.5H39.564C26.02 358.353 15 347.333 15 333.788V173.466c0-13.545 11.02-24.564 24.564-24.564h112.223a7.5 7.5 0 000-15H39.564C17.749 133.901 0 151.65 0 173.466v160.323c0 21.816 17.749 39.564 39.564 39.564h8.532v53.359a15.46 15.46 0 009.562 14.332 15.487 15.487 0 005.934 1.185c4.026 0 7.976-1.578 10.952-4.555l64.318-64.32h141.186c21.816 0 39.564-17.749 39.564-39.564v-24.565h53.522l64.28 64.28a15.472 15.472 0 0016.91 3.363 15.47 15.47 0 009.579-14.335v-53.309h8.532c21.816 0 39.564-17.749 39.564-39.564V109.337c.001-21.816-17.748-39.565-39.563-39.565zM497 269.659c0 13.545-11.02 24.564-24.564 24.564h-16.032a7.5 7.5 0 00-7.5 7.5v60.809c0 .177 0 .345-.319.477-.316.131-.437.014-.563-.112l-66.477-66.477a7.501 7.501 0 00-5.303-2.197h-144.29c-13.545 0-24.564-11.02-24.564-24.564V109.337c0-13.545 11.02-24.564 24.564-24.564h240.484c13.545 0 24.564 11.02 24.564 24.564v160.322z"/><path d="M352.194 117.869h-.003c-15.108.001-28.981 6.938-38.063 19.031a7.5 7.5 0 0011.994 9.008c6.222-8.285 15.724-13.038 26.069-13.038 8.477-.001 16.597 3.451 22.865 9.719s9.719 14.388 9.719 22.865c-.001 14.28-9.543 27.114-23.205 31.211-10.094 3.027-16.876 12.071-16.876 22.505v2.394a7.5 7.5 0 0015 0v-2.394c0-3.758 2.485-7.028 6.185-8.137 19.956-5.984 33.895-24.726 33.896-45.578.001-12.484-5.011-24.371-14.112-33.472-9.101-9.103-20.986-14.114-33.469-14.114zm-.001 128.258h-.08c-4.142 0-7.46 3.358-7.46 7.5s3.398 7.5 7.54 7.5a7.5 7.5 0 000-15zm-199.886-56.629v96.194a7.5 7.5 0 0015 0v-96.194a7.5 7.5 0 00-15 0zm7.58 120.758h-.08c-4.142 0-7.46 3.358-7.46 7.5s3.398 7.5 7.54 7.5a7.5 7.5 0 000-15z"/></svg>