<svg xmlns="http://www.w3.org/2000/svg" viewBox="0 0 459 459"><path d="M211.65 142.8c2.55 0 2.55 0 0 0 2.55-10.2 5.1-15.3 5.1-22.95v-5.1c2.55-12.75 2.55-22.95 0-25.5V86.7l-2.55-2.55s0 2.55-2.55 2.55c-5.1 15.3-5.1 33.15 0 56.1zm-76.5 175.95c-5.1 2.55-10.2 5.1-12.75 7.65-17.85 15.3-30.6 33.149-33.15 40.8 15.3-2.55 30.6-17.85 45.9-48.45 2.55 0 2.55 0 0 0 2.55 0 0 0 0 0zm234.6-38.25c-2.55-2.55-12.75-10.2-48.45-10.2h-5.1v2.55c17.85 7.65 35.7 12.75 48.45 12.75h7.65v-2.55s-2.55 0-2.55-2.55zM408 0H51C22.95 0 0 22.95 0 51v357c0 28.05 22.95 51 51 51h357c28.05 0 51-22.95 51-51V51c0-28.05-22.95-51-51-51zm-28.05 300.9c-5.101 2.55-12.75 5.1-22.95 5.1-20.4 0-51-5.1-76.5-17.85-43.35 5.1-76.5 10.199-102 20.399-2.55 0-2.55 0-5.1 2.55-30.6 53.551-56.1 79.051-76.5 79.051-5.1 0-7.65 0-10.2-2.551l-12.75-7.649v-2.55c-2.55-5.101-2.55-7.65-2.55-12.75 2.55-12.75 17.85-35.7 48.45-53.551 5.1-2.55 12.75-7.649 22.95-12.75 7.65-12.75 15.3-28.05 25.5-45.899 12.75-25.5 20.4-51 28.05-73.95-10.2-30.6-15.3-48.45-5.1-84.15 2.55-10.2 10.2-20.4 20.4-20.4h5.1c5.1 0 10.2 2.55 15.3 5.1 17.851 17.85 10.2 58.65 0 91.8v2.55c10.2 28.05 25.5 51 40.8 66.3 7.65 5.1 12.75 10.2 22.95 15.3 12.75 0 22.95-2.55 33.15-2.55 30.6 0 51 5.1 58.649 17.85 2.551 5.101 2.551 10.2 2.551 15.3-2.55 2.55-5.1 10.2-10.2 15.3zM214.2 201.45c-5.1 17.85-15.3 38.25-25.5 61.2-5.1 10.199-10.2 17.85-15.3 28.05h5.1c33.15-12.75 63.75-20.4 84.15-22.95-5.101-2.55-7.65-5.1-10.2-7.65-12.75-15.3-28.05-35.7-38.25-58.65z"/></svg>