<svg viewBox="0 0 512 512" xmlns="http://www.w3.org/2000/svg"><path d="M504.5 292.95a7.5 7.5 0 007.5-7.5v-24.6a12.53 12.53 0 00-.745-4.226l-.004-.014c-.008-.023-.019-.045-.027-.067-.103-.28-.213-.557-.335-.829l-.013-.028a11.833 11.833 0 00-.415-.837l-.019-.033a12.519 12.519 0 00-.47-.789c-.09-.139-.191-.271-.286-.406-.088-.124-.17-.252-.262-.372l-59.836-78.139c-2.34-3.087-6.058-4.93-9.947-4.93h-64.82v-21.998h74.72c6.893 0 12.5-5.607 12.5-12.5v-22.93c0-6.893-5.607-12.5-12.5-12.5h-95.25a7.504 7.504 0 00-4.682 1.641l-50.467 40.319h-93.56a7.5 7.5 0 000 15h96.189a7.5 7.5 0 004.681-1.641l50.467-40.319h90.121v17.93h-82.57a7.5 7.5 0 00-4.682 1.641l-50.456 40.319h-292.8v-17.93h154.05a7.5 7.5 0 000-15H14.032c-6.893 0-12.5 5.607-12.5 12.5v22.93c0 6.893 5.607 12.5 12.5 12.5h.908L47.914 272.4h-9.522c-14.259 0-25.86 11.601-25.86 25.86v54.439L.531 382.949a7.5 7.5 0 004.206 9.737 7.499 7.499 0 009.737-4.206l9.71-24.475 21.047 8.833c6.775 22.483 27.664 38.909 52.326 38.909 21.634 0 40.371-12.638 49.219-30.918h23.733c8.848 18.28 27.585 30.918 49.219 30.918 3.38 0 6.766-.312 10.064-.926 13.527-2.521 25.526-10.016 33.786-21.105a54.795 54.795 0 005.389-8.887h30.808l3.035 7.651a7.501 7.501 0 009.737 4.206 7.5 7.5 0 004.206-9.737l-.841-2.12h42.768c8.848 18.28 27.585 30.918 49.219 30.918s40.371-12.638 49.219-30.918h42.371c6.898 0 12.51-5.612 12.51-12.51V320.45a7.5 7.5 0 00-15 0v45.38h-35.16c.458-2.843.705-5.757.705-8.727 0-30.132-24.514-54.645-54.646-54.645-12.425 0-23.889 4.176-33.079 11.188V185.18h63.586l9.869 12.888h-40.211c-5.241 0-9.504 4.263-9.504 9.503v49.581c0 5.24 4.263 9.503 9.504 9.503H497v18.794a7.5 7.5 0 007.5 7.501zM359.82 153.998V272.4h-42.539v-32.758a7.5 7.5 0 00-15 0V272.4H245.02v-82.258h57.26v14.498a7.5 7.5 0 0015 0v-16.649zM172.761 272.4v-82.258h57.26V272.4zm-72.259 0v-82.258h57.26V272.4zM31.1 190.142h54.401V272.4H64.074zm11.848 165.472l-13.233-5.554 12.933-32.601h17.356c-10.178 9.647-16.651 23.153-17.056 38.155zm54.608 41.134c-21.861 0-39.646-17.785-39.646-39.646 0-21.828 17.733-39.591 39.55-39.643h.192c21.816.052 39.549 17.815 39.549 39.643.001 21.861-17.784 39.646-39.645 39.646zm53.94-30.918c.458-2.843.705-5.757.705-8.727 0-15.597-6.579-29.677-17.094-39.643h47.069c-10.515 9.966-17.094 24.046-17.094 39.643 0 2.971.247 5.884.705 8.727zm75.548 30.246a40.043 40.043 0 01-7.316.672c-21.86 0-39.645-17.785-39.645-39.646 0-21.828 17.733-39.591 39.549-39.643h.192c21.816.052 39.55 17.815 39.55 39.643 0 4.735-.825 9.34-2.416 13.673-.041.113-.087.224-.123.34a39.52 39.52 0 01-5.287 9.642c-5.998 8.051-14.7 13.492-24.504 15.319zm46.641-30.246c.457-2.861.689-5.776.689-8.727 0-15.597-6.579-29.677-17.094-39.643h17.355l19.19 48.37zm36.276 0l-22.008-55.476a12.442 12.442 0 00-11.624-7.895H40.959c-5.163 0-9.728 3.1-11.629 7.895l-1.798 4.533V298.26c0-5.988 4.872-10.86 10.86-10.86H359.82v43.752a54.311 54.311 0 00-6.566 25.95c0 2.971.247 5.884.705 8.727h-43.998zm97.938-48.373c21.861 0 39.646 17.785 39.646 39.645 0 21.861-17.785 39.646-39.646 39.646s-39.645-17.785-39.645-39.646c0-21.86 17.785-39.645 39.645-39.645zm5.661-104.389h46.201l29.549 38.588h-75.75z"/><path d="M407.899 380.833c13.085 0 23.731-10.645 23.731-23.731 0-13.085-10.645-23.731-23.731-23.731-13.085 0-23.73 10.645-23.73 23.731s10.645 23.731 23.73 23.731zm0-32.462c4.814 0 8.731 3.916 8.731 8.731 0 4.814-3.917 8.731-8.731 8.731s-8.73-3.916-8.73-8.731c0-4.814 3.916-8.731 8.73-8.731zm-310.343-15c-13.085 0-23.73 10.645-23.73 23.731 0 13.085 10.645 23.731 23.73 23.731s23.731-10.645 23.731-23.731c0-13.085-10.646-23.731-23.731-23.731zm0 32.462c-4.814 0-8.73-3.916-8.73-8.731 0-4.814 3.916-8.731 8.73-8.731s8.731 3.916 8.731 8.731-3.917 8.731-8.731 8.731zm122.172-32.462c-13.085 0-23.731 10.645-23.731 23.731 0 13.085 10.645 23.731 23.731 23.731s23.731-10.645 23.731-23.731c0-13.085-10.646-23.731-23.731-23.731zm0 32.462c-4.814 0-8.731-3.916-8.731-8.731 0-4.814 3.916-8.731 8.731-8.731s8.731 3.916 8.731 8.731-3.917 8.731-8.731 8.731z"/></svg>