<svg viewBox="0 0 140 140" xmlns="http://www.w3.org/2000/svg" fill-rule="evenodd" clip-rule="evenodd" stroke-linejoin="round" stroke-miterlimit="2"><path d="M39.168 47.556C39.168 64.473 53.083 78.39 70 78.39s30.832-13.916 30.832-30.833c0-16.916-13.915-30.832-30.832-30.832S39.168 30.64 39.168 47.556zm7.708 0c0-12.687 10.437-23.124 23.124-23.124S93.124 34.87 93.124 47.556c0 12.688-10.437 23.125-23.124 23.125S46.876 60.244 46.876 47.556zm-23.124 88.643c0-25.37 20.878-46.248 46.248-46.248 25.37 0 46.248 20.878 46.248 46.248a3.855 3.855 0 003.854 3.854 3.855 3.855 0 003.854-3.854C123.956 106.6 99.6 82.243 70 82.243c-29.599 0-53.956 24.357-53.956 53.956a3.855 3.855 0 003.854 3.854 3.855 3.855 0 003.854-3.854z"/></svg>