<svg width="60" height="49" xmlns="http://www.w3.org/2000/svg"><path d="M59.98 30.789a2.812 2.812 0 00-.02-.2 1.666 1.666 0 00-.038-.17c-.014-.058-.033-.115-.052-.172a2.91 2.91 0 00-.077-.18c-.014-.03-.024-.062-.038-.086L51.18 14.907a1.834 1.834 0 00-1.598-.927H37.24a1.832 1.832 0 00-1.837 1.826c0 1.007.823 1.825 1.837 1.825h11.264l6.498 11.427H37.725a1.832 1.832 0 00-1.838 1.826c0 3.227-2.64 5.856-5.895 5.856-3.249 0-5.895-2.624-5.895-5.856a1.832 1.832 0 00-1.838-1.826H4.981l6.498-11.427h11.264a1.832 1.832 0 001.838-1.825 1.832 1.832 0 00-1.838-1.826H10.408c-.66 0-1.273.352-1.599.927L.234 29.981c-.019.028-.023.062-.038.09a1.95 1.95 0 00-.076.176 2.194 2.194 0 00-.09.342c-.01.067-.02.133-.02.195 0 .033-.01.062-.01.095v16.296C0 48.182.823 49 1.837 49h56.326A1.832 1.832 0 0060 47.175l-.01-16.296c0-.028-.01-.062-.01-.09zm-3.666 14.56H3.668V32.704h16.93c.86 4.374 4.741 7.682 9.392 7.682 4.647 0 8.532-3.309 9.389-7.682h16.93l.005 12.645zM21.488 20.887a1.816 1.816 0 000 2.581l7.192 7.145c.014.014.033.019.048.033a1.9 1.9 0 00.54.357c.02.009.043.014.063.019.196.076.411.118.636.123.005 0 .005.005.01.005h.009a1.83 1.83 0 001.345-.59l7.158-7.11a1.816 1.816 0 000-2.582 1.846 1.846 0 00-2.598 0l-4.062 4.036V1.825A1.832 1.832 0 0029.99 0a1.832 1.832 0 00-1.837 1.825v23.102l-4.068-4.04a1.845 1.845 0 00-2.598 0z" fill="#008943" fill-rule="evenodd"/></svg>