<svg xmlns="http://www.w3.org/2000/svg" viewBox="0 0 278.1 65.2"><path d="M119.1 27.9c-.1-4.3 3.4-7.9 7.7-8h.5c2.3-.1 4.5.9 6 2.6l-1.8 1.8c-2-2.3-5.5-2.5-7.7-.5-2.3 2-2.5 5.5-.5 7.7 2 2.3 5.5 2.5 7.7.5.2-.1.3-.3.5-.5l1.8 1.8c-1.5 1.7-3.8 2.7-6.1 2.6-4.3.1-8-3.3-8.1-7.6v-.4zm16.1-7.7h2.8v15.6h-2.8V20.2zm10 2.4h-5.1v-2.4h13v2.5H148v13.1h-2.8V22.6zm18.6 7.6v5.5H161v-5.4l-6-10.1h3l4.5 7.6 4.5-7.6h2.8l-6 10zm12.8-2.3c-.1-4.5 3.5-8.3 8-8.4 4.5-.1 8.3 3.5 8.4 8s-3.5 8.3-8 8.4h-.2c-4.4.2-8-3.2-8.2-7.6v-.4zm13.6 0c-.1-3-2.5-5.3-5.5-5.3-3 .1-5.3 2.5-5.3 5.5.1 2.9 2.4 5.3 5.4 5.3 2.9.1 5.3-2.2 5.4-5.1v-.4zm7.3-5.3v4.7h7.4v2.5h-7.4v6h-2.8V20.2h11.1v2.4h-8.3zm-78.3 31.7c0-6.3 4.9-10.9 11.4-10.9S142 48 142 54.3s-4.9 10.9-11.4 10.9-11.4-4.6-11.4-10.9zm17 0c0-3.6-2.4-6-5.6-6s-5.6 2.4-5.6 6 2.4 6 5.6 6 5.6-2.3 5.6-6zm21.6 6.4H149l-1.6 4.1h-5.9l9.1-21h5.8l9.1 21h-6.1l-1.6-4.1zm-1.8-4.3l-2.6-6.7-2.6 6.7h5.2zm19.6.8l-2.2 2.4v5.2h-5.8v-21h5.8v8.7l8-8.7h6.4l-8.4 9.3 8.9 11.7h-6.8l-5.9-7.6zm14.8-13.4h5.8v16.3h9.8v4.7h-15.6v-21zm33.9 16.9h-8.7l-1.6 4.1h-5.9l9.1-21h5.7l9.1 21h-6.1l-1.6-4.1zm-1.7-4.3l-2.6-6.7-2.6 6.7h5.2zm31.2-12.6v21H249l-9.1-11.2v11.2h-5.7v-21h4.8l9.1 11.2V43.8h5.7zm3 0h9.7c6.8 0 11.5 4 11.5 10.5s-4.7 10.5-11.5 10.5h-9.7v-21zm9.5 16.3c3.5 0 5.9-2.1 5.9-5.8s-2.4-5.8-5.9-5.8h-3.7V60l3.7.1zM28.5 20.8c-.1 0-.3-.1-.4-.1-.1-.1-.3-.1-.4-.2-.3-.1-.6-.2-.9-.4l-.3-.1c-.1-.1-.2-.1-.4-.2l-.6-.3c-.1-.1-.3-.2-.4-.2l-.2-.1-.1-.2-.2-.1-.6-.4c-.1-.1-.2-.2-.3-.2l-.5-.4-.2-.3-.8-.8c-.6-.7-1.2-1.4-1.7-2.3-.1-.2-.2-.3-.3-.5-.1-.1-.1-.2-.2-.3-.1-.2-.2-.3-.3-.5l.9-.5c.1.2.1.3.2.5.1.1.1.2.2.3.1.2.2.3.3.4.5.8 1 1.5 1.6 2.1.2.3.5.5.7.7l.2.2.5.4c.1.1.2.1.2.2l.6.4c.1 0 .1.1.2.1l.1.1.2.2c.1.1.2.1.3.2l.6.3c.1.1.2.1.3.1l.3.2c.2.1.5.2.8.3l.4.1c.1 0 .2.1.4.1l.3.1.2.1c-.1.3-.1.7-.2 1l-.3-.1-.2.1z"/><path d="M28.5 23.3l-.4-.1-.3-.1-.5-.2-.4-.2c-.4-.1-.7-.3-1.1-.5l-.3-.2c-.1-.1-.3-.1-.4-.2l-.7-.4c-.2-.1-.3-.2-.5-.3l-.2-.1h-.2l-.2-.2-.7-.5c-.1-.1-.2-.2-.4-.3l-.6-.5-.2-.2c-.3-.3-.7-.6-1-1-.7-.8-1.4-1.7-2-2.6-.1-.2-.2-.4-.4-.6-.1-.1-.1-.2-.2-.3l-.3-.6c-.1-.1-.1-.2-.2-.3l.9-.5c.1.1.1.2.2.3l.3.6c.1.1.1.2.2.3l.3.6c.5.9 1.2 1.7 1.9 2.5l.9.9.2.2.6.5c.1.1.2.2.3.2l.7.5.2.1.1.1.2.2c.1.1.3.2.4.3l.7.4c.1.1.2.1.3.2l.4.2c.3.2.7.3 1 .4l.4.2.5.2c.1 0 .2.1.3.1l.4.1h.2c0 .2-.1.5-.1.7v.3l-.3-.2z"/><path d="M28.6 25.7l-.7-.2-.7-.2c-.2-.1-.4-.1-.6-.2-.1-.1-.3-.1-.4-.2-.4-.2-.9-.3-1.3-.5l-.4-.2c-.2-.1-.3-.1-.4-.2l-.8-.4-.6-.3-.2-.2-.3-.1-.2-.2-.8-.6c-.2-.1-.3-.2-.4-.3l-.7-.6-.1-.1-1.2-1.2c-.8-.9-1.6-1.9-2.3-3-.1-.2-.3-.5-.4-.7-.1-.1-.1-.2-.2-.3-.1-.2-.2-.5-.4-.7l.9-.5c.1.2.2.5.3.7.1.1.1.2.2.3.1.2.2.5.4.7.6 1 1.4 2 2.2 2.8.4.4.7.8 1.1 1.1l.1.1.7.6.3.3.7.5.2.1.1.1.3.2c.2.1.3.2.5.3l.8.4c.1.1.2.1.4.2l.4.2c.4.2.8.4 1.2.5.1.1.3.1.4.2.2.1.4.1.6.2l.7.2.5.1c.1.4.1.8.1 1.1zm10.6-13.3c-.6 0-1.1.1-1.5.1h-.8c-1 0-2-.1-2.9-.2-1.2-.2-2.4-.5-3.5-.9s-2.2-1-3.2-1.7l-.6-.4-.1-.1-.6-.4.7-.8.5.5.1.1.5.4c.9.6 1.9 1.2 3 1.6 1.1.4 2.2.7 3.3.8 1.2.2 2.4.2 3.5.2.4 0 .8 0 1.2-.1 0 .1.1.3.1.4l.2.4.1.1z"/><path d="M40.2 14.7h-.8c-.5 0-1.1.1-1.6.1h-.9c-1.1 0-2.2-.1-3.3-.2-1.4-.2-2.7-.5-4-1s-2.5-1.2-3.7-1.9l-.6-.5-.1-.1-.9-.7.7-.8.9.7.1.1.6.4c1.1.7 2.2 1.4 3.5 1.8 1.2.5 2.5.8 3.8 1s2.6.3 4 .2c.5 0 1 0 1.6-.1h.4c0 .3.1.7.3 1z"/><path d="M40.8 15.9c.2.3.3.6.5 1-.3.1-.5.1-.8.1l-.4.1h-.4c-.6 0-1.2.1-1.8.1H37c-1.2 0-2.4-.1-3.6-.3-1.5-.2-3.1-.6-4.5-1.2-1.5-.6-2.9-1.3-4.2-2.2L24 13c-.1-.1-.1-.1-.2-.1l-.5-.4.7-.8.5.4.1.1.7.5c1.2.9 2.6 1.6 4 2.1s2.8.9 4.3 1.1c1.4.2 2.9.3 4.4.2.6 0 1.2-.1 1.7-.1h.4l.4-.1h.3zm64.9 24.2l-.2 1-1.4-.2-1.3-.3-.8-.3h-.1c-.1 0-.2-.1-.3-.1l-.8-.3h-.1c-.1 0-.2-.1-.3-.1l-.7-.4c-.1-.1-.3-.1-.4-.2l-.7-.5-.8-.6-.8-.7-.6-.6-.3-.3-.3-.3-.1-.1c-.1-.1-.1-.2-.2-.3l-.5-.6c-.6-1-1.1-2-1.5-3.1l-.2-.6.8-.3h.2l.2.7c.3 1 .8 1.9 1.3 2.8l.2.3c0 .1.1.1.1.1l.1.1.3.3c.1.1.1.2.2.2l.6.6.7.7.8.6.7.5c.1.1.2.1.3.2l.8.4c.1 0 .1.1.2.1l.1.1.8.3c.1 0 .2.1.2.1.1 0 .1 0 .2.1l.8.3 1.3.3 1.5.1z"/><path d="M105 42.3l-.2 1-1.1-.2-1.5-.3-.9-.3-.2-.1c-.1 0-.2-.1-.3-.1l-1.1-.3-.1-.1c-.1 0-.2-.1-.4-.2l-.9-.4c-.2-.1-.3-.2-.4-.2l-.9-.5-1-.7-.2-.2c-2.1-1.8-3.7-4.1-4.5-6.8 0-.1-.1-.2-.1-.4v-.2l.7-.2.2-.1c0 .1 0 .2.1.2l.1.4c.8 2.4 2.2 4.6 4.2 6.3l.2.2 1 .7.9.5c.1.1.2.1.3.2l.9.5c.1 0 .2.1.3.1 0 0 .1 0 .2.1l.9.4c.1 0 .2.1.3.1l.2.1.9.3 1.4.3 1-.1z"/><path d="M104.4 44.6l-.2 1-1-.2-1.7-.4-1.1-.3-.2-.1c-.1 0-.3-.1-.4-.1l-1.1-.4-.2-.1c-.1-.1-.3-.1-.4-.2l-1-.5c-.2-.1-.3-.2-.5-.3l-1-.6-1.2-.9-.2-.2c-2.5-2.1-4.3-4.8-5.3-7.9l.1-.2c0-.1 0-.2-.1-.2l.9-.3h.1c0 .1.1.2.1.3l.1.2c.9 2.9 2.6 5.5 4.9 7.4l.2.2 1.1.8 1 .6c.1.1.3.2.4.2l1 .5c.1.1.2.1.3.1l.2.1 1 .4c.1 0 .2.1.3.1l.2.1 1 .3 1.6.4 1.1.2zM75.8 28.7c-.1.4-.3.7-.4 1-1 0-2-.2-3-.4-.8-.2-1.6-.4-2.4-.7 0-.1.1-.2.1-.4V28c0-.2.1-.3.1-.5.8.3 1.6.5 2.4.7 1.1.4 2.2.5 3.2.5zm24-4.6c-.2 0-.5.1-.7.1l-.4.1c-.3 0-.5.1-.7.1-2.5.5-4.9 1.3-7.2 2.1l-.8.2c-2.1.7-4.2 1.4-6.2 1.9.1-.2.1-.5.2-.7 0-.2.1-.3.1-.5 1.8-.5 3.7-1.1 5.6-1.8l.8-.3c2.3-.8 4.7-1.6 7.3-2.1.2-.1.5-.1.8-.1l.4-.1c.3 0 .5-.1.8-.1v1.2zm.6 2.3h-.4c-.2 0-.4.1-.7.1l-.4.1c-.2 0-.4.1-.6.1-2.4.5-4.8 1.3-7.1 2l-.5.3c-2.3.8-4.6 1.5-7 2.1-.2.1-.5.1-.7.2l.1-.2.3-.9h.1c2.3-.6 4.7-1.3 6.9-2.1l.7-.2c2.3-.8 4.7-1.6 7.2-2.1.2 0 .5-.1.7-.1l.4-.1c.2 0 .5-.1.7-.1h.4l-.1.9zm-28.2 4.2c.9.2 1.8.3 2.7.4-.1.3-.3.6-.4.8 0 .1-.1.1-.1.2-.8-.1-1.6-.2-2.4-.4-.9-.2-1.8-.5-2.6-.8.1-.3.3-.6.4-1 .7.4 1.6.6 2.4.8zm28-1.8l-.4.1-.3.1c-.2 0-.4.1-.6.1-2.3.5-4.6 1.2-7 2l-.6.2c-2.3.8-4.6 1.5-7.1 2.2-.8.2-1.6.4-2.3.5.1-.2.2-.3.2-.5l.3-.6c.5-.1 1-.2 1.6-.4 2.4-.6 4.8-1.4 7-2.1l.6-.2c2.5-.8 4.8-1.6 7.1-2.1.2 0 .4-.1.6-.1l.3-.1c.1 0 .3 0 .4-.1l.2 1zm-26.6 4.4c-.1.2-.3.4-.4.5-.1.1-.1.2-.2.3l-.1.1c-.5-.1-1-.2-1.4-.3-1.1-.2-2.2-.6-3.3-1 .2-.3.4-.6.5-.9 1 .4 1.9.7 3 .9.6.3 1.3.4 1.9.4zm13.7-15.4c-.4.1-.8.2-1.3.2.8-1.2 1.7-2.3 2.6-3.4.3-.3.6-.7.9-1l.1-.1.8.7-.1.1c-.3.3-.6.7-.9 1-.7.8-1.3 1.6-1.9 2.4l-.2.1zm-4.8 8h1.1c0 .1-.1.2-.1.3-.1.5-.3 1-.4 1.5-.2.6-.3 1.2-.5 1.8-.3 1.2-.8 2.4-1.2 3.5-.5 1.2-1.1 2.3-1.8 3.4-.3.4-.6.9-.9 1.3-.4-.1-.7-.2-1.1-.3.4-.5.8-1.1 1.1-1.6.7-1 1.2-2.1 1.7-3.3.5-1.1.9-2.2 1.2-3.4.2-.6.4-1.2.5-1.8.1-.3.3-.8.4-1.4zm.7-7.6c.5-.9 1-1.7 1.5-2.4.7-.9 1.4-1.8 2.2-2.7.3-.4.7-.7 1-1.1l.4-.4.8.7-.4.4c-.3.3-.7.7-1 1.1-.7.8-1.5 1.7-2.1 2.6l-1.2 1.8c-.4.1-.8.1-1.2 0zm-3 7.4c.3 0 .7.1 1 .1-.1.4-.3.9-.4 1.3-.5 1.7-1 3.4-1.7 5-.5 1.1-1 2.1-1.6 3.1-.4.7-.9 1.4-1.5 2-.4-.1-.8-.1-1.2-.2l1.8-2.4c.6-.9 1.1-1.9 1.5-2.9.7-1.6 1.2-3.3 1.6-4.9.2-.4.4-.7.5-1.1zm.4-7.6l.2-.3c.6-1.1 1.3-2.2 2-3.2s1.5-2 2.3-2.9c.4-.4.7-.8 1.1-1.2l.8.7c-.4.4-.7.8-1.1 1.2-.8.9-1.6 1.8-2.3 2.8-.7 1-1.3 2-1.9 3h-.4c-.2-.1-.4-.1-.7-.1z"/><path d="M77.9 25.1c.3.1.7.2 1 .2-.1.3-.2.7-.3 1-.5 1.7-.9 3.3-1.6 4.8-.4 1-.9 1.9-1.4 2.7-.6.9-1.2 1.7-1.9 2.5l-.2.3-.2.2h-1.4l.4-.4.4-.4c.1-.1.2-.2.2-.3.6-.7 1.2-1.5 1.8-2.3.5-.8 1-1.7 1.4-2.6.6-1.4 1.1-3 1.5-4.7.1-.4.2-.7.3-1zm17-9.2c-.1.1-.2.2-.3.2l-.4.4-.5.4-.2.1c-2.6 1.9-5.8 3-9.1 3.2h-.7c-1.4 0-2.8-.2-4.2-.5-.7-.2-1.5-.4-2.2-.7.3-.3.6-.5.9-.8.5.2 1 .3 1.5.4 1.5.4 3.1.5 4.6.4 3.1-.1 6-1.1 8.5-2.9l.2-.1.5-.4c.1-.1.3-.2.4-.3s.2-.2.3-.2l.7.8z"/><path d="M96.3 17.8c-.2.2-.4.4-.6.5l-.6.5-.2.2c-3 2.2-6.6 3.5-10.4 3.6h-.8c-1.6 0-3.2-.2-4.7-.6-1.3-.3-2.7-.8-3.9-1.4.4-.2.7-.5 1-.7 1 .4 2.1.8 3.1 1 1.7.4 3.5.6 5.2.5 3.5-.1 6.9-1.3 9.8-3.4l.2-.2.6-.5c.2-.1.3-.3.5-.4h.1l.7.9z"/><path d="M97.7 19.7c-.1.1-.3.2-.4.4l-.7.6-.2.2c-.8.6-1.7 1.2-2.7 1.7-.4.2-.9.4-1.3.6l-.1.1h-.1c-.4.2-.9.4-1.4.5-1 .3-2 .6-3 .8-1 .2-2.1.3-3.1.3h-.9c-3.9 0-7.7-1-11.1-2.8.4-.2.7-.4 1.1-.6 4.2 2.2 9.1 2.9 13.8 2.1 1-.2 1.9-.4 2.9-.8.4-.1.9-.3 1.3-.5l.2-.1 1.2-.6c.9-.5 1.7-1 2.5-1.6l.2-.2.7-.5c.1-.1.3-.2.4-.3l.7.7zM52 15.9c-.5-.5-.9-1.1-1.4-1.6-.7-.8-1.3-1.7-1.9-2.6-.6-.9-1.1-1.9-1.6-2.9-.4-1-.8-2.1-1.1-3.2-.2-1-.4-2.1-.5-3.2V2c0-.3 0-.5-.1-.8V.5h1v.7c0 .2 0 .5.1.8v.4c.1 1 .3 2 .5 3s.6 2 1 3 .9 1.9 1.5 2.8c.6.8 1.2 1.7 1.8 2.4.5.6.9 1.1 1.4 1.6.8.9 1.5 1.8 2.2 2.7.5.7 1.1 1.5 1.5 2.2.3.4.5.8.8 1.3l-.9.6c-.3-.5-.5-.9-.8-1.4-.4-.7-.9-1.4-1.5-2.1-.4-.8-1.2-1.7-2-2.6z"/><path d="M52.5 12.7c-.6-.7-1.2-1.5-1.7-2.3s-1-1.7-1.4-2.6c-.4-.9-.7-1.8-1-2.8-.2-.9-.4-1.9-.5-2.9v-.4c0-.2 0-.5-.1-.7V-.1h1v1c0 .2 0 .4.1.7V2c.1.9.2 1.8.5 2.7.2.9.5 1.8.9 2.6s.8 1.7 1.3 2.4c.5.8 1.1 1.5 1.7 2.2.4.5.9 1.1 1.3 1.6.8.9 1.6 1.9 2.3 2.8.6.8 1.1 1.6 1.6 2.4.3.4.5.8.8 1.3-.3.2-.6.3-.9.5-.2-.4-.5-.9-.7-1.3-.5-.8-1-1.5-1.6-2.3-.7-1-1.5-1.9-2.3-2.8-.4-.3-.9-.8-1.3-1.4z"/><path d="M51.5 6.9c-.3-.8-.6-1.6-.8-2.4s-.3-1.7-.4-2.6V.4h1v1.5c.1.8.2 1.6.4 2.4s.4 1.5.7 2.2c.5 1.3 1.4 2.6 2.6 4.1.4.5.8 1 1.3 1.5.8.9 1.6 1.9 2.4 3 .6.8 1.2 1.7 1.8 2.6.3.4.6.9.8 1.4-.3.2-.6.3-.9.5-.3-.5-.5-.9-.8-1.3-.5-.8-1.1-1.7-1.7-2.5-.8-1-1.6-2-2.4-2.9-.4-.5-.9-1-1.3-1.5-1.2-1.8-2.1-3.1-2.7-4.5zm20.1-3.1c-.1.4-.3.9-.5 1.3-.8 1.7-2 3.3-3.6 4.4V8.2c1.1-1 2-2.2 2.6-3.5.2-.4.3-.8.5-1.2l1 .3zm2.3.3c-.2.7-.5 1.4-.8 2-.1.3-.2.5-.4.7-.1.1-.1.2-.2.3l-.2.3c-.1.2-.3.5-.4.7-.4.7-.9 1.3-1.5 1.8l-.4.4-.3.3-.1.1-.2.3c-.1.1-.1.1-.2.1l-.5.4-.6.4-.2.1-.2.1c-.1-.4-.1-.7-.1-1.1l.5-.3.5-.4.1-.1.2-.2.2-.1c.1-.1.2-.1.3-.2l.4-.4c.5-.5 1-1.1 1.4-1.7.1-.2.3-.4.4-.6.1-.1.1-.2.2-.3.1-.1.1-.2.2-.3.1-.2.2-.4.3-.7.3-.6.5-1.2.7-1.9l.9.3zM76 5.3c-.2.6-.4 1.2-.7 1.8-.1.3-.3.6-.4.9l-.2.3-.2.3c-.2.3-.3.6-.5.9-.5.8-1.1 1.5-1.8 2.2l-.5.5c-.1.1-.3.2-.4.3l-.2.1-.3.2-.2.2-.6.5-.7.4c-.1 0-.1.1-.2.1l-.5.2-.4.2c-.1-.4-.2-.7-.3-1l.2-.1.4-.2.2-.1.7-.4.6-.5c.1 0 .1-.1.2-.1l.3-.2.2-.1.3-.3.5-.5c.6-.6 1.2-1.3 1.7-2 .2-.2.3-.5.5-.8l.2-.3c.1-.1.1-.2.2-.3.2-.3.3-.6.4-.8.1-.6.3-1.2.5-1.7l1 .3zM3.9 32.4c-.2-.1-.5-.2-.7-.3l-.4-.1.4-1 .3.1c.3.1.5.2.8.3l.6.3c.2.1.3.1.5.2l.6.4c.2.1.3.2.5.3l.2.1.3.1.3.2.2.1c.1.1.3.2.4.3.8.6 1.6 1.3 2.3 2.1s1.3 1.6 1.8 2.6c.5.9.9 1.8 1.2 2.7l-1.2-.3c-.3-.6-.6-1.3-.9-1.9-.5-.8-1.1-1.6-1.7-2.4-.7-.7-1.4-1.4-2.2-2-.1-.1-.3-.2-.4-.3l-.2-.1-.3-.2-.3-.2c-.1-.1-.3-.2-.4-.2l-.6-.3c-.1-.1-.3-.1-.4-.2l-.7-.3z"/><path d="M3.3 34.7c-.1 0-.2-.1-.4-.1-.2-.1-.4-.2-.6-.2l-.3-.2.4-1 .3.1c.2.1.4.2.6.2l.3.1.6.3c.8.4 1.5.8 2.2 1.4.7.5 1.4 1.1 2 1.8s1.1 1.4 1.5 2.2c.2.3.3.6.4.9l-.4-.1c-.3-.1-.6-.1-.9-.2v-.1c-.4-.7-.9-1.4-1.4-2s-1.1-1.2-1.8-1.6c-.7-.5-1.4-.9-2.1-1.3l-.4-.2zm-.4 2.4c-.1-.1-.2-.1-.3-.2l-.5-.2.4-.9.5.2c.1.1.2.1.4.2l.5.2c.1.1.2.1.3.2l.2.1.2.1.2.2.2.1c.1.1.2.1.3.2.6.4 1.1.9 1.6 1.5.3.3.5.6.7.9-.2 0-.4-.1-.7-.1-.3 0-.5-.1-.8-.1-.4-.5-.9-.9-1.4-1.3-.2-.1-.3-.2-.3-.2l-.2-.1-.2-.2-.2-.1c-.1 0-.1-.1-.2-.1-.1-.1-.2-.1-.3-.1l-.4-.3zm22-1c.2 0 .5-.1.7-.1-1.1 1.4-2 3.3-3 5.2l-.1.3c-1.1 2.1-2.2 4.4-3.9 6.5-.9 1.1-1.9 2.1-3 3s-2.4 1.7-3.7 2.2-2.7.9-4.1 1.1l-1 .1H2.6l.1-1h4.1l1-.1c1.3-.2 2.6-.6 3.8-1 1.3-.5 2.4-1.2 3.5-2.1 1-.8 2-1.8 2.8-2.8 1.6-2 2.7-4.2 3.8-6.3l.1-.3c.8-1.6 1.6-3.2 2.5-4.5.1-.2.4-.2.6-.2z"/><path d="M21.3 36.3h1.2c-.2.3-.3.5-.5.8-.5.9-1 1.9-1.5 2.9l-.1.2c-1 2-2.2 4.2-3.7 6.2-.8 1-1.6 1.8-2.6 2.6s-2 1.4-3.2 1.9c-1.1.4-2.3.8-3.5.9l-.9.2H6l-1.3.1H3.3L1.7 52l.1-1h4.6l.9-.1c1.1-.2 2.2-.5 3.3-.9 1-.4 2-1 2.9-1.7.9-.7 1.7-1.5 2.4-2.5 1.5-1.9 2.6-4.1 3.6-6l.1-.2c.5-1 1-2 1.6-2.9 0-.2 0-.3.1-.4z"/><path d="M19 36.2c.3 0 .5 0 .8.1-.5.9-.9 1.8-1.4 2.6l-.1.3c-1.1 2.2-2.1 4.2-3.4 5.8-1.4 1.8-3 3-4.8 3.8-1 .4-2 .6-3 .8l-.8.1H3.4L2 49.6l.1-1 1.4.1h2.8l.7-.2c.9-.1 1.9-.4 2.7-.7 1.6-.7 3.1-1.8 4.4-3.4 1.2-1.6 2.2-3.5 3.3-5.6l.1-.3c.4-.7.8-1.5 1.2-2.3h.3zm-1.1-13.1c-1.4-1.7-3.1-3.3-5-4.6-.5-.3-1-.7-1.5-1l.5-.9c.5.3 1.1.6 1.6 1 1.9 1.4 3.6 2.9 5.2 4.7.8.9 1.5 1.9 2.1 2.9.7 1.1 1.2 2.2 1.6 3.4h-1.1c-.4-1-.8-2-1.4-2.9-.6-.8-1.3-1.8-2-2.6zm-1.8 1.5c-1.3-1.6-2.8-3-4.5-4.1-.6-.4-1.1-.7-1.7-1.1l.5-.9c.6.3 1.2.7 1.8 1.1 1.7 1.2 3.3 2.7 4.7 4.3.7.8 1.3 1.7 1.9 2.6.4.7.8 1.4 1.1 2.2h-.1c-.4 0-.7-.1-1.1-.2-.2-.5-.5-1-.8-1.5-.6-.8-1.2-1.7-1.8-2.4zm-1.8 1.5c-1.2-1.4-2.5-2.7-4-3.7-.5-.3-1-.7-1.5-.9l.5-.9c.6.3 1.1.6 1.6 1 1.6 1.1 3 2.4 4.2 3.9.6.7 1.2 1.5 1.7 2.3.1.1.2.3.2.4-.1 0-.3-.1-.4-.1l-.7-.3c-.1 0-.2-.1-.3-.2h-.1c-.5-.5-.8-1-1.2-1.5zM78.7 7.7l-.1.3c-.1.4-.3.8-.5 1.2-.5 1.2-1.2 2.3-2 3.2-.8 1-1.8 1.9-2.8 2.6-2.1 1.5-4.5 2.7-7.2 3.9l-.3.2c-1.2.5-2.4 1.1-3.6 1.7-1.4.7-2.7 1.5-3.9 2.3-1.3.9-2.5 2-3.5 3.3l-.1.1c-.1-.3-.2-.6-.3-1 0-.1 0-.1-.1-.2 1-1.1 2.1-2.2 3.4-3 1.3-.9 2.7-1.7 4.1-2.4 1.2-.6 2.5-1.2 3.7-1.7l.3-.2c2.7-1.2 5.1-2.3 7-3.8 1-.7 1.9-1.5 2.6-2.5.8-.9 1.4-1.9 1.8-3 .2-.4.3-.7.4-1.1l.1-.3 1 .4z"/><path d="M81 8.2c-.1.1-.1.3-.1.4l-.6 1.5c-.6 1.4-1.4 2.6-2.3 3.8-1 1.1-2 2.1-3.2 3-2.4 1.8-5.2 3.1-7.7 4.2l-.5.2c-2.4 1.1-4.9 2.2-7 3.8-1.1.8-2.2 1.7-3.1 2.8-.4.5-.7.9-1 1.5-.1-.5-.2-.9-.4-1.3.2-.3.4-.5.6-.8.9-1.2 2-2.2 3.3-3 2.2-1.6 4.7-2.7 7.2-3.9l.5-.2c2.4-1.1 5.1-2.3 7.5-4.1 1.1-.8 2.2-1.8 3.1-2.8.9-1.1 1.6-2.3 2.2-3.5.2-.4.4-.9.5-1.3 0-.1.1-.3.2-.4l.8.1z"/><path d="M83.3 8.8c-.1.2-.1.4-.2.5-.2.6-.4 1.2-.7 1.7-.7 1.6-1.6 3-2.7 4.3s-2.3 2.4-3.7 3.4c-1.3.9-2.6 1.8-4 2.5-1.3.7-2.6 1.3-3.9 1.9l-.4.2c-2.5 1.2-4.9 2.2-6.9 3.7-1 .7-1.8 1.5-2.6 2.4-.8 1-1.4 2-2.1 3.9-.1-.7-.2-1.3-.3-2 .4-.9 1-1.8 1.6-2.6.8-1 1.8-1.9 2.8-2.6 2.1-1.5 4.5-2.6 7.1-3.7l.4-.2c1.2-.6 2.5-1.2 3.8-1.8 1.4-.7 2.7-1.5 3.9-2.4 1.3-.9 2.5-2 3.5-3.2s1.9-2.6 2.5-4.1c.2-.5.5-1.1.6-1.6.1-.2.1-.4.2-.6l1.1.3zm16 28c.5-.1.9-.3 1.4-.4.7-.2 1.4-.3 2-.5.5-.1 1-.2 1.5-.2l.1 1c-.4 0-.9.1-1.4.2-.6.1-1.3.3-1.9.4l-.4.1-.2-.1-.4-.2c-.2-.1-.3-.2-.5-.3h-.2zm-7 3.9c-.3.1-.6.3-.9.5-.8.5-1.6.9-2.2 1.3l-.1-.1-.9-.4c.9-.6 1.8-1.2 2.7-1.7l.6-.3c.1.1.2.2.3.4l.5.3zm-1.6-1.8l-.4.2c-1.2.6-2.3 1.3-3.4 2.2-.3-.2-.7-.4-1-.5l.1-.1c1.2-.9 2.4-1.7 3.7-2.4l.4-.2.1.1.1.2.4.5zm6.6-3.9c.2-.1.4-.1.6-.2l2.1-.6c.8-.2 1.5-.4 2.2-.5l2.1-.3.1 1c-.7.1-1.3.1-2 .3-.7.1-1.4.3-2.1.5l-2.1.6-.2.1-.6-.6c0-.2 0-.2-.1-.3zM96 32.9c.4-.1.8-.3 1.2-.4.8-.2 1.5-.5 2.2-.6.8-.2 1.6-.4 2.3-.5.7-.1 1.3-.2 1.9-.3l.1 1c-.6.1-1.1.1-1.8.3-.7.1-1.5.3-2.3.5-.7.2-1.5.4-2.2.6-.3.1-.7.2-1 .3v-.1l-.4-.8zm-6.5 4l-.3.2c-1.4.7-2.7 1.6-3.9 2.6-.2.2-.4.3-.6.5-.3-.2-.7-.3-1-.5.3-.3.6-.6.9-.8 1.3-1 2.7-1.9 4.1-2.7l.3-.2.2.5.3.4zM34.3 4.8l-.2-.4.9-.5.2.4c.1.1.1.3.2.4 0 0 0 .1.1.1l.2.6c.6 1.6 1 3.3 1.1 5v.1h-1c-.1-1.6-.5-3.2-1.1-4.7l-.2-.6s0-.1-.1-.2c0 0 0-.1-.1-.2zm1.1 19.1c-.4 3-.4 5.5.1 7.6.4 2.1 1.4 4.1 2.9 6.1h-1.3c-1.3-1.8-2.2-3.7-2.6-5.9-.5-2.3-.5-4.8-.1-8 .2-1.2.4-2.3.6-3.5.1-.7.2-1.4.4-2.2h1.1c-.1.8-.3 1.5-.4 2.3-.3 1.3-.5 2.5-.7 3.6zM32.2 5.8l-.3-.6.9-.5.3.6c.1.1.1.3.2.4l.1.1.2.5c.5 1.3.8 2.7.9 4.1H34l-.5-.1c-.2-1.3-.5-2.5-.9-3.6l-.2-.5s0-.1-.1-.1c0-.1-.1-.2-.1-.3z"/><path d="M32.8 27.8c0 1.4.1 2.8.4 4.2.5 2 1.3 4 2.4 5.7h-.2c-.2 0-.4.1-.6.1h-.3c-1.1-1.7-1.9-3.7-2.3-5.7-.3-1.4-.5-2.9-.5-4.4s.1-2.9.3-4.4c.2-1.2.4-2.5.6-3.7.1-.6.2-1.3.3-1.9h.2c.3 0 .6.1.9.1-.1.7-.2 1.3-.3 2l-.6 3.6c-.2 1.6-.3 3-.3 4.4z"/><path d="M33.1 38l.1.2c-.4.1-.7.2-1 .3l-.2-.2c-.2-.3-.3-.5-.4-.8-.8-1.5-1.3-3.1-1.7-4.7-.3-1.6-.5-3.3-.5-4.9s.1-3.1.3-4.7c.2-1.3.4-2.6.6-3.8.1-.7.2-1.3.3-2 .3.1.5.1.8.2h.2c-.1.6-.2 1.3-.3 1.9-.2 1.2-.4 2.5-.6 3.8-.2 1.5-.3 3-.3 4.6s.2 3.1.5 4.7.9 3.1 1.6 4.5c.1.2.2.5.4.7l.2.2zm-3-31.2l-.4-.8.9-.5.4.8c.1.1.1.2.2.3v.1l.2.4c.3.9.5 1.9.7 2.8l-.4-.1c-.2-.1-.4-.1-.5-.2l-.2-.1c-.1-.7-.3-1.3-.6-2l-.2-.4s0-.1-.1-.1v-.2zm12.7-3c-.1-.4-.1-.9-.2-1.3 0-.2 0-.4-.1-.6l1-.1c0 .2 0 .4.1.6 0 .4.1.9.2 1.3.3 2.3.9 4.5 1.7 6.7.4 1 .8 2 1.3 2.9-.3.2-.5.4-.8.7-.5-1-1-2.1-1.5-3.2-.8-2.3-1.4-4.6-1.7-7zm-2.3.4c-.1-.5-.1-1-.2-1.4 0-.2 0-.4-.1-.6l1-.1c0 .2 0 .4.1.7 0 .5.1.9.2 1.4.3 2.5 1 4.9 1.9 7.2.5 1.2 1 2.4 1.6 3.5-.3.2-.6.4-.8.7-.7-1.2-1.3-2.5-1.8-3.8-.9-2.6-1.6-5.1-1.9-7.6zm-2.4.3c0-.5-.1-1.1-.2-1.6v-.3l1-.1v.3c0 .5.1 1 .2 1.5.4 2.7 1 5.3 2 7.7.6 1.4 1.2 2.8 2 4.2-.3.2-.5.5-.8.7-.8-1.5-1.5-3-2.1-4.5-1-2.5-1.7-5.2-2.1-7.9zm15.8 2.8c-.2-.4-.5-.8-.6-1.3 0-.2.1-.4.1-.6v-.3l.1-.8V1.7L53.4.3l1-.1.1 1.4v2.6l-.1.8v.1c0 .1 0 .2-.1.3 0 .9-.1 1.4-.4 1.9zm-15 18.8c-.3 0-.7-.1-1.1-.1.3-1.2.7-2.4 1.3-3.5.7-1.4 1.7-2.7 2.8-3.8 1-1 2.1-2 3.2-2.9l1.2-.9 1.8-1.5c.2-.2.4-.3.5-.4.2.3.4.6.6.8-.2.1-.3.3-.5.4l-1.8 1.5-1.2.9c-1.1.9-2.1 1.8-3.1 2.8-1 1.1-1.9 2.3-2.6 3.6-.5 1-.9 2-1.1 3.1zM54.8 8.8c.4-.9.7-1.9.9-2.8v-.5l.1-.9v-3l.2-.9 1-.1.1.9v3.1l-.1 1v.1c0 .1 0 .3-.1.4-.2 1.2-.6 2.4-1.2 3.5-.4-.2-.7-.6-.9-.8z"/><path d="M40.9 26.4c-.2-.1-.5-.1-.7-.2.2-.9.6-1.8 1-2.6.6-1.2 1.4-2.3 2.4-3.3 1.3-1.3 2.7-2.5 4.1-3.6.6-.5 1.3-1 1.9-1.5.2-.1.3-.3.4-.4.2.3.5.5.7.8l-.4.4c-.6.5-1.3 1-1.9 1.5-1.4 1.1-2.8 2.2-4 3.5-.9.9-1.6 1.9-2.2 3-.4.7-.7 1.5-.9 2.4h-.4zm15.6-15.6c0-.1.1-.2.1-.2.7-1.3 1.2-2.7 1.4-4.2 0-.1 0-.2.1-.3v-.2l.2-1.1V.9l1-.1v4L59.1 6v.2c0 .1 0 .3-.1.4-.3 1.5-.8 3-1.5 4.4l-.3.6-.1-.1-.6-.7zM42.9 27.1c-.2-.1-.4-.1-.5-.2.2-.7.5-1.5.8-2.1.5-1 1.2-1.9 2-2.7 1.1-1.2 2.5-2.2 3.9-3.4.6-.5 1.3-1 2-1.6l.4-.4.7.8c-.1.1-.3.3-.5.4-.7.6-1.3 1.1-2 1.6-1.4 1.1-2.7 2.2-3.8 3.3-.7.7-1.4 1.6-1.8 2.5-.3.6-.6 1.3-.8 2 0-.1-.2-.2-.4-.2zM14.5 42.2l-.2.2c-.1.2-.2.4-.3.5l-.1.1-3.6-.9c-1.4-.3-2.7-.6-4.1-.7-1.4-.1-2.9-.2-4.3 0-.5 0-1 .1-1.5.2l-.2-1c.5-.1 1.1-.2 1.6-.2 1.5-.1 3-.1 4.5 0 1.4.1 2.9.4 4.3.7 1.3.3 2.6.6 3.8 1l.1.1zm13.9-.1c-1.1.5-2.4 1-3.6 1.4-.9.3-1.8.5-2.8.7.1-.1.1-.3.2-.4.1-.3.3-.5.4-.8.5-.1 1.1-.3 1.8-.5 1.2-.4 2.4-.9 3.5-1.4l.2-.1c1.2-.5 2.4-1 3.7-1.5 1.5-.5 3-.9 4.5-1l1.2-.1h1.3c.8.1 1.7.2 2.5.4 1.6.4 3 1.1 4.2 2.2.1.6.3 1.1.4 1.8l-.4-.4c-1.4-1.3-2.6-2.1-4.4-2.6-.8-.2-1.5-.3-2.3-.4h-1.1l-1.2.1c-1.5.2-2.9.5-4.3 1-1.3.4-2.5.9-3.7 1.4l-.1.2zM10 43.4c1 .2 2 .5 3 .8-.3.3-.5.6-.8.9-.8-.2-1.6-.4-2.5-.6-3-.7-5.5-.9-7.7-.7l-1.8.3-.2-1c.6-.1 1.3-.2 1.9-.3 2.4-.3 4.9-.1 8.1.6z"/><path d="M46.3 45.4c.1.7.2 1.5.2 2.2 0-.1-.1-.2-.1-.3-1.7-3.4-4-4.7-5.9-5.1-1.2-.3-2.5-.4-3.8-.3-1.3.1-2.5.4-3.7.9-1.2.4-2.4.9-3.5 1.4-1.3.5-2.6 1.1-3.9 1.5s-2.6.8-4 .9h-1l.1-.2c.1-.1.1-.2.2-.3.1-.2.2-.3.3-.5h.2c1.3-.1 2.5-.4 3.7-.9 1.3-.4 2.6-1 3.8-1.5 1.2-.5 2.4-1 3.6-1.4 1.3-.5 2.6-.8 4-.9 1.4-.1 2.8 0 4.1.3 2.5.6 4.2 1.9 5.7 4.2zm-44.1-.3c2.1-.2 4.4 0 7.3.6.5.1 1 .2 1.5.4l-.2.2c-.3.2-.7.4-1.1.6l-.4-.1c-2.8-.6-5-.8-7-.6-.6.1-1.1.2-1.7.3l-.2-1c.6-.2 1.2-.4 1.8-.4z"/><path d="M37.7 43.2c5.1 0 8.6 3.7 8.6 10.4v10.9h-1v-11c0-6-3.2-9.3-7.6-9.3h-.8c-1.1.1-2.2.4-3.2.8-1.1.4-2.1.8-3.3 1.3-1.3.6-2.7 1.1-4.2 1.6-.6.2-1.3.4-2.2.6l-1 .3-1.1.2h-3c.1-.2.3-.3.4-.5l.4-.5h1.9l1.1-.2 1.1-.2c.8-.2 1.5-.4 2.1-.6 1.4-.5 2.8-1 4.1-1.6 1.2-.5 2.2-.9 3.3-1.3 1.1-.4 2.3-.7 3.4-.8.4-.1.6-.1 1-.1zm-29-17.7l-.3-.2.7-.8.2.2c.1.1.2.1.2.2.2.1.3.3.5.4l1 .8.6.4c.4.3.8.5 1.2.8l.5.3c1.1.6 2.2 1.1 3.4 1.5s2.4.6 3.6.6c1.3.1 2.5 0 3.8-.2 1.4-.2 2.8-.5 4-.8l.4-.1v1.1l-.2.1c-1.2.3-2.6.7-4.1.9-1.3.2-2.7.3-4 .2-1.3-.1-2.6-.3-3.8-.7-1.3-.4-2.5-.9-3.6-1.6l-.5-.3c-.4-.2-.8-.5-1.2-.8l-.6-.4-1-.8c-.2-.1-.4-.3-.5-.5l-.3-.3zM37.3 28c-.4 0-.8 0-1.3.1v-1h2.7c.2 0 .3 0 .5.1h.4c.2 0 .3 0 .5.1l1 .2.3.1c.2.1.4.1.6.2.2.1.4.1.6.2.8.3 1.7.7 2.4 1.2.8.5 1.6 1.1 2.2 1.8.4.4.7.8 1.1 1.2.1.2.1.5.1.7l.3 1.8c-.6-1.1-1.3-2.1-2.2-3-.6-.6-1.3-1.1-2.1-1.6-.7-.4-1.5-.8-2.3-1.1-.2-.1-.4-.1-.6-.2-.2-.1-.3-.1-.6-.2l-.3-.1-1-.2c-.1 0-.3 0-.4-.1h-.8l-.5-.2h-.6z"/><path d="M7.4 27.5c-.1-.1-.2-.1-.2-.2l-.8-.7.6-.8.8.7.2.2c.2.2.3.3.5.4l1.1.8.7.5c.4.3.9.6 1.4.9l.5.3c1.2.7 2.5 1.3 3.9 1.7 1.4.4 2.7.7 4.2.7 1.4.1 2.8 0 4.3-.2 1.4-.2 2.8-.5 4.2-.9 0 .3.1.7.2 1-1.4.4-2.8.7-4.2.9-1.5.2-3 .3-4.5.2s-3-.3-4.4-.8-2.8-1.1-4.1-1.8l-.5-.3c-.5-.3-1-.6-1.4-.9l-.7-.5-1.2-.8c-.2-.1-.4-.3-.6-.4zm41.7 11.9v2.5c-.8-3.3-2-6.7-4.1-8.7-1-.9-2.2-1.7-3.5-2.1-.2-.1-.3-.1-.5-.2-.1 0-.3-.1-.5-.2l-.3-.1-.8-.2h-3.2c-.1-.3-.1-.7-.1-1h3.1c.1 0 .3 0 .4.1l.8.2.3.1c.2.1.4.1.5.2s.4.1.5.2c1.4.5 2.8 1.3 3.9 2.3 1.5 1.4 2.7 3.7 3.3 6l.2.9z"/><path d="M24.8 34.1c1.5-.2 2.9-.6 4.3-.9.1.3.2.7.3 1-1.4.4-2.9.7-4.4.9-1.6.3-3.3.3-4.9.3-1.7-.1-3.4-.4-5-.9s-3.1-1.2-4.6-2l-.5-.3c-.5-.3-1.1-.7-1.6-1l-.7-.5-1.2-.9c-.2-.2-.4-.3-.6-.5l-.3-.3-.5-.4.7-.8.5.4.2.2c.2.2.4.3.6.5l1.2.9.7.5c.5.4 1 .7 1.5 1l.4.3c1.4.8 2.8 1.4 4.4 1.9 1.5.5 3.1.8 4.7.8 1.6.1 3.2.1 4.8-.2zm22.7 6.8c.3 1.3.6 2.7.7 4.1.3 2.8.5 5.7.4 8.5v10.8h-1V53.5c0-2.8-.1-5.6-.4-8.4-.2-1.3-.4-2.7-.7-4 0-.1 0-.2-.1-.3-.1-.2-.1-.5-.2-.7l-.1-.5-.1-.3c-.1-.2-.1-.4-.2-.6 0-.1-.1-.2-.1-.3s-.1-.2-.1-.2l-.2-.2c-.1-.1-.1-.3-.2-.4-.5-1-1.1-1.9-1.9-2.7-.8-.7-1.7-1.3-2.8-1.6-.1-.1-.3-.1-.4-.1-.2-.1-.3-.1-.4-.1l-.1-.1-.6-.2h-2.2c-.1-.3-.2-.7-.3-1h2.2c.1 0 .2 0 .3.1l.6.1.2.1c.1 0 .3.1.5.1.1 0 .3.1.4.2 1.1.4 2.2 1 3.1 1.9.9.9 1.6 1.9 2.1 3 .1.1.1.3.2.5l.1.2c0 .1.1.2.1.3s.1.2.1.3c.1.2.2.4.2.6l.2.5.1.5c.1.2.1.5.2.7.4-.1.4-.1.4 0z"/><path d="M51 38.6v25.8h-1V37.3l-.1-1.3c-.1-1.1-.2-2.3-.5-3.4l-.1-.4c0-.1 0-.2-.1-.2v-.2c0-.1 0-.2-.1-.3 0-.2-.1-.3-.1-.5l-.2-1c0-.2-.1-.3-.2-.5 0-.1-.1-.2-.1-.3-.4-1.1-.8-2.2-1.3-3.2-.3-.7-.7-1.4-1.1-2.2.2-.3.5-.5.8-.8.5.8.9 1.7 1.3 2.5.5 1.1.9 2.2 1.3 3.3 0 .1.1.2.1.3.1.2.1.4.2.6l.2.8c0 .2.1.4.1.6 0 .1 0 .2.1.3v.2c0 .1 0 .2.1.3l.1.5c.2 1.2.4 2.4.5 3.5l.1 1.3v1.4z"/><path d="M52.7 31.9c.2 1.3.4 2.5.5 3.8.1 1.2.1 2.4.1 3.8v24.8h-1V39.5c0-1.4 0-2.6-.1-3.7-.1-1.2-.3-2.5-.5-3.7l-.1-.5c0-.1 0-.2-.1-.3v-.2c0-.1-.1-.2-.1-.3 0-.2-.1-.4-.1-.6l-.3-.9c0-.2-.1-.4-.2-.6 0-.1-.1-.2-.1-.3-.4-1.2-.8-2.3-1.4-3.5-.4-1-.9-2-1.5-2.9l.2-.2c.2-.2.4-.3.6-.5.6 1 1.1 2.1 1.6 3.2.5 1.2 1 2.4 1.4 3.6 0 .1.1.2.1.3.1.2.1.4.2.6l.3.9c.1.2.1.4.1.6l.1.3v.2c0 .1 0 .2.1.3l.2.6z"/><path d="M55.7 38.6v25.8h-1V37.1l-.1-1.5c-.1-1.3-.3-2.6-.5-3.9l-.1-.5c0-.1 0-.2-.1-.3v-.2c0-.1-.1-.2-.1-.3-.1-.2-.1-.4-.2-.6l-.3-1c-.1-.2-.1-.4-.2-.6l-.1-.4c-.4-1.3-.9-2.5-1.5-3.7-.5-1.2-1.1-2.3-1.8-3.4l.5-.4.3-.3c.7 1.2 1.3 2.4 1.9 3.7.6 1.2 1.1 2.5 1.5 3.8l.1.3c.1.2.1.4.2.7l.3 1c.1.2.1.5.2.7 0 .1 0 .2.1.3v.2c0 .1.1.2.1.3l.1.5c.3 1.3.4 2.7.5 4.1l.1 1.5.1 1.5zm9.9-27.8c-.2-2.4 0-4.9.5-7.3.1-.4.2-.9.3-1.3l1 .2c-.1.4-.2.9-.3 1.3-.5 2.3-.7 4.7-.5 7 .1 1.2.3 2.3.6 3.4.2.6.3 1.3.5 1.9-.3.2-.6.3-.9.5l-.6-2.1c-.3-1.2-.5-2.4-.6-3.6zm-1.7 4.1c-.3-1.3-.5-2.6-.7-3.9-.2-2.7 0-5.3.5-7.9.2-.6.3-1.1.4-1.7l.1-.4 1 .2-.1.4c-.1.5-.3 1-.3 1.6-.5 2.5-.7 5.1-.5 7.7.1 1.3.3 2.5.6 3.8.2.8.4 1.6.7 2.4l-.3.1-.7.3c-.2-.8-.5-1.7-.7-2.6zm-1.2 19.6c-.6.6-1.2 1.2-1.7 1.9-2.1 2.5-3.3 5.2-4.3 8.7v-3c.7-2.3 1.9-4.5 3.5-6.4.6-.7 1.2-1.3 1.8-1.9.3-.3.6-.6.9-1 .5-.5.9-1 1.2-1.5.4-.5.7-1 1-1.6.6-1.1 1-2.3 1.1-3.5 0-.4.1-.7.1-1.1.3-.2.7-.3 1.1-.5 0 .6 0 1.2-.1 1.7-.2 1.4-.6 2.7-1.2 3.9-.3.6-.7 1.2-1.1 1.7-.4.5-.8 1-1.3 1.5-.4.4-.7.7-1 1.1z"/><path d="M60.9 11.2c-.2-2.9 0-5.8.6-8.6.1-.5.2-1.1.3-1.6l1 .2-.3 1.5c-.6 2.7-.8 5.5-.6 8.3.1 1.4.3 2.8.7 4.2.2 1 .5 1.9.8 2.8l-.9.5-.9-3c-.3-1.4-.6-2.9-.7-4.3zm1 20.7l-.9.9c-2.5 2.6-3.4 4-4.4 6.4v-2.1c.4-1.2 1.7-3 3.7-5.1l.9-.9c.4-.4.8-.9 1.1-1.3s.6-.8.8-1.2c.2-.4.4-.9.5-1.3.1-.3.2-.6.2-1 .4-.2.7-.4 1.1-.6v.3c-.1.5-.2 1.1-.4 1.6l-.6 1.5c-.3.5-.6 1-.9 1.4-.3.5-.7.9-1.1 1.4zm7.8-7.7c0 .8 0 1.6-.1 2.5-.1.8-.3 1.6-.5 2.4s-.6 1.6-.9 2.3c-.4.7-.8 1.4-1.3 2-.4.6-.9 1.1-1.5 1.7-.3.4-.6.7-1 1-.6.6-1.1 1.2-1.6 1.8-.7.8-1.4 1.8-1.9 2.7-.5 1-1 2-1.3 3.1-.4 1.1-.6 2.3-.8 3.4-.4 2.4-.6 4.9-.6 7.3v9.9h-1v-9.9c0-2.5.2-5 .6-7.5.2-1.2.5-2.4.9-3.5s.8-2.2 1.4-3.3c.6-1 1.3-2 2.1-2.9.5-.6 1.1-1.2 1.7-1.8.3-.3.6-.7.9-1 .5-.5 1-1.1 1.4-1.6.5-.6.9-1.2 1.2-1.9.4-.7.7-1.4.9-2.1.2-.7.4-1.5.5-2.2.1-.8.1-1.5.1-2.3v-.2l1-.5c-.2.2-.2.4-.2.6z"/><path d="M69.1 38.9c-3.8.5-6.3 1.9-8.2 3.6 0-.1.1-.2.1-.2l.1-.3.3-.6v-.1c.1-.2.3-.5.4-.7l.1-.2c1.5-1 3.8-2.1 7-2.5h.3c.3 0 .6-.1.8-.1h3.4c1.5.1 3 .4 4.5.8 1.4.4 2.8.9 4.1 1.5 2.3 1 4.4 2.1 6.4 3.2l.9.5c2.3 1.2 4.6 2.4 6.8 3.2 2.3.9 4.6 1.2 6.7 1.2h.8l.6-.1.1 1-.6.1h-.9c-2.3.1-4.6-.3-7.1-1.2-2.3-.8-4.6-2-6.9-3.3l-.8-.6c-2-1.1-4.1-2.2-6.3-3.2-1.3-.6-2.6-1-4-1.4s-2.8-.6-4.3-.7h-3.2c-.3 0-.5.1-.8.1h-.3z"/><path d="M59.4 47.8c0-.2 0-.3.1-.4.1-.8.3-1.5.5-2.2 1.9-2.5 4.7-4.4 9.3-5 1.4-.2 2.7-.2 4.1-.1 2.5.2 5 .8 7.8 2 2.2.9 4.3 2.1 6.3 3.2l.8.5c2.5 1.3 4.7 2.5 7.1 3.4 1.2.4 2.5.8 3.7 1 1.3.2 2.6.3 3.8.3h1l1-.1.1 1-1 .1c-.2 0-.5 0-.7.1h-.4c-1.4.1-2.7 0-4.1-.3-1.3-.2-2.6-.6-3.9-1.1-2.5-.9-4.7-2.1-7.3-3.5l-.6-.5c-2-1.1-4.1-2.2-6.2-3.1-2.7-1.2-5.2-1.8-7.5-2-1.3-.1-2.6 0-3.9.1-5 .7-8.1 3.2-10 6.6z"/><path d="M105 52.6l.1 1-.7.1c-.3 0-.6 0-.8.1h-.4c-1.5.1-3.1 0-4.6-.3s-2.9-.7-4.3-1.2c-2.8-1-5.3-2.4-7.6-3.6l-.8-.4c-2.1-1.1-4.1-2.2-6.1-3.1-2.5-1.1-4.7-1.6-6.7-1.8h-2.6c-.2 0-.3 0-.5.1h-.3c-1.1.1-2.1.4-3.2.8-4.1 1.7-6.1 4.9-6.1 8.9v11.1h-1v-11c0-4.5 2.4-8.2 6.8-9.9 1.1-.4 2.2-.7 3.4-.9h.3c.2 0 .4 0 .6-.1h2.6c2.2.1 4.5.7 7.1 1.9 2.1.9 4.1 2 6.2 3.1l.8.4c2.2 1.2 4.7 2.5 7.4 3.5 1.3.5 2.7.9 4.1 1.1 1.4.3 2.9.4 4.4.3h.4c.3 0 .5 0 .8-.1h.7z"/></svg>