<svg viewBox="0 0 628 283" xmlns="http://www.w3.org/2000/svg" fill-rule="evenodd" clip-rule="evenodd" stroke-linejoin="round" stroke-miterlimit="2"><g opacity=".06" fill-rule="nonzero"><path d="M200.9 24.9c0-.8.2-1.5.1-2.2-.2-2.8-.4-5.6-.8-8.3-.8-5-1.9-9.8-3.4-14.5h-3c2.3 7.1 3.9 14.5 4.4 22.2.1 1.6 1 2.5 2.7 2.8zM570.5-.2h-3.8c-.9 1.1-1.9 2.1-2.8 3.2-12.6 13.7-27.6 24.2-44.7 31.7-.6.2-1.1.5-2 1 2.7.7 4.9 1 7.2-.2 18.3-8.7 33.6-20.6 46.1-35.7zm16.1 75.3c-.8-2.9-2.3-4.4-4.7-5.3-3.4-1.3-6.6-2.9-9.9-4.3-17.4-7.2-35.3-12.4-54-14.5-.5-.1-1 0-2.1 0 2.6 2 4.7 3.3 7.4 3.7 4.9.7 9.8 1.6 14.6 2.8 16 3.7 31.3 9.6 46.2 16.6.8.2 1.5.5 2.5 1z"/><path d="M579 61.7c-13.7-6-27.8-10.8-42.5-14-10.5-2.3-21.1-3.7-31.8-3.7H501c0 .2 0 .4-.1.5 2.8.7 5.3 2.3 8.4 2.4 6.7.2 13.4 1 20 2.2 15.6 2.8 30.7 7.6 45.3 13.7 2.4 1 4.8 2.1 7.6 3.2-.7-3.1-.9-3.3-3.2-4.3z"/><path d="M576 53.6c-6.8-2.4-13.5-5.1-20.3-7.2-16.4-5.2-33.1-8.4-50.4-8.5-8.9-.1-17.7.7-26.4 2.5-1.1.2-2.3.6-3.7 1 3.9.1 7.4.3 10.9.4 1 0 2.1-.1 3.1-.2 2.3-.2 4.6-.6 6.9-.7 11.4-.5 22.7.1 33.9 2.1 16 2.8 31.3 7.7 46.3 13.9.8.3 1.6.6 2.7 1-.2-2.5-1.1-3.7-3-4.3zM170.3 18c7.5 6.5 15.5 12.1 24.3 16.6 12.8 6.5 26.3 10.4 40.9 9.1 8.2-.7 16-3.1 23.3-6.9.5-.2.8-.7 1.3-1.1-.6-.7-1.1-1.3-1.7-1.8-.8.4-1.3.6-1.9.9-8.3 4.2-17.1 6.4-26.3 6.4-7.8 0-15.4-1.5-22.8-4.1-11.3-4-21.4-10.1-30.7-17.4-2.3-1.8-4.4-3.6-6.8-5.6-1.4 2.4-1.4 2.4.4 3.9z"/><path d="M187.2-.2c2 5.8 3.5 11.8 4.3 18.1.2 1.7 1.1 2.7 3.1 3.2 0-1 0-1.7-.1-2.4-.8-6.5-2.3-12.7-4.3-18.9h-3zm353.6 83.7c-2.8-7.1-6.8-13.4-12-18.9-10.6-11.3-23.8-17.6-38.9-20-6.5-1-13-1.3-19.6.1-5.7 1.2-11 3.3-16.2 5.8-13.1 6.2-25.1 14.3-36.8 22.8-1.9 1.3-3.7 2.7-5.6 4.1.1.2.1.4.2.5 2 .4 3.8.1 5.6-1.1 5.7-4 11.3-8.1 17.1-11.9 8.6-5.7 17.6-10.8 27.2-14.6 6.4-2.5 13-3.9 19.9-3.6 6.3.3 12.4 1.3 18.4 3.3 10.6 3.5 19.9 9.1 27.4 17.5 4.4 4.9 7.9 10.4 10.4 16.6.9 2.1 1.2 2.2 3.4 1.4 0-.2.1-.3 0-.5-.1-.6-.3-1-.5-1.5zM184.5 13.3c.4 1.9 1.6 2.7 3.6 3.5-1-5.9-2.6-11.6-4.5-17h-3c1.6 4.4 2.9 8.9 3.9 13.5z"/><path d="M172.1 11.3c8.9 8 18.5 14.7 29.4 19.7 8.9 4.1 18.2 6.6 28 6.8 8.8.1 17.1-1.9 25-5.8.6-.3 1-.7 1.6-1.1-.2-.5-.4-.8-.6-1.2-.2-.4-.4-.7-.7-1.1-1.7.8-3 1.4-4.2 1.9-7.1 3.1-14.5 4.6-22.2 4.3-7.9-.3-15.5-2.1-22.8-5.2-12-5-22.5-12.2-32-20.8-.7-.6-1.4-1.2-2.1-1.9-1.1 2.6-1.1 2.9.6 4.4zm317 122.7c2.5.2 2.8 0 2.6-2.2-.4-4.3-.8-8.6-1.3-12.9-1.4-12-4.3-23.6-9.1-34.7-3-6.9-6.7-13.3-11.3-19.1-1.3-1.7-1.5-1.7-3.6-.2.4.6.7 1.2 1.2 1.7 5.9 7.5 10.3 15.8 13.5 24.7 4.3 12 6.6 24.4 7.4 37 .2 2 .4 3.8.6 5.7zm-72.4-6.7c6.7-5.1 14-9.1 22.2-10.9 3.6-.8 7.4-1.2 11.1-1.5 5.4-.5 9.5-3 12.7-7.2 3.6-4.7 5.5-10.2 7.1-15.9.6-2.3-.1-4-1.7-5.8-.2.7-.3 1.4-.5 2-1.2 5.4-2.7 10.7-5.6 15.5-3.3 5.5-7.9 8.5-14.5 8.7-12.4.5-23 5.5-32.8 12.8-1.6 1.2-1.6 1.5-.5 3.9 1-.5 1.8-1.1 2.5-1.6zm143.9-34.7c-1.1-.4-2.1-.7-3.2-1-10-2.8-20.2-3-30.4-2.2-4.9.4-9.7.4-14.6-.2-8.3-1.1-16-3.9-22.7-9.1-.4-.3-.8-.5-1.4-.9.8 3.5 2.7 5.6 5.7 7.2 9.8 5.1 20.3 6.7 31.1 6 5.6-.4 11.2-.6 16.8-.4 5.9.3 11.7 1.3 17.4 3.1.8.3 1.6.5 2.6.8.6-2.5.6-2.6-1.3-3.3zm-148.4 44.9c0-.9.1-1.7 0-2.5-.3-2.6-.5-5.3-1-7.8-3-15.8-11.6-27.4-25.9-34.9-9.5-4.9-19.7-7-30.2-7.8-5.2-.4-10.4-.6-15.6-.9-9.8-.6-19.6-1.9-29.2-4-.6-.1-1.2-.2-2-.3-.2.9-.3 1.6-.6 2.6 2.6.6 5 1.1 7.4 1.6 12.9 2.5 26 3.1 39.1 3.8 9.1.5 17.9 2.3 26.3 5.9 11.1 4.9 19.6 12.5 24.6 23.8 2.5 5.8 3.8 11.9 4.2 18.1.1 2.1.1 2.1 2.9 2.4z"/><path d="M417.1 135c6.2-5.3 13.1-9.5 20.9-12 4.4-1.4 8.9-1.6 13.5-2.1 5-.5 9.4-2.6 13.1-6 4-3.7 6.6-8.2 8.7-13.1 1-2.2.4-4-.8-6.1-.4 1.1-.7 1.9-1 2.7-1.5 4.3-3.5 8.4-6.5 11.9-3.7 4.4-8.3 7.2-14.2 7.7-2.1.2-4.3.3-6.4.6-10.8 1.5-19.9 6.6-28.3 13.4-1.4 1.2-1.8 2.5-1 4.6.8-.6 1.4-1.1 2-1.6zm-14.1-1.1c.2 2 .3 2.1 2.7 2 0-.6.2-1.2.1-1.8-.6-6.6-2.1-12.9-5.3-18.8-5.3-9.7-13.5-16-23.7-20-9.6-3.7-19.7-4.7-29.9-5.1-10.6-.4-21-1.4-31.4-3.3-2.4-.4-4.7-1-7-1.4-1.4-.3-2.4.7-1.9 1.8.2.5 1.1.9 1.7 1 6.3 1.1 12.6 2.5 18.9 3.2 9.2 1 18.5 1.3 27.7 2 8.1.6 16 2.2 23.4 5.5 10.3 4.6 17.9 11.9 21.8 22.6 1.7 4.1 2.4 8.2 2.9 12.3zm96.2-38.5c6.5 2.2 13.2 3.4 20 3.3 5.4 0 10.7-.4 16.1-.6 8.7-.2 17.2.7 25.4 4.1.5.2 1 .2 1.5.4.3-2.7.3-2.7-1.9-3.6-1.2-.5-2.4-.9-3.6-1.2-9.9-3-20-2.9-30.2-2.2-10.9.8-21.4-.4-31.4-5.1-.6-.3-1.2-.5-2.1-.9.2 2.3.9 3.7 2.9 4.4 1 .5 2.1 1 3.3 1.4zm-3.9 38.2c1-.1 1.7-.2 2.6-.3v-2.1c-.2-2.9-.5-5.9-.8-8.8-1.1-11.9-3.6-23.5-7.7-34.8-3.2-8.7-7.3-16.8-12.9-24.3-1.4-1.8-1.6-1.9-3.9-.6.5.7.9 1.4 1.5 2.1 4.1 5.5 7.4 11.4 10.2 17.6 6.3 14.5 9.3 29.7 10.5 45.3.1 2 .3 3.8.5 5.9z"/><path d="M482.9 135c2.4.2 2.7 0 2.6-2 0-1.4-.3-2.7-.3-4.1-.7-10.6-2.4-21-5.5-31.1-3.3-10.9-8.1-21-15.4-29.9-.5-.6-1-1.2-1.7-1.9-.8.4-1.5.7-2.2 1.1.2.5.2.7.3.8.2.3.4.5.6.8 6.8 8 11.5 17.1 14.8 27 3.6 10.7 5.5 21.7 6.3 32.9 0 2.2.3 4.3.5 6.4zm-317-112.6c.7.6 1.2 1.2 1.8 1.7 9.3 7.7 19.3 14.3 30.4 19 11.9 5.1 24.3 7.9 37.4 6.8 10-.8 19.3-3.7 27.9-8.7.4-.2.7-.6 1-.9-1.7-2.1-1.6-2-4-.8-12.2 6.5-25.2 8.9-39 7.2-9.3-1.2-18-4.1-26.5-8.2-9.2-4.5-17.6-10.1-25.4-16.6-.7-.6-1.5-1.1-2.4-1.9-.3 1-.7 1.6-1.2 2.4zm273.9 86.5c1.3 1.7 1.4 1.7 3.9.8-.5-.8-.9-1.5-1.4-2.2-4.8-6.5-11-10.8-18.7-13-9.2-2.6-18.4-1.5-27.5.7-.2 0-.4.3-.6.5.9 1.5 1.9 2.3 3.7 1.8 1.2-.3 2.3-.5 3.5-.7 4.7-.9 9.5-1.2 14.3-.6 9.4 1 17.1 5.2 22.8 12.7zM125.2 244.5c-1.8-1.4-3.4-2.9-5.2-4.2-3.5-2.5-6.5-5.3-9.2-8.6-.4-.5-.9-1-1.4-1.6-1.5 2.3-1.5 2.5-.1 4.2 2.7 3.4 6 6.1 9.5 8.7 2.3 1.7 4.4 3.7 6.5 5.6.5.4.7 1 1.1 1.5 1.1-2.5.6-4.2-1.2-5.6zm12.9-89.6c.5 5.5.8 11 1.4 16.5 2.4 22.2 14 37.9 34 47.6.8.4 1.6.6 2.6 1 .3-1 .5-1.7.8-2.5-1.2-.6-2.2-1.1-3.2-1.5-5.5-2.6-10.5-6-15-10.3-10.9-10.6-16.1-23.7-16.7-38.7-.2-6-.8-12-2-17.8-.5-2.5-1.2-4.9-1.8-7.3-.9 3.5-1.5 6.8-.6 10.2.3.9.4 1.8.5 2.8zm-11.4 82.6c-.7-.6-1.5-1.2-2.3-1.7-4.5-3-8.2-6.8-11.2-11.4-.3-.5-.8-1-1.2-1.5-1.5 2.2-1.5 2.5-.6 3.9 4 6.2 9.9 10.4 15.9 14.6 1-2.2.9-2.6-.6-3.9zm-9.8 44.4h7.4c.8-.3 1.5-.6 2.3-.9 1.6-.7 1.7-.9.8-3.3-3.6 1.3-7.1 2.6-10.5 4.2zm3.2-95.1c-.4.8-.8 1.6-1.1 2.4-5.7 14.9-11.4 29.7-17 44.6-2.3 6-4.3 12.1-6.3 18.1-.7 2-.5 2.2 1.8 3.3l.9-2.4c4.5-12.4 8.9-24.8 13.4-37.2 3.1-8.2 6.4-16.4 9.5-24.6.9-2.2.9-2.5-1.2-4.2zm4.9 66.8c-2.2-3-4.8-5.6-7.9-7.6-3.3-2.3-6.3-4.9-9-7.8-.4-.4-.9-.8-1.4-1.2-1.3 2.6-1.4 2.7.4 4.3 2.8 2.5 5.6 4.9 8.6 7.2 4.6 3.5 8.2 7.6 10.1 13 .1.4.3.7.4 1.1.2 0 .3 0 .5-.1 0-1.2-.1-2.4 0-3.6.2-2-.5-3.7-1.7-5.3zM69.7 202c.3.7.4 1.3.6 1.7 5.8 12 7.6 24.6 6.5 37.8-.2 2 0 2.2 2.6 2.7 1.7-15.1-.2-29.5-7.3-43.3-.9.4-1.6.8-2.4 1.1zm-3.1 2.2c-2.2 1.3-2.3 1.3-1.4 3.2 2.9 6.2 4.8 12.7 5.3 19.5.3 4 .2 8.1.3 12.2 0 1.9 0 1.9 2.5 2.6.2-1.1.4-2 .4-2.9.1-2.6.1-5.1 0-7.7-.4-8.8-2.3-17.2-6.1-25.2-.2-.6-.7-1.2-1-1.7z"/><path d="M78.9 200.5c-.3-.6-.7-1.1-1-1.6-.6.1-1 .2-1.5.3-.3.1-.5.3-1.1.6 6.5 12.7 8.7 26.2 8.2 40.3 1.6-3.4 3-6.7 2.7-10.6-.7-10.1-2.9-19.8-7.3-29zm36.5-18.9c-.4.8-.7 1.6-1 2.4-5.3 13.8-10.7 27.5-16 41.4-2.9 7.5-5.4 15.2-8.1 22.8-.7 2.1-.6 2.2 1.9 3.1.3-.9.6-1.6.9-2.4 4.9-13.5 9.8-27.1 14.8-40.5 2.9-7.8 6.1-15.5 9.1-23.2.8-2.1.7-2.4-1.6-3.6zm39.4-145.4c-.2.2-.3.5-.5.8.2.3.4.6.7.8 7.5 6.1 14.4 12.9 21 19.9 1.6 1.7 3.7 2.2 5.9 2.7-7.8-9.3-16.4-17.7-25.8-25.3-.6.5-1 .8-1.3 1.1zM140 49.6c-.4.5-.9 1.1-1.4 1.7.3.4.4.6.6.7.5.3 1.1.7 1.7.9 5.4 2.8 11.1 4.5 17 5.5 9.9 1.8 19.3 4.9 28.2 9.8.5.3 1 .4 1.7.8-.2-3.1-.2-3.3-2.5-4.4-7.3-3.7-14.9-6.5-23-8.1-7.4-1.4-14.7-3.1-21.4-6.7-.2-.1-.5-.1-.9-.2zm23.9-24c-.5.8-1 1.4-1.3 1.9 7.3 6.9 14.4 13.5 21.7 20.3-.1-2.5-.5-4.6-2.4-6.3-5.4-4.8-10.7-9.8-16.1-14.7-.5-.3-1.2-.7-1.9-1.2zm-3.8 5c-.5.7-1 1.2-1.7 2.1 10.1 8.3 19.2 17.3 27.8 26.8.2-2.3-.3-4.3-1.8-6-7.1-7.7-14.5-15-22.6-21.7-.4-.5-1-.8-1.7-1.2zm-24 24.1c-.3.7-.6 1.3-1 2.2 1 .6 1.8 1.1 2.6 1.5 5.5 2.8 11.3 4.8 17.4 5.9 10.4 1.8 20.3 5 29.5 10.3 1.9 1.1 3.8 2.3 6.2 3.7-.3-2.6-1.2-4.2-3.1-5.3-8.8-5.1-18.1-8.8-28.1-10.7-7.9-1.5-15.6-3.6-22.6-7.5-.2-.1-.5-.1-.9-.1zm15.1 66.6c8.3 8.1 17.8 14.9 27.8 20.8 9.5 5.6 19.6 9.7 29.6 14.4.3.2.7.2 1.5.4-1-2.1-1.7-3.8-3.7-4.6-2.3-.9-4.5-2.1-6.8-3-8.5-3.7-16.6-7.8-24.4-12.8-15.4-9.8-28.7-21.9-39.5-36.7-.3-.4-.7-.8-1-1.2.9 5.9.8 6 3.2 8.7 4.4 4.7 8.7 9.5 13.3 14z"/><path d="M130.8 77.2c-.5 2.1-1 3.8.1 5.7 8.1 14.8 19.7 26.1 35.1 33.3 7.5 3.5 14.9 7.4 21.7 12.3 8.7 6.3 16.3 13.7 22.1 22.7 4.6 7.2 7.8 15 8.8 23.6.3 2.4.3 4.7.4 7.1 1.6-2.2 2.9-4.3 2.5-7.3-1.2-9.3-4.6-17.8-9.7-25.6-6.2-9.5-14.3-17.2-23.5-23.7-6.6-4.6-13.6-8.3-20.9-11.7-8-3.7-15.1-8.7-21.3-15-5.6-5.7-10.1-12.2-13.7-19.3-.5-.6-.7-1.5-1.6-2.1zM51.1 239.1c-.4 2.5-.4 2.5 1.5 2.8 2.8.5 5.7 1 8.5 1.7 18.3 4.6 33.1 14.8 45.8 28.4 1 1.1 2 2.2 3.1 3.3.6-.2.9-.3 1.3-.4.3-.2.7-.4 1.3-.8-.9-1-1.5-1.8-2.2-2.6-4.7-5.1-9.6-9.9-15-14.1-12.3-9.6-26-15.9-41.5-18.2-1-.1-1.9 0-2.8-.1zm82.2-179c-.3.8-.6 1.5-1 2.3.9.5 1.6 1 2.4 1.4 6.2 3.3 12.8 5.2 19.7 6.7 4.7 1 9.4 2 13.9 3.5 9 2.9 17 7.7 24.4 13.5.6.5 1.3.9 2 1.4-.3-2.3-.8-4.2-2.7-5.6-10-7.3-21-12.6-33.2-14.9-8.4-1.6-16.7-3.8-24.3-7.9-.2-.1-.6-.2-1.2-.4z"/><path d="M132.5 71.5c5.5 13.7 14 25.1 26.3 33.4 4.5 3 9.3 5.3 14.1 7.6 13.8 6.6 26.1 15.2 36 27 7.5 8.9 12.9 18.8 15.2 30.4.1.4.3.9.5 1.4 1.7-1.6 2.1-3.2 1.6-5.3-1.9-7.4-5.1-14.1-9.2-20.5-7.3-11.2-16.9-19.9-28-27.3-6.5-4.4-13.6-7.7-20.7-11.2-11.6-5.7-20.9-14.2-27.5-25.4-2.3-4-4.1-8.3-6.1-12.5-.5-.9-.7-2-2.1-1.9-.9 2.2-.9 2.4-.1 4.3zM240.2 68c-2.5-1.6-2.6-1.6-4.5-.1-7 5.5-12.4 12.4-16.8 20.1-.9 1.6-.8 1.9.8 3.6 3-4.3 5.9-8.6 9-12.8 3.2-4.2 7.3-7.5 11.5-10.8z"/><path d="M202.3 50c-.4-3-.5-3-3.2-3.4 0 .8 0 1.6.1 2.3.2 1.7.5 3.5.8 5.2 3.1 16.8 9.5 32.3 18.7 46.6 1 1.6 2.3 1.9 4.3 1.5-.6-.9-1-1.7-1.5-2.4-4.3-6.6-8-13.5-11-20.7-3.9-9.3-6.8-19-8.2-29.1zm26.5 52.1c.6-1.1 1.1-2.2 1.6-3.2 3.2-6.2 7.1-12 12.3-16.8 3.6-3.3 7.6-5.8 12.4-6.9.3-.1.6-.3 1-.5-3.3-2-3.7-2-6.8-.5-3.8 1.7-7 4.1-9.9 7-5.8 5.8-9.9 12.7-13.4 20-.2.5-.3 1-.4 1.5 2.1 1.2 2.3 1.2 3.2-.6zm-17.1-51.8c-.4-.1-.8 0-1.2 0 .4.7.9 1 1.3 1.2 13.8 8 28.1 14.9 43.1 20.3 10 3.6 20 7.3 30 10.9.5.2 1 .3 1.6.4.9-2.5.9-2.6-1.3-3.4-8.2-3-16.5-6.2-24.8-9-13-4.5-25.7-9.9-37.7-16.5-3.5-2-7.1-3.2-11-3.9z"/><path d="M195.6 47c-.4-2.6-.5-2.7-3.1-3.4 0 .8-.1 1.3 0 1.9.4 3.1.8 6.2 1.3 9.3 2.8 16.2 8.7 31.2 17.1 45.3 1.1 1.9 1.5 2 4 1.2l-1.2-2.1c-6.6-11-11.8-22.6-14.9-35-1.4-5.6-2.2-11.4-3.2-17.2zm28.1 51.1c1.2-2.1 2.3-4.2 3.5-6.2 1.3-2.1 2.6-4.2 4.1-6.2 1.4-1.9 2.9-3.8 4.6-5.5 1.7-1.8 3.6-3.4 5.5-5 1.8-1.4 3.8-2.6 5.9-4-2.7-1.6-2.7-1.6-4.8-.3-.9.6-1.9 1.2-2.8 1.9-7.5 5.8-12.9 13.3-17.2 21.6-.8 1.5-.6 1.9 1.2 3.7zm2-45c5.3 2.3 10.4 4.6 15.4 6.7 5.1 2.1 10.3 4 15.5 5.9 5.2 1.9 10.5 3.7 15.8 5.7 5.1 1.9 10.3 3.8 15.6 5.8.2-1.1.4-1.9.5-2.5-.3-.3-.5-.5-.7-.6-1.7-.7-3.4-1.4-5.1-2-16.6-6.3-33.5-11.6-49.7-18.8-1.6-.9-5.4-.9-7.3-.2zM151 85.6c-3.1-3.9-5.8-8.1-7.9-12.6-.8-1.8-2.2-2.5-4.3-2.7.3.8.4 1.3.6 1.8 4.2 9.5 10.2 17.7 18.3 24.3 5.1 4.2 10.9 7.3 16.8 10.1 9 4.2 17.4 9.2 25.1 15.4 10.6 8.6 19.5 18.7 25.4 31.2 1.6 3.4 2.8 6.9 4.3 10.7 1.7-1.2 2.2-2.5 1.4-4.4-1.6-3.6-2.9-7.3-4.7-10.7-6.8-13-16.7-23.3-28.5-32-7.7-5.7-16-10.2-24.7-14.2-8.5-4-15.8-9.6-21.8-16.9zm88.8 64.4c.1.1.3.1.4.2 1-1.7 3-2.7 3.1-4.9 0-2.5.2-5.2-.3-7.6-1.8-9.2-7.4-15.2-16.1-18.5-7.4-2.8-15.1-3.1-22.9-2-.2 0-.5.3-.8.5 1.2 1.7 2.6 2.2 4.6 2 7.1-.7 14.1.1 20.6 3.3 8.4 4.1 12.9 12.2 12.1 21.6-.2 1.8-.5 3.6-.7 5.4z"/><path d="M247 141.4c1.9-1.5 2.8-2.9 2.1-5-.7-2-1.1-4.2-1.9-6.2-3.9-9.1-10.8-14.7-20-17.6-9.9-3.2-20-2.7-30.1-.7-.3.1-.5.3-.9.5 1.2 1.5 2.5 2.2 4.5 1.8 2.3-.4 4.6-.7 6.9-.8 7.8-.6 15.4.2 22.5 3.5 9.8 4.5 15.4 12.1 16.6 22.9 0 .4.1.9.3 1.6z"/><path d="M188.8 107.8c1.4 1.2 2.6 2 4.4 1.7 4.3-.8 8.6-1.6 13-2.1 7.4-.9 14.7-.2 21.8 2.1 12.1 3.9 20.4 11.7 23.9 24.1.1.4.4.8.6 1.3 1.8-1.3 2.1-2.7 1.4-4.7-2.4-6.5-6.2-12.1-11.6-16.4-8.1-6.5-17.7-9.1-27.9-9.5-8.2-.4-16.2.9-24.2 3-.4 0-.8.2-1.4.5zm-2.7-67.4c0 .8-.1 1.6 0 2.4.5 4.1.8 8.3 1.5 12.4 2.6 16.1 8.3 31.1 16.3 45.3 1.1 1.9 1.2 1.9 3.6 1.1 0-.3 0-.5-.1-.6-.9-1.6-1.8-3.2-2.6-4.8-8.9-16.6-14.4-34.2-15.8-52.9-.2-2.1-.5-2.4-2.9-2.9zM239.9 52c1.9 1.4 47.4 18.4 49.7 18.6.2-.7.4-1.4.7-2.4-2.7-1.1-5.2-2.1-7.7-3-12-4.4-24-8.7-36-13.3-2.3-.9-4.4-.5-6.7.1zM481.5 1.1c-1.2.7-1.9 1-2.5 1.4-3.6 2-7.4 3.4-11.4 4.2-5.9 1.1-11.8.9-17.7.2-13.6-1.7-25.4 2.1-35.3 11.8-4.7 4.6-8.4 9.9-11.5 15.6-6.7 12.5-10.5 26-13 40-.4 2.1-.7 4.2-1 6.5 2.7.1 2.7.1 3.1-1.7.1-.6.2-1.3.3-1.9 1.6-9.9 4-19.6 7.5-29 3.3-8.8 7.5-17.1 13.7-24.3 9.4-11 21.3-15.9 35.8-14.2 5 .6 10 .9 15.1.3 6-.7 11.6-2.4 16.7-5.6.6-.4 1.1-.8 1.9-1.4-.7-.8-1.2-1.3-1.7-1.9z"/><path d="M431.4 1.8c-4.2.2-8.5 0-12.7 0-5.3-.1-10.5.2-15.7 1.5-11.3 2.9-19.1 9.7-22.8 20.9-.3.9-.4 1.8-.6 2.7 2.3.5 2.5.5 3.2-1.2.2-.5.4-1.1.6-1.6 3.1-8.5 8.9-14.2 17.5-17.2 4.1-1.4 8.3-2.2 12.7-2.3h15.1c6.3 0 12.5-.7 18.5-2.5 2.2-.7 4.4-1.5 6.4-2.4H445c-4.4 1.3-9 1.9-13.6 2.1zM109.6 281.9c1.9-1.1 3.9-2.2 6-3.1 3.4-1.5 6.8-2.8 10.2-4.2 1.8-.7 1.9-.9.9-3.4-3.2 1.2-6.2 2.4-9.3 3.6-4.8 1.9-9.1 4.3-13.1 7.1h5.3zM503.8 31.2c-.3-.7-.4-1.2-.6-1.6-1.4-2.9-2.3-6-2.6-9.1-.2-1.8-1.2-2.6-2.7-3.1-.7 4.2 1.3 11.9 3.8 14.6.5-.3 1.2-.5 2.1-.8zm-235.5 7.7c2.7 2.3 5.3 4.6 7.9 6.9 5.8 5 11.5 10.1 15.5 17.1 1.5-2 1.4-3.5.1-5.3-3.8-5.1-8.5-9.3-13.2-13.5-4.8-4.3-9.7-8.6-14.3-13.2-5.7-5.7-9.5-12.6-11.8-20.3-1.1-3.6-1.9-7.2-2.6-10.8H247l.3 1.8c2.7 14.9 9.5 27.4 21 37.3zm245.2-5.5c1.1-.4 2.2-.9 3.3-1.4 17.8-7.6 32.9-18.3 45.4-32.2h-3.9l-.3.3c-15.5 16.3-34.2 27.5-55.6 34-.8.2-1.6.5-2.8.9 5.4.9 8.5.5 13.9-1.6zM217.2 29c.5-.9.9-1.9 1.2-2.9 3.5-8.8 4.8-17.5 4.2-26.3h-2.8c.1 1.3.2 2.6.2 3.9.1 8.2-1.7 16-5.1 23.5-.4.8-.7 1.6-1 2.3 2.2 1.3 2.4 1.3 3.3-.5zm-7-.3c.4-.6.7-1.1 1-1.5 2.9-5.7 4.6-11.7 5.2-18.1.3-3.1.3-6.2.1-9.3h-2.9c0 .5.1 1 .1 1.4.5 9.3-1.7 18-5.8 26.5.8.5 1.5.7 2.3 1zm191.6 230c0-5.3.8-10.5 2.2-15.6.9-3.2 1.5-6.5 1.6-9.9.2-7.5-1.7-14.6-4.8-21.3-5.7-12.5-14.2-22.9-23.5-32.8-.3-.3-.6-.5-1.2-.9-.4 2.2-.2 3.8 1.2 5.2 1.3 1.2 2.5 2.7 3.7 4.1 6.6 7.6 12.5 15.6 16.8 24.7 4.8 10.1 6.6 20.5 3.2 31.4-1.6 5.1-2.1 10.5-2 15.9.1 7.7 1.5 15.3 4.2 22.5h3.1c-3.1-7.5-4.6-15.3-4.5-23.3zm130 20.3c.6-2.8.2-5.3-.8-8.5-.3.8-.4 1.1-.5 1.4-.8 3.3-1.6 6.7-2.3 10.1h3l.6-3zm-2.4-12.4c2-1.2 2-1.2 1.3-4-10 5.5-19.2 11.6-27.5 19.4h4.3c1-.9 2-1.7 3.1-2.6 5.8-4.8 12.2-9 18.8-12.8zm-130.1 15.3h1c-.3-.7-.6-1.5-1-2.2v2.2zm-65.1 0c1-6.8 1.1-13.8.3-20.8-1.4-11.4-5.6-21.6-12.6-30.7-4.1-5.2-8.9-9.6-14-13.7-8.3-6.8-16.1-14.2-22.8-22.6-9.2-11.4-16.2-24-19.5-38.4-.1-.5-.4-.9-.6-1.5-2.2 1.9-2.2 1.9-1.7 4.2.1.5.2.9.4 1.4 3.2 11.9 9 22.5 16.3 32.4 7.8 10.5 17.2 19.6 27.4 27.8 4.6 3.7 8.9 7.8 12.6 12.5 7.3 9.5 11.2 20.2 12.1 32.1.4 5.8.2 11.6-.7 17.3h2.8zm60.4-157.6c.9 2.6 1.3 5.3 1.9 7.9.4 1.9.9 2.2 3.1 1.8-.1-1-.2-2-.4-3.1-1.9-12.3-8.1-21.5-19.2-27.4-6.6-3.5-13.7-5.4-21-6.2-6.8-.7-13.5-1-20.3-1.4-10-.6-19.9-1.9-29.7-4-.8-.2-1.7-.3-2.5-.4-.7 2.5-.6 2.6 1.6 3.1 7.7 1.7 15.4 2.9 23.2 3.6 7.8.6 15.6.9 23.4 1.5 7.2.5 14.3 2 20.9 4.9 9.1 4 15.7 10.3 19 19.7zm182.1 128.2c.6 9.5 2.2 18.9 4.8 28.1.1.5.3.9.4 1.4h3.1c-.6-1.9-1.1-3.8-1.6-5.6-2.4-8.9-3.8-18-4-27.2-.2-8.4.7-16.8 3.2-24.9.1-.4.2-.9.3-1.3-2.2 2.6-4.6 5-5.2 8.6-.9 6.9-1.4 13.8-1 20.9z"/><path d="M535.7 153.1c-.1-.1-.1-.3-.2-.4-.4-.4-.9-.7-1.3-1-5.6-3.5-11.6-6.1-18-7.8-10-2.6-20.1-2.3-30.2-.2-11.5 2.3-23 3.9-34.7 4.4-12.2.6-24.4.1-36.6-1.8-16.6-2.6-32.6-7.4-47.4-15.4-.5-.3-1.1-.5-1.7-.7-.2 2.4.4 3.6 2.3 4.4.8.3 1.6.8 2.4 1.1 5.5 2.3 10.8 4.8 16.4 6.8 13.5 4.7 27.5 7.3 41.7 8.3 11.7.8 23.3.7 34.9-.7 8.6-1 17.1-2.5 25.6-4 7.1-1.2 14.3-1.6 21.5-.4 7.8 1.3 15.1 4 21.8 8.2 1.9 1.1 1.9 1.1 3.5-.8zm-198.3-51.6c.8.9 1.3 1.5 1.8 2 18.1 18.7 28.5 40.9 31.1 66.7.2 1.8 1.7 4.7 3.3 6.2 0-.7.1-1.2 0-1.8-.5-4.6-.8-9.2-1.6-13.8-3.9-22-13.7-41.1-28.8-57.5-1.4-1.7-3.1-2.2-5.8-1.8z"/><path d="M530.6 157c-.7-.5-1.3-.9-1.9-1.3-11.4-6.5-23.6-8.8-36.6-6.7-12.5 2.1-24.9 4.4-37.5 5.1-12.9.7-25.7.5-38.5-1.3-15.8-2.2-31-6.4-45.4-13.2-.5-.3-1.1-.4-1.8-.6.1 2.3.9 3.6 2.9 4.4 4.2 1.6 8.3 3.4 12.5 4.9 14.3 4.9 29 7.7 44.1 8.7 10.2.7 20.5.6 30.7-.2s20.3-2.4 30.4-4.4c13.2-2.6 25.8-1 37.6 5.7 1.7.9 1.7.9 3.5-1.1zm41.7 123.9c-.2.3-.3.4-.4.5-.1.2-.1.4-.2.5h1c-.1-.3-.2-.7-.4-1zm-421.8-53.5c-1.1 3.1-1.2 5.9.2 8.6 1.3 2.6 2.4 5.2 3.8 7.7 6.3 11 14.7 20.1 24.2 28.2 3.7 3.2 7.2 6.5 10.5 10h3.9c-3.2-3.7-6.7-7.1-10.4-10.3-5.7-4.9-11.2-10.1-16-15.8-7-8.2-12.7-17-15.6-27.5-.1-.2-.3-.5-.6-.9zm-12.6-116.9c-.2.1-.4.3-.6.4.1 2 .3 3.9 1.2 5.8 1.1 2.1 2 4.2 3 6.3 4.5 10.3 7.9 21 9.2 32.2.6 5 .8 10 1.3 15 1.6 16.2 9.7 28.1 23.9 36 .7.4 1.4.6 2.2 1 .6-2.5.5-2.6-1.2-3.7-3-2-6.1-3.9-8.7-6.3-9-8-12.9-18.4-13.6-30.2-.3-4.2-.5-8.5-1-12.7-1.9-14.7-6.8-28.4-13.7-41.4-.6-.9-1.4-1.6-2-2.4z"/><path d="M144.5 155.6c.6 5.2.7 10.5 1.3 15.8 2.3 19.5 12.5 33.3 30.1 41.7.5.3 1.2.3 1.7.5.6-2.5.6-2.5-1.6-3.6-17.8-9.1-27.1-23.7-27.8-43.5-.5-13.9-3.5-27.1-8.8-39.8-.2-.6-.6-1.1-.8-1.6-.3 2.9-.7 5.7.4 8.5 2.7 7.1 4.6 14.5 5.5 22zm66.7 6c-4.4-2.1-8.7-4.3-13.2-6.2-18.3-7.9-35-18.1-49.5-31.9-.2-.2-.6-.3-1.1-.6 1.4 4.6 1.6 5.1 3.5 6.7 11.1 9.7 23.4 17.8 36.7 24.1 8.2 3.9 16.4 7.8 24.7 11.7.4.2.9.3 1.5.5-.1-2.1-.8-3.5-2.6-4.3zm2.4 8.5c-5.8-3-11.6-6.2-17.6-8.8-15.1-6.7-29.5-14.6-42.4-25-.4-.3-.9-.5-1.6-.8.2 2.4.9 4 2.6 5.4 11.4 8.7 23.8 15.8 36.9 21.6 8 3.5 16 7 23.2 11.9.2.1.4.1.8.2.7-2.2-.1-3.6-1.9-4.5z"/><path d="M165.2 245.3c-.5.6-1 1.2-1.6 2 .6.7 1.1 1.3 1.8 2.1.9-1 1.5-1.6 2.1-2.4 4.2-5.2 7.9-10.7 10.7-16.7 5.7-12.1 7.1-24.6 3.7-37.6-2.8-10.6-8.2-19.7-15-28.2-3.1-3.9-6.5-7.6-10.7-11.4.1 2.8.6 4.7 2.3 6.4 7 7.1 12.9 15.1 17.1 24.2 6.9 15 7.1 30 .2 45-2.7 5.9-6.4 11.4-10.6 16.6zm156.4 22.4c-2.3-.3-4.6-.5-6.9-.8-15.5-2.2-30.3-6.5-44.1-13.8-.5-.3-1-.4-1.5-.7-.6 2.5-.4 2.8 1.3 3.8.4.2.9.4 1.3.7 14.5 7.3 30 11.4 46 13.3 1.8.2 3.6.3 5.3.4.5-2.6.5-2.7-1.4-2.9zm-171.6-63c-.2.5-.3 1.1-.4 1.6-.7 3.3-1.3 6.6-2.1 9.8-3.3 13.5-5.5 27.1-5.8 41-.1 6.9.3 13.7 1.3 20.6.2 1.4.5 2.8.7 4.2h2.9c-1.4-7.1-2-14.4-2-21.7-.1-13.5 1.8-26.8 4.9-39.9.9-4 1.9-8.1 2.7-12.2.2-1.9-.1-2.3-2.2-3.4zM317.9 273c-1.9-.9-3.3-.8-4.8.3-4.7 3.6-9.8 6.5-15.3 8.6h7c4-2 7.7-4.5 11.2-7.3.6-.4 1.1-1 1.9-1.6zm-106-63.2c-.5 2.2.5 3.8 1.8 6 .2-.9.2-1.3.3-1.7 1.6-9.4 4.7-18.4 8.8-27 7.1-14.7 16.6-27.9 27-40.4 3.5-4.2 6.8-8.5 10.2-12.7 1.2-1.5 1.5-3-.1-4.8-.4.5-.8.9-1.1 1.4-1.9 2.6-3.7 5.2-5.7 7.7-3.6 4.4-7.3 8.7-10.8 13.1-9.3 11.7-17.6 24.2-23.7 37.9-2.9 6.6-5.2 13.4-6.7 20.5zm416 22.1c.4-2.4.4-2.5-1.6-3.3-5.9-2.3-11.7-4.9-17.1-8.2-12.3-7.5-20.7-18-23.5-32.4-.7-3.6-1.1-7.3-1.7-10.9-1.4-8.7-3.7-17.2-8.1-25-3.4-6-8-10.9-14-14.5-2.3-1.3-4.3-1.2-6.9 0 .7.3 1 .5 1.3.6 6.6 2.5 11.6 6.9 15.5 12.7 3.9 5.8 6.4 12.2 7.8 19 1.2 5.6 2 11.3 2.9 17 2.1 11.9 7.5 22 16.8 29.9 8.2 7 17.7 11.4 27.7 15.1h.9zM626.3 7.1c-3-1.3-6-2.7-9.1-3.6-9.2-2.4-18.5-2.1-27.8-.5-.4.1-.8.4-1.5.6.3.8.5 1.5.8 2.3 13.6-2.1 26.8-2.4 39.1 5.3.1-.8.2-1.5.3-1.9v-.4c0-.9-.5-1.2-1.8-1.8zm-.1-3.9c.5.3 1.1.4 1.7.6.4-2.7.3-2.9-1.7-3.7-.2-.1-.4-.1-.6-.2h-9.3c3.5.7 6.8 1.8 9.9 3.3zM148.3 16.8c-3.3 4.5-7.4 8.2-11.7 11.7-2.2 1.8-4.4 3.7-6.5 5.7-7.4 7.1-12.7 15.6-15.6 25.5-.7 2.3-.6 2.6 1.7 4.3.3-.9.5-1.7.8-2.5 1.2-4.2 2.8-8.2 4.9-12 4.2-7.6 10.1-13.8 16.9-19.1 4.7-3.7 9-7.7 12.4-12.7 3.6-5.1 6-10.7 6.2-17.1v-.8h-2.9c0 1.6-.2 3.2-.5 4.9-.9 4.5-3.1 8.4-5.7 12.1zm451.9 34c-.3 2.4.2 3.1 2.5 3.4 8.4 1.3 16.2-.6 23.8-3.9 1.9-.8 1.9-1.1 1.3-3.7-8.8 4-17.9 6.6-27.6 4.2zm23.1-16c-3.1 1.2-6.2 2.7-9.4 3.6-6.3 1.8-12.2 1-17.5-3.1-.2-.2-.5-.3-1-.5-.2 2.3.4 4 2.6 5 4 1.9 8.1 2.7 12.6 2.2 6-.6 11.2-3.2 16.5-5.7 1.3-.6 1.3-.9.6-3.3-1.5.6-2.9 1.2-4.4 1.8z"/><path d="M627.7 39.8c-.9.4-1.7.7-2.6 1-2.6 1-5.1 2.2-7.8 3.1-4.6 1.5-9.4 2.1-14.2 1.1-1.8-.4-3.5-.9-5.5-1.5.2 2.8.4 3.1 2.5 3.7 3.6 1 7.2 1.3 10.9.9 5.6-.6 10.7-2.5 15.7-4.9 1.7-.7 1.7-1 1-3.4zM119 .7c8.7 4 17 8.5 25 13.8.6.4 1.3.8 2.1 1.2.5-.8.9-1.4 1.4-2.1-.7-.5-1.1-.9-1.6-1.2-5.9-3.4-11.7-7-17.6-10.2-1.4-.8-2.8-1.5-4.3-2.2h-6.8c.7.1 1.3.4 1.8.7zM23.5 34.9C21.3 24.4 20 13.8 19.6 3.1c0-1.2-.4-2.3-.9-3.3h-1.8c0 12.9 1.5 25.6 4.5 38.3 2.5-1 2.6-1 2.1-3.2zm-7.8 6.4c2.6-1 2.6-1.1 2.1-3.4-2.8-12.4-4.3-25-4.5-37.8v-.3h-2.9c.2 12 1.5 23.9 3.9 35.7.4 2 .9 3.9 1.4 5.8zM4.6 9.9c.6 11.2 2.3 22.2 5 33.1.2.7.4 1.3.7 1.9 2.5-1.1 2.5-1.1 1.9-3.7-3.3-13.6-5-27.4-5.1-41.4H4.3c-.2.9-.2 1.7-.1 2.7.2 2.4.3 4.9.4 7.4zm621.9 212c-4.7-2.3-9.5-4.3-14-6.9-8.5-5-15-11.8-18.7-21.2-1.7-4.5-2.5-9.2-3.1-14-1.2-9.1-3.2-17.9-7.1-26.3-3-6.5-7-12.2-12.4-16.9-1.6-1.4-3.2-1.5-5.2-.6 1.7 1.4 3.3 2.6 4.7 4 5.8 5.4 9.6 12.1 12.3 19.5 2.9 7.7 4.3 15.7 5.3 23.8 1.6 13 7.6 23.4 18.2 31.2 6.1 4.5 12.9 7.7 19.9 10.5.4.2.9.2 1.4.3.6-2.3.5-2.5-1.3-3.4zm1.3 55c-.5 1.7-.9 3.4-1.4 5h1.7v-5c0 .1-.2 0-.3 0zm-17.9-39.1c-5.2-5.3-9.5-11.3-12.4-18.1-1.1-2.5-3-4-4.8-5.8-.2.1-.3.2-.5.3.3.9.6 1.8.9 2.6 3.5 8.7 8.2 16.6 15 23.2 3.7 3.6 7 7.4 9.8 11.8 3.1 4.9 4.8 10.2 4.6 16.1-.1 4.4-1 8.6-2.2 12.7-.1.4-.3.9-.4 1.3h3c.7-2.1 1.2-4.2 1.7-6.4 2.1-9.9.5-19.1-5.6-27.3-2.8-3.6-5.9-7.1-9.1-10.4zM21 280c-1.1-.3-1.9-.4-2.8-.7-.4.9-.8 1.7-1.2 2.5h3.1c.3-.5.6-1.1.9-1.8zM482.9 7.7c-.9.4-1.6.7-2.2 1-8.2 4.3-16.9 5.5-26.1 4.9-3.2-.2-6.4-.6-9.6-.7-8.9-.5-16.7 2.3-23.5 8-5.8 4.8-10.1 10.9-13.5 17.6-6.4 12.4-10 25.8-12.2 39.5-.1.6 0 1.2 0 1.8 2.6-.1 2.6-.1 3-2.5 1.6-9.1 3.8-18 7-26.6 2.8-7.5 6.3-14.7 11.3-21 8.1-10.2 18.5-15.3 31.7-13.6 5.2.7 10.5 1 15.8.4 5.6-.6 11-2 16.1-4.3 1.8-1 2.6-2.2 2.2-4.5z"/><path d="M626.7 90.8C614.5 83 606 72 600.2 58.8c-3.8-8.6-6.3-17.6-8-26.8-1.9-10.5-4.3-21-7.8-31.1-.1-.3-.3-.7-.4-1h-2.4c-.3.6-.2 1.1.2 2.3 3.4 9.9 5.6 20 7.5 30.2 2 11.3 5.2 22.2 10.5 32.5 6 11.6 14.1 21.3 25.2 28.4.9.6 1.8 1 2.9 1.7.2-.5.3-.9.3-1.3v-.6c-.1-1-.6-1.7-1.5-2.3zM47.9 49.6c-.7.3-1.4.5-2.2.8.1.5.1.8.2 1 .3.6.6 1.1.9 1.7 3.6 5.9 7.8 11.3 12.6 16.3 8.3 8.3 17.6 15.2 28 20.6 9 4.7 18.1 9.3 26.3 15.3.3.2.6.3 1.1.4-.1-2.4-.9-4-2.8-5.1-4-2.3-7.9-4.9-11.9-7.2-5.8-3.3-11.8-6.1-17.5-9.5-13.9-8.3-25.3-19.2-33.7-33.1-.3-.4-.7-.7-1-1.2zm566 121.6c2.3 3.4 4.4 6.9 6.7 10.2 2.2 3.1 4.5 6.1 6.8 9.2l.6-.3c.1-.3.1-.5.1-.8v-1.7c-.1-.8-.4-1.6-1-2.4-2.7-3.7-5.3-7.4-7.8-11.2-3.7-5.6-7.5-11.1-12-16.1-5.9-6.5-12.5-12.1-20.1-16.5-.6-.4-1.2-1-2.2-.6 1.2 1.9 2.1 3.7 3.9 4.9 10.1 6.7 18.3 15.3 25 25.3zm12.6-43.5c-3.9-1.5-7.7-3.1-11.7-4.3-17.8-5.6-36.1-6.6-54.6-4.7-18.5 1.9-36.3 6.8-53.6 13.5-.6.2-1.2.6-1.7.8 2.3.8 4.5 1.1 6.7.4 5.5-1.9 11-3.8 16.6-5.4 20.1-5.9 40.7-8.5 61.6-6.6 12.3 1.1 24.1 4.1 35.4 9 .8.3 1.6.6 2.4 1 .2-.8.4-1.4.4-1.9v-.2c.1-.8-.3-1.1-1.5-1.6zm-50.5 8.2c0 .2-.1.3 0 .4.2.3.3.5.6.8 5.8 5.9 9.6 13.1 12.5 20.8 3 8.1 4.4 16.5 5.5 25 1.1 9 4.7 16.7 11.3 23 6.2 5.8 13.5 9.6 21.3 12.6.2.1.4 0 .7-.1.4-2.4.4-2.5-1.6-3.3-5.4-2.3-10.6-5-15.2-8.6-7.9-6.1-12.4-14-13.7-23.9-1-7.9-2.3-15.7-4.8-23.2-2.7-8.1-6.4-15.5-11.8-22.1-1.4-1.6-2.9-1.8-4.8-1.4zM36.3 54.4c-.8.4-1.5.7-2.1 1 .1.4.1.7.2.9.3.6.6 1.3 1 1.9 8.8 15 20.9 27.2 35.6 36.5 6.7 4.3 13.9 7.9 20.9 11.7 9.2 5 17.8 10.7 25 18.4.4.4.8.7 1.4 1.3.6-2.7-.1-4.6-2-6.1-3.2-2.6-6.3-5.4-9.7-7.8-6.6-4.9-14-8.7-21.3-12.4-6.4-3.3-12.6-7-18.4-11.3-12-8.8-22-19.5-29.5-32.4-.3-.6-.6-1.1-1.1-1.7zM2.8 281.9h3.4c-1.6-2.4-3.1-4.9-4.4-7.5-.2-.4-.6-.8-1.1-1.4-.1.4-.1.8-.1 1.1v2.7c.2 1.5.7 3 1.7 4.3.1.3.3.6.5.8zm.1-30.3c5.2 6.4 11.7 10.7 19.4 13.1 4.6 1.4 9.3 2.4 13.9 3.5 10.1 2.4 19.1 6.8 26.6 13.7H67c-1.6-1.6-3.3-3.1-5.1-4.5-8.2-6.5-17.5-10.5-27.7-12.5-3.8-.8-7.7-1.7-11.4-2.9-7-2.3-13.2-6.1-17.7-12.2-1.7-2.2-3-4.7-4.6-7.3-.1.4-.1.7-.2 1.1v2.7c.5 1.9 1.3 3.7 2.6 5.3z"/><path d="M42 51.8c-.8.4-1.5.7-2.3 1.1.5 1 .9 1.9 1.4 2.7C49.6 69.8 61.2 81.2 75.2 90c6.1 3.9 12.6 7.2 19 10.6 7.1 3.8 13.8 8 20 13.1.9.7 1.7 1.4 2.8 2.4.1-2.8-.7-4.7-2.7-6-1.2-.8-2.3-1.7-3.4-2.6-7-5.1-14.6-9.2-22.3-13.1-6.3-3.2-12.4-6.9-18.2-11.1-11.1-8.2-20.3-18-27.3-29.9-.3-.5-.7-1-1.1-1.6zM7.7 247c5.9 1.3 11.8 2.7 17.7 4 1.7.4 3.4.6 5.3.9.2-2.6.1-2.7-2.1-3.2-7.5-1.7-14.9-3.4-22.4-5.1-.6-.1-1.2-.2-2-.4.6 2.1 1.5 3.3 3.5 3.8zm610.7-9.3c-3.2-3.9-6.6-7.6-10-11.3-1.3-1.4-3-2.3-4.9-2.9.6 1.5 1.3 2.9 2.3 4.1 2.9 3.5 5.9 6.9 9 10.3 5.5 6.1 10.6 12.4 12.9 20.5 0 .1.2.2.5.4v-6.5c-.3-1.6-.9-3-1.9-4.4-2.6-3.4-5.1-6.9-7.9-10.2zm8.8-62.8c-2.7-3.9-5.1-7.9-7.9-11.7-7.3-10.2-16-18.8-26.6-25.6-2.5-1.6-5.2-1.5-8-1.3.4.3.9.6 1.3.8 7.5 3.9 14.1 9 20.1 14.9 6.3 6.3 11.6 13.4 16.3 20.9 1.4 2.2 2.8 4.3 4.2 6.4.3.4.7.7 1.3 1.3.1-.4.1-.9.2-1.3v-2c-.1-.8-.3-1.6-.9-2.4z"/><path d="M.6 83.6c1.5-2.8 2.7-5.3 4.1-7.5 4.9-7.8 11.7-13.7 19.4-18.6 7.6-4.8 15.8-8.4 24.3-11.3 2.5-.9 5-1.7 7.7-2.6-2.3-2.3-2.3-2.3-4.8-1.4-4.5 1.6-9.1 3.2-13.5 5-9.2 3.9-17.8 8.7-25.3 15.4-4.3 3.9-8 8.2-11.1 13.2-.6 1-.9 2.1-1 3.2v3c.1.5.2 1 .2 1.6zm8.8 59.9c-2.9-4-5.6-7.9-8.3-11.7-.3.2-.4.2-.4.2-.1.2-.1.4-.2.6v2.3c.3 1.5 1.1 2.9 2.2 4.2 1.3 1.7 4.6 4 6.7 4.4zM1 60.5c12-13 27.2-20.5 43.3-26.3-1.4-2.3-1.6-2.5-3.9-1.6-9.8 3.7-19.2 7.9-27.7 14-3.8 2.7-7.2 5.8-10.8 8.8-.8.7-1.3 1.5-1.4 2.4v1c.1.5.2 1.1.5 1.7zm29.3 178.3c.4-2.3.4-2.4-1.5-2.8-8.3-1.5-16.6-3.5-24.6-6.2-.4-.1-.8-.1-1.3-.1-.2.8-.4 1.4-.6 2 3.2 2.2 23.8 7.4 28 7.1zM.5 226.5c0 .2 0 .4.1.6.2 0 .3 0 .5.1.3-1 .6-1.9.8-2.9 3.3-13.8 2.6-27.5-.6-41.2-.1-.4-.3-.7-.5-1.1-.3 5.1-.1 10.1 0 15.1.1 3.9.4 7.8.3 11.7-.1 5.1-.3 10.3-.5 15.4v2.3H.5z"/><path d="M15.2 67.8c-2.3 1.5-2.4 1.6-1.9 3.9 1.8 8.9 5.7 16.9 11.5 23.9 2.3 2.8 4.7 5.5 6.2 8.8 3.1 6.6 2.7 13-1.2 19.2-2 3.2-4.7 5.6-7.8 7.7-.6.4-1.2.8-1.9 1.3.5.7 1 1.4 1.6 2.2 6-3.4 10.3-7.8 12.7-13.9 1.8-4.4 1.9-9 .7-13.6-1.2-4.4-3.5-8.2-6.5-11.6-6.8-7.6-11.1-16.4-12.8-26.4-.2-.5-.4-.9-.6-1.5z"/><path d="M20.9 62.9c-2.4 1.3-2.5 1.5-2.2 3.8 1.4 9.8 5.2 18.5 11.8 26.1 1.6 1.9 3.2 3.8 4.5 5.9 3.8 6.1 5.3 12.6 3.7 19.7-1.3 6-4.5 10.9-9.1 14.9-1.7 1.5-3.5 2.8-5.6 4.4.6.7 1.1 1.3 1.7 2 .8-.5 1.6-.8 2.2-1.3 2.4-2.1 5.1-4 7.1-6.4 7.6-9.2 9.3-19.4 4.7-30.5-1.7-4.2-4.5-7.7-7.4-11.1-6.3-7.4-9.8-16-10.8-25.7-.1-.6-.4-1.2-.6-1.8z"/><path d="M27.1 58.9c-2.3.8-2.6 1.1-2.5 2.8.5 9.6 3.5 18.3 9.7 25.8 2.1 2.5 4.2 5 5.9 7.8 6.8 11.2 7.3 22.6.7 34.1-2.7 4.6-6.4 8.4-10.8 11.5-.7.5-1.3 1-2.1 1.7.7.9 1.2 1.5 1.6 2.1 4-2.5 7.2-5.2 9.9-8.4 9.2-11.2 11.4-23.5 6-37-2-4.9-5.1-9-8.5-13-4.7-5.4-7.6-11.6-8.8-18.6-.5-2.9-.8-5.7-1.1-8.8zM1.9 268c3.9 3.1 8.3 5.4 12.9 7.3 5.7 2.4 11.7 3.6 17.8 4.9 2.1.4 4.1 1 6 1.7H46l-1.8-.9c-5.1-2.3-10.4-3.5-15.8-4.6-9.8-2-18.8-5.7-26.5-12.1-.3-.2-.6-.4-1-.5-.2.8-.3 1.3-.4 1.8v.5c.1.7.5 1.2 1.4 1.9zm-1-123.4c-.7 2.4-.6 2.8 1.4 4C13.5 155 25 160.5 37 165c9.8 3.7 18.9 8.6 26.9 15.5 1.7 1.5 1.9 1.4 3.8-.1-.1-.1-.1-.3-.2-.4l-1-1c-7.8-7-16.8-12.2-26.6-15.9-12.8-4.8-25.2-10.5-37-17.5-.7-.4-1.3-.7-2-1zm1.5-29.3c8 14.3 17.9 27.2 29.2 39 2.4 2.5 5.5 3.3 8.5 4.6-15.9-15.3-29.3-32.4-39.2-52.3-1 3.3-.1 6 1.5 8.7zM4 239.4c8 2.5 16.2 4.4 24.5 5.8.6.1 1.2 0 1.8 0 .3-2.4.3-2.5-1.7-2.9-8.6-1.5-17.1-3.5-25.4-6.2-.4-.1-.9-.2-1.7-.3.1 2 .8 3 2.5 3.6zM.5 174c.1.9.5 1.7 1.2 2.5 2.3 2.4 4.5 5 6.7 7.5 7.1 8.4 13.3 17.4 17.5 27.6 1.7 4.2 2.9 8.6 4.4 12.9.3.8.6 1.6.8 2.4.9-2 1.7-3.9 1-6.1-1.4-5-3.1-9.9-5.5-14.6-6.3-12.7-14.9-23.6-24.8-33.7-.3-.3-.7-.5-1.2-.9-.1.4-.2.8-.2 1.2v1.2h.1zm16.7-26.3c1.7 2.1 4.1 2.8 6.6 3.6-8.4-9.8-16.2-20.1-22.9-31.2-.6 2.2-.6 4.2.6 6.2 4.8 7.4 10 14.6 15.7 21.4zm550.7 4.8c-1.2-.1-2.4-.4-3.6-.4-6.7-.3-12.8 2-18.3 5.6-3.6 2.3-7.1 4.9-10.4 7.6-6.5 5.4-13.4 10.2-21.3 13.2-.3.1-.5.3-1 .6 2.4 2 2.5 2.1 4.8.9 2.9-1.4 6-2.8 8.6-4.6 4.3-2.9 8.4-6.1 12.4-9.4 4.9-3.9 10-7.5 16-9.6 5.1-1.8 10.3-2.2 15.5-.1.4.2.8.2 1.5.4-.7-2.4-1.8-4-4.2-4.2zm-2.3-142.2C555.5 20.6 544 29 531.3 35.8c-.7.4-1.3.8-2.3 1.3 2.3 1 4 1.1 6 0 17.2-9.6 31.7-22 43.5-37.3h-3.7c-2.9 3.7-5.9 7.2-9.2 10.5zm-407 13.5c-3.9 5.4-8.6 9.8-13.7 14-2.9 2.4-5.8 4.8-8.3 7.6-7.5 8.1-11.4 17.8-12 28.8-.1 2.5 1.2 4.3 2.4 6.2.2-.2.3-.2.3-.2 0-1.3.1-2.5.1-3.8.1-9.7 3-18.4 8.8-26.1 3.3-4.4 7.5-7.8 11.7-11.3 6.7-5.4 12.4-11.5 16.5-19.1 3.5-6.6 5.5-13.3 5.5-20H167c0 1.8-.2 3.6-.4 5.4-1 6.8-3.9 12.9-8 18.5zm420.7 91.4c-.2-.4-.2-.7-.3-.9-4.1-5.4-5.5-11.6-5.1-18.3.2-3.2.2-6.4.2-9.6 0-4.9-1.3-9.5-3-14-.9-2.3-2.6-3-4.8-3.5.1.4.1.7.2.8 4.2 7.2 5.5 14.9 4.8 23.1-.2 2.7-.2 5.4-.1 8.1.2 4.5 1.6 8.6 3.8 12.5.9 1.9 2.2 2.4 4.3 1.8zm45.9-7.5c.8.4 1.7.7 2.6 1.1.6-2.6.5-2.7-1.6-3.8-13.8-7.2-24.5-17.8-32.4-31.2-6.5-11.1-10.5-23.1-13.2-35.6-1.8-8.7-3.8-17.3-5.7-26-.2-.8-.5-1.6-.9-2.7-2.3 1.7-2.3 1.8-1.8 4 1.9 8.3 3.7 16.7 5.5 25 2.8 13.3 7.1 26.1 14.2 37.7 8.3 13.7 19.2 24.3 33.3 31.5zm-36.2 7.9c-.8-.7-1.3-1.2-1.8-1.6-4.6-3.9-7.1-8.8-7.1-14.8 0-2.5.1-5 .2-7.4.2-5.5-.1-10.9-1.6-16.1-.6-2-1.3-2.5-3.6-2.5 0 .2 0 .5.1.7 2.1 6.4 2.9 12.9 2.3 19.6-.2 2.1-.2 4.3-.1 6.5.1 4.7 1.7 8.9 4.5 12.7 1.6 2.2 3.7 3.6 7.1 2.9zM117.2 43.4c-2.7-4.7-4.3-9.8-5.1-15.1-.1-.6-.3-1.3-.5-2-2.4 2.1-2.5 2.2-1.9 4.7.8 3.2 1.7 6.3 2.8 9.4 1 2.5 2.4 4.8 3.7 7.5 1.8-1.7 1.9-2.9 1-4.5zM28.8 270.2c-10.4-2.3-19.7-6.6-27-14.6-.3-.3-.7-.5-1.1-.8-.1.4-.2.7-.2 1v1.3c.2 1.2.8 2.2 1.9 3.2 3.7 3.3 7.7 6 12.1 8.1 6 2.8 12.3 4.3 18.8 5.6 7 1.4 13.6 3.9 19.4 7.9h5c-5.1-3.9-11-7-17.7-9.1-3.7-1.1-7.5-1.8-11.2-2.6zM99.9 51.4c-.7-.6-1.4-1-2.1-1.5-1.6 2-1.5 2.2 0 3.6 3.5 3.3 7.2 6.6 10.5 10.1 7.1 7.5 12.6 16.1 16.8 25.5 4.2 9.6 6.7 19.6 7.7 30.1.8 8.5.6 16.9-.4 25.4-.8 6.3-2.1 12.5-3.7 18.6-.6 2.1-.4 2.4 1.8 3.5.2-.6.5-1.1.7-1.7 4.6-16.5 6.3-33.3 4-50.3-3.4-25.7-15.6-46.6-35.3-63.3z"/><path d="M123.4 159c-.4 2.1-.4 2.2 1.9 3.4.3-.8.5-1.3.7-1.9 4.1-16 5.3-32.1 2.5-48.5-3.9-22.4-14.9-40.6-32-55.3-.3-.3-.8-.5-1.2-.7-1.3 2.3-1.3 2.3.5 3.9 8.6 7.7 15.9 16.5 21.2 26.7 9.3 17.9 11.7 37 9.3 56.8-.6 5.2-1.9 10.4-2.9 15.6zm199.7 114.2c-.6.4-1.1.7-1.5 1-3.2 2.9-6.5 5.5-10.1 7.7h5.2c1.8-1.3 3.5-2.7 5.2-4.1 1.5-1.3 1.7-2.7 1.2-4.6zm258-71.9c-1.3 2.6-2.5 5.2-3.8 7.7-5.9 10.8-13.5 20.2-22.5 28.5-1.4 1.3-1.8 2.7-1.2 4.8.8-.6 1.4-1 2-1.5 2-1.9 4-3.9 6-5.9 9.1-9.2 16.4-19.8 21.8-31.6.9-1.9 1-3.6-.8-5.4-.6 1.3-1 2.4-1.5 3.4z"/><path d="M578.9 189.5c-1.8 5.7-4.1 11.1-6.9 16.3-4.6 8.4-10.2 16-17 22.8-1.4 1.4-2 2.8-1 4.6.2 0 .4 0 .5-.1.3-.2.6-.5.9-.8 11-11 19.6-23.5 25-38.2.9-2.5.3-4.6-.5-7.4-.5 1.3-.8 2-1 2.8zm-53-84.6c5.2-.3 10.4-.5 15.6-.3 7.6.2 14.9 1.9 21.5 5.9.3.2.6.2 1 .4-.1-2.3-.9-3.8-3-4.8-8.1-3.7-16.7-4.7-25.5-4.6-3.8.1-7.7.5-11.5.6-9.1.4-18-.7-26.6-3.8-.4-.2-.9-.2-1.6-.4 0 2.2.7 3.2 2.5 3.8 9 2.9 18.2 3.7 27.6 3.2zm60.6 100.7c-.2.1-.3.2-.4.2-1.1 2-2.2 4.1-3.3 6.1-7.4 13.6-17.4 25-29.2 34.9-1.6 1.3-2.1 2.8-1.8 5.1 1.2-.9 2.1-1.6 3-2.4 5.8-4.7 11.1-9.9 16-15.5 6.5-7.5 11.9-15.6 16.4-24.4.9-1.5.8-2.8-.7-4zm-7.8-24.9c-.5.5-1 1-1.5 1.6-4.8 5.4-10.5 9.5-17.4 11.9-6.2 2.2-12.6 2.9-19.1 2.6h-3.1c1 2.2 2.3 3 4.2 2.9 3.1-.2 6.2-.1 9.3-.5 10.5-1.3 19.5-5.8 26.9-13.4 1.6-1.6 1.8-3.2.9-5.1-.1-.1-.2-.1-.2 0zm-16.3-34.9c-2 .2-4 .4-5.9.8-7.1 1.5-13.3 5-19 9.3-4 3-7.7 6.2-11.7 9.2-6 4.4-12.4 7.9-19.8 9.3-.4.1-.7.3-1.3.5 2 1.4 3.8 2.2 6 1.3.9-.4 1.8-.6 2.7-1 7.4-2.8 13.7-7.1 19.7-12.2 4.2-3.6 8.6-6.9 13.5-9.6 5.6-3 11.4-5 17.9-4.8.6 0 1.2-.1 2.2-.1-1.2-1.9-2.4-2.9-4.3-2.7zM126.2 33c-1.4-3.8-2-7.7-2.1-11.7-.1-1.7-.3-1.8-2.5-2.4-1 4.8 1 14.7 3.3 17 .8-.7 1.8-1.3 1.3-2.9zm446.9 128.6c-4.9-3.6-10.1-4-15.7-2.3-6 1.8-11.1 5.3-15.9 9.2-6.4 5.3-13 10.4-20.6 14-.3.1-.5.4-.8.6 1.8 1.9 2.1 2 4.1 1 2.1-1.1 4.3-2.2 6.2-3.6 4.6-3.3 9.1-6.8 13.6-10.3 4.1-3.2 8.3-6 13.1-7.8 7.1-2.6 13-.9 17.7 5.1.6.8 1.2 1.6 1.9 2.4.1-.1.2-.1.4-.2-.4-1.3-.8-2.6-1.1-3.9-.4-1.8-1.4-3.1-2.9-4.2z"/><path d="M575.8 173.8c-7.2 10.9-17.5 16.2-30.4 16.7-4.9.2-9.7-.2-14.5-1.1-.5-.1-1-.1-2-.1 2.3 2 4 3.7 6.8 3.7 3.3 0 6.5.4 9.8.3 13-.4 23.6-5.4 31.5-16 1.4-1.8 1.6-3.5.4-5.8-.8 1-1.2 1.7-1.6 2.3zM120.1 41.4c2-1.7 2-1.8 1.1-3.9-2.2-5.1-3.3-10.5-3.4-16 0-.6-.1-1.2-.2-2.3-1.9 1.5-2.8 2.9-2.5 5 .5 5.4 1.7 10.5 4 15.4.2.6.7 1.2 1 1.8zm-72.6 91.4c5.9 6.4 12.8 11.5 20.6 15.5 5 2.6 10.2 4.6 15.6 6.1 1.4.4 2.1 1.1 2 2.5v1.2c.5 15.1-.1 30.1-2 45-.3 2.5.8 4.6 1.8 6.7.2-.4.3-.7.4-1.1 2.4-16.3 3.3-32.8 2.8-49.3-.1-3.7-2.9-7.4-6.5-8.5-10.7-3.4-20.4-8.7-28.8-16.3-2-1.8-4-3.6-6.1-5.5-1.3 2-1.4 2 .2 3.7z"/><path d="M50.2 126.4c8.2 9.7 18.4 16.2 30.2 20.4.3.1.6.1 1 .1-.7-2.1-1.7-3.4-3.7-4.3-10.4-4.2-19.3-10.6-26.4-19.4-.3-.4-.7-.9-1.2-1.6-1.4 3-1.4 3.1.1 4.8zm1.8-13.1c-.2-.4-.6-.6-1-1.1-.6 2.8-.1 5 1.5 7.2 6 7.8 13.4 13.9 22.2 18.3.6.3 1.3.5 2.2.9-.4-2.2-1.3-3.6-3-4.6-9.1-5-16.5-11.7-21.9-20.7zm23.8-11.2c0 .7 0 1.4.1 2 .4 2.3.7 4.6 1.2 6.8 3 14 8.2 27.1 16.7 38.7 5.5 7.5 12.1 13.8 19.8 19 4.3 2.9 8.3 6 11.6 10 3.9 4.7 6.9 10 9 15.8.2.7.2 1.6 1.2 1.9 1.2-3.9 1.2-4.2-.3-7.5-2.7-5.9-6.2-11.2-11-15.6-3.1-2.8-6.5-5.4-10-7.8-8.9-6.3-16.1-14.1-21.8-23.3-6.9-11.3-11-23.6-13.2-36.6-.3-1.9-1.2-3-3.3-3.4z"/><path d="M69.1 97.9c0 .8-.1 1.5 0 2.1.9 5.3 1.6 10.6 2.8 15.8 3.1 13.5 8.5 26 16.7 37.2 5.9 8.1 13 15 21.3 20.6 3.5 2.3 6.8 4.8 9.6 7.9 7.1 7.8 10.4 17.3 11.9 27.5.1.9.3 1.8.5 2.8 1.3-3.5 2.3-6.9 1-10.5-.3-.7-.4-1.4-.6-2.1-3.2-11.1-9.2-20.1-18.8-26.7-3-2-5.9-4.1-8.7-6.4-12-10-20.2-22.5-25.8-37-3.4-8.9-5.7-18-6.7-27.4-.2-1.9-.9-3.4-3.2-3.8zM53.7 248.5c9.3 1.5 17.9 4.8 26 9.4 8.6 4.9 16 11.4 22.8 18.6l2.2 2.2c.8-.6 1.4-1 2.2-1.6-15.1-17.1-32.8-28.8-55.8-31.9-.2 2.8-.2 2.9 2.6 3.3zm-1.9-82.9c.2-.2.4-.2.5-.3 3.6-5 6.4-10.4 8.3-16.4.6-1.9.4-2.2-2.1-3.1-1.7 6.8-5.1 12.8-9 18.6.6.4.9.7 1.3.8.3.3.7.3 1 .4z"/><path d="M94.8 133.8c-4-7.8-6.8-16-8.6-24.6-.4-1.9-1.3-3-3.2-3.2-.1.2-.2.3-.2.5.2 1.3.4 2.5.6 3.8 2.9 13.1 7.8 25.3 15.8 36.2 5.5 7.5 12.4 13.5 20.1 18.6 7 4.7 12.4 10.8 16.5 18.1.4.7.9 1.5 1.6 2.6 1.1-2.4 1.2-4.2-.2-5.9-1-1.3-1.8-2.7-2.7-4-4.4-6.2-10.1-10.9-16.3-15.1-10.1-7-17.8-16.1-23.4-27zM139 22.7c-1.2-.8-2.5-1.7-3.7-2.5-7.2-4.6-14.9-8.3-22.7-12-4.8-2.3-9.1-5.1-12.6-8.4h-4.1c4.3 4.5 9.4 8.1 15.2 10.8 8.4 4 16.7 8 24.5 13.1 1.8 1.3 1.9 1.2 3.4-1zM66.6 150.4c-.8-.5-1.5-.8-2.3-1.3-1.5 3.4-2.7 6.5-4.1 9.5-1.5 3-3.3 5.9-5.1 9.1.8.5 1.5.8 2.3 1.3 4-5.9 7.2-11.9 9.2-18.6zm5.4 2.7c-.2-.2-.5-.4-.7-.5-.4-.2-.7-.3-1.1-.4-3.2 6.4-6.4 12.6-9.6 19 .4.3 1.1.7 1.6 1.1 3.2-2.9 9.3-14.9 9.8-19.2zM65.1 22.3c-.7 2-.5 2.2 1.7 3.1.1-.2.3-.4.4-.6.3-.7.5-1.3.8-2 2.6-7.5 3.4-15.2 3.1-22.9h-2.8c0 1 .1 2.1.1 3.1-.2 6.5-1.1 13-3.3 19.3zm9.4-18.6c-.1 7.7-1.4 15.3-4.2 22.5-.7 1.8-.5 2.1 1.7 2.9.3-.5.6-1.1.8-1.6 2.5-6.1 3.8-12.5 4.3-19.1.2-2.9.2-5.7.1-8.5h-2.8c.1 1.2.1 2.5.1 3.8zM86.9 83c.1-.5.2-.9.3-1.3.3-2.9.5-5.9 1-8.8 3.5-18.6 10.4-35.7 22.9-50.2 1.5-1.8 3-3.5 4.5-5.3.3-.4.5-.9.8-1.5l-2.4-1.2c-3.5 4.2-7 8-10 12.2-7.7 10.7-12.9 22.6-16.4 35.2-1.6 5.7-2.6 11.5-3.2 17.4-.2 2.5 0 2.8 2.5 3.5zM80.8 2.4c0 9.3-1.5 18.3-5 26.9-.3.7-.5 1.5-.8 2.3.8.5 1.4.8 2.1 1.2.3-.4.4-.5.5-.6.2-.4.4-.7.5-1.1 3-7.2 4.8-14.7 5.2-22.5.2-2.9.2-5.8.1-8.7h-2.8c.2.8.2 1.6.2 2.5zM43.5.3l.4-.4H42c.2.3.5.6.7.9.4-.3.6-.4.8-.5z"/><path d="M81 78.9c1-8.2 2.6-16.1 5.2-23.8 2.6-7.7 6-15 9.8-22.1 3.9-7.2 9.4-13.2 14.8-19.6-2.2-1.7-2.3-1.7-3.6-.2-2.9 3.4-6 6.7-8.5 10.3-7.4 10.4-12.7 21.8-16.2 34-1.6 5.6-2.6 11.3-3.8 17.1-.5 2.7-.2 3.1 2.3 4.3z"/><path d="M75.1 73.3c1.4-5.7 2.5-11.5 4.3-17.1 1.8-5.6 3.9-11.2 6.3-16.6 2.5-5.4 5.3-10.6 8.6-15.5 3.2-4.9 7.1-9.3 10.9-14.1-.8-.4-1.4-.8-2-1.2-.4.2-.6.3-.8.5-3.3 4.1-6.8 8.1-9.9 12.3-4.1 5.7-7.2 11.9-10.1 18.2-4.3 9.6-7.5 19.6-9.3 29.9-.3 2.1 0 2.7 2 3.6zM41.6 8.5c10 13 22.6 23 36.6 31.3.3.2.7.2 1.3.4.3-.8.6-1.5 1-2.3-1.6-1-3-1.9-4.4-2.7-12.4-7.8-23.5-17-32.4-28.7C42 4.3 40.5 2.1 39-.2h-3.4c1.9 3 3.8 5.9 6 8.7z"/><path d="M75.7 45.6c.4.2.8.4 1.4.6.3-.9.6-1.6.8-2.2-.3-.3-.4-.5-.6-.7-.8-.5-1.6-1.1-2.4-1.5C62.9 34.5 52 26 42.8 15.3c-4.2-4.9-7.9-10.1-11-15.5h-3.3c4 7.3 9 14.1 14.9 20.4 9.4 10.2 20.3 18.4 32.3 25.4zM51.1 267.1c0-.5-.1-.9-.1-1.4-.8-5.5-1.7-10.9-2.3-16.4-.9-7.8-.4-15.5 1.2-23.1 1.5-7 4.3-13.4 9.1-18.8 5.6-6.3 12.7-9.9 20.8-11.6 2.3-.5 2.2-.5 2.3-3.1H81c-.8.1-1.6.2-2.4.4-16.8 3.9-27.1 14.4-31.2 31-3.4 13.6-2.1 27.3.5 40.9.4 1.7 1 2.1 3.2 2.1zm221.7-67.4c-1 .1-2.1.2-3.1.4-9.8 1.7-14.6 6.9-15.9 17.3-.3 2 .7 3.4 2.4 4.8.2-1.5.2-2.7.4-3.9.4-2.2.8-4.4 1.5-6.5 1.1-3.3 3.4-5.7 6.6-7.2 2.9-1.3 5.9-1.8 9-2.1.8-.1 1.5-.2 2.3-.3-.9-2.3-1.3-2.6-3.2-2.5zm19.1 44.4c2.2 1.4 2.3 1.4 3.7-.3 2.6-3.1 5.1-6.4 7.6-9.6.9-1.2 1.7-2.5 2.6-4-.7-.6-1.4-1.1-1.9-1.6-4.2 5.3-8 10.4-12 15.5zm120.5 36.5c-3.3-8.2-4.9-16.7-4.2-25.6.3-4.2 1.2-8.2 2.3-12.2 1.5-5.7 1.7-11.5.9-17.4-1-7.2-3.5-13.9-6.9-20.3-7.2-13.6-17-25.1-28-35.7-.2-.2-.5-.3-.9-.5-.3 2.4.4 4.1 2 5.7 3.3 3.3 6.4 6.7 9.4 10.2 6.6 7.7 12.4 15.9 16.6 25.1 3.7 8 6 16.4 5.2 25.3-.3 3.1-1 6.2-1.7 9.2-3.2 12.6-2.3 24.9 2.5 36.9.1.2.2.4.2.6h3.1c-.1-.4-.4-.9-.5-1.3zm70.6-35c2.9-4.8 5.5-9.7 7.6-15 .8-2.1.8-2.2-1.5-3.7-.3.7-.6 1.3-.9 1.9-1.4 3.1-2.7 6.3-4.4 9.3-2.8 5.1-5.9 10.1-8.9 15.1-5.4 9.1-9.7 18.6-12.1 28.7h2.9c1.6-6.6 4-12.9 7.2-18.9 3.2-5.9 6.7-11.7 10.1-17.4zm53.1 13.8c-.1-5.2.7-10.3 1.5-15.5.5-3.5 1.1-7 1-10.5-.2-8.6-3.5-16.1-9-22.7-6.3-7.6-14.3-13-22.8-17.7-.3-.2-.7-.3-1.3-.5-.4 2.3.6 3.4 2.2 4.3 6.8 3.9 13 8.4 18.3 14.2 4.7 5.2 8 11.1 9.3 18.1.9 5 .4 9.9-.6 14.8-1.4 7.6-2 15.2-1.1 22.9.6 5.4 1.9 10.4 3.9 15.2h3.1c-2.9-7.1-4.4-14.6-4.5-22.6zm-235.9-11.5c3.7-4.2 7.1-8.4 10-13.3-.6-.7-1.1-1.3-1.7-2-3.8 5-7.3 9.6-10.9 14.3 1 .4 1.8.7 2.6 1zm-7.7-14.6c-2.2 2.8-4.5 5.4-6.8 8.1 2.5 1.4 2.6 1.5 4-.3 3.4-4.2 6.7-8.5 10-12.8.5-.6.8-1.3 1.3-2.2-.7-.6-1.3-1.1-2-1.7-2.4 3.3-4.4 6.2-6.5 8.9zm-143.7 45.3c2.5-.5 8.3-3.5 9.9-5.2-.5-.6-1-1.1-1.5-1.7-2.9 1.4-5.4 2.7-7.9 4-1.4.6-1.4 1-.5 2.9zM371.9 81.1c.8-1.5 1.6-3 2.3-4.5 3.5-7.8 5.3-16 6.2-24.5.1-1.3 0-2.7 0-4-2.3-.2-2.5 0-2.7 1.9-.2 1.7-.3 3.5-.6 5.2-1.3 9.1-3.8 17.9-8.6 25.9-.2.4-.4.8-.7 1.5 2.8.6 3 .6 4.1-1.5z"/><path d="M264 234c.8 2.9 1.8 5.2 4.4 6.5 2.6 1.4 5 3.1 7.7 4.5 12.4 6.5 25.6 10.2 39.4 12.2 2.1.3 4.2.5 6.4.7.1-2.6-.1-2.8-2.1-3.1-4.2-.6-8.4-1.1-12.5-2-15.2-3.2-29.4-8.6-41.9-18.1-.4-.2-.8-.3-1.4-.7zm48.8-111.3l-.4.4c3 4.3 5.5 9 9.3 12.6 11 10.4 22.6 20.1 34.8 29 7.8 5.7 12.9 13.3 14.5 22.9.4 2.7.3 5.4.3 8.1 0 2 .1 2 2.5 2.5.1-.4.3-.9.3-1.3.9-10.6-1.9-19.9-8.8-28-2.9-3.5-6.6-6-10.2-8.7-14.6-10.9-28.3-22.7-40.8-35.9-.4-.6-.9-1.1-1.5-1.6zm230.1 99c-3.1-9.4-9-16.7-16.3-23-7-6-14.8-10.6-23-14.6-.5-.2-1-.4-1.6-.6.8 3.2 1 3.5 3.3 4.7 7.6 3.9 14.8 8.5 21.2 14.3 4.1 3.7 7.6 7.8 10.3 12.6 5.2 9.1 6.3 18.8 4.3 29-1.5 7.4-2.1 14.9-1.1 22.4.7 5.5 2.2 10.6 4.4 15.4h3.2c-3.4-7-5.2-14.7-5.2-23 0-5.8 1.1-11.4 2-17.1 1.1-6.7.6-13.5-1.5-20.1zM415.2 86.8c-6.8-.4-13.5.7-20.2 2.1-2.4.5-4.8.9-7.5 1.5 1.9 1.6 3.5 2.5 5.7 1.8.6-.2 1.3-.2 1.9-.4 6.8-1.4 13.6-2.7 20.7-2.2 5.9.4 11.5 1.9 16.7 4.7 6 3.3 10.8 7.9 14.4 13.7 1.1 1.8 1.3 1.8 3.5.9 0-.2 0-.5-.1-.7-.2-.5-.5-1-.8-1.5-7.9-12.5-19.5-19-34.3-19.9z"/><path d="M399.4 81.7c-7.3 1.4-14.6 2.9-22 3.3-.5 0-1 .3-1.5.4 2.1.9 4 2.4 6.3 2.1 3.4-.4 6.8-.9 10.2-1.5 6.8-1.2 13.6-2.8 20.6-2.6 17.4.4 30.9 7.7 39.9 22.8.4.7.8 1.3 1.4 2.1.8-.6 1.4-1.1 2-1.6-.3-.8-.6-1.4-.9-1.9-5.8-10.1-14.1-17.3-25.1-21.3-10-3.7-20.4-3.7-30.9-1.8zm135.4 3.8c-.3-.7-.4-1.5-.8-2.2-1.3-2.4-2.5-4.9-3.9-7.1-8.5-12.9-20.6-20.7-35.5-24.4-7.7-1.9-15.4-2.6-23.3-1-4.8 1-9.3 2.8-13.8 4.9-10.5 4.9-20.3 11.2-29.8 17.8-2 1.4-3.9 2.8-6.2 4.4 2.2.9 3.8 1 5.4-.3.6-.5 1.2-.8 1.8-1.3 9.3-6.5 18.9-12.5 29.1-17.6 10.3-5.2 21.1-7.3 32.5-5 18.5 3.8 32.7 13.3 41.1 30.6.7 1.8.8 1.8 3.4 1.2z"/><path d="M489.2 57.1c-9.2-1.7-18.1-.8-26.7 3.3l-3.9 1.8c-9.5 4.6-18.3 10.3-26.9 16.2-.6.4-1 .9-1.6 1.4 2.3 1.5 2.4 1.6 4.2.3 1-.7 2-1.3 3-2 8.5-5.6 17.1-11 26.4-15.1 6.5-2.9 13.3-4.4 20.5-3.6 17.7 2 31.7 9.8 40.5 25.8 1 1.8 1 1.8 3.5.9-.3-.8-.6-1.5-.9-2.1-2-3.9-4.4-7.4-7.4-10.6-8.3-9.1-18.8-14.1-30.7-16.3zM147.9 262.4c-1 .4-1.1 1.1-.3 3.2.8-.4 1.6-.9 2.7-1.4-.8-1.1-1-2.4-2.4-1.8zM334.7 108c14.5 15 24 32.6 27.9 53.1.4 2.2 1.7 3.4 3.5 4.6.1-.4.2-.7.1-.9-.3-1.8-.5-3.6-.9-5.4-4.6-22.5-15.7-41.4-32.1-57.2-1.8-1.7-3.7-1.8-6.2-1.8.6.6.8 1 1.2 1.3 2.2 2.1 4.4 4.1 6.5 6.3z"/><path d="M314.6 99c2.5 2.1 5 4.1 7.4 6.2 15.7 13.7 27.4 30.1 32.9 50.4.5 2 1.9 3 4.1 3.9-.8-3-1.4-5.6-2.2-8.2-6.6-20.9-19.4-37.4-36.1-51.1-1.4-1.2-3.8-1.6-6.1-1.2z"/><path d="M309.1 68.4c.8-2 .3-3.5-.9-5.2-.3.5-.5.9-.7 1.2-2.5 6.2-4.5 12.5-5.7 19-1.3 7.3-1.8 14.6-.8 21.9 1.3 9.7 5.1 18.4 10.8 26.3 2.8 3.9 5.5 8.1 7.6 12.5 7.2 14.6 8.4 30 5.6 45.9-1.3 7.4-3.5 14.6-6.4 21.6-1 2.3-.8 2.6 1.5 3.7.4-.9.8-1.7 1.2-2.6 3.8-9.4 6.5-19.1 7.5-29.2 1.2-12.4-.1-24.4-4.7-36-2.7-6.8-6.5-12.8-10.7-18.7-8.7-12-11.3-25.5-9.5-40 .9-7 2.7-13.8 5.2-20.4zM284 265.1c2.3 3.7 4.3 6.9 6.4 10.3.9-.3 1.6-.6 2.6-1-1.3-2.2-2.6-4.1-3.6-6.2-1.1-2.1-2.8-2.8-5.4-3.1zm-26.8-37c-2-2.6-4-5.2-5.7-8-5.4-8.9-8.7-18.7-11.2-28.7-.2-.9-.4-1.8-.8-3.2-1.7 1.9-2.3 3.6-1.6 5.6 1.4 4.4 2.6 8.9 4.2 13.3 2.7 7.7 6.5 14.9 11.6 21.4 1.6 2 3.1 4.1 4.3 6.3 4.2 7.3 5.6 15.2 5.4 23.5-.1 7.3-1.4 14.5-3.5 21.5-.3 1.2-.5 1.8-.1 2.2h2.4c.2-.4.3-.9.4-1.3 2.6-8.7 4.1-17.6 3.6-26.7-.4-9.6-3.2-18.3-9-25.9z"/><path d="M250.9 155.2c4.1-5.1 8.3-10.1 12.4-15.2 1.5-1.8 1.4-1.9-.3-4.1-.6.7-1.1 1.3-1.5 1.8-2.4 2.9-4.7 5.9-7.1 8.8-8.8 10.3-17 21-23.7 32.8-6.7 11.7-11.8 23.9-13.7 37.4-.6 4.1-.9 8.1.8 12 .6 1.5 1 3 1.6 5 0-4.4-.3-8.4 0-12.3.9-11.1 4.1-21.5 8.9-31.4 6.1-12.6 13.9-24 22.6-34.8zm-77.7 124.6c-9.5-8.2-18-17.2-24.9-27.7-.2-.3-.6-.6-1-1-.5 4-.5 4.1 1.5 6.9l3.6 4.8c5.6 7 11.9 13.2 18.6 19.1h4.4c-.6-.7-1.4-1.4-2.2-2.1z"/><path d="M231.9 207.4c-1.2 2.2-1.5 4.1-.7 6.2 3.4 8.4 7.7 16.3 13.4 23.4 4.2 5.2 6 11.2 6.3 17.7.2 5.5-.3 11-1.6 16.4-.5 2.2-.3 2.4 1.8 3.3.1-.1.2-.2.3-.4.2-.4.3-.9.4-1.4 1.5-5.8 2.1-11.6 1.9-17.6-.2-7.5-2.4-14.3-7.1-20.2-6.1-7.5-10.5-16-13.8-25.1-.1-.5-.4-1.2-.9-2.3z"/><path d="M235.3 197.3c-1.3 2-1.9 3.6-1.2 5.7 3.5 11.1 8.5 21.5 15.8 30.7 4.7 5.9 6.8 12.7 7.3 20.2.4 7.4-.5 14.7-2.5 21.8-.6 2.2-.4 2.5 1.9 3.2l.9-2.7c2-7.3 3-14.7 2.6-22.3-.4-8.2-2.9-15.7-7.9-22.2-2-2.7-4-5.4-5.8-8.2-4.6-7.3-7.6-15.3-10.1-23.5-.3-.7-.6-1.5-1-2.7zm-13.1 49c-.2.1-.3.1-.5.2.4 2.4.1 4.8 1.9 7 2 2.5 3.8 5.2 5.7 7.7 6 7.6 12.4 14.8 20 20.8h4.8c-4.1-2.9-7.9-6.2-11.5-9.8-7.3-7.4-13.6-15.5-19.3-24.1-.2-.7-.7-1.2-1.1-1.8zM465.4 22.5c5.3-.6 10.4-1.7 15.3-3.8 2-.8 2.2-1.3 1.3-3.5-2.2.8-4.3 1.7-6.5 2.3-8.6 2.7-17.4 2.8-26.4 1.9-3.5-.4-7.1-.5-10.5 0-6.9.9-12.3 4.7-16.9 9.7-3.7 4.1-6.7 8.8-9.1 13.8-5.1 10.4-8.1 21.4-10.2 32.6-.2.9-.3 1.7-.4 2.7 2.6.3 2.6.3 3.1-1.5.1-.5.2-.9.3-1.4 1.5-7.7 3.4-15.3 6.2-22.7 2.6-7.1 5.9-13.8 10.7-19.8 6.7-8.4 15.3-12.3 26.1-10.9 5.7 1 11.3 1.2 17 .6zM274.1 251c13.8 7 28.6 11 43.9 12.8 1.6.2 3.3.3 4.9.4.2-2.5.2-2.6-1.8-2.9-3.1-.5-6.2-.7-9.3-1.2-14.8-2.5-29-7-42-14.7-.5-.3-1.1-.5-2-.9-.2 2.2.3 3.5 2 4.3 1.5.6 2.8 1.5 4.3 2.2zm-4.3 15.8c2.8 3.9 5.3 8 8 11.9.3.5.7 1 1.1 1.4.5-.2.9-.4 1.2-.6.3-.2.6-.5 1-.9-3.6-6.1-7.4-11.8-12-17.7-.7 2.6-.5 4.2.7 5.9zm3.4-6.3c3.8 5.8 7.5 11.2 11.2 16.9.7-.3 1.4-.6 2.7-1.1-3.1-4.7-5.9-9.1-8.8-13.3-1.1-1.5-3.1-1.9-5.1-2.5zm36.3 11.1c-2-.7-3.4-1.1-5-.1-4.5 2.9-9.4 4.8-14.4 6.4-3.2 1-6.3 2.3-9.2 3.9h6.8c1.6-.7 3.3-1.2 4.9-1.8 5.2-1.6 10-3.9 14.5-6.9.7-.2 1.3-.7 2.4-1.5zm-106.6-58.4c-1-2.1-2-4.1-3.1-6.2-.2 0-.4.1-.5.1-.6 2.6-.1 5 1 7.5 9.3 21.1 13.9 43 11.2 66.1 0 .4-.1.8-.2 1.2h2.9c1.3-8.6 1.2-17.2.2-25.9-1.5-14.9-5.3-29.1-11.5-42.8zm22.2 68.7c0-.1-.1-.2-.1-.3-.3-.8-.7-1.5-1-2.3-.4.9-.7 1.8-.9 2.6h2z"/><path d="M205.1 281.9h2.9c1-6.4 1.2-12.8.8-19.4-.8-14.4-4-28.3-9.4-41.7-.3-.7-.6-1.4-1.2-2.5-.8 2.5-1.2 4.3-.4 6.4 6.1 16.6 9.3 33.6 7.9 51.3-.1 2-.3 4-.6 5.9zm-30.8-23.3c.4-.6.7-1.1 1.1-1.5 6.2-7.2 11.4-15 15.2-23.7 5.4-12.2 7-24.8 4.8-38s-8.1-24.8-16.1-35.5c-1.4-1.8-3.5-2.5-5.7-3.2.3.8.7 1.4 1.2 2 5 6.2 9.3 12.8 12.5 20.1 7.5 16.8 8.4 33.8 1.6 51-3.6 9.1-8.8 17.2-15.1 24.6-.6.7-1.1 1.5-1.7 2.2.4.5.7.8.9 1.1.2.3.5.5 1.3.9z"/><path d="M186.2 185.3c-3.3-9.1-8.3-17.3-14.4-24.8-4.6-5.6-9.2-11.1-15.6-14.6-.5-.2-.9-.4-1.5-.7-.2 1.5.6 2.2 1.4 3 3.2 3.1 6.5 6.2 9.5 9.5 6.5 7 11.9 14.8 15.9 23.6 6.9 15.2 7.7 30.7 1.6 46.4-3.3 8.4-8.2 15.9-14 22.8-1.6 1.9-1.5 2 .9 3.8.3-.4.5-.9.9-1.4 5.8-6.6 10.5-13.9 14.1-21.9 6.3-15.1 6.7-30.3 1.2-45.7zm-6.3 92.1c-3.1-2.7-6.1-5.4-9.1-8.2-8.7-8.3-16.3-17.4-21.6-28.2-.2-.3-.4-.6-.8-1.1-.9 2.6-.9 4.8.6 7 1.3 1.7 2.3 3.7 3.5 5.5 6.6 9.6 14.6 18 23.5 25.5 1.5 1.3 3 2.7 4.5 4h4.1c-1.4-1.5-3-3-4.7-4.5zm45.2-16.3c-.5-.7-1-1.3-1.9-2.4-.1 3 .1 5.2 1.8 7.1 3.7 4.1 7.2 8.4 11 12.4 1.2 1.3 2.5 2.6 3.8 3.8h4.3c-1.3-1.1-2.5-2.2-3.7-3.4-5.6-5.4-10.6-11.3-15.3-17.5zm.6 10.8l-1.3-1.3c-.8 2.4-.3 4.3 1.4 5.8 1 .9 1.8 2 2.7 3 .8.8 1.6 1.7 2.4 2.5h4.1c-3.3-3.2-6.4-6.5-9.3-10zm-8 10h2.9c1.1-8 1.1-16 .4-24.1-1.1-12.1-3.6-23.9-7.7-35.3-3.1-8.9-7-17.5-12.2-25.4-.5-.8-1.1-1.5-1.9-2.6-.2 2.9-.1 5 1.2 7 1.7 2.6 3.2 5.4 4.5 8.2 10 21.4 15 43.8 13.3 67.5-.1 1.5-.3 3.1-.5 4.7zm123-21.5c-1.5-12.2-5.9-23.2-13.3-33-4.6-6.1-10.3-11.1-16.2-15.9-9.6-7.9-18.4-16.6-25.6-26.9-6.9-9.8-12.1-20.3-14.4-32.2-.3-1.4-.5-2.8-.8-4.4-2.2 1.3-2.4 2.8-2.1 4.8 1.7 8.5 4.7 16.4 8.9 24 7.8 14 18.5 25.6 30.8 35.9 5.8 4.8 11.6 9.6 16.3 15.5 8.6 11 13.2 23.5 14 37.4.3 5.6 0 11-.7 16.4h2.9c.9-7.1 1-14.3.2-21.6zM15.8 172.5c-.1.1-.2.3-.4.4 1.7 2.1 3.5 4.1 5.1 6.3 1.7 2.1 3.3 4.3 4.9 6.5 1.6 2.2 3.1 4.5 4.5 6.8s2.8 4.7 4 7.1c1.3 2.3 2.4 4.8 3.6 7.3 1.8-2.4 1.9-2.5.8-4.8-4.3-9.1-9.9-17.3-16-25.2-1.6-2.4-3.9-3.6-6.5-4.4zM112.2 4.2c9.5 4.7 19.2 9.2 28 15.2 1.7 1.1 1.8 1 3.4-1.1-1.3-.9-2.5-1.7-3.7-2.5-8-5.2-16.5-9.4-25.1-13.5-1.6-.8-3.1-1.6-4.6-2.5h-5.1c2.2 1.7 4.6 3.2 7.1 4.4zM626.4 98c-13.6-7.8-23.4-19.2-30.3-33.1-5.5-11-8.5-22.7-10.6-34.7-1.4-8-3.3-16-5.8-23.8-.3-.8-.6-1.5-1-2.4-2.1 1.8-2.2 1.9-1.6 3.8 2.8 9 4.7 18.3 6.4 27.6 2.5 13.3 6.7 26 13.7 37.7 6.9 11.4 16 20.7 27.6 27.4.9.5 1.9 1 3 1.5.2-.8.3-1.3.3-1.8v-.4c0-.8-.5-1.1-1.7-1.8zM1.9 167.7c4 4.4 8.2 8.7 12.1 13.3 8.2 9.8 15.1 20.4 19.4 32.5.2.5.4 1 .8 1.7 1.2-2 1.6-3.7.8-5.8-6.6-15.9-16.9-29.2-28.8-41.5-1.4-1.5-3.4-2.2-5.4-2.9-.4 1.5.5 2 1.1 2.7zM456.8 44.5c-.2-.2-.3-.4-.5-.5-8.5-5.8-17.8-9.7-27.7-12.3-1.6-.4-2.6.3-3.4 2 .6.2.9.4 1.3.5 9.4 2.4 18.3 6 26.6 11.2 1.6.9 2.2.8 3.7-.9zm-317.9-9.9c-10 8-16.6 18.1-19.4 30.6-.5 2.1-.4 3.9 1.8 5.5.2-.8.4-1.3.5-1.8 1.6-10.5 6.1-19.5 13.5-27 2.9-2.9 6.2-5.5 9.4-8.2 5.9-5 11.1-10.6 14.8-17.5 2.8-5.2 4.3-10.7 4.3-16.4h-2.9c0 2.3-.3 4.7-.9 7-1.2 5.1-3.6 9.5-6.7 13.7-4.1 5.6-9.2 9.9-14.4 14.1zm466.6 207.5c-6.4-6.3-11.2-13.7-14.7-22-.9-2.2-1.8-4.4-2.8-6.9-1.9 2.3-2 2.6-1.3 4.6 2.3 6.1 5 12 8.9 17.2 2.6 3.5 5.6 6.8 8.6 10 3.1 3.4 6.3 6.8 8.7 10.8 2.2 3.7 3.3 7.5 3.3 11.9-.1 4.1-.8 8.2-2.3 12-.3.8-.6 1.6-1 2.3h3.2c.8-2.2 1.5-4.4 2-6.7 2.2-9.3.4-17.6-5.6-25-2.1-2.9-4.4-5.6-7-8.2zm-68.8-110c17.5-4.5 35.2-6.3 53.3-4.5 11.7 1.1 23 4 33.7 8.8 1.3.6 2.6 1.1 4.1 1.8.5-2.7.5-2.8-1.4-3.7-5.7-2.6-11.5-4.7-17.6-6.4-16-4.3-32.4-4.9-48.8-3.2-13.6 1.4-26.9 4.6-39.9 9-.8.3-1.6.6-2.8 1.1 2.4 1.1 4.3 1.5 6.5.8 4.3-1.4 8.6-2.6 12.9-3.7zm28.2-30c.2 4.1 1.4 8 3.1 11.7.9 1.9 1.3 2 3.7 1.3-.1-.4-.2-.7-.4-1.1-3-5.7-4-11.9-3.7-18.3.2-3.1.2-6.2.1-9.3-.2-6.1-2.2-11.5-5.4-16.6-2-3.2-4.9-4.6-8.7-5.2.3.5.3.6.4.7.4.4.8.7 1.3 1.1 4.2 3.6 7 8 8.5 13.3 1.1 3.9 1.4 7.8 1.2 11.9-.2 3.4-.3 7-.1 10.5zM488.1 137c-12.1 2.2-24.3 4.3-36.6 4.9-15.2.7-30.2-.1-45.1-3.4-16.2-3.5-31.4-9.3-45.2-18.6-.4-.3-.9-.5-1.9-1 1.3 2.6 2 4.8 4.3 6 2.4 1.3 4.7 2.8 7.1 4 19.8 10.2 41.1 14.9 63.2 15.9 17.3.7 34.5-1.1 51.5-4.5 8.2-1.6 16.5-2.3 24.8-1 9.8 1.4 18.8 5 27.1 10.5 1.9 1.3 2 1.3 4.2-.5-1.2-.9-2.2-1.6-3.3-2.3-15.3-10-32.1-13.3-50.1-10zM2.5 163c9.6 5.1 19.4 9.8 29.6 13.5 7.1 2.6 13.7 6 19.9 10.5.5.4 1.1.7 1.7 1.1.7-.5 1.3-1 2.2-1.6-.8-.7-1.3-1.2-1.9-1.6-5.9-4.4-12.2-7.9-19.1-10.4-10.8-4-21.3-8.7-31.4-14.2-.8-.4-1.7-.9-2.7-1.4-.5 2.8-.5 2.9 1.7 4.1zm.1-7.1c10.2 5.7 20.7 10.7 31.7 14.7 8.5 3.1 16.3 7.3 23.5 12.8 1.7 1.4 2.1 1.3 3.6-.5-.1-.1-.1-.3-.2-.4-.4-.4-.8-.7-1.3-1.1-6.9-5.5-14.4-9.8-22.6-12.8-11.9-4.3-23.3-9.6-34.2-15.7-.7-.4-1.4-.7-2.3-1.1-.4 2.8-.4 2.9 1.8 4.1zm605-15c-2.3-2-4.8-2.5-7.7-2.6.5.4 1.1.9 1.6 1.3 2.8 2.5 5.7 4.8 8.5 7.4 6.4 6 11.6 13 16.3 20.3.4.7 1 1.3 1.6 2.3.1-.5.2-1 .2-1.5v-1.6c-.1-1.4-.6-2.6-1.5-3.9-5.5-7.9-11.6-15.3-19-21.7zM46.1 37.2c-9.2 3-18 7-26.3 12.1C13.1 53.5 7.2 58.5 2 64.4c-.9 1-1.4 2.1-1.5 3.3v1c0 .5.1 1.1.3 1.7.7-.7 1-1.1 1.4-1.6 5.4-7 12-12.6 19.5-17.2C29.5 46.7 38 43 46.8 40c1-.4 2.1-.8 3.1-1.2-1.4-2.1-1.7-2.2-3.8-1.6zm28.6 14.9c1.3-2.2 1.3-2.3-.6-3.5-.9-.6-1.8-1.1-2.7-1.6-9.3-5.6-18-12.1-25.9-19.7C37.1 19.1 30 10 24.6-.2h-3.2c5 9.7 11.4 18.6 19.2 26.6 9.7 10.1 21 18.2 33.1 25.2.3.2.6.3 1 .5z"/><path d="M626.4 141.4c-3.6-1.6-7.1-3.3-10.8-4.6-16.6-6.1-33.8-7.4-51.3-6-11.5.9-22.8 3.2-33.9 6.4-.9.3-1.7.6-2.9 1 2 1.5 3.6 1.9 5.7 1.3 2.6-.8 5.2-1.4 7.9-2 15.7-3.8 31.7-5.2 47.8-3.7 12.9 1.2 25.1 4.7 36.7 10.4.7.3 1.4.6 2.1 1 .2-.8.3-1.4.4-1.8v-.4c0-.7-.5-1-1.7-1.6zm-560.9 46c4.5-2.1 9.3-3.5 14.2-4.3 2.3-.4 2.4-.5 2-3-.7 0-1.2 0-1.8.1-20.7 3-37.8 16.2-44.1 38.9-3.2 11.6-3.4 23.4-2.1 35.2.2 2.1.5 4.3.8 6.4.3 2 .9 2.2 3 1.8-.5-4.3-1-8.5-1.3-12.8-.9-10.3-.3-20.5 2.6-30.4 4.2-14.5 12.8-25.4 26.7-31.9zm36.2 93.3c-13.6-15.3-29.5-25.9-50-29.1-.3 2.6-.1 2.8 2 3.2 6 1.2 11.8 3 17.3 5.6 10.3 4.9 19.1 11.9 26.8 20.2.4.4.8.9 1.3 1.3h1.1c.5-.4.9-.8 1.5-1.2zM24 281.9h3v-.1c-1.9-.7-2.4-.8-3 .1z"/><path d="M63.3 195.7c5.2-3.2 10.7-5.3 16.7-6.3 2.4-.4 2.5-.6 2-2.9-.1-.1-.3-.2-.4-.2h-.7c-9.9 1.4-18.7 5.3-26.1 12.2-7.9 7.4-12.1 16.7-14.1 27.2-2.4 12.3-1.6 24.5.5 36.7.3 1.8.5 1.9 3.1 2.2-.1-.9-.2-1.6-.2-2.3-.5-4.2-1.1-8.4-1.6-12.6-.9-8.9-.4-17.7 1.7-26.4 2.8-11.6 8.7-21.1 19.1-27.6zm56.7-37.4l.6-1.8c3.2-13.6 4.2-27.3 2.2-41.2-3-20.6-12.6-37.7-27.9-51.8-.4-.4-1-.7-1.5-1.1-1.2 2.2-1.2 2.3.2 3.8 2.3 2.3 4.6 4.6 6.8 7.1 12.9 14.7 19.4 32 20.4 51.4.5 10.3-.5 20.4-2.9 30.5-.5 2.3-.3 2.5 2.1 3.1zM491.5 12.1c-.7 7.2.2 13.8 3 20.2.7 1.5 1.1 1.5 3 .4-.1-.3-.1-.6-.2-.9-2.3-5.2-3.3-10.6-3.1-16.3 0-1.7-.9-2.7-2.7-3.4zM226.2 6.2c-.3 8.7-2.4 16.9-6.1 24.9 2.5.9 2.7.8 3.5-1 .4-.7.7-1.5.9-2.2 3.6-9.3 5-18.6 4.4-28.1H226c.2 2.1.2 4.2.2 6.4zm-87.8 246.9c.5-11.1 2.2-22.1 4.5-33 1.3-6 2.5-12 3.9-18 .5-2.1-.4-3.5-1.9-5-.2.8-.4 1.4-.5 2-1.1 5.6-2.1 11.2-3.4 16.7-3.2 13.7-5.4 27.5-5.6 41.5-.1 8 .4 16 1.8 23.9 0 .2.1.5.1.7h3c-1.8-9.4-2.3-19-1.9-28.8zm432.1-.2c.4 9.9 2.2 19.6 4.9 29.1h3c-1.5-5.5-2.8-11-3.6-16.6-1.2-8.2-2.1-16.3-1.3-24.6.2-1.8.2-3.7.4-5.9-2.1 1.6-3.3 3.2-3.3 5.6 0 4.1-.2 8.2-.1 12.4zm15.9-29c-.3.7-.5 1-.6 1.4-.6 2.4-1.3 4.8-1.8 7.2-2.3 12.5-1.3 25 1.2 37.3.8 4.1 1.9 8.2 3 12.2h3c-2.9-10-5-20.1-5.6-30.6-.4-7.4.1-14.7 1.9-21.9.6-2 .4-3.7-1.1-5.6zm-257.8 41.8c-.6-9.8-3.4-18.8-8.6-27.1-4-6.3-9.2-11.4-15-16.1-7.5-6.1-14.7-12.6-21.1-19.9-10.4-11.9-18.7-25.2-23.2-40.5-.2-.6-.5-1.1-.7-1.7-2.1 1.5-2.2 1.8-1.6 3.8.1.5.3.9.4 1.4 5.3 16.1 14.5 29.8 25.9 42.2 7 7.5 14.9 14 22.7 20.7 6.8 5.8 11.9 12.9 15 21.4 3.9 10.5 4.2 21.2 2.5 32.1h2.9c.9-5.4 1.2-10.8.8-16.3zm189-240c1.3.5 2.5.3 3.8-1.1-.8-.4-1.4-.8-2.1-1.1-9.7-4.3-18.3-10.2-25.9-17.5-2.1-2-4.2-4.1-6.2-6.3h-3.8c.8.9 1.5 1.8 2.3 2.6 8.3 9.1 17.7 16.6 28.8 22 1 .7 2.1 1.1 3.1 1.4zM418.2 45c.8.2 1.7.5 2.5.6 6.8 1.5 13.4 3.6 19.6 6.8 1.6.8 2.8.8 4.1-.9-.3-.2-.5-.4-.7-.5-7.3-4-15-6.7-23.1-8.3-1.8-.4-2-.1-2.4 2.3zm32.3 2.9c-.5-.4-.7-.7-1-.9-7.9-4.7-16.4-8-25.3-10-1.7-.4-2-.1-2.8 2.1.5.2 1 .4 1.5.5 8.4 1.8 16.4 4.8 23.9 9.1 1.4.9 2.5.6 3.7-.8zM486 6.7c-1 3.8-1.5 11.7-.6 16.1.7 3.6 1.7 7.1 2.8 10.6.6 1.9 1 1.9 3 .8 0-.2.1-.3.1-.5s-.1-.5-.2-.7c-3.1-7.3-3.7-15-2.9-22.8.1-1.9-.8-2.7-2.2-3.5zM98.9 168.3c-.9 12.7-1.7 25.2-2.5 37.6 1.3-3.5 3.4-6.7 3.7-10.6.5-7.8.8-15.6 1.3-23.4-.1-1.7-.9-2.8-2.5-3.6z"/><path d="M132.2 252.8c.5-10.2 1.8-20.2 3.9-30.2 2-9.3 4.3-18.5 5.6-28 .4-2.9 0-5.3-1.7-8.2-.2 1-.4 1.6-.5 2.1-1.1 8.9-2.6 17.7-4.7 26.4-3.4 13.9-5.4 27.9-5.7 42.2-.1 8.2.4 16.5 1.8 24.6v.2h2.9c-1.6-9.5-2.1-19.2-1.6-29.1zm-40.6-67.2c-.5 10.9-1.9 21.6-3.7 32.4-.5 2.8.3 5.5.5 8.2.2 0 .3.1.5.1.4-1.2.9-2.5 1.2-3.7.4-2 .8-3.9 1-5.9 1.1-8.7 2.3-17.4 3-26.2.6-8.1.7-16.3 1-24.4.1-1.9-.9-3-2.9-4.2v2.9c-.2 6.9-.3 13.9-.6 20.8zm454.9 20.2c1.9-.1 3.8-.2 5.7-.5 6.9-1 13.4-3.1 19.4-6.6 2-1.1 2.6-2.9 3-5.4-9.6 6.9-20 9.8-31.5 9.8 1.1 2.6 1.4 2.8 3.4 2.7zM86.6 248.4c.4-1 .7-1.8 1-2.6 4.7-13 9.4-26 14.2-39 3.3-8.8 6.8-17.4 10.3-26.1.8-2.1.6-2.5-1.8-3.1-9.3 22.9-18.2 46-26.2 69.6 1 .4 1.6.7 2.5 1.2zm388.9-137.3c1.1-1.8 1.2-3.4-.1-5.5-.4.6-.7 1-.9 1.4-1.4 2.2-2.6 4.4-4.1 6.5-5 6.4-11.4 10.4-19.7 10.9-2.9.2-5.9.5-8.8 1.1-8.3 1.8-15.4 6.1-21.9 11.4-.3.3-.6.7-1.1 1.3 1.8.4 3.1.6 4.5-.4 1.8-1.3 3.6-2.7 5.5-3.8 6.1-3.7 12.6-6.2 19.8-6.6 4.4-.2 8.7-1 12.8-2.9 6.1-3 10.5-7.6 14-13.4zm-15.6 18.7c.1 2.4 0 4.8.1 7.1 0 .5.1 1 .2 1.5 2.3.1 2.4.1 2.6-1.6.5-3.2.2-6.5-.3-9.7-2.6.5-2.7.7-2.6 2.7zm-12.3.4v9.1c2.2.4 2.4.3 2.6-1.7.2-1.9.3-3.8.2-5.7-.1-1.8-.4-1.9-2.8-1.7zm81.6 62.7c-10.2-8.2-21.6-14.2-33.7-19.2-.3-.1-.7-.2-1.6-.5 2.2 2.5 3.9 4.6 6.6 5.8 4.8 2.2 9.5 4.6 14.1 7.2 8.7 5 16.5 11 22.8 18.8 8 10 12 21.2 10.6 34.1-.3 2.9-.8 5.7-1.3 8.5-1.1 6.3-1.4 12.5-.5 18.9.8 5.6 2.5 10.6 5 15.3h3.3c-4.4-7.6-6.3-16-5.9-25.1.2-4 .8-7.9 1.5-11.9 2.3-12.9.4-25-6.6-36.2-3.7-5.9-8.6-11.2-14.3-15.7zm-75.4-62.4c-.1 2.8 0 5.5 0 8.5 1.1.2 2.3.6 2.5-.7.6-3 .7-5.9 0-8.9-1.3-.3-2.4-.4-2.5 1.1zm-305 138.4c-1.7.9-1.7 1.1-.7 3.5 2.1-1.1 4.1-2.1 6.4-3.3-.7-.9-1.2-1.5-1.8-2.2-1.4.7-2.7 1.3-3.9 2zm274.9-68.4c-.7-.3-1.4-.5-2-.8-.3.3-.5.4-.5.6-1.1 4.5-2.3 8.9-3.3 13.5-.4 1.7.7 4.3 1.6 5.4 1.4-6.2 2.8-12.4 4.2-18.7zm29.4 78.1c-3.9-3.8-7.5-7.8-11.5-11.5-7.6-7-14.9-14.2-21-22.6-.3-.4-.6-.7-.9-1.1-1.4 2.5-1.4 2.9.1 4.8 5.2 6.8 11.1 13 17.5 18.8 5.2 4.8 10.6 9.4 14.9 15h1.9c.3-1.3.1-2.4-1-3.4zm-57.7-63.7c-5.1-3.8-10.5-7.1-16.2-9.9-6.6-3.2-13.4-6.1-20-9.3-8.9-4.3-17-9.8-23.5-17.5-1.2-1.5-2.4-3-3.8-4.8-.6 3.6-.6 4 1.2 6.2 3.6 4.4 7.8 8.2 12.5 11.5 6.7 4.8 14.1 8.2 21.6 11.4 10.3 4.5 20.3 9.5 29 16.8.3.3.8.4 1.4.7.1-2.3-.5-3.9-2.2-5.1zm63.4 37.2c-.5-5-2.4-9.6-5-13.9-2.6-4.3-5.9-8.1-9.4-11.8-6.2-6.5-11.4-13.6-14.5-22.1-.6-1.7-1.8-2.2-3.4-2.4-.1.3-.3.4-.2.5.2.6.3 1.2.5 1.8 2 5.8 4.9 11.1 8.6 16 2.7 3.5 5.7 6.7 8.6 10 3 3.3 5.9 6.8 8.1 10.7 3 5.4 4.7 11 3.7 17.3-.6 3.4-1.8 6.6-3.9 9.5-.6-.4-1-.7-1.3-1-.3-.3-.6-.7-.9-1 0-.3 0-.5.1-.6.2-.4.3-.7.5-1.1 2.9-5.3 3.1-10.8 1.1-16.5-1.9-5.3-5-9.8-8.8-13.9-6.9-7.3-13.4-14.9-17.4-24.2-.1-.3-.5-.5-.8-.8-1.2 3.1-1.3 3.7.1 6.1 1.8 3 3.5 6.1 5.6 8.9 3 3.9 6.4 7.6 9.7 11.3 3.9 4.5 7.6 9.1 9.2 15 1.1 3.8.9 7.6-.6 11.3-.3.8-.8 1.5-1.4 2.4-1.9-1.7-3.6-3.2-5.2-4.7s-3.1-3-4.6-4.5c-1.6-1.6-3.1-3.2-4.6-4.9-1.5-1.7-3-3.4-4.4-5.1-1.3-1.7-2.6-3.4-3.9-5.2l-3.8-5.7c-.7 2.8-.3 4.9 1.1 7 6.5 9.3 14.4 17.1 22.7 24.7 3.2 3 6.3 6.1 9.5 9.2.4.4.9.8 1.4 1.3 1.2-2.2 1.2-2.2-1.1-5.7.4-.7.9-1.6 1.4-2.4 2.8-4.9 3.9-10 3.3-15.5z"/><path d="M464.5 248.1c-.7-3-1.7-6-3-8.8-2.4-5.5-6-10.2-10.1-14.5-5.2-5.5-10.3-11.2-13.7-18.1-.7-1.5-2.1-1.7-3.9-1.9.4 1 .6 1.7 1 2.4 2.1 4.4 4.7 8.5 7.9 12.3 2.8 3.2 5.7 6.3 8.5 9.5 7 8.3 11.9 17.4 11.2 29.2 2.9-4.9 3.2-5.6 2.1-10.1zm-24.7 25.7c-7.5-6.6-14.7-13.6-20.9-21.4-.3-.4-.5-.8-.8-1.6-1.3 2.4-1.1 3.9.2 5.4 5.2 6 10.7 11.7 16.6 16.9 3.2 2.8 6.3 5.7 9.1 8.8h3.8c-2.5-2.9-5.1-5.6-8-8.1zm-28.5-75c.3-.7.6-1.3.8-1.9.7-2.1.5-2.4-1.8-2.9-1.1 2.3-1 2.6 1 4.8zm4.5-2.2c-.7 2.1-1.2 4-1.8 5.7-.7 2 .2 3.4 1.5 5.1 1-3.4 1.8-6.4 2.7-9.5-.7-.4-1.3-.7-2.4-1.3z"/><path d="M375.1 159.6c-.2-.1-.4-.2-.8-.3.2 2.2.6 4 2.3 5.7 5.4 5.4 10.7 10.8 15.7 16.5 6.9 7.9 12.8 16.6 17.2 26.2 5.7 12.6 7.5 25.4 3.6 39-2.5 8.7-2.1 17.6.3 26.3.9 3.1 2 6.1 3.3 9h3.2c-1.2-2.4-2.2-4.9-3.1-7.5-2-6.1-3.1-12.5-2.2-18.9.5-4.2 1.4-8.3 2.3-12.5 1.4-5.9 1.5-11.9.8-17.9-1.1-8.4-4-16.1-7.9-23.5-8.8-16.4-21.2-29.7-34.7-42.1zm123.1 74.1c4.7 6.5 8.3 13.6 11.3 21.1.3.8.7 1.5 1.2 2.5.9-.7 1.5-1.1 2.2-1.7-.8-2.1-1.6-4-2.4-5.9-5.6-12.4-12.9-23.6-23.3-32.4-9.2-7.8-19.8-12.6-31.8-13.8-8.8-.9-17.3-2.8-25.6-6.2-10.9-4.4-20.8-10.5-30.3-17.4-.7-.5-1.4-1-2.1-1.4l-.3.3c1 1.3 2.1 2.5 3 3.9 1.5 2.2 3.4 3.8 5.6 5.1 4.1 2.4 8.2 5 12.4 7.3 10.9 5.8 22.4 9.8 34.8 10.9 7.7.7 15.1 2.8 21.9 6.4 9.7 5.1 17.1 12.5 23.4 21.3z"/><path d="M466.7 261.6c3-6.1 6.5-11.9 10-17.7 3.5-5.8 6.8-11.8 9.1-18.2.7-2.1.6-2.3-1.7-3.5-.3.7-.5 1.3-.8 1.9-1.5 3.4-2.8 7-4.5 10.3-2.9 5.3-6.2 10.5-9.2 15.7-5.9 10.1-10.6 20.6-13.1 31.9h2.9c1.6-7.1 4.1-13.8 7.3-20.4zm-136.1-35c2-7.5 4.8-14.7 9-21.4-.4-.4-.7-.7-1-.9-.3-.2-.7-.4-1.1-.6-.3.3-.5.4-.6.5-3.9 5.9-6.4 12.3-8.3 19-.4 1.7 0 2.4 2 3.4zm12-19.6c-.7 1.1-1.3 2-1.9 2.9-3.3 5.9-5.5 12.2-7.2 18.7-.6 2.2-.3 3.9 1.6 5.7 2.1-9.3 4.7-18 9.8-25.9-.8-.5-1.4-.9-2.3-1.4zm39.6 6.7c-7.1-4.2-14.7-7.4-22.2-10.7-10.1-4.5-19.3-10.3-27-18.4-.4-.4-.9-.7-1.5-1.1-.8 2.7-.8 3 .9 4.7 5.1 5.1 10.8 9.5 17.3 12.8 6.2 3.2 12.7 6.1 19.1 9 9.9 4.6 19.4 9.8 27.3 17.5.3.3.6.5 1.2.9.8-1.9.6-3.2-.8-4.4-4.3-4-9.2-7.3-14.3-10.3zm-34.8-2.7c-.4.6-.8 1.2-1.1 1.8-4.5 8.1-6.9 16.8-8.5 25.9-.4 2 .7 3.7 1.9 5.9 1.8-12 4.3-23.2 10.7-33.2-.9-.5-1.6-.8-2.5-1.2-.1.3-.3.5-.5.8zm7.9 18.3c.5-4.3 1.1-8.6 1.7-12.8.3-2.4.2-2.4-2.4-2.9-.2.8-.4 1.5-.5 2.3-.9 8-1.8 16-2.5 24.1-.9 10.2 0 20.3 1.7 30.3.7 4 1.6 7.9 2.7 11.7h3.1c-5.1-17.3-5.9-34.9-3.8-52.7zm44.8 1.7c-.3.1-.5.1-.6.2-.2.3-.5.6-.7 1-3.3 5.7-7.9 10.2-13.4 13.8-4.6 3-9.6 5-14.8 6.7-1.9.6-2 1-1 3 .2 0 .5.1.7 0 .5-.1.9-.2 1.4-.3 4.9-1.5 9.6-3.5 14-6.2 5.2-3.2 9.8-7.1 13.4-12.1 1.4-2 1.3-3.9 1-6.1zm-7.7 17.7c-6.2 4.9-13.4 8.1-21 10.3-2.1.6-2.2.9-1.1 3.1.5-.1 1.1-.1 1.6-.3 8.2-2.4 15.9-5.9 22.7-11.2 2.1-1.6 3.6-3.4 3.4-6.6-.6.4-1 .7-1.4 1-1.4 1.3-2.8 2.5-4.2 3.7zm-17.6 18.8c7.2-2.1 13.9-5.1 20.1-9.3 1.6-1.1 2.1-2.4 1.6-4.3-4 2.3-7.8 4.8-11.9 6.7-4.1 2-8.5 3.4-12.8 5.1 1 2.1 1.3 2.3 3 1.8zm-2.1 3.2c-.3-.2-.6-.4-1.1-.7.2 2.8 1.1 4.7 3.2 6.3 3.3 2.4 6.8 4.2 10.5 5.6h10.9c-.3-.1-.7-.2-1.2-.3-8.5-1.5-16-4.9-22.3-10.9zm105.2 9.3c-.2-.3-.4-.7-.6-1.2-1 1.6-1.4 2.3-1.3 3.1h3.2c-.5-.6-.9-1.3-1.3-1.9zM321.1 78.3c-.3-.7-.4-1.3-.7-1.8-5.8-11.7-8.5-24-8.6-37 0-3.2-.7-6.3-1.8-9.4-2.1-5.9-5.5-11-9.5-15.7C296 9.1 291 4.3 285.8-.1h-4.6c3.1 2.5 6.1 5.1 9 7.8 5.7 5.3 10.8 11.1 14.6 18 2.2 3.9 3.7 8 4 12.4.2 2.9.3 5.9.4 8.9.6 10.2 3.4 19.8 7.6 29.1 1 1.7 2.3 2.3 4.3 2.2zm121.1 82.6c-6.1 4.5-11.5 9.8-16 16-.4.5-.6 1.1-.9 1.7.5.3.8.6 1.1.7.3.2.7.2 1.3.4 5.4-7.7 12.1-13.9 19.8-19.3-2-.8-3.6-.7-5.3.5z"/><path d="M371.7 147.2c.2 3.7.7 4.8 2.8 6.8 2.7 2.6 5.4 5.2 8.2 7.7 9.5 8.7 19.6 16.7 30.6 23.4 13 7.9 26.8 13.4 42.1 14.9 16.2 1.6 29.6 9.1 40.6 21 8 8.6 13.9 18.5 18.5 29.3.5 1.1 1 2.1 1.6 3.4.9-.5 1.5-.9 2.4-1.4-.7-1.8-1.4-3.4-2.1-5-6.1-13.8-14.3-26-26.1-35.7-10-8.2-21.5-13.2-34.4-14.5-11.2-1.1-21.8-4.2-31.7-9.4-5.1-2.7-10.1-5.6-14.9-8.7-11.3-7.4-21.6-16.2-31.2-25.7-2.2-2-4.2-4-6.4-6.1z"/><path d="M432 161.1c-4.1 3.7-7.7 7.9-11 12.3-.5.6-.8 1.3-1.3 2.1.8.5 1.4.8 2.3 1.3 4.5-6.1 9.3-11.6 15.6-16.6-2.4-.7-4-.5-5.6.9z"/><path d="M387 153.3c-2.4-2.3-5.1-3.5-8.4-4.4.1.4.1.6.2.7 2 1.9 3.9 3.8 5.9 5.6 10.6 9.8 21.8 18.8 34.3 26.1 9 5.2 18.5 9.5 28.9 11.3 3.5.6 7.1.9 10.7 1.4 17.7 2.7 32.1 11.4 43.7 24.8 7.6 8.7 13.4 18.5 17.9 29.1.3.8.7 1.5 1.1 2.3 2.4-.9 2.5-1.1 1.7-3.1-6.2-14.6-14.5-27.8-26.5-38.3-11.5-10.1-24.8-16.2-40.1-17.9-6-.7-11.9-1.7-17.6-3.6-8.9-3.1-17.1-7.5-25-12.6-9.5-6.3-18.4-13.5-26.8-21.4zm-57.8-73.7l-.3-.9c-7.3-12.3-10.7-25.7-10.8-40 0-3.1-.7-6.2-1.6-9.2-2-6.9-5.8-12.8-10.3-18.3-3.4-4.1-7-7.9-10.9-11.5h-4.4c.4.4.9.8 1.3 1.2 6 5.4 11.4 11.2 15.9 17.9 4.6 7 7.3 14.5 7.2 23-.1 5.8.8 11.6 2.3 17.3 1.7 6.6 4.2 12.9 7.5 18.9 1.1 2.1 1.9 2.3 4.1 1.6zm35.3 1.6c1.4-2.4 2.9-4.8 4-7.3 3.2-7 4.7-14.4 5.6-21.9.1-.9 0-1.8 0-2.8-2.5-.1-2.6 0-2.8 1.9-.2 1.3-.3 2.7-.5 4-1.4 9.2-4 18.1-9.6 25.8-.3.4-.5.8-.8 1.4 2.8.8 3 .8 4.1-1.1zm-7-1c1.1-1.4 2.1-2.8 3-4.3 4.5-7.6 6.4-15.9 7.4-24.6 0-.4-.1-.8-.2-1.1-2.3-.3-2.4-.3-2.7 1.5-.8 3.8-1.4 7.7-2.4 11.5-1.4 5.6-3.8 10.8-7.6 15.3-.8 1-1.7 1.9-2.7 3 3.2.8 3.6.7 5.2-1.3zm15.2-33.6c6.9-1.1 13.8-1.9 20.7-2.8 2.1-.3 2.2-.5 2.3-2.9-.5 0-.9-.1-1.4-.1-4.5.5-9.1 1-13.6 1.6-5.9.8-11.7 2-17.6 2.5-11.6 1-23-.5-33.9-4.7-.7-.3-1.3-.4-2.2-.7-.2 2.7-.2 2.8 1.8 3.6 7.2 2.7 14.6 4.3 22.2 4.7 7.3.6 14.5 0 21.7-1.2z"/><path d="M337.2 80.9c-.1-.4-.1-.6-.2-.7-.1-.3-.3-.6-.5-.8-8.3-12.2-12.3-25.7-12.2-40.5 0-1.3-.1-2.6-.3-3.8-.9-7.3-3.7-13.9-7.6-20-3.5-5.6-7.7-10.6-12.2-15.2h-4.1c5 4.8 9.5 10 13.3 15.8 3.9 6 6.9 12.5 7.7 19.7.4 3.6.4 7.2.6 10.8.8 11.9 4.8 22.8 11 32.9 1.2 1.6 2.6 2.1 4.5 1.8zm93.7 100.2c2.3 1.5 2.3 1.5 3.7-.2 4.2-5.3 9-9.9 14.6-13.7.6-.4 1.1-.9 1.9-1.5-.5-.7-1-1.4-1.6-2.2-7.4 4.8-13.6 10.5-18.6 17.6zm98.3 78.3c1.8-1.1 1.9-1.6 1-3.8-11.9 6.6-23.4 13.9-33.5 23.8l1.9 1.9c1.4-1.2 2.2-2 3.2-2.7 4.6-3.6 9-7.4 13.8-10.7 4.4-3.1 9.1-5.7 13.6-8.5zm-44.5 3.3c0-.3-.2-.6-.3-1.1-2.1 2.3-2.5 4.7-1.2 7.3.5 1.1.9 2.2 1.4 3.3 1.8 3.7 4.4 6.9 7.3 9.7h4.6c-1-.9-2-1.7-3-2.6-4.9-4.4-8-9.9-8.8-16.6zm-141.7-6c-.1 2.5.1 2.8 2.1 2.7 1.2-.1 2.3-.3 3.7-.4-.1-.9-.1-1.7-.2-2.7-2.1.2-3.9.3-5.6.4zm136.9 14.4c-1.5 1.8-1.4 3.4-.3 5.3 1.1 1.9 2.4 3.8 3.7 5.5h3.9c-2.8-3.1-5.1-6.5-6.8-10.5 0-.1-.3-.1-.5-.3zm8.4-22.2c2.3-4.1 4.5-8.3 6.6-12.5 1-2.1.9-2.1-1.1-4.1-.3.6-.6.9-.8 1.4-2.6 5.9-5.8 11.6-9.3 17.1-4.5 7.1-8.5 14.5-11.6 22.3-1.1 2.9-2.1 5.9-2.9 8.9h2.9c1.4-5.2 3.4-10.2 5.9-15.1 3.2-6.2 6.9-12 10.3-18zm43.1-1.2c-13.9 7.8-27.4 15.7-38.8 27.1.6.7 1.1 1.3 1.7 2.1.8-.7 1.5-1.2 2.1-1.8 4.7-4.3 9.6-8.4 15-11.8 5.9-3.8 11.9-7.4 18-11 1.7-1.2 2.3-2.4 2-4.6zm-80.5-87.5c0 .2 0 .5.1.7.3.6.6 1.1 1 1.7 2.8 4.3 6.2 7.9 10.1 11.1 4.2 3.5 8.8 6.3 13.8 8.7 6.2 3 10.2 7.9 11.9 14.5.5 1.9 1.5 2.9 3.4 3.3 0-.4.2-.7.1-1-1.3-6.5-3.9-12.4-9.4-16.4-2.2-1.6-4.6-2.8-7-4.1-8.1-4.3-15.2-9.8-20.3-17.5-1.2-1.7-1.5-1.7-3.7-1z"/><path d="M457.7 159.8c.5.7.9 1.3 1.4 1.9 3.2 4.1 7.1 7.6 11.5 10.4 3.3 2.1 6.8 3.8 10.2 5.8 4.7 2.7 8.3 6.5 10.7 11.3 2 3.9 3 8.1 3.6 12.4.2 1.7 1.2 2.5 2.7 3 .1-.3.3-.5.3-.7V202c-.6-4.6-1.6-9.1-3.6-13.4-2.7-5.7-6.8-10.2-12.4-13.3-1.3-.7-2.5-1.3-3.8-2-6.3-3.2-11.9-7.4-16.5-12.9-1.3-1.5-1.8-1.5-4.1-.6z"/><path d="M482.5 168.5c-4.9-2.4-9.5-5.3-13.4-9.2-1.2-1.2-2.4-1.3-4.1-.3.7.8 1.2 1.4 1.8 2 4.2 4.4 9.3 7.5 14.7 10.2 4.4 2.2 8.3 5 11.5 8.9 5.4 6.6 7.8 14.4 8.5 22.7l.3 4.5c.1 1.5 1.1 2.5 2.6 3.2.1-4.3.1-8.2-.6-12.2-2.2-13.4-8.8-23.7-21.3-29.8zM268.9 194c-8.7 1.5-15.5 5.6-19.1 14-.9 2.1-.3 3.6 1.2 5.4 1.4-4.9 3.4-9.1 7.3-12.1s8.5-4.2 13.5-4.9c-.7-1.7-1.2-2.7-2.9-2.4zM261.1 4.8c1.8 8.4 6 15.5 12.1 21.4 2.5 2.5 5.1 4.8 7.8 7.1 5.5 4.8 11.2 9.4 15.8 15 .2.3.6.5.9.7 1.6-2 1.7-2.3.1-3.9-3.1-3.1-6.2-6.2-9.5-9.2-4.9-4.6-10-9-14.8-13.7-4.2-4.1-7.1-9.1-8.6-14.8-.7-2.6-1.3-5.1-1.9-7.7h-2.9c.3 1.8.7 3.5 1 5.1zm72.5 4.6c1.3 1.5 2.7 2 4.7 1.3-.4-.6-.6-1-.9-1.3-3-3.2-6-6.5-9.1-9.6h-4.1c3.4 3 6.5 6.2 9.4 9.6z"/><path d="M322.3 15.8c7.5 1 14.9 1.3 22.4.5 8.5-1 16.6-3.1 24.5-6.3 2-.8 2.8-2.5 3.5-4.5-8.6 3.8-17.5 6.5-26.8 7.8-9.3 1.2-18.6.6-28-1.1.6 2.5 2.2 3.3 4.4 3.6zm-36.3-8c-2.1 5.3-5.8 9.5-9.8 13.7.6.7 1.1 1.2 1.8 1.9 4.3-3.9 7.7-8 9.9-13 .6-1.3.3-1.8-1.9-2.6zm-5.1-4.5c-1.5 5.4-5 9.5-8.9 13.5.6.7 1.1 1.3 1.7 1.9.5-.4 1-.6 1.3-1 3.2-3.2 5.9-6.7 7.7-10.9 1-2.1.8-2.4-1.8-3.5zm1.4 24.7c4.4-4 7.7-8.1 10.2-12.7.8-1.5.5-2-1.7-2.9-2.5 5.1-6.1 9.4-10.4 13.7.7.6 1.2 1.1 1.9 1.9zm42.7-5.6c1 .1 2.1.1 3.1.2 12.5 1.2 24.7-.6 36.7-4.4 2.1-.7 2.4-1.2 2.6-3.9-14.7 5.3-29.7 7.2-45.3 4.9.7 2.8.8 3 2.9 3.2zm10.9 4.2c3.5 1.6 6.6 2.3 9.3 2.1 6-.6 11.8-1.7 17.6-3.4 1.9-.5 2-.8 2-3.3-4.8 1-9.4 2.3-14.2 3.1-4.7.7-9.6 1-14.7 1.5zm25.6-19.8c2.6-.4 3-.7 2.6-2.9-.3-1.4-.6-2.7-.9-4.1h-2.8c.3.9.5 1.8.7 2.8.1 1.3.2 2.7.4 4.2zm6.1-2.4c2.6-.4 2.7-.6 2.4-2.7-.1-.6-.2-1.3-.3-1.9h-2.9c.4 1.5.6 3 .8 4.6zm34-4.2c.4-.1.9-.2 1.3-.3H394c-11.3 5.1-18.2 14.3-21.1 27-.1.4-.1.8-.1 1.3 2.6.1 2.6.1 3.2-1.8.1-.5.2-.9.4-1.4 3.7-13 12.2-21.3 25.2-24.8zm-135 141.5c-.3.3-.6.5-.8.8-4.2 5.1-8.5 10.2-12.6 15.4-8.9 11.1-16.9 22.7-22.7 35.7-5.8 13-9.1 26.4-7.4 40.8.9 7.3 2.6 14.3 7.8 20 .1.1.2.3.3.4.3.4.7.7 1 1-.2-1.2-.6-2.2-1.1-3.2-4.3-9.8-6.3-20-5.4-30.6.9-10.5 4-20.4 8.6-29.8 5.4-11.2 12.4-21.5 20.1-31.2 4.2-5.3 8.5-10.4 12.8-15.6 1.3-1.8 1.3-1.9-.6-3.7zm-.9-29.3c.5 9.8 3.6 18.6 9.8 26.3 2.9 3.5 5.9 7 8.3 10.8 5.5 8.5 6.1 17.3.7 26.2-1.1 1.8-1 1.9.8 3.6.2-.2.5-.4.7-.6 4-5.6 5.9-11.9 4.9-18.8-.9-6.3-3.9-11.6-7.8-16.5-2.1-2.5-4.2-5.1-6.2-7.6-5.2-6.6-7.8-14.3-8.3-22.6-.4-6 .7-11.8 2.1-17.6 1-4.4 1.6-8.8.9-13.3-.3-2.3-.6-2.5-3.1-2.6 0 .4 0 .8.1 1.2.9 5.2.3 10.4-1 15.4-1.3 5.3-2.1 10.6-1.9 16.1z"/><path d="M279.8 154.8c2.5 4.8 3.2 9.7.9 14.8-.7 1.6-.1 2.7 1.1 4 2-2.9 2.9-5.9 3.1-9.1.4-6-2-11.1-5.6-15.7-2.1-2.7-4.3-5.4-6.5-8-8.6-10.7-11.7-22.9-10.2-36.4.4-3.8 1.4-7.5 2.2-11.3.9-4.3 1-8.5.1-12.9-.5-2.2-1.6-3.4-4-3.6.1.4 0 .7.1.9 1.7 4.2 2.1 8.5 1.3 13-.5 2.8-1.1 5.5-1.7 8.2-2 9.6-1.7 19.1 1.4 28.4 2.1 6.4 5.5 12 9.9 17.2 2.9 3.2 5.9 6.5 7.9 10.5zm96.9-118.1c-4.8.6-9.5 1.7-14.2 2-11.8.9-23.1-.8-34-5.5-.7-.3-1.4-.5-2.2-.8-.1 3-.1 3 2.3 3.9 12.7 5.2 25.8 6.6 39.3 4.6 9.5-1.4 18.9-3.1 28.5-3.7 1.7-.1 1.9-.4 2.5-2.9-.9 0-1.8-.1-2.6 0-6.6.9-13.1 1.6-19.6 2.4zM265.1 188.4c-7.4 1.8-13.7 5.3-18.1 11.7-1.3 1.9-1.3 2.5.4 4.9 4.3-8.3 11.4-12.5 20.4-14.3-1-2.6-1.1-2.7-2.7-2.3z"/><path d="M272.8 102c-2.3 12.4.1 23.6 8.2 33.5 3 3.6 6 7.1 8.4 11 7.2 11.5 7 23.1-.8 34.4-.4.6-.8 1.2-1.3 1.9.5.6.9 1.2 1.5 2 .5-.4.9-.7 1.2-1 5.6-7.2 8.3-15.3 7.2-24.4-.9-7.1-4-13.3-8.4-18.8-2.1-2.7-4.3-5.3-6.5-8-4.7-5.8-7-12.5-7.5-19.9-.4-5.7 1.1-11.1 2.1-16.6.7-3.7.9-7.4 1.1-11.2.1-2.2-.3-2.4-3-3 0 2.8.3 5.5-.1 8.1-.4 4-1.4 8-2.1 12zm130.3-73.8c-.8-.1-1.3-.2-1.8-.2-10.5.3-20.9 1.6-31.2 3.4-7.1 1.3-14.3 1.7-21.5.8-8-.9-15.4-3.4-22.6-7-.5-.3-1.1-.4-1.7-.6 0 2.3 1 3.5 2.9 4.4 12.9 6 26.3 7.9 40.2 5.7 10.7-1.7 21.5-3.5 32.4-3.7 1.8 0 2.6-.9 3.3-2.8zM541.9 7.6c.3.9.7 1.7 1 2.6 2.4-1.1 2.6-1.3 1.8-3.3-1-2.4-2-4.8-3.1-7.1h-3c1.3 2.5 2.3 5.1 3.3 7.8zm5.2-4.1c.3.8.7 1.6 1 2.4 2.4-1.3 2.5-1.4 1.6-3.6-.3-.9-.7-1.7-1-2.5h-3.2c.5 1.3 1.1 2.5 1.6 3.7zM347.2 262.6c-1.2 0-2.3.2-3.4.4-.3 2.5-.2 2.7 1.6 2.6 1.3 0 2.5-.2 3.9-.3.1-2.6 0-2.7-2.1-2.7zm-50.5-70.7c4-1.6 7.5-3.9 10.8-6.5 1.9-1.5 2.6-3.3 2.1-6.2-4.7 5.3-10.1 8.7-16.3 11 1.4 2.3 1.5 2.4 3.4 1.7zm35-30.7c5.8 4.4 11.4 9 17.3 13.4 5.4 4.1 9.1 9.1 10 16 .2 1.8.5 2 2.9 2.2-.1-1.4-.1-2.7-.3-4-1.3-6.8-4.9-12-10.3-16.2-6.5-5-12.9-10-19.3-15-.6-.5-1.2-.9-2.1-1.6-.2 2.3.2 3.9 1.8 5.2z"/><path d="M357.9 174.3c4.7 5.2 7.4 11.3 7.3 18.5 0 2.3.1 2.3 2.5 2.8.1-.4.3-.6.3-.8.1-.6.1-1.1.1-1.7.2-6.7-1.9-12.7-5.9-18.1-2.2-3-4.8-5.5-7.8-7.7-9.1-6.5-17.8-13.6-26.2-21-.7-.6-1.2-1.5-2.5-1.5.7 2.3 1.3 4.4 3.2 5.9 8 6.3 15.9 12.6 23.8 19 1.9 1.4 3.7 2.9 5.2 4.6zm-56.6 22.4c1.9-1 3.7-2.1 5.6-3.1 1.8-1 2.1-2.6 1.9-4.5-3.7 2.1-7.2 4.2-10.9 6.3 1.4 2 1.6 2.2 3.4 1.3zm8.3-28.5c-.4.5-.7.7-.8 1-3.3 6.2-8 10.8-14.4 13.8-1.6.8-2.5 2.2-3.3 4 .4 0 .7.1.9 0 7-2.4 12.8-6.4 17-12.6 1.3-1.9 1-3.8.6-6.2zm59.3 53.8c.2-2.3.2-2.5-2.4-3.2-.2.8-.3 1.4-.4 2-.7 6.6-1.4 13.2-2 19.8-.8 8.7-.2 17.4 1.3 26 .9 5.2 2.3 10.3 4 15.2h3.1c-4.3-11.8-6.1-24.1-5.7-36.7.3-7.6 1.3-15.3 2.1-23.1zm-25.2 48.7c.1.8.5 1.2 1.3 1.1 1.8-.1 3.6-.2 5.6-.4-.1-2.3-.2-2.6-1.3-2.6-1.5 0-3 .1-4.5.3-1 .1-1.2.9-1.1 1.6zm32.7 10.7c-.4-.2-.9-.3-1.5-.5.1.4.2.7.2 1h2.2c-.3-.1-.6-.3-.9-.5z"/><path d="M393.6 234c.2.3.6.4.9.5 1.6-2 1.6-2 .1-3.7-4.6-4.8-9.9-8.5-15.6-11.8-6.9-4-14.2-7.1-21.4-10.3-9.5-4.2-18.3-9.5-25.9-16.7-.3-.3-.7-.5-1.1-.8-1.2 2.6-1.2 2.8.7 4.4 6.7 5.8 14 10.6 22.1 14.3 4.6 2.1 9.2 4.1 13.8 6.2 9.7 4.6 19 9.8 26.4 17.9zm-33.3-17.9c-.2.6-.4 1.2-.5 1.8-.4 2.7-.8 5.4-1.1 8.1-1.5 12-1.8 24-.4 36.1.8 6.9 2.3 13.5 4.3 19.9h3.2c-3.7-11.4-5.5-23.5-5.4-36.1.1-8.9.9-17.7 2.2-26.5.4-2.6.2-2.8-2.3-3.3zm6-187.7c-.1.3 0 .6.1.9 2.5.1 2.6 0 3.1-2.3 1.3-6.2 3.5-12 7.2-17.1 2.9-4.1 6.4-7.4 10.4-10h-4.9c-9 7.1-13.9 16.9-15.9 28.5zm157.4-6.5c1.9.8 3.3.5 4.9-1.2-1-.4-1.9-.8-2.8-1.1-11.5-4.5-21.3-11.2-29.9-19.7h-4l3 3c8.3 8.2 17.9 14.5 28.8 19zM373.5 1.7c2.1-.6 2.6-.8 2.5-1.9h-2.9c.2.7.3 1.3.4 1.9zm164 12.4c2.4-.9 2.5-1.1 1.9-3.1-.7-2.1-1.4-4.1-2.2-6.1-.7-1.7-1.6-3.4-2.4-5.1h-3.3c2.2 3.7 3.8 7.6 5.1 11.6l.9 2.7zM306.2 59c1-2.3.9-4.6.7-6.9-.2-.1-.4-.1-.6-.2-1.4 3.1-2.9 6.2-4.1 9.4-5.4 13.3-8.7 27.1-7.6 41.6.6 7.4 2.4 14.5 5.5 21.2 2.4 5.2 5.8 9.7 9 14.4 9.2 13.5 12.3 28.4 10.7 44.5-.9 8.5-3.1 16.6-6.2 24.6-.8 2.2-.8 2.2 1.6 3.6.4-.8.7-1.6 1-2.4 3.2-8.3 5.6-16.8 6.5-25.7 1-10.4.2-20.6-3.2-30.5-2.5-7.4-6.6-14-11.2-20.3-9.6-13.3-12.5-28.1-10.5-44.1 1.2-10.3 4.2-19.9 8.4-29.2zm228.6-42.8c-1-.4-2-.7-2.9-1-10.1-3.3-19-8.5-26.9-15.3h-4.3c2.6 2.4 5.2 4.6 8.1 6.7 6.7 4.9 14 8.6 21.9 11.2 2.2.7 2.6.5 4.1-1.6zM268.1 29.9c3.3 3.2 6.7 6.4 10.2 9.4 5.5 4.8 11.2 9.6 15.7 15.5.2.2.5.4.8.7 1.5-2.4 1.6-2.5.1-4.2-1.8-2-3.5-4.1-5.5-6-5.1-4.7-10.4-9.2-15.6-13.9-7.1-6.4-12.6-13.8-15.2-23.1-.8-2.8-1.5-5.7-2-8.5h-2.9c.5 2.6 1.1 5.2 1.8 7.8 2.1 8.6 6.3 16.1 12.6 22.3z"/><path d="M288.3 103.4c.5 6.2 1.8 12.2 3.9 18 2.6 7.3 6.8 13.7 11.3 20 8.8 12.4 11.7 26.3 10 41.2-.8 7.2-2.6 14.1-5.1 20.9-.7 2-.7 2 1.7 3.5.4-.9.7-1.6 1-2.4 2.6-7 4.5-14.2 5.3-21.6 1.2-11.3 0-22.3-4.6-32.9-2.3-5.3-5.6-10.1-8.9-14.7-8.1-11.2-11.8-23.9-11.9-37.6-.1-12.4 2.6-24.3 7.3-35.7 2.3-5.7 5.1-11.2 7.8-16.7.9-1.9.9-3.7.2-6-.7 1.2-1.3 1.9-1.7 2.8-2.8 5.7-5.8 11.2-8.2 17-6 14.2-9.3 28.8-8.1 44.2zm60.4-95.2c1.4 1.9 1.4 1.9 4 .7-.6-.8-1-1.5-1.4-2.1-1.8-2.4-3.6-4.7-5.6-7h-3.8c2.3 2.7 4.6 5.5 6.8 8.4zm-6.9 1.3c1.5 1.7 1.7 1.8 4 .7-.5-.7-.9-1.3-1.3-1.9-1-1.3-2-2.5-3-3.7-1.3-1.6-2.7-3.1-4.1-4.6h-4.2c2.9 3 5.7 6.3 8.6 9.5z"/></g></svg>